<?xml version="1.0" encoding="UTF-8"?>
<svg id="Layer_1" data-name="Layer 1" xmlns="http://www.w3.org/2000/svg" viewBox="0 0 216.03 300">
  <defs>
    <style>
      .cls-1 {
        fill: #d39e4e;
      }

      .cls-2 {
        fill: #606060;
      }

      .cls-3 {
        fill: #535551;
      }

      .cls-4 {
        fill: #1a1a1a;
      }

      .cls-5 {
        fill: #b3b3b3;
      }

      .cls-6 {
        fill: #333531;
      }
    </style>
  </defs>
  <rect class="cls-4" x="214" y="33.94" width="1.04" height="6.47"/>
  <path class="cls-3" d="M113.4,16.39c.85,0,1.53-.69,1.53-1.54s-.69-1.53-1.53-1.53-1.53.69-1.53,1.53.69,1.54,1.53,1.54Z"/>
  <path class="cls-3" d="M106.12,16.39c.85,0,1.53-.69,1.53-1.54s-.69-1.53-1.53-1.53-1.53.69-1.53,1.53.69,1.54,1.53,1.54Z"/>
  <path class="cls-3" d="M121.39,156.91c0,.27-.22.5-.5.5h-27.17c-.27,0-.5-.22-.5-.5v-4.96h-4.49l-.26.05h-41.87v9.27h84.09l-.04-8.82-.06-.16-.11-.11-.23-.12-.24-.05h-4.39s-.35-.05-.35-.05h-3.89v4.96Z"/>
  <circle class="cls-3" cx="211.04" cy="37.17" r=".56"/>
  <path class="cls-3" d="M120.68,16.39c.85,0,1.53-.69,1.53-1.54s-.69-1.53-1.53-1.53-1.53.69-1.53,1.53.69,1.54,1.53,1.54Z"/>
  <path class="cls-3" d="M98.84,16.39c.85,0,1.54-.69,1.54-1.54s-.69-1.53-1.54-1.53-1.53.69-1.53,1.53.69,1.54,1.53,1.54Z"/>
  <path class="cls-3" d="M91.57,16.39c.85,0,1.54-.69,1.54-1.54s-.69-1.53-1.54-1.53-1.53.69-1.53,1.53.69,1.54,1.53,1.54Z"/>
  <path class="cls-3" d="M84.29,16.39c.85,0,1.53-.69,1.53-1.54s-.69-1.53-1.53-1.53-1.54.69-1.54,1.53.69,1.54,1.54,1.54Z"/>
  <circle class="cls-3" cx="53" cy="290.12" r=".81"/>
  <path class="cls-3" d="M2.05,279.01l.18,1.44.24,1.48.35,1.37.46,1.38.58,1.39.64,1.27.76,1.27.86,1.2.94,1.17.98,1.03,1.05.99,1.15.92,1.23.88,1.26.74,1.27.63,1.39.58,1.39.46,1.38.34,1.43.23,1.48.18,1.44.05h22.46s.41-.05.41-.05l.46-.14.41-.18.39-.26.29-.29.26-.39.18-.41.14-.45.14-1.41h19.08l.14,1.41.14.45.18.41.26.39.31.31.32.24.91.32.52.05h122.04s1.48-.06,1.48-.06l1.44-.18,1.48-.24,1.44-.35,1.37-.46,1.31-.57,1.36-.65,1.21-.72,2.36-1.83,1.11-1,.97-1.03.92-1.15.8-1.2.76-1.29.63-1.27.58-1.39.46-1.39.34-1.38.28-1.41.12-1.46.06-1.48V38.37c-.27.22-.61.35-.98.35-.86,0-1.56-.7-1.56-1.56s.7-1.56,1.56-1.56c.37,0,.71.14.98.35v-13.5l-.06-1.48-.11-1.42-.29-1.46-.35-1.41-.46-1.38-.58-1.39-.64-1.27-.76-1.27-.82-1.23-.92-1.14-.98-1.03-1.09-.97-2.31-1.79-1.29-.76-1.32-.63-1.36-.59-1.33-.44-1.48-.35-1.44-.23-1.48-.18-1.44-.05H22.46s-1.48.06-1.48.06l-1.44.18-1.48.24-1.37.35-1.38.46-1.39.58-1.27.64-1.27.76-1.2.86-1.17.94-1.03.98-.99,1.05-.92,1.15-.88,1.23-.74,1.26-.63,1.27-.58,1.39-.46,1.39-.34,1.38-.23,1.43-.18,1.48-.05,1.44v255.04s.06,1.48.06,1.48ZM6.91,125.39c-1.39,0-2.53-1.13-2.53-2.53s1.13-2.53,2.53-2.53,2.53,1.13,2.53,2.53-1.13,2.53-2.53,2.53ZM6.91,69.39c1.39,0,2.53,1.13,2.53,2.53s-1.13,2.53-2.53,2.53-2.53-1.13-2.53-2.53,1.13-2.53,2.53-2.53ZM4.38,64.64c0-1.39,1.13-2.53,2.53-2.53s2.53,1.13,2.53,2.53-1.13,2.53-2.53,2.53-2.53-1.13-2.53-2.53ZM6.91,76.67c1.39,0,2.53,1.13,2.53,2.53s-1.13,2.53-2.53,2.53-2.53-1.13-2.53-2.53,1.13-2.53,2.53-2.53ZM6.91,83.95c1.39,0,2.53,1.13,2.53,2.53s-1.13,2.53-2.53,2.53-2.53-1.13-2.53-2.53,1.13-2.53,2.53-2.53ZM6.91,91.22c1.39,0,2.53,1.13,2.53,2.53s-1.13,2.53-2.53,2.53-2.53-1.13-2.53-2.53,1.13-2.53,2.53-2.53ZM6.91,98.5c1.39,0,2.53,1.13,2.53,2.53s-1.13,2.53-2.53,2.53-2.53-1.13-2.53-2.53,1.13-2.53,2.53-2.53ZM6.91,105.78c1.39,0,2.53,1.13,2.53,2.53s-1.13,2.53-2.53,2.53-2.53-1.13-2.53-2.53,1.13-2.53,2.53-2.53ZM6.91,113.06c1.39,0,2.53,1.13,2.53,2.53s-1.13,2.53-2.53,2.53-2.53-1.13-2.53-2.53,1.13-2.53,2.53-2.53ZM23.95,292.17c-2.4,0-4.35-1.95-4.35-4.35s1.95-4.35,4.35-4.35,4.35,1.95,4.35,4.35-1.95,4.35-4.35,4.35ZM53,291.92c-.99,0-1.8-.81-1.8-1.8s.81-1.8,1.8-1.8,1.8.81,1.8,1.8-.81,1.8-1.8,1.8ZM96.58,291.3l-.1.5-.26.55-.49.53-.62.31-.65.07-.78-.28-.53-.37-.3-.6-.17-.65.02-1.94.06-.24.31-.71.49-.46.65-.29.57-.07.81.22.53.37.34.7.14.61v1.76ZM121.33,291.3l-.23.97-.59.63-.65.29-.66.07-.71-.28-.56-.44-.37-.68-.06-.42v-2.22s.32-.75.32-.75l.49-.46.65-.29.57-.07.81.22.53.37.34.7.14.61v1.76ZM190.18,292.17c-2.4,0-4.35-1.95-4.35-4.35s1.95-4.35,4.35-4.35,4.35,1.95,4.35,4.35-1.95,4.35-4.35,4.35ZM207.16,125.39c-1.39,0-2.53-1.13-2.53-2.53s1.13-2.53,2.53-2.53,2.53,1.13,2.53,2.53-1.13,2.53-2.53,2.53ZM207.16,118.11c-1.39,0-2.53-1.13-2.53-2.53s1.13-2.53,2.53-2.53,2.53,1.13,2.53,2.53-1.13,2.53-2.53,2.53ZM207.16,110.83c-1.39,0-2.53-1.13-2.53-2.53s1.13-2.53,2.53-2.53,2.53,1.13,2.53,2.53-1.13,2.53-2.53,2.53ZM207.16,103.56c-1.39,0-2.53-1.13-2.53-2.53s1.13-2.53,2.53-2.53,2.53,1.13,2.53,2.53-1.13,2.53-2.53,2.53ZM207.16,96.28c-1.39,0-2.53-1.13-2.53-2.53s1.13-2.53,2.53-2.53,2.53,1.13,2.53,2.53-1.13,2.53-2.53,2.53ZM207.16,89c-1.39,0-2.53-1.13-2.53-2.53s1.13-2.53,2.53-2.53,2.53,1.13,2.53,2.53-1.13,2.53-2.53,2.53ZM207.16,81.72c-1.39,0-2.53-1.13-2.53-2.53s1.13-2.53,2.53-2.53,2.53,1.13,2.53,2.53-1.13,2.53-2.53,2.53ZM207.16,74.45c-1.39,0-2.53-1.13-2.53-2.53s1.13-2.53,2.53-2.53,2.53,1.13,2.53,2.53-1.13,2.53-2.53,2.53ZM207.16,67.17c-1.39,0-2.53-1.13-2.53-2.53s1.13-2.53,2.53-2.53,2.53,1.13,2.53,2.53-1.13,2.53-2.53,2.53ZM209.93,54.65v5.54h-5.54v-5.54h5.54ZM203.16,35.61c.86,0,1.56.7,1.56,1.56s-.7,1.56-1.56,1.56-1.56-.7-1.56-1.56.7-1.56,1.56-1.56ZM190.18,8.74c4.87,0,8.84,3.96,8.84,8.84s-3.96,8.84-8.84,8.84-8.84-3.96-8.84-8.84,3.96-8.84,8.84-8.84ZM139.68,12.58c0-.27.22-.5.5-.5h4.61c.27,0,.5.22.5.5v4.61c0,.27-.22.5-.5.5h-4.61c-.27,0-.5-.22-.5-.5v-4.61ZM135.23,12.32c1.39,0,2.53,1.13,2.53,2.53s-1.13,2.53-2.53,2.53-2.53-1.13-2.53-2.53,1.13-2.53,2.53-2.53ZM127.96,12.32c1.39,0,2.53,1.13,2.53,2.53s-1.13,2.53-2.53,2.53-2.53-1.13-2.53-2.53,1.13-2.53,2.53-2.53ZM120.68,12.32c1.39,0,2.53,1.13,2.53,2.53s-1.13,2.53-2.53,2.53-2.53-1.13-2.53-2.53,1.13-2.53,2.53-2.53ZM113.4,12.32c1.39,0,2.53,1.13,2.53,2.53s-1.13,2.53-2.53,2.53-2.53-1.13-2.53-2.53,1.13-2.53,2.53-2.53ZM106.12,12.32c1.39,0,2.53,1.13,2.53,2.53s-1.13,2.53-2.53,2.53-2.53-1.13-2.53-2.53,1.13-2.53,2.53-2.53ZM98.84,12.32c1.39,0,2.53,1.13,2.53,2.53s-1.13,2.53-2.53,2.53-2.53-1.13-2.53-2.53,1.13-2.53,2.53-2.53ZM91.57,12.32c1.39,0,2.53,1.13,2.53,2.53s-1.13,2.53-2.53,2.53-2.53-1.13-2.53-2.53,1.13-2.53,2.53-2.53ZM84.29,12.32c1.39,0,2.53,1.13,2.53,2.53s-1.13,2.53-2.53,2.53-2.53-1.13-2.53-2.53,1.13-2.53,2.53-2.53ZM77.01,12.32c1.39,0,2.53,1.13,2.53,2.53s-1.13,2.53-2.53,2.53-2.53-1.13-2.53-2.53,1.13-2.53,2.53-2.53ZM38.59,10.45h8.07v8.07h-8.07v-8.07ZM23.95,8.74c4.87,0,8.84,3.96,8.84,8.84s-3.96,8.84-8.84,8.84-8.84-3.96-8.84-8.84,3.96-8.84,8.84-8.84ZM20.02,161.27v-9.32h-2.72c-.27,0-.5-.22-.5-.5V28.77c0-.27.22-.5.5-.5h179.94c.27,0,.5.22.5.5v122.69c0,.27-.22.5-.5.5h-65.71l.07.17s.02.07.03.1l.06.36v8.68h73.75v97.3h-8.01v11.57l-.06.71-.13.66-.27.69-.32.64-.41.56s-.04.05-.07.08l-.97.85s-.07.05-.1.07l-.61.3-.64.26-.69.15-.72.07h-13.14s0,0,0,0h-.2l-.05-.05-.93.05-1.13.12-1.13.18-1.1.29-1.06.35-12.56,4.49-1,.25-2,.25-1.06.06h-20.64v.26l-.08.13-.12.18-.24.26s-.08.07-.13.09l-.24.12s-.07.03-.1.04l-.24.06s-.08.02-.12.02h-4.91s-.08,0-.12-.02l-.24-.06c-.06-.01-.11-.04-.15-.07l-.18-.12-.26-.24-.18-.26s-.05-.1-.07-.15l-.06-.23h-44.3l-.04.21s0,0,0,0l-.03.15-.1.1s0,0,0,0h0s-.18.18-.18.18l-.3.23-.32.17s-.08.03-.13.04l-.3.06h-4.16s-.4-.06-.4-.06c-.04,0-.09-.02-.13-.04l-.24-.12-.55-.46s0-.02-.02-.03l-.09-.08-.07-.35h-6.38l-.65.23-.62.52-.2.3-.14.35-.15.78v1.26s-.06.55-.06.55l-.14.5s-.03.08-.05.11l-.5.82c-.04.05-.08.1-.14.14l-.82.5s-.07.04-.11.05l-.42.12-.56.08h-1.95s-1.07.78-1.07.78l-.28.14s-.08.03-.13.04l-.3.06h-.4s-.19,0-.19,0c.58.3.98.9.98,1.6,0,.99-.81,1.8-1.8,1.8s-1.8-.81-1.8-1.8c0-.7.4-1.3.98-1.6h-1.28c-.06,0-.13-.01-.18-.04l-.61-.24s-.08-.04-.11-.06l-.84-.63h-2.2l-.55-.06h0s-.49-.14-.49-.14c-.04-.01-.07-.03-.11-.05l-.42-.24s-.07-.05-.1-.08l-.64-.7-.27-.41s-.05-.1-.07-.16l-.19-.96v-2.56s-.11-.49-.11-.49l-.15-.44-.54-.86-.79-.68-.37-.23-.49-.16-10.25-3.33s-.06-.04-.09-.06l-.92-.3-2.01-.35-1.06-.12h-14.26s-.71-.06-.71-.06l-.66-.13-.69-.27-.6-.33-.61-.47-.02-.02-.9-.96s-.05-.07-.07-.1l-.3-.61-.39-1.29s-.02-.09-.02-.14v-12.24h-7.63l-.06-.12s-.03-.01-.04-.02c-.13-.07-.22-.2-.25-.34-.05-.08-.09-.17-.09-.27v-95.82c0-.05.01-.1.03-.15,0,0,0-.01,0-.02.01-.03.03-.06.05-.09.01-.02.01-.04.03-.05,0,0,0-.01.01-.02v-.35h.35l.27-.06h10.72ZM4.07,54.65h5.6v5.54h-5.6v-5.54Z"/>
  <circle class="cls-3" cx="61.55" cy="290.12" r=".81"/>
  <path class="cls-3" d="M77.01,16.39c.85,0,1.53-.69,1.53-1.54s-.69-1.53-1.53-1.53-1.53.69-1.53,1.53.69,1.54,1.53,1.54Z"/>
  <path class="cls-3" d="M127.96,16.39c.85,0,1.53-.69,1.53-1.54s-.69-1.53-1.53-1.53-1.54.69-1.54,1.53.69,1.54,1.54,1.54Z"/>
  <path class="cls-3" d="M135.23,16.39c.85,0,1.54-.69,1.54-1.54s-.69-1.53-1.54-1.53-1.53.69-1.53,1.53.69,1.54,1.53,1.54Z"/>
  <path class="cls-3" d="M144.29,13.07h-3.62v3.62h3.62v-3.62ZM142.51,15.86c-.56,0-1.01-.45-1.01-1.01s.45-1.01,1.01-1.01,1.01.45,1.01,1.01-.45,1.01-1.01,1.01Z"/>
  <circle class="cls-3" cx="203.16" cy="37.17" r=".56"/>
  <path d="M.07,279.17l.19,1.55.26,1.6.38,1.53.51,1.52.63,1.52.7,1.39.84,1.41.94,1.32,1.02,1.27,1.07,1.13,1.15,1.08,1.26,1,1.35.96,1.39.82,1.4.7,1.52.63,1.53.51,1.54.38,1.56.25,1.59.19,1.56.06h22.6s.61-.07.61-.07l.79-.22.66-.29.69-.45.58-.55.49-.7.32-.69.19-.62h7.13v1.9l.91.82h2.93l.91-.82v-1.9h3.68l.15.51.29.66.45.69.55.58.59.46.92.4.61.18.89.1h122.18s1.59-.07,1.59-.07l1.56-.19,1.59-.26,1.6-.39,1.54-.52,1.43-.62,1.47-.71,1.33-.79,1.33-.99,1.25-1.01,1.21-1.09,1.09-1.15,1.02-1.28.88-1.32.82-1.4.7-1.4.63-1.52.51-1.53.37-1.5.3-1.52.14-1.67.06-1.56V41.39s1.53,0,1.53,0c.27,0,.5-.22.5-.5v-7.46c0-.27-.22-.5-.5-.5h-1.53v-10.52l-.06-1.56-.12-1.52-.33-1.68-.39-1.53-.51-1.52-.63-1.52-.7-1.39-.82-1.38-.9-1.34-1.02-1.27-1.09-1.15-1.19-1.07-2.45-1.9-1.5-.89-1.43-.68-1.48-.64-1.46-.49-1.67-.4-1.55-.25-1.59-.19-1.56-.06H22.42s-1.59.07-1.59.07l-1.55.19-1.6.26-1.53.39-1.52.51-1.52.63-1.4.7-1.41.84-1.32.94-1.27,1.02-1.13,1.07-1.08,1.15-1,1.26-.96,1.35-.82,1.4-.7,1.4-.63,1.52-.51,1.53-.38,1.54-.25,1.55-.19,1.6-.06,1.56v255.12s.07,1.6.07,1.6ZM2.04,21.06l.18-1.48.23-1.43.34-1.38.46-1.39.58-1.39.63-1.27.74-1.26.88-1.23.92-1.15.99-1.05,1.03-.98,1.17-.94,1.2-.86,1.27-.76,1.27-.64,1.39-.58,1.38-.46,1.37-.35,1.48-.24,1.44-.18,1.48-.06h169.04s1.44.05,1.44.05l1.48.18,1.44.23,1.48.35,1.33.44,1.36.59,1.32.63,1.29.76,2.31,1.79,1.09.97.98,1.03.92,1.14.82,1.23.76,1.27.64,1.27.58,1.39.46,1.38.35,1.41.29,1.46.11,1.42.06,1.48v13.5c-.27-.22-.61-.35-.98-.35-.86,0-1.56.7-1.56,1.56s.7,1.56,1.56,1.56c.37,0,.71-.14.98-.35v239.13s-.06,1.48-.06,1.48l-.12,1.46-.28,1.41-.34,1.38-.46,1.39-.58,1.39-.63,1.27-.76,1.29-.8,1.2-.92,1.15-.97,1.03-1.11,1-2.36,1.83-1.21.72-1.36.65-1.31.57-1.37.46-1.44.35-1.48.24-1.44.18-1.48.06h-122.04s-.52-.05-.52-.05l-.91-.32-.32-.24-.31-.31-.26-.39-.18-.41-.14-.45-.14-1.41h-19.08l-.14,1.41-.14.45-.18.41-.26.39-.29.29-.39.26-.41.18-.46.14-.41.04h-22.46s-1.44-.05-1.44-.05l-1.48-.18-1.43-.23-1.38-.34-1.39-.46-1.39-.58-1.27-.63-1.26-.74-1.23-.88-1.15-.92-1.05-.99-.98-1.03-.94-1.17-.86-1.2-.76-1.27-.64-1.27-.58-1.39-.46-1.38-.35-1.37-.24-1.48-.18-1.44-.06-1.48V22.5s.05-1.44.05-1.44ZM211.6,37.17c0,.31-.25.56-.56.56s-.56-.25-.56-.56.25-.56.56-.56.56.25.56.56ZM60.29,297.88l-.3.27h-2.17l-.3-.27v-1.47h2.77v1.47ZM215.04,40.4h-1.04v-6.47h1.04v6.47Z"/>
  <path class="cls-6" d="M185.98,256.93c-.26,4.28-1.98,8.33-4.9,11.48l-.08.11-.07.06s-.04.05-.06.07c-.01.01-.03.02-.05.03l-1.95,1.84-1.15.85-1.68,1-2.26,1.01-.97.26-.45.17-1.45.32-1.94.25h-.55s-1.46,0-1.46,0H44.9l-1.94-.25-.54-.13-.43-.05-.5-.14-.91-.3-.47-.12-1.39-.56-2.56-1.43-.44-.35-.35-.19-1.16-.96-2-2.13-.91-1.15-1.26-2.13-.93-2.23-.63-2.36-.06-.48c-.16-.82-.28-1.66-.33-2.5H9.68v.64h7.95v13.16l.34,1.14.24.47.79.84.5.38.48.26.55.22.52.1.62.05h14.27s1.15.12,1.15.12l2.09.37,1.08.32s0,0,0,0l.36.1v.07l.26.09,10.2,3.32s.07.03.11.05l.49.3.91.77s.07.07.1.11l.61.97s.04.07.05.11l.18.55.13.6s.01.07.01.11v2.55l.15.7.47.62.22.22.32.18.37.1.41.05h2.3s0,0,0,0h.17s1.05.79,1.05.79l.46.18,3.43-.03.47-.26.8-.63s0,0,0,0l.13-.11h2.23l.71-.14.63-.38.38-.62.1-.37.05-.41v-1.27s.06-.49.06-.49l.13-.54.21-.5.29-.44s.06-.08.1-.11l.73-.61s.08-.06.12-.07l.42-.18.48-.14s.09-.02.14-.02h7.35l.08.86.36.25.25.05,4.09-.04.38-.25.08-.37v-.44l.5-.06h45.68l.03.9.2.22.13.03,4.92-.03.22-.16v-.96h21.6l1-.06,1.91-.24.91-.23.94-.3,12.67-4.55,1.18-.31,1.2-.19,1.18-.12,1.18-.06s0,0,0,0h.22s.07.06.07.06h12.89l.62-.06.55-.11,1.03-.47.88-.77.33-.44.48-1.1.1-.52.05-.62v-12.02s0,0,0,0v-.5h8.01v-.64h-18.46Z"/>
  <path class="cls-6" d="M126.14,266.62c-.8,2-2.7,3.36-4.87,3.45-.08.05-.16.08-.25.08h-28.2c-.1,0-.18-.04-.26-.09-2.15-.12-4.03-1.48-4.81-3.47l-11.92,6.81h62.18l-11.87-6.78Z"/>
  <path class="cls-6" d="M49.69,273.4h1.1s.02-.05.03-.07c0,0,0,0,0,0v-16.4h-7.4l1.1.8s.07.06.1.1l1.49,1.92.27.44s.05.07.06.11l.1.24.14.19s.05.07.06.11l.34.85.14.19s.05.07.06.11l.24.61.18.61.25.69.43,1.6.18.59.13.72.17.55.13.65.54,4.04s.02.08.02.12l.05.61s.01.08.01.12l.05.47Z"/>
  <path class="cls-6" d="M164.13,273.29l.05-.36v-.24s0-.08.01-.12l.05-.37v-.24s0-.08.02-.12l.05-.18v-.24s0-.08.01-.12l.05-.18v-.24l.13-.7v-.15s.18-1.01.18-1.01v-.21s.36-1.98.36-1.98l.38-1.32.11-.61s.02-.06.03-.1l1.11-3.07.29-.57.12-.3s.04-.08.06-.11l.14-.19.1-.24s.04-.08.06-.11l.92-1.44c.03-.07.08-.13.15-.18l.19-.14.5-.61s.06-.07.1-.1l.97-.8h-7.1c-.04.08-.1.14-.17.18v16.2s.04.06.06.09h1.07s0-.07.01-.11Z"/>
  <path class="cls-6" d="M161.84,273.31s.1-.08.16-.11v-16.01c-.06-.02-.11-.06-.16-.11-.05-.05-.08-.1-.1-.16h-12.24c-.06.1-.15.18-.26.22-.05.03-.1.06-.14.07l-.15.04-.16.12-.49.25-2.22,2.32-.1.24s-.04.08-.06.11l-.76,1.29-.91,2.24-.05.31s-.02.07-.03.1l-.28.82-.37,1.32-.6,3.11v.21s-.24,1.55-.24,1.55v.14s-.06.4-.06.4v.39s0,.08,0,.12l-.05.36s0,.08-.01.12l-.05.37v.23h19.28s.04-.07.06-.1Z"/>
  <path class="cls-6" d="M9.86,208.21h16.28c-.03-.06-.05-.12-.05-.17l-.05-1.28s-.01-.08-.01-.12l-.05-.67s-.02-.08-.02-.12v-.61l-.05-.21-.12-1.35-.12-.67v-.45s-1.38-5.91-1.38-5.91l-.12-.36-.16-.3-.73-1.82-1.28-2.1-1.29-1.32s-.09-.06-.13-.09l-.29-.21s-.09-.06-.13-.09l-.11-.09-.72-.4c-.07-.02-.14-.07-.19-.12-.02-.02-.03-.04-.04-.06-.03-.03-.05-.06-.08-.09h-9.16v18.59Z"/>
  <path class="cls-6" d="M9.68,162.26v26.36h97.2s.01,0,.02,0c.02,0,.05,0,.07.01.01,0,.02,0,.03,0,.04-.01.08-.02.12-.02h97.32v-26.36H9.68ZM97.48,168.07l.11-.64.21-.37.3-.67.85-1.05,1.04-.73,1.07-.39,11.46.02.58.19.25.12.3.12,1.04.79.97,1.41.33,1.07-.03,11.86-.36,1.09-.55.85-.79.8-.92.54-1.49.39-10.67-.08-1.12-.37-.93-.61-1.09-1.29-.45-1.07-.03-.27-.09-.34v-11.4Z"/>
  <path class="cls-6" d="M141.5,272.93s0-.08.01-.12l.05-.37s0-.08.01-.12l.05-.36v-.24l.07-.4v-.15s.12-.7.12-.7v-.21s0-.08,0-.12l.12-.52v-.21s.6-3.24.6-3.24l.73-2.54s.02-.07.03-.1l.97-2.37.91-1.64s.04-.08.06-.11l1.74-1.99.6-.49h-7.07s-.03.09-.07.13c-.02.02-.05.03-.07.04v16.3h1.13v-.47Z"/>
  <path class="cls-6" d="M48.43,208.2s0,0,0,0h16.83v-.21c-.04-.07-.06-.14-.06-.21v-1.15l-.05-.21-.37-3.78-.73-3.76-.1-.29-.08-.51-1.47-3.91-1.28-2.1-1.29-1.32s-.09-.06-.13-.09l-.23-.18c-.07-.02-.14-.07-.19-.12l-.11-.09-.72-.4c-.07-.02-.14-.07-.19-.12-.03-.03-.04-.06-.06-.1-.02-.02-.03-.04-.05-.06h-9.71v18.59Z"/>
  <path class="cls-6" d="M79.57,189.64s.09.06.13.09l.29.21s.09.06.13.09l1.55,1.74,1.19,1.93s.03.06.05.1l.12.36.15.3.85,2.18s.04.1.05.15l.06.42.35,1.09.07.42.1.29.08.51.1.28.62,3.7.24,2.71s.02.08.02.12l.05.85s.01.08.01.12v.9h.77v-18.59h-7.02l.04.03Z"/>
  <path class="cls-6" d="M67.96,208.2s0,0,0,0h16.82l-.04-1.02s-.01-.08-.01-.12l-.05-.85s-.02-.08-.02-.12v-.55l-.05-.21-.18-1.94-.55-3.35-.1-.29-.08-.51-.1-.28-.19-.81-.24-.71-.07-.43-.15-.29-.98-2.56-1.76-2.63-.8-.78-.42-.3s-.09-.06-.13-.09l-.11-.06c-.07-.02-.14-.07-.19-.12l-.11-.06c-.07-.02-.14-.07-.19-.12l-.18-.11c-.17-.03-.32-.15-.4-.29h-9.73v18.59Z"/>
  <path class="cls-6" d="M87.55,208.2s0,0,0,0h16.82l-.03-.56c-.02-.05-.03-.1-.03-.16v-.85l-.05-.21-.37-3.77-.37-2.25-.1-.28-.26-1.23-.1-.29-.08-.51-1.47-3.91-1.28-2.09-1.29-1.32s-.09-.06-.13-.09l-.23-.18c-.07-.02-.14-.06-.19-.12l-.12-.09-.3-.18s-.09-.06-.13-.09l-.22-.11c-.1-.02-.2-.07-.26-.13-.03-.03-.04-.06-.06-.1-.02-.02-.03-.04-.05-.06h-9.71v18.59Z"/>
  <path class="cls-6" d="M107.62,189.62v18.59h1.01v-.53c0-.05,0-.11.03-.16l.03-.21v-.67l.07-.4v-.39s.06-.4.06-.4v-.21s.06-.4.06-.4v-.21s.06-.44.06-.44v-.22s.12-.76.12-.76v-.27s.42-2.68.42-2.68l.51-1.97.04-.34.75-2.33,1.74-3.49.42-.61s.05-.07.07-.1l.91-1.03.42-.36s.08-.07.13-.09l.11-.09.12-.12c.05-.05.12-.1.19-.12h0s-7.29,0-7.29,0c0,0,0,0,0,0Z"/>
  <path class="cls-6" d="M20.86,189.64l.42.3s.09.05.13.09l1.34,1.4s.05.06.07.1l1.53,2.58,1.24,3.4.19.81.12.34.75,3.83.06.73.12.67.17,2.08s.02.08.02.12l.05.67s.01.08.01.12v1.01c.04.07.06.14.06.21v.11h.7v-18.59h-7.02l.04.03Z"/>
  <path class="cls-6" d="M116.69,189.71l-.06.06c-.08.08-.18.13-.28.14l-.2.1s-.08.07-.13.09l-.42.27c-.05.05-.12.1-.19.12l-.11.06-.12.12s-.08.07-.13.09l-.11.09-.12.12-.26.18-.79.92-.15.25-.79,1.21-1.23,2.75-.61,1.88-.04.34-.51,1.97-.41,2.53v.28s-.12.75-.12.75v.22s-.06.44-.06.44v.22s-.06.4-.06.4v.21s-.06.4-.06.4v.39s-.06.4-.06.4v.75c0,.05,0,.11-.02.16l-.03.15v.41h16.81s.01-.02.02-.02v-18.58h-9.7s-.03.07-.06.1Z"/>
  <path class="cls-6" d="M59.98,189.62c.07.02.14.07.19.12l.23.21s.09.06.13.09l1.33,1.39s.05.06.07.1l1.53,2.58,1.36,3.76.08.51.1.28.81,4.2.06.65.06.38.25,3.76c.04.07.06.14.06.21v.35h.71v-18.59h-6.99,0Z"/>
  <path class="cls-6" d="M40.45,189.64s.09.06.13.09l.23.18c.07.02.14.07.19.12l1.55,1.74,1.03,1.66,1.79,4.88.07.42.1.29.08.51.1.28.56,3.41.06.67.06.29.18,2.04s.01.08.01.12l.05.85s.02.08.02.12v.9h.77v-18.59h-7.03l.05.03Z"/>
  <path class="cls-6" d="M28.84,208.2s0,0,0,0h16.82l-.04-1.02s-.02-.08-.02-.12l-.05-.85s-.01-.08-.01-.12v-.55l-.05-.21-.12-1.27-.06-.38-.06-.67-.49-2.97-.1-.29-.08-.51-.1-.28-.19-.81-.84-2.59-.16-.3-.3-.73-.65-1.3-.2-.25-1.03-1.45-.8-.75c-.07-.02-.14-.07-.19-.12l-.23-.21-.3-.18s-.09-.06-.13-.09l-.11-.06c-.07-.02-.14-.07-.19-.12l-.24-.12c-.14-.05-.27-.15-.34-.28h-9.74v18.59Z"/>
  <path class="cls-6" d="M135.89,189.92l-.16.1c-.05.05-.12.1-.19.12l-.11.06c-.05.05-.12.1-.19.12l-.11.06s-.08.07-.13.09l-.54.39-1.36,1.54-.14.25-.61.91-1.05,2.39-.24.73-.17.35-.05.35-.57,1.97-.04.34-.18.74-.55,3.29v.27s-.06.4-.06.4v.27s-.06.4-.06.4v.21s-.06.4-.06.4v.45s0,.08,0,.12l-.05.18v.67s0,.08-.02.12l-.04,1.02h16.81s.01-.02.02-.02v-18.58h-9.72c-.07.17-.24.29-.44.3Z"/>
  <path class="cls-6" d="M99.09,189.62c.07.02.14.07.19.12l.23.21s.09.06.13.09l1.33,1.39s.06.06.08.1l1.53,2.58,1.36,3.76.08.51.1.28.26,1.23.1.29.44,2.68.06.65.06.38.28,3.62c.02.05.03.1.03.16v.53h1.01v-18.59s0,0,0,0h-7.29,0Z"/>
  <path class="cls-6" d="M65.26,252.83c-.03-.07-.05-.14-.05-.22l-.05-1.27s-.02-.08-.02-.12v-.55l-.05-.21-.19-1.89-.06-.36-.06-.67-.3-1.88-.1-.29-.14-.88-.1-.28-.26-1.23-.99-2.9-.16-.26s-.03-.06-.05-.1l-.12-.36-1.01-1.85-.2-.2s-.05-.06-.07-.1l-.39-.55-1.29-1.26-.3-.18s-.09-.06-.13-.09l-.11-.06c-.07-.02-.14-.06-.19-.12l-.11-.06-.3-.12c-.11-.04-.19-.12-.25-.21-.02-.02-.04-.05-.06-.07h-9.71v18.54s.04.03.07.05h16.77v-.25Z"/>
  <path class="cls-6" d="M167.33,252.19s0-.08.02-.12l.05-.36v-.49s0-.08.01-.12l.05-.18v-.55s0-.08.02-.12l.05-.18v-.24l.07-.45v-.22s.12-.75.12-.75v-.28s.73-4.15.73-4.15l.14-.44.04-.34.99-3.12.79-1.76s.03-.07.05-.1l1-1.56.4-.56s.05-.07.08-.1l1.09-1.09.3-.24s.08-.07.13-.09l.11-.09s0,0,0,0h-6.98v18.6h.77v-.9Z"/>
  <path class="cls-6" d="M84.75,252.06s-.01-.08-.01-.12l-.05-.85s-.02-.08-.02-.12l-.05-.73s-.01-.08-.01-.12v-.3l-.05-.28-.12-1.33-1.32-6.29-.15-.3-1.15-2.91-.92-1.44-1.77-1.86s-.09-.06-.13-.09l-.11-.09-.84-.46c-.07-.02-.14-.06-.19-.12-.03-.03-.04-.06-.06-.1-.02-.02-.03-.04-.05-.06h-9.77v18.55s.04.03.06.04h16.77l-.04-1.02Z"/>
  <path class="cls-6" d="M66.96,234.49h-6.95l.15.09s.09.06.13.09l1.61,1.68.19.3.2.2s.05.06.07.1l1.11,2.03.13.37.16.26s.03.06.05.1l.12.36.15.3.75,2.37.26,1.23.1.29.14.86.1.29.38,2.32.06.67.06.36.23,2.57s.02.08.02.12v1.05c.04.07.06.14.06.22v.35h.71v-18.6Z"/>
  <path class="cls-6" d="M9.86,230.65h16.28c-.03-.06-.05-.12-.05-.17l-.05-1.34s-.01-.08-.01-.12v-.49l-.05-.21-.18-2.2-.12-.67v-.44s-1.26-5.54-1.26-5.54l-.24-.73-.16-.3-.73-1.82-1.52-2.4-1.17-1.14-.42-.3s-.09-.06-.13-.09l-.11-.06-.61-.3c-.1-.03-.17-.1-.23-.18-.03-.03-.06-.06-.08-.09h-9.16v18.6Z"/>
  <path class="cls-6" d="M194.93,189.71l-.06.06c-.05.05-.12.09-.19.12l-.84.49s-.08.07-.13.09l-.29.21s-.08.07-.13.09l-.11.09-1.17,1.23-.15.25-.79,1.21-.92,2.02-.12.36-.3.73-.36,1.15-.04.29-.97,4.55v.28s-.18,1.11-.18,1.11v.22s-.06.45-.06.45v.22s-.06.4-.06.4v.51s0,.08,0,.12l-.05.36v.3s0,.08-.01.12l-.05.31v.91c0,.07-.02.15-.05.23h16.28v-18.59h-9.16s-.03.07-.06.1Z"/>
  <path class="cls-6" d="M104.35,252.53c-.02-.05-.03-.1-.03-.16l-.05-1.03s-.01-.08-.01-.12v-.55l-.05-.21-.19-1.9-.06-.36-.06-.67-.36-2.24-.1-.29-.08-.51-.1-.28-.49-1.96-.49-1.52-.15-.28-.13-.37-.16-.26s-.03-.06-.05-.1l-.12-.36-1.01-1.85-.2-.2s-.05-.06-.07-.1l-.39-.55-.21-.2-1.08-1.06-.3-.18s-.09-.06-.13-.09l-.11-.06c-.07-.02-.14-.06-.19-.12l-.11-.09-.3-.12s-.09-.06-.13-.09h0s-.03-.03-.05-.05c-.05-.03-.09-.06-.13-.11h-9.71v18.54s.05.03.07.05h16.76l-.03-.56Z"/>
  <path class="cls-6" d="M26.14,253.08c-.03-.07-.05-.15-.05-.22l-.05-1.28s-.01-.08-.01-.12v-.49l-.05-.21-.18-2.2-.12-.65-.06-.74-.24-1.52-.1-.29-.14-.88-.1-.28-.19-.81-.12-.34-.19-.81-.77-2.17-.15-.26s-.03-.06-.05-.1l-.12-.36-1.01-1.85-.2-.2s-.05-.06-.07-.1l-.39-.55-1.29-1.23c-.07-.02-.14-.07-.19-.12l-.11-.09s-.09-.06-.13-.09l-.11-.06c-.07-.02-.14-.07-.19-.12l-.11-.06-.3-.12c-.1-.03-.17-.1-.23-.18-.03-.03-.06-.06-.08-.09h-9.16v18.6h16.28,0Z"/>
  <path class="cls-6" d="M47.44,253.09v-18.6h-6.98s0,0,0,0l.11.09s.09.06.13.09l1.39,1.33s.05.06.07.1l1.39,2.12s.03.06.05.1l.12.36.64,1.33,1,3.1.08.51.1.28.74,4.12.06.75.06.29.12,1.19s.02.08.02.12l.05.73s.01.08.01.12l.05.85s.02.08.02.12v.9h.77Z"/>
  <path class="cls-6" d="M108.63,252.61c0-.05,0-.17.03-.22l.03-.21v-.73s0-.08.02-.12l.05-.36v-.3l.07-.4v-.15s.06-.4.06-.4v-.27s.06-.4.06-.4v-.21s.12-.81.12-.81v-.22s.42-2.69.42-2.69l.14-.44.04-.34,1.11-3.89.31-.75s.03-.07.05-.1l.15-.26.1-.31,1.14-2.1s.05-.07.07-.1l.2-.2.15-.25.98-1.13.67-.61s.08-.07.13-.09l.14-.09h-7.24v18.6h1.01v-.47Z"/>
  <path class="cls-6" d="M99.13,234.49l.15.09s.09.06.13.09l1.61,1.68.19.3.2.2s.05.06.07.1l1.11,2.04.13.37.16.26s.03.06.05.1l.12.36.16.3.75,2.37.26,1.23.1.29.08.51.1.28.44,2.68.06.67.06.36.23,2.57s.01.08.01.12l.03.93c.02.05.03.1.03.16v.53h1.01v-18.6h-7.26Z"/>
  <path class="cls-6" d="M27.85,253.09v-18.6h-6.98s0,0,0,0l.11.06c.07.02.14.07.19.12l1.61,1.68.19.3.2.2s.05.06.07.1l1.11,2.03.13.38.16.26s.03.06.05.1l.92,2.69.07.42.23.73.07.42.1.29.14.86.1.29.32,1.95.06.65.12.74.23,2.81s.01.08.01.12v1.05c.04.07.06.15.06.22v.11h.7Z"/>
  <path class="cls-6" d="M60.28,212.26s.09.06.13.09l1.49,1.56,1.57,2.64,1.36,3.76.26,1.23.1.29.14.86.1.29.38,2.32.06.65.06.38.17,1.78s.01.08.01.12l.05.67s.02.08.02.12v1.07c.04.07.06.14.06.21v.35h.71v-18.6h-6.98l.3.21Z"/>
  <path class="cls-6" d="M45.63,252.07s-.02-.08-.02-.12l-.05-.85s-.01-.08-.01-.12l-.05-.73s-.02-.08-.02-.12v-.3l-.05-.28-.06-.59-.06-.38-.06-.65-.67-3.78-.1-.29-.08-.51-1.72-4.65-1.33-2.02-1.35-1.26s-.09-.06-.13-.09l-.11-.06c-.07-.02-.14-.07-.19-.12l-.11-.09-.61-.3s-.09-.06-.13-.1c-.02-.02-.03-.04-.04-.06-.03-.03-.06-.06-.08-.1h-9.76v18.55s.04.03.06.04h16.77l-.04-1.02Z"/>
  <path class="cls-6" d="M86.55,234.49h-6.98s0,0,0,0l.11.09.8.7.73.73s.05.06.07.1l.58.81.23.29s.04.06.06.09l.73,1.33,1.15,2.91s.04.09.05.14l.17.73.24.71.08.51.1.28.81,4.5.07,1.05.05.28.05.51s.01.08.01.12l.05.73s.02.08.02.12l.05.85s.01.08.01.12v.9h.77v-18.6Z"/>
  <path class="cls-6" d="M40.46,212.05l.23.21.68.58.73.73s.05.06.07.1l1.41,2.22,1.79,4.8.08.51.1.28.75,4.2.06.67.06.29.18,2.04s.01.08.01.12l.05.85s.02.08.02.12v.9h.77v-18.6h-6.98s0,0,0,0Z"/>
  <path class="cls-6" d="M204.14,234.49h-9.17c-.03.05-.06.11-.11.14-.05.06-.12.11-.19.13l-.41.18c-.05.05-.12.1-.19.12l-.11.06s-.08.07-.13.09l-.11.09c-.05.05-.12.1-.19.12l-.11.06-1.42,1.48-.14.25s-.05.07-.07.1l-.2.2-1.04,1.91-.1.3s-.03.07-.04.1l-.15.26-.89,2.6-.05.31-.44,1.59-.1.71-.18.73-.24,1.52v.28s-.18,1.11-.18,1.11v.22s-.06.4-.06.4v.27s-.06.4-.06.4v.45s-.06.4-.06.4v.39s0,.08,0,.12l-.05.37v.79c0,.08-.02.28-.05.34h0s16.28,0,16.28,0v-18.6Z"/>
  <path class="cls-6" d="M146.05,253.03v-18.54h-9.76s-.03.07-.06.1l-.06.06c-.05.05-.12.09-.19.12l-.96.55s-.08.07-.13.09l-.3.21-1.05,1.05-.15.25-.67.86-1.4,2.98-.24.79-.17.36-.05.29-.38,1.23-.04.34-.37,1.53-.55,3.27v.28s-.06.4-.06.4v.21s-.06.44-.06.44v.22s0,.08,0,.12l-.05.18v.55s0,.08-.01.12l-.05.37v.49s0,.08-.02.12l-.04,1.02h16.77s.04-.04.07-.05Z"/>
  <path class="cls-6" d="M186.86,253.04c0-.08.02-.21.05-.28v-.02s0-1.03,0-1.03c0-.04,0-.08.01-.12l.05-.37v-.24l.07-.4v-.45s.06-.4.06-.4v-.27s.06-.4.06-.4v-.21s.18-1.13.18-1.13v-.27s.3-1.96.3-1.96l.18-.73.06-.41.99-3.48.42-1.15s.03-.07.05-.1l.15-.26.11-.31,1.14-2.1s.05-.07.07-.1l.2-.2.15-.25,1.65-1.73c.05-.05.12-.1.19-.12l.11-.06s0,0,0,0h-6.98v18.6h.7v-.05Z"/>
  <path class="cls-6" d="M185.16,253.03v-18.54h-9.76s-.03.07-.06.1l-.06.06s-.08.07-.13.09l-.72.39c-.05.05-.12.09-.19.12l-.11.06s-.08.07-.13.09l-.42.33-.93.93-.15.25-1.19,1.77-.1.31-.79,1.76-.85,2.67-.04.34-.37,1.53-.49,2.93v.27s-.12.76-.12.76v.21s-.06.45-.06.45v.22s0,.08,0,.12l-.05.18v.55s0,.08-.01.12l-.05.37v.49s0,.08-.02.12l-.04,1.02h16.77s.04-.04.07-.05Z"/>
  <path class="cls-6" d="M165.57,253.05v-18.56h-9.72c-.03.05-.06.1-.11.14-.05.06-.12.11-.19.14l-.41.18c-.05.05-.12.1-.19.12l-.11.06s-.08.07-.13.09l-.42.27-1.42,1.48-.14.25s-.05.07-.08.1l-.2.2-1.04,1.92-.09.3s-.03.07-.05.1l-.15.26-.1.31-.21.43-1.65,7.08v.22s-.12.81-.12.81v.22s-.06.4-.06.4v.27s-.06.4-.06.4v.15s-.06.4-.06.4v.45s0,.08,0,.12l-.05.37v.85c0,.08-.02.21-.05.28v.02s0,.23,0,.23h16.79s.03-.02.04-.03Z"/>
  <path class="cls-6" d="M147.74,252.86c0-.08.02-.28.05-.34v-.02s0-1.03,0-1.03c0-.04,0-.08.01-.12l.05-.37v-.3l.07-.4v-.14s.06-.4.06-.4v-.27s.06-.4.06-.4v-.21s.12-.81.12-.81v-.22s.36-2.33.36-2.33l.18-.73.06-.41,1.11-3.89.31-.75s.03-.07.05-.1l.15-.26.1-.31,1.14-2.1s.05-.07.08-.1l.2-.2.15-.25,1.65-1.73s.08-.07.13-.09l.14-.09h-6.94v18.6h.7v-.23Z"/>
  <path class="cls-6" d="M128.22,230.65v-.9s0-.08.02-.12l.05-.36v-.49s0-.08.01-.12l.05-.18v-.49l.07-.4v-.21s.06-.4.06-.4v-.27s.06-.4.06-.4v-.27s.78-4.51.78-4.51l.14-.44.04-.34.43-1.53s.02-.1.05-.14l.28-.66.24-.73.61-1.46s.03-.07.05-.1l.73-1.27.85-1.21s.05-.07.07-.1l1.21-1.21c.06-.05.12-.1.19-.12l.11-.06.12-.12s0,0,0,0h-6.98v18.6h.77Z"/>
  <path class="cls-6" d="M126.46,253.05v-18.56h-9.72c-.05.1-.13.18-.24.22-.02.01-.04.03-.05.03l-.42.21c-.05.05-.12.1-.19.12l-.11.06s-.08.07-.13.09l-.42.27-.36.36-.26.18-.8.93-.14.25s-.05.07-.07.1l-.2.2-1.04,1.92-.09.3s-.03.07-.05.1l-.15.26-.1.31-.21.43-1.65,7.08v.22s-.12.81-.12.81v.22s-.06.4-.06.4v.27s-.06.4-.06.4v.14s-.06.4-.06.4v.45s0,.08,0,.12l-.05.36v.67c0,.05,0,.11-.03.16l-.03.56h16.78s.03-.02.04-.03Z"/>
  <path class="cls-6" d="M28.84,230.64s0,0,.01.01h16.82l-.04-1.02s-.02-.08-.02-.12l-.05-.85s-.01-.08-.01-.12v-.55l-.05-.21-.12-1.27-.06-.38-.06-.67-.67-3.76-.1-.29-.08-.51-1.89-4.94-1.16-1.73-1.23-1.14s-.09-.06-.13-.09l-.23-.18c-.07-.02-.14-.07-.19-.12l-.11-.09-.12-.03c-.07-.02-.14-.07-.19-.12l-.11-.06-.19-.09s-.09-.06-.13-.1c-.02-.02-.03-.04-.04-.06-.03-.03-.06-.06-.08-.1h-9.76v18.58Z"/>
  <path class="cls-6" d="M20.87,212.05l.29.21s.09.06.13.09l1.49,1.56,1.57,2.64,1.25,3.42.07.42.23.73.07.42.1.29.14.86.1.29.32,1.95.06.73.12.67.23,2.81s.01.08.01.12v1.07c.04.07.06.14.06.21v.11h.7v-18.6h-6.98s0,0,0,0Z"/>
  <path class="cls-6" d="M99.4,212.26s.09.06.13.09l1.49,1.56,1.57,2.64,1.36,3.76.26,1.23.1.29.08.51.1.28.44,2.68.06.65.06.38.17,1.78s.02.08.02.12l.05.67s.01.08.01.12l.03.93c.02.05.03.1.03.16v.53h1.01v-18.59s0,0,0,0h-7.28l.3.21Z"/>
  <path class="cls-6" d="M128.22,252.19s0-.08.02-.12l.05-.36v-.49s0-.08.01-.12l.05-.18v-.55s0-.08.02-.12l.05-.18v-.24l.07-.44v-.22s.06-.4.06-.4v-.27s.6-3.72.6-3.72l.32-1.23.04-.34.43-1.53s.02-.1.05-.14l.28-.66.24-.79,1.36-2.79s.03-.06.06-.09l.81-1.1s.05-.07.07-.1l1.21-1.21.42-.3s0,0,0,0h-6.98v18.6h.77v-.9Z"/>
  <path class="cls-6" d="M107.62,230.65h1.01v-.53c0-.05,0-.11.03-.16l.03-.21v-.73s0-.08.02-.12l.05-.36v-.3s0-.08.01-.12l.05-.18v-.24l.07-.4v-.21s.06-.44.06-.44v-.22s.12-.76.12-.76v-.27s.42-2.69.42-2.69l.14-.44.04-.34,1.11-3.85,1.74-3.49,1.41-1.73.55-.49s.08-.07.13-.09l.29-.21h-7.27s0,0,0,0v18.59Z"/>
  <path class="cls-6" d="M147.74,230.65v-.29c0-.08.02-.19.06-.28v-1.05s0-.08.01-.12l.05-.37v-.3s0-.08.02-.12l.05-.18v-.24l.07-.4v-.21s.06-.45.06-.45v-.22s.12-.76.12-.76v-.27s.36-2.31.36-2.31l.18-.74.06-.41,1.11-3.85,1.74-3.49,1.95-2.22s.08-.07.13-.09l.29-.21h-6.97v18.6h.7Z"/>
  <path class="cls-6" d="M116.49,212.27s-.04.03-.05.03l-.3.15s-.08.07-.13.09l-.29.15s-.08.07-.13.09l-.3.21s-.08.07-.13.09l-.11.09-.24.24-.26.18-.8.93-.14.25-.79,1.21-1.23,2.75-.61,1.88-.04.29-.32,1.23-.04.34-.18.74-.36,2.24v.28s-.12.75-.12.75v.22s-.06.44-.06.44v.22s-.06.4-.06.4v.21s0,.08,0,.12l-.05.18v.49s0,.08-.02.12l-.05.36v.67c0,.05,0,.11-.03.16l-.03.56h16.81s.01-.02.02-.02v-18.58h-9.72c-.05.1-.13.18-.24.22Z"/>
  <path class="cls-6" d="M128.22,208.21v-.9s0-.08.02-.12l.05-.3v-.55s0-.08.01-.12l.05-.37v-.3l.07-.4v-.21s.06-.4.06-.4v-.27s.06-.4.06-.4v-.27s.6-3.72.6-3.72l.14-.44.04-.34.57-1.97.04-.34c0-.05.02-.1.05-.15l.28-.66.24-.73.61-1.46s.03-.07.05-.1l.73-1.27,2.02-2.4s.08-.07.13-.09l.3-.21s.08-.07.13-.09l.04-.03h-7.02v18.59h.77Z"/>
  <path class="cls-6" d="M48.6,272.81s-.01-.08-.01-.12l-.05-.61s-.02-.08-.02-.12v-.24l-.05-.21-.18-1.37s-.01-.08-.01-.12v-.3l-.17-.81-.07-.72-.11-.55-.17-.56-.13-.72-1.22-3.91-.14-.19s-.05-.07-.06-.11l-.34-.85-.14-.19s-.05-.07-.06-.11l-.1-.24-.14-.19-.85-1.27-.14-.13-.55-.66-1.68-1.23-.15-.04c-.09-.02-.17-.07-.23-.13-.04-.04-.08-.1-.12-.16h-12.56l.05.34v.55s.18,1.38.18,1.38c.05.25.08.51.14.76,0,0,0,.01,0,.02l.67,2.31.73,1.76,1.19,2.01.56.66.91,1.15,2.36,2.18.35.19.44.35,2.41,1.35,3.04,1.04.41.05.54.13,1.82.23h1.25s.02,0,.03,0h.01c.25,0,.5,0,.75,0h.01s.02,0,.03,0h1.6s-.04-.6-.04-.6Z"/>
  <path class="cls-6" d="M48.43,230.64s0,0,0,0h16.83v-.21c-.04-.07-.06-.14-.06-.21l-.05-1.33s-.02-.08-.02-.12l-.05-.67s-.01-.08-.01-.12v-.3l-.05-.21-.12-1.35-.06-.29-.06-.74-.3-1.89-.1-.28-.14-.88-.1-.28-.26-1.23-1.47-3.92-1.52-2.4-1.17-1.14s-.09-.06-.13-.09l-.3-.21s-.09-.06-.13-.09l-.11-.06-.61-.3c-.11-.04-.19-.12-.25-.21-.02-.02-.04-.05-.06-.07h-9.71v18.59Z"/>
  <path class="cls-6" d="M147.04,208.21h.7v-.35c0-.08.02-.17.06-.24v-.97l.07-.4v-.39s.06-.4.06-.4v-.21s.06-.4.06-.4v-.21s.06-.45.06-.45v-.22s.12-.76.12-.76v-.27s.36-2.27.36-2.27l.56-2.38.04-.34.75-2.33,1.74-3.49.42-.61s.05-.07.07-.1l1.33-1.39s.08-.07.13-.09l.11-.09.12-.12c.05-.05.12-.1.19-.12h0s-6.99,0-6.99,0v18.59Z"/>
  <path class="cls-6" d="M167.33,208.21v-.9s0-.08.02-.12l.05-.3v-.55s0-.08.01-.12l.05-.37v-.3l.07-.4v-.21s.06-.4.06-.4v-.27s.12-.75.12-.75v-.22s.55-3.42.55-3.42l.14-.44.04-.34,1.17-3.85,1.2-2.52,2.2-2.7c.05-.05.12-.1.19-.12l.11-.06.12-.12s.08-.07.13-.09l.04-.03h-7.03v18.59h.77Z"/>
  <path class="cls-6" d="M87.55,230.64s0,0,0,0h16.82l-.03-.56c-.02-.05-.03-.1-.03-.16l-.05-1.03s-.01-.08-.01-.12l-.05-.67s-.02-.08-.02-.12v-.3l-.05-.21-.13-1.35-.06-.29-.06-.74-.36-2.24-.1-.29-.08-.51-.1-.28-.26-1.23-1.47-3.92-1.52-2.4-.21-.2-.96-.94s-.09-.06-.13-.09l-.29-.21s-.09-.06-.13-.09l-.11-.06-.19-.09s-.09-.06-.13-.09l-.11-.06-.19-.09s-.09-.06-.13-.09h0s-.03-.03-.05-.05c-.05-.03-.09-.06-.13-.11h-9.71v18.59Z"/>
  <path class="cls-6" d="M79.58,212.05l.23.18c.07.02.14.07.19.12l1.21,1.21s.05.06.07.1l1.58,2.49s.03.06.05.1l.12.36.15.3.85,2.18s.04.09.05.14l.17.73.24.71.08.51.1.28.8,4.49.24,2.71s.01.08.01.12l.05.85s.01.08.01.12v.9h.77v-18.6h-6.98s0,0,0,0Z"/>
  <path class="cls-6" d="M67.96,230.65h16.83l-.04-1.02s-.01-.08-.01-.12l-.05-.85s-.01-.08-.01-.12v-.55l-.05-.21-.18-1.94-.73-4.14-.1-.29-.08-.51-.35-1.09-.06-.34-.15-.3-.98-2.56-1.52-2.39-1.16-1.11c-.07-.02-.14-.07-.19-.12l-.23-.21-.42-.22c-.07-.02-.14-.07-.19-.12l-.11-.09-.12-.03c-.07-.02-.14-.06-.19-.12-.03-.03-.04-.06-.06-.1-.02-.02-.03-.04-.05-.06h-9.77v18.6Z"/>
  <path class="cls-6" d="M71.27,272.93l-.05-.61s-.01-.08-.01-.12l-.05-.36s-.02-.08-.02-.12l-.05-.43s-.01-.08-.01-.12v-.3l-.05-.21-.06-.52-.13-.63-.06-.6-.36-1.88-1.67-5.19-.15-.23-.56-1.13-.13-.17-.99-1.4-.19-.14s-.07-.06-.1-.1l-.32-.37-1.43-1.04-.19-.04c-.15-.03-.27-.12-.34-.25-.01-.01-.02-.03-.03-.04h-12.5v16.36s.05.02.07.04c.02.02.04.04.06.07h19.36l-.03-.35s-.02-.08-.02-.12Z"/>
  <path class="cls-6" d="M136.22,212.15l-.06.06c-.05.05-.12.09-.19.12l-.23.12c-.05.05-.12.1-.19.12l-.53.3-.12.12c-.05.05-.12.1-.19.12l-.11.06-1.05,1.05-.15.25-1.03,1.52-1.05,2.39-.24.73-.17.36-.05.29-.38,1.23-.04.34-.37,1.53-.55,3.29v.27s-.06.4-.06.4v.27s-.06.4-.06.4v.21s-.06.4-.06.4v.45s0,.08,0,.12l-.05.37v.49s0,.08-.02.12l-.04,1.02h16.81s.01-.02.02-.02v-18.58h-9.76s-.03.07-.06.1Z"/>
  <path class="cls-6" d="M73.37,273.4s.05-.08.08-.11v-16.18s-.05-.03-.07-.05c-.04-.04-.07-.08-.1-.13h-7.2l1.12.85.18.24.19.14s.07.06.1.1l.73.91,2,4.05,1.42,5.79.06.61.12.52s.01.08.01.12v.3l.05.21.06.52s.01.08.01.12l.05.42s.02.08.02.12l.05.37s.01.08.01.12l.05.61s.02.08.02.12v.23h1.05Z"/>
  <path class="cls-6" d="M170.74,273.16l.43-.11.91-.18.89-.3.5-.13,2.11-.95,3.39-2.35,1.88-2,1.83-2.72.16-.37.42-.85.77-2.19.36-1.39.23-1.87v-.42s.02-.18.02-.18c-.04-.02-.09-.05-.12-.08-.05-.05-.08-.1-.1-.16h-12.3s-.03.07-.05.1c-.06.06-.2.17-.29.19l-.15.04-.16.12-.73.42-.13.14-.66.55-.5.61s-.06.07-.1.1l-.15.11-.07.14-.86,1.29-.1.25s-.04.08-.06.11l-.14.19-.22.55-.67,1.46-.03.22-.55,1.61-.11.62-.37,1.32-.35,1.84v.21s-.18,1.01-.18,1.01v.14s-.12.7-.12.7v.21s0,.08,0,.12l-.05.18v.24s0,.08-.02.12l-.05.36v.24s0,.08-.01.12l-.05.37v.24s0,.08-.02.12v.11s1.82,0,1.82,0h.06s.01,0,.02,0c.26,0,.53,0,.79,0,0,0,.02,0,.02,0h1.05l1.82-.24Z"/>
  <path class="cls-6" d="M167.33,230.65v-.9s0-.08.02-.12l.05-.36v-.49s0-.08.01-.12l.05-.18v-.49l.07-.4v-.21s.06-.4.06-.4v-.27s.12-.75.12-.75v-.22s.55-3.42.55-3.42l.32-1.23.04-.34.99-3.06,1.2-2.52,1.03-1.52s.05-.07.07-.1l1.09-1.09.55-.42s0,0,0,0h-6.98v18.6h.77Z"/>
  <path class="cls-6" d="M186.16,208.21h.7v-.05c0-.08.02-.19.06-.28v-.99s0-.08.01-.12l.05-.18v-.49s0-.08.02-.12l.05-.18v-.54l.07-.4v-.21s.06-.45.06-.45v-.22s.18-1.11.18-1.11v-.28s.3-1.9.3-1.9l1.23-4.69.3-.73.12-.36,1.44-2.77.42-.61s.05-.07.07-.1l1.33-1.39s.08-.07.13-.09l.46-.33h-7.01v18.59Z"/>
  <path class="cls-6" d="M85.11,257.11c-.02-.06-.02-.12-.01-.18h-8.65l-2.01.15v15.97l12.93-7.39-2.27-8.55Z"/>
  <path class="cls-6" d="M186.86,230.65v-.05c0-.08.02-.19.06-.28v-1.05s0-.08.01-.12l.05-.37v-.24l.07-.4v-.45s.06-.4.06-.4v-.21s.06-.45.06-.45v-.22s.18-1.11.18-1.11v-.28s.3-1.95.3-1.95l.18-.74.06-.41.99-3.48.3-.73.12-.36,1.44-2.77,1.95-2.22s.08-.07.13-.09l.29-.21s0,0,0,0h-6.98v18.6h.7Z"/>
  <path class="cls-6" d="M139.38,257.08l-2.01-.15h-8.65c0,.06,0,.12-.01.18l-2.27,8.55,12.93,7.39v-15.97Z"/>
  <path class="cls-6" d="M175.05,189.91l-.2.1c-.05.05-.12.1-.19.12l-.11.06s-.08.07-.13.09l-.42.27-.12.12c-.05.05-.12.1-.19.12l-.11.06-1.36,1.54-.32.55-.42.61-1.05,2.39-.84,2.65-.05.31-.14.44-.04.34-.18.74-.49,2.97v.22s-.12.76-.12.76v.27s-.06.4-.06.4v.21s-.06.4-.06.4v.45s0,.08,0,.12l-.05.18v.67s0,.08-.02.12l-.04,1.02h16.81s.01-.02.02-.02v-18.58h-9.72c-.07.16-.21.28-.39.3Z"/>
  <path class="cls-6" d="M86.1,256.93l2.29,8.64c.05.05.08.12.1.19.53,1.97,2.32,3.34,4.35,3.34.08,0,.16.03.23.06h27.75c.07-.04.14-.06.23-.06,2.02,0,3.8-1.36,4.34-3.3,0-.01,0-.02,0-.03l2.34-8.84h-41.63Z"/>
  <path class="cls-6" d="M175.34,212.15l-.06.06s-.08.07-.13.09l-.3.15c-.05.05-.12.1-.19.12l-.23.12c-.05.05-.12.09-.19.12l-.11.06-.12.12s-.08.07-.13.09l-.3.21-.93.93-.15.25-1.03,1.52-1.05,2.39-.85,2.61-.04.34-.37,1.53-.49,2.97v.22s-.12.76-.12.76v.27s-.06.4-.06.4v.21s-.06.4-.06.4v.45s0,.08,0,.12l-.05.37v.49s0,.08-.02.12l-.04,1.02h16.81s.01-.02.02-.02v-18.58h-9.76s-.03.07-.06.1Z"/>
  <path class="cls-6" d="M155.75,212.19c-.05.06-.12.11-.19.14l-.72.36s-.08.07-.13.09l-.3.21s-.08.07-.13.09l-.11.09-1.3,1.35-.14.25-.79,1.21-1.23,2.75-.61,1.88-.04.29-.32,1.23-.1.71-.14.44-.35,2.17v.28s-.12.75-.12.75v.22s-.06.45-.06.45v.22s-.06.4-.06.4v.21s0,.08,0,.12l-.05.18v.48s0,.08-.01.12l-.05.37v.97c0,.08-.02.17-.06.24v.17h16.81s.01-.02.02-.02v-18.58h-9.72c-.03.05-.06.1-.11.14Z"/>
  <path class="cls-6" d="M194.97,212.05c-.03.05-.06.11-.11.14-.05.06-.12.11-.19.13l-.72.37s-.08.07-.13.09l-.54.39-1.3,1.35-.14.25-.79,1.21-.92,2.02-.12.36-.3.73-.36,1.13-.05.31-.44,1.59-.1.71-.14.44-.29,1.81v.28s-.18,1.11-.18,1.11v.22s-.06.45-.06.45v.22s-.06.4-.06.4v.45s-.06.4-.06.4v.39s0,.08,0,.12l-.05.37v.97c0,.06-.02.12-.04.17h16.27v-18.6h-9.17Z"/>
  <path class="cls-6" d="M155.81,189.71l-.06.06c-.05.06-.12.1-.19.12l-.84.49c-.05.05-.12.1-.19.12l-.11.06-.12.12s-.08.07-.13.09l-.11.09-1.17,1.23-.15.25-.79,1.21-1.23,2.75-.61,1.88-.04.34-.37,1.53-.06.36-.49,2.61v.28s-.12.75-.12.75v.22s-.06.45-.06.45v.22s-.06.4-.06.4v.21s-.06.4-.06.4v.39s-.06.4-.06.4v1.06c0,.08-.01.17-.05.24v.17h16.81s.01-.02.02-.02v-18.58h-9.7s-.03.07-.06.1Z"/>
  <path d="M9.03,161.33h-.35v.35s0,.01-.01.02c-.01.02-.02.04-.03.05-.02.03-.04.06-.05.09,0,0,0,.01,0,.02-.01.05-.03.09-.03.15v95.82c0,.1.04.19.09.27.03.14.12.26.25.34,0,0,.03.01.04.02l.06.12h7.63v12.24s0,.1.02.14l.39,1.29.3.61s.04.07.07.1l.9.96.02.02.61.47.6.33.69.27.66.13.71.06h14.26s1.06.11,1.06.11l2.01.35.92.3s.06.05.09.06l10.25,3.33.49.16.37.23.79.68.54.86.15.44.11.49v2.56s.2.96.2.96c.01.06.04.11.07.16l.27.41.64.7s.07.06.1.08l.42.24s.07.04.11.05l.49.13h0s.55.07.55.07h2.2l.84.63s.07.05.11.06l.61.24c.06.02.12.04.18.04h1.28c-.58.3-.98.9-.98,1.6,0,.99.81,1.8,1.8,1.8s1.8-.81,1.8-1.8c0-.7-.4-1.3-.98-1.6h.58s.3-.07.3-.07c.04,0,.09-.02.13-.04l.28-.14,1.07-.78h1.95s.56-.08.56-.08l.42-.12s.07-.03.11-.05l.82-.5c.05-.04.1-.08.14-.14l.5-.82s.03-.07.05-.11l.14-.5.06-.55v-1.26s.14-.78.14-.78l.14-.35.2-.3.62-.52.65-.23h6.38l.07.35.09.08s0,.02.02.03l.55.46.24.12s.08.03.13.04l.4.07h4.16s.3-.07.3-.07c.04,0,.09-.02.13-.04l.32-.17.3-.23.18-.18h0s0,0,0,0l.1-.1.03-.15s0,0,0,0l.04-.21h44.3l.06.23c.01.05.04.11.07.15l.18.26.26.24.18.12s.1.05.15.07l.24.06s.08.02.12.02h4.91s.08,0,.12-.02l.24-.06s.07-.02.1-.04l.24-.12s.09-.06.13-.09l.24-.26.12-.18.08-.13v-.26h20.64s1.06-.06,1.06-.06l2-.25,1-.25,12.56-4.49,1.06-.35,1.1-.29,1.13-.18,1.13-.12.93-.05.05.05h13.35s.72-.07.72-.07l.69-.15.64-.26.61-.3s.07-.04.1-.07l.97-.85s.05-.05.07-.08l.41-.56.32-.64.27-.69.13-.66.06-.71v-11.57h8.01v-97.3h-73.75v-8.68s-.07-.36-.07-.36c0-.04-.02-.07-.03-.1l-.07-.17h65.71c.27,0,.5-.22.5-.5V28.77c0-.27-.22-.5-.5-.5H17.31c-.27,0-.5.22-.5.5v122.69c0,.27.22.5.5.5h2.72v9.32h-10.72l-.27.06ZM61.55,290.93c-.45,0-.81-.36-.81-.81s.36-.81.81-.81.81.36.81.81-.36.81-.81.81ZM196.94,257.57h-.5v.5h0s0,12.02,0,12.02l-.05.62-.1.52-.48,1.1-.33.44-.88.77-1.03.47-.55.11-.62.06h-12.89l-.07-.07h-.22s0,.01,0,.01l-1.18.06-1.18.12-1.2.19-1.18.31-12.67,4.55-.94.3-.91.23-1.91.24-1,.06h-21.6v.96l-.22.16-4.92.03-.13-.03-.2-.22-.03-.9h-45.68l-.5.06v.44l-.08.37-.38.25-4.09.04-.25-.05-.36-.25-.08-.86h-7.35s-.09,0-.14.02l-.48.14-.42.18s-.09.04-.12.07l-.73.61s-.07.07-.1.11l-.29.44-.21.5-.13.54-.06.49v1.27s-.04.41-.04.41l-.1.37-.38.62-.63.38-.71.14h-2.23l-.13.11s0,0,0,0l-.8.63-.47.26-3.43.03-.46-.18-1.05-.79h-.17s0,0,0,0h-2.3s-.41-.04-.41-.04l-.37-.1-.32-.18-.22-.22-.47-.62-.15-.7v-2.55s0-.07-.01-.11l-.13-.6-.18-.55s-.03-.07-.05-.11l-.61-.97s-.06-.08-.1-.11l-.91-.77-.49-.3s-.07-.04-.11-.05l-10.2-3.32-.26-.09v-.07l-.36-.1s0,0,0,0l-1.08-.32-2.09-.37-1.15-.12h-14.27s-.62-.05-.62-.05l-.52-.1-.55-.22-.48-.26-.5-.38-.79-.84-.24-.47-.34-1.14v-13.16h-7.95v-.64h18.41c.05.84.16,1.67.33,2.5l.06.48.63,2.36.93,2.23,1.26,2.13.91,1.15,2,2.13,1.16.96.35.19.44.35,2.56,1.43,1.39.56.47.12.91.3.5.14.43.05.54.13,1.94.25h124.08s1.94-.26,1.94-.26l1.45-.32.45-.17.97-.26,2.26-1.01,1.68-1,1.15-.85,1.95-1.84s.03-.02.05-.03c.02-.02.04-.05.06-.07l.07-.06.08-.11c2.91-3.15,4.63-7.2,4.9-11.48h18.46v.64h-7.51ZM46.61,162.26h157.84v26.36h-97.32s-.08.01-.12.02c-.01,0-.02,0-.03,0-.02,0-.05-.01-.07-.01,0,0-.01,0-.02,0H9.68v-26.36h36.93ZM20.02,150.96h-2.22v-3.56h178.94v3.56h-75.36v-2.35c0-.27-.22-.5-.5-.5h-27.17c-.27,0-.5.22-.5.5v2.35H20.02ZM196.75,146.41H17.8V29.27h178.94v117.14ZM94.22,149.1h26.18v7.32h-26.18v-7.32ZM167.87,273.4s-.02,0-.02,0c-.26,0-.53,0-.79,0,0,0-.01,0-.02,0h-1.9v-.11s.03-.08.03-.12v-.24l.05-.37s.01-.08.01-.12v-.24l.05-.36s.02-.08.02-.12v-.24l.05-.18s.01-.08.01-.12v-.21s.12-.7.12-.7v-.14s.18-1.01.18-1.01v-.21s.35-1.84.35-1.84l.37-1.32.11-.62.55-1.61.03-.22.67-1.46.22-.55.14-.19s.05-.07.06-.11l.1-.25.86-1.29.07-.14.15-.11s.07-.06.1-.1l.5-.61.66-.55.13-.14.73-.42.16-.12.15-.04c.09-.02.23-.13.29-.19.02-.02.04-.06.05-.1h12.3c.02.06.06.11.1.16.04.04.08.06.12.08l-.02.18v.42s-.22,1.87-.22,1.87l-.36,1.39-.77,2.19-.42.85-.16.37-1.83,2.72-1.88,2-3.39,2.35-2.11.95-.5.13-.89.3-.91.18-.43.11-1.82.24h-1.05ZM72.31,273.05l-.05-.61s0-.08-.01-.12l-.05-.37s0-.08-.02-.12l-.05-.42s0-.08-.01-.12l-.06-.52-.05-.21v-.3s0-.08-.01-.12l-.12-.52-.06-.61-1.42-5.79-2-4.05-.73-.91s-.06-.07-.1-.1l-.19-.14-.18-.24-1.12-.85h7.2s.06.09.1.13c.02.02.04.03.07.05v16.18s-.06.07-.08.11h-1.05v-.23s0-.08-.02-.12ZM51.95,273.4s-.04-.04-.06-.07c-.02-.02-.05-.03-.07-.04v-16.36h12.5s.02.03.03.04c.07.13.19.22.34.25l.19.04,1.43,1.04.32.37s.06.07.1.1l.19.14.99,1.4.13.17.56,1.13.15.23,1.67,5.19.36,1.88.06.6.13.63.06.52.05.21v.3s0,.08.01.12l.05.43s0,.08.02.12l.05.36s0,.08.01.12l.05.61s0,.08.02.12l.03.35h-19.36ZM47.05,273.4s-.02,0-.03,0h-.01c-.25,0-.5,0-.75,0h-.01s-.02,0-.03,0h-1.25s-1.82-.23-1.82-.23l-.54-.13-.41-.05-3.04-1.04-2.41-1.35-.44-.35-.35-.19-2.36-2.18-.91-1.15-.56-.66-1.19-2.01-.73-1.76-.67-2.31s0-.01,0-.02c-.06-.25-.09-.51-.14-.76l-.18-1.38v-.55s-.06-.34-.06-.34h12.56c.04.06.08.12.12.16.06.06.14.11.23.13l.15.04,1.68,1.23.55.66.14.13.85,1.27.14.19.1.24s.04.08.06.11l.14.19.34.85s.04.08.06.11l.14.19,1.22,3.91.13.72.17.56.11.55.07.72.17.81v.3s0,.08.01.12l.18,1.37.05.21v.24s0,.08.02.12l.05.61s0,.08.01.12l.04.6h-1.6ZM134.47,189.61l-.04.03s-.09.06-.13.09l-.3.21s-.09.06-.13.09l-2.02,2.4-.73,1.27s-.03.06-.05.1l-.61,1.46-.24.73-.28.66s-.04.1-.05.15l-.04.34-.57,1.97-.04.34-.14.44-.61,3.72v.27s-.06.4-.06.4v.27s-.06.4-.06.4v.21s-.06.4-.06.4v.3l-.05.37s-.01.08-.01.12v.55l-.05.3s-.02.08-.02.12v.9h-.77v-18.59h7.02ZM173.6,189.61l-.04.03s-.09.06-.13.09l-.12.12-.11.06c-.07.02-.14.07-.19.12l-2.2,2.7-1.2,2.52-1.17,3.85-.04.34-.14.44-.55,3.42v.22s-.12.75-.12.75v.27s-.06.4-.06.4v.21s-.06.4-.06.4v.3l-.05.37s-.01.08-.01.12v.55l-.05.3s-.02.08-.02.12v.9h-.77v-18.59h7.03ZM125.38,265.77s0,.02,0,.03c-.54,1.94-2.32,3.3-4.34,3.3-.08,0-.16.03-.23.06h-27.75c-.07-.04-.14-.06-.23-.06-2.04,0-3.83-1.37-4.35-3.34-.02-.07-.06-.13-.1-.19l-2.29-8.64h41.63l-2.34,8.84ZM74.45,257.08l2.01-.15h8.65c0,.06,0,.12.01.18l2.27,8.55-12.93,7.39v-15.97ZM128.71,257.11c.02-.06.02-.12.01-.18h8.65l2.01.15v15.97l-12.93-7.39,2.27-8.55ZM185.64,255.94s-.06-.02-.09-.02c-.04,0-.08.01-.12.02H28.69c-.05-.02-.11-.03-.17-.02-.03,0-.06.01-.09.02H9.68v-1.86h97.2s.08-.01.12-.02c.04.01.08.02.12.02h97.32v1.86h-18.81ZM105.38,253.09v-.53c0-.05,0-.11-.03-.16l-.03-.93s0-.08-.01-.12l-.23-2.57-.06-.36-.06-.67-.44-2.68-.1-.28-.08-.51-.1-.29-.26-1.23-.75-2.37-.16-.3-.12-.36s-.03-.07-.05-.1l-.16-.26-.13-.37-1.11-2.04s-.05-.07-.07-.1l-.2-.2-.19-.3-1.61-1.68s-.08-.07-.13-.09l-.15-.09h7.26v18.6h-1.01ZM9.86,234.49h9.16s.05.07.08.09c.06.08.13.15.23.18l.3.12.11.06c.05.05.12.1.19.12l.11.06s.08.07.13.09l.11.09c.05.05.12.1.19.12l1.29,1.23.39.55s.05.07.07.1l.2.2,1.01,1.85.12.36s.03.07.05.1l.15.26.77,2.17.19.81.12.34.19.81.1.28.14.88.1.29.24,1.52.06.74.12.65.18,2.2.05.21v.49s0,.08.01.12l.05,1.28c0,.08.02.15.05.22h0s-16.28,0-16.28,0v-18.6ZM27.09,252.75v-1.05s-.01-.08-.02-.12l-.23-2.81-.12-.74-.06-.65-.32-1.95-.1-.29-.14-.86-.1-.29-.07-.42-.23-.73-.07-.42-.92-2.69s-.03-.07-.05-.1l-.16-.26-.13-.38-1.11-2.03s-.05-.07-.07-.1l-.2-.2-.19-.3-1.61-1.68c-.05-.05-.12-.1-.19-.12l-.11-.06s0,0,0,0h6.98v18.6h-.7v-.11c0-.08-.02-.15-.05-.22ZM28.9,253.09s-.04-.03-.06-.04v-18.55h9.76s.05.07.08.1c.01.02.02.04.04.06.04.04.08.07.13.1l.61.3.11.09c.05.05.12.1.19.12l.11.06s.08.07.13.09l1.35,1.26,1.33,2.02,1.72,4.65.08.51.1.29.67,3.78.06.65.06.38.06.59.05.28v.3s0,.08.02.12l.05.73s0,.08.01.12l.05.85s0,.08.02.12l.04,1.02h-16.77ZM46.66,252.07l-.05-.85s0-.08-.01-.12l-.05-.73s0-.08-.02-.12l-.12-1.19-.06-.29-.06-.75-.74-4.12-.1-.28-.08-.51-1-3.1-.64-1.33-.12-.36s-.03-.07-.05-.1l-1.39-2.12s-.05-.07-.07-.1l-1.39-1.33s-.08-.07-.13-.09l-.11-.09s0,0,0,0h6.98v18.6h-.77v-.9s0-.08-.02-.12ZM48.5,253.09s-.04-.04-.07-.05v-18.54h9.71s.03.05.06.07c.06.09.14.17.25.21l.3.12.11.06c.05.05.12.1.19.12l.11.06s.08.07.13.09l.3.18,1.29,1.26.39.55s.05.07.07.1l.2.2,1.01,1.85.12.36s.03.07.05.1l.16.26.99,2.9.26,1.23.1.28.14.88.1.29.3,1.88.06.67.06.36.19,1.89.05.21v.55s0,.08.02.12l.05,1.27c0,.08.02.15.05.22v.25s-16.76,0-16.76,0ZM66.26,253.09v-.35c0-.08-.02-.15-.05-.22v-1.05s-.01-.08-.02-.12l-.23-2.57-.06-.36-.06-.67-.38-2.32-.1-.29-.14-.86-.1-.29-.26-1.23-.75-2.37-.15-.3-.12-.36s-.03-.07-.05-.1l-.16-.26-.13-.37-1.11-2.03s-.05-.07-.07-.1l-.2-.2-.19-.3-1.61-1.68s-.08-.07-.13-.09l-.15-.09h6.95v18.6h-.71ZM68.02,253.09s-.04-.03-.06-.04v-18.55h9.77s.03.05.05.06c.02.03.04.07.06.1.05.05.12.09.19.12l.84.46.11.09s.08.07.13.09l1.77,1.86.92,1.44,1.15,2.91.15.3,1.32,6.29.12,1.33.05.28v.3s0,.08.01.12l.05.73s0,.08.02.12l.05.85s0,.08.01.12l.04,1.02h-16.77ZM85.79,253.09v-.9s0-.08-.01-.12l-.05-.85s0-.08-.02-.12l-.05-.73s0-.08-.01-.12l-.05-.51-.05-.28-.07-1.05-.81-4.5-.1-.28-.08-.51-.24-.71-.17-.73s-.02-.1-.05-.14l-1.15-2.91-.73-1.33s-.03-.06-.06-.09l-.23-.29-.58-.81s-.05-.07-.07-.1l-.73-.73-.8-.7-.11-.09s0,0,0,0h6.98v18.6h-.77ZM87.61,253.09s-.04-.04-.07-.05v-18.54h9.71s.08.08.13.11c.02.01.03.04.05.05h0s.08.07.13.1l.3.12.11.09c.05.05.12.1.19.12l.11.06s.08.07.13.09l.3.18,1.08,1.06.21.2.39.55s.05.07.07.1l.2.2,1.01,1.85.12.36s.03.07.05.1l.16.26.13.37.15.28.49,1.52.49,1.96.1.28.08.51.1.29.36,2.24.06.67.06.36.19,1.9.05.21v.55s0,.08.01.12l.05,1.03c0,.05,0,.11.03.16l.03.56h-16.76ZM107.62,234.49h7.24l-.14.09s-.09.06-.13.09l-.67.61-.98,1.13-.15.25-.2.2s-.05.06-.07.1l-1.14,2.1-.1.31-.15.26s-.03.06-.05.1l-.31.75-1.11,3.89-.04.34-.14.44-.43,2.69v.22s-.12.81-.12.81v.21s-.06.4-.06.4v.27s-.06.4-.06.4v.15s-.06.4-.06.4v.3l-.05.36s-.02.08-.02.12v.73l-.03.21c-.02.05-.03.16-.03.22v.47h-1.01v-18.6ZM109.63,253.09l.03-.56c.02-.05.03-.1.03-.16v-.67l.05-.36s.02-.08.02-.12v-.45s.06-.4.06-.4v-.14s.06-.4.06-.4v-.27s.06-.4.06-.4v-.22s.12-.81.12-.81v-.22s1.65-7.08,1.65-7.08l.21-.43.1-.31.15-.26s.03-.06.05-.1l.09-.3,1.04-1.92.2-.2s.05-.06.07-.1l.14-.25.8-.93.26-.18.36-.36.42-.27s.09-.06.13-.09l.11-.06c.07-.02.14-.06.19-.12l.42-.21s.03-.02.05-.03c.11-.04.19-.12.24-.22h9.72v18.56s-.03.02-.04.03h-16.78ZM127.45,234.49h6.98s0,0,0,0l-.42.3-1.21,1.21s-.05.06-.07.1l-.81,1.1s-.04.06-.06.09l-1.36,2.79-.24.79-.28.66s-.04.09-.05.14l-.43,1.53-.04.34-.32,1.23-.61,3.72v.27s-.06.4-.06.4v.22s-.06.44-.06.44v.24l-.05.18s-.02.08-.02.12v.55l-.05.18s-.01.08-.01.12v.49l-.05.36s-.02.08-.02.12v.9h-.77v-18.6ZM129.22,253.09l.04-1.02s.02-.08.02-.12v-.49l.05-.37s.01-.08.01-.12v-.55l.05-.18s.02-.08.02-.12v-.22s.06-.44.06-.44v-.21s.06-.4.06-.4v-.28s.54-3.27.54-3.27l.37-1.53.04-.34.38-1.23.05-.29.17-.36.24-.79,1.4-2.98.67-.86.15-.25,1.05-1.05.3-.21s.09-.06.13-.09l.96-.55c.07-.02.14-.06.19-.12l.06-.06s.05-.06.06-.1h9.76v18.54s-.05.03-.07.05h-16.77ZM147.04,234.49h6.94l-.14.09s-.09.06-.13.09l-1.65,1.73-.15.25-.2.2s-.06.06-.08.1l-1.14,2.1-.1.31-.15.26s-.03.06-.05.1l-.31.75-1.11,3.89-.06.41-.18.73-.37,2.33v.22s-.12.81-.12.81v.21s-.06.4-.06.4v.27s-.06.4-.06.4v.14s-.06.4-.06.4v.3l-.05.37s-.01.08-.01.12v1.05c-.04.07-.06.27-.06.34v.23h-.7v-18.6ZM148.74,253.09v-.25c.04-.07.06-.21.06-.28v-.85l.05-.37s.01-.08.01-.12v-.45s.06-.4.06-.4v-.15s.06-.4.06-.4v-.27s.06-.4.06-.4v-.22s.12-.81.12-.81v-.22s1.65-7.08,1.65-7.08l.21-.43.1-.31.15-.26s.03-.06.05-.1l.09-.3,1.04-1.92.2-.2s.06-.06.08-.1l.14-.25,1.42-1.48.42-.27s.09-.06.13-.09l.11-.06c.07-.02.14-.07.19-.12l.41-.18c.07-.02.14-.07.19-.14.05-.04.08-.09.11-.14h9.72v18.56s-.03.02-.04.03h-16.79ZM166.57,234.49h6.98s0,0,0,0l-.11.09s-.09.06-.13.09l-.3.24-1.09,1.09s-.05.06-.08.1l-.4.56-1,1.56s-.03.06-.05.1l-.79,1.76-.99,3.12-.04.34-.14.44-.73,4.15v.28s-.12.75-.12.75v.22s-.06.45-.06.45v.24l-.05.18s-.02.08-.02.12v.55l-.05.18s-.01.08-.01.12v.49l-.05.36s-.02.08-.02.12v.9h-.77v-18.6ZM168.33,253.09l.04-1.02s.02-.08.02-.12v-.49l.05-.37s.01-.08.01-.12v-.55l.05-.18s.02-.08.02-.12v-.22s.06-.45.06-.45v-.21s.12-.76.12-.76v-.27s.48-2.93.48-2.93l.37-1.53.04-.34.85-2.67.79-1.76.1-.31,1.19-1.77.15-.25.93-.93.42-.33s.09-.06.13-.09l.11-.06c.07-.02.14-.06.19-.12l.72-.39s.09-.06.13-.09l.06-.06s.04-.06.06-.1h9.76v18.54s-.05.03-.07.05h-16.77ZM186.16,234.49h6.98s0,0,0,0l-.11.06c-.07.02-.14.07-.19.12l-1.65,1.73-.15.25-.2.2s-.05.06-.07.1l-1.14,2.1-.11.31-.15.26s-.03.06-.05.1l-.42,1.15-.99,3.48-.06.41-.18.73-.31,1.96v.27s-.18,1.13-.18,1.13v.21s-.06.4-.06.4v.27s-.06.4-.06.4v.45s-.06.4-.06.4v.24l-.05.37s-.01.08-.01.12v1.05c-.04.07-.06.21-.06.28v.05h-.7v-18.6ZM187.86,253.09h0c.03-.08.05-.27.05-.35v-.79l.05-.37s.01-.08.01-.12v-.39s.06-.4.06-.4v-.45s.06-.4.06-.4v-.27s.06-.4.06-.4v-.22s.18-1.11.18-1.11v-.28s.24-1.52.24-1.52l.18-.73.1-.71.44-1.59.05-.31.89-2.6.15-.26s.03-.06.04-.1l.1-.3,1.04-1.91.2-.2s.05-.06.07-.1l.14-.25,1.42-1.48.11-.06c.07-.02.14-.07.19-.12l.11-.09s.09-.06.13-.09l.11-.06c.07-.02.14-.07.19-.12l.41-.18c.07-.02.14-.07.19-.13.05-.04.08-.09.11-.14h9.17v18.6h-16.28ZM106.38,212.05s0,0,0,0v18.59h-1.01v-.53c0-.05,0-.11-.03-.16l-.03-.93s0-.08-.01-.12l-.05-.67s0-.08-.02-.12l-.17-1.78-.06-.38-.06-.65-.44-2.68-.1-.28-.08-.51-.1-.29-.26-1.23-1.36-3.76-1.57-2.64-1.49-1.56s-.08-.07-.13-.09l-.3-.21h7.28ZM114.89,212.05l-.29.21s-.09.06-.13.09l-.55.49-1.41,1.73-1.74,3.49-1.11,3.85-.04.34-.14.44-.43,2.69v.27s-.12.76-.12.76v.22s-.06.44-.06.44v.21s-.06.4-.06.4v.24l-.05.18s-.01.08-.01.12v.3l-.05.36s-.02.08-.02.12v.73l-.03.21s-.03.1-.03.16v.53h-1.01v-18.59s0,0,0,0h7.27ZM134.43,212.05s0,0,0,0l-.12.12-.11.06c-.07.02-.14.07-.19.12l-1.21,1.21s-.05.06-.07.1l-.85,1.21-.73,1.27s-.03.06-.05.1l-.61,1.46-.24.73-.28.66s-.04.09-.05.14l-.43,1.53-.04.34-.14.44-.79,4.51v.27s-.06.4-.06.4v.27s-.06.4-.06.4v.21s-.06.4-.06.4v.49l-.05.18s-.01.08-.01.12v.49l-.05.36s-.02.08-.02.12v.9h-.77v-18.6h6.98ZM154.01,212.05l-.29.21s-.09.06-.13.09l-1.95,2.22-1.74,3.49-1.11,3.85-.06.41-.18.74-.37,2.31v.27s-.12.76-.12.76v.22s-.06.45-.06.45v.21s-.06.4-.06.4v.24l-.05.18s-.02.08-.02.12v.3l-.05.37s-.01.08-.01.12v1.05c-.04.09-.06.2-.06.28v.29h-.7v-18.6h6.97ZM173.54,212.05s0,0,0,0l-.55.42-1.09,1.09s-.05.06-.07.1l-1.03,1.52-1.2,2.52-.99,3.06-.04.34-.32,1.23-.55,3.42v.22s-.12.75-.12.75v.27s-.06.4-.06.4v.21s-.06.4-.06.4v.49l-.05.18s-.01.08-.01.12v.49l-.05.36s-.02.08-.02.12v.9h-.77v-18.6h6.98ZM193.13,212.05s0,0,0,0l-.29.21s-.09.06-.13.09l-1.95,2.22-1.44,2.77-.12.36-.3.73-.99,3.48-.06.41-.18.74-.31,1.95v.28s-.18,1.11-.18,1.11v.22s-.06.45-.06.45v.21s-.06.4-.06.4v.45s-.06.4-.06.4v.24l-.05.37s-.01.08-.01.12v1.05c-.04.09-.06.2-.06.28v.05h-.7v-18.6h6.98ZM187.87,230.65c.02-.06.04-.11.04-.17v-.97l.05-.37s.01-.08.01-.12v-.39s.06-.4.06-.4v-.45s.06-.4.06-.4v-.22s.06-.45.06-.45v-.22s.18-1.11.18-1.11v-.28s.28-1.81.28-1.81l.14-.44.1-.71.44-1.59.05-.31.36-1.13.3-.73.12-.36.92-2.02.79-1.21.14-.25,1.3-1.35.54-.39s.09-.06.13-.09l.72-.37c.07-.02.14-.07.19-.13.05-.04.08-.09.11-.14h9.17v18.6h-16.27ZM185.16,212.05v18.58s-.01.01-.02.02h-16.81l.04-1.02s.02-.08.02-.12v-.49l.05-.37s.01-.08.01-.12v-.45s.06-.4.06-.4v-.21s.06-.4.06-.4v-.27s.12-.76.12-.76v-.22s.48-2.97.48-2.97l.37-1.53.04-.34.85-2.61,1.05-2.39,1.03-1.52.15-.25.93-.93.3-.21s.09-.06.13-.09l.12-.12.11-.06c.07-.02.14-.06.19-.12l.23-.12c.07-.02.14-.07.19-.12l.3-.15s.09-.06.13-.09l.06-.06s.04-.06.06-.1h9.76ZM165.57,212.05v18.58s-.01.01-.02.02h-16.81v-.17c.04-.07.06-.15.06-.24v-.97l.05-.37s.01-.08.01-.12v-.48l.05-.18s.02-.08.02-.12v-.21s.06-.4.06-.4v-.22s.06-.45.06-.45v-.22s.12-.75.12-.75v-.28s.34-2.17.34-2.17l.14-.44.1-.71.32-1.23.04-.29.61-1.88,1.23-2.75.79-1.21.14-.25,1.3-1.35.11-.09s.09-.06.13-.09l.3-.21s.09-.06.13-.09l.72-.36c.07-.02.14-.07.19-.14.05-.04.08-.09.11-.14h9.72ZM146.05,212.05v18.58s-.01.01-.02.02h-16.81l.04-1.02s.02-.08.02-.12v-.49l.05-.37s.01-.08.01-.12v-.45s.06-.4.06-.4v-.21s.06-.4.06-.4v-.27s.06-.4.06-.4v-.27s.54-3.29.54-3.29l.37-1.53.04-.34.38-1.23.05-.29.17-.36.24-.73,1.05-2.39,1.03-1.52.15-.25,1.05-1.05.11-.06c.07-.02.14-.07.19-.12l.12-.12.53-.3c.07-.02.14-.07.19-.12l.23-.12c.07-.02.14-.06.19-.12l.06-.06s.05-.06.06-.1h9.76ZM126.46,212.05v18.58s-.01.01-.02.02h-16.81l.03-.56s.03-.1.03-.16v-.67l.05-.36s.02-.08.02-.12v-.49l.05-.18s.01-.08.01-.12v-.21s.06-.4.06-.4v-.22s.06-.44.06-.44v-.22s.12-.75.12-.75v-.28s.36-2.24.36-2.24l.18-.74.04-.34.32-1.23.04-.29.61-1.88,1.23-2.75.79-1.21.14-.25.8-.93.26-.18.24-.24.11-.09s.09-.06.13-.09l.3-.21s.09-.06.13-.09l.29-.15s.09-.06.13-.09l.3-.15s.03-.02.05-.03c.11-.04.19-.12.24-.22h9.72ZM97.26,212.05s.08.08.13.11c.02.01.03.04.05.05h0s.08.07.13.1l.19.09.11.06s.08.07.13.09l.19.09.11.06s.08.07.13.09l.29.21s.08.07.13.09l.96.94.21.2,1.52,2.4,1.47,3.92.26,1.23.1.28.08.51.1.29.36,2.24.06.74.06.29.13,1.35.05.21v.3s0,.08.02.12l.05.67s0,.08.01.12l.05,1.03c0,.05,0,.11.03.16l.03.56h-16.82s0,0,0,0v-18.59h9.71ZM86.55,230.65h-.77v-.9s0-.08-.01-.12l-.05-.85s0-.08-.01-.12l-.24-2.71-.8-4.49-.1-.28-.08-.51-.24-.71-.17-.73s-.02-.1-.05-.14l-.85-2.18-.15-.3-.12-.36s-.03-.07-.05-.1l-1.58-2.49s-.05-.07-.07-.1l-1.21-1.21c-.05-.05-.12-.1-.19-.12l-.23-.18s0,0,0,0h6.98v18.6ZM77.73,212.05s.03.05.05.06c.02.03.04.07.06.1.05.05.12.09.19.12l.12.03.11.09c.05.05.12.1.19.12l.42.22.23.21c.05.05.12.1.19.12l1.16,1.11,1.52,2.39.98,2.56.15.3.06.34.35,1.09.08.51.1.29.73,4.14.18,1.94.05.21v.55s0,.08.01.12l.05.85s0,.08.01.12l.04,1.02h-16.83v-18.6h9.77ZM66.96,230.65h-.71v-.35c0-.06-.02-.13-.06-.21v-1.07s0-.08-.02-.12l-.05-.67s0-.08-.01-.12l-.17-1.78-.06-.38-.06-.65-.38-2.32-.1-.29-.14-.86-.1-.29-.26-1.23-1.36-3.76-1.57-2.64-1.49-1.56s-.08-.07-.13-.09l-.3-.21h6.98v18.6ZM58.14,212.05s.03.05.06.07c.06.09.14.17.25.21l.61.3.11.06s.08.07.13.09l.3.21s.08.07.13.09l1.17,1.14,1.52,2.4,1.47,3.92.26,1.23.1.28.14.88.1.28.3,1.89.06.74.06.29.12,1.35.05.21v.3s0,.08.01.12l.05.67s0,.08.02.12l.05,1.33c0,.06.02.13.06.21v.21h-16.83s0,0,0,0v-18.59h9.71ZM47.44,230.65h-.77v-.9s0-.08-.02-.12l-.05-.85s0-.08-.01-.12l-.18-2.04-.06-.29-.06-.67-.75-4.2-.1-.28-.08-.51-1.79-4.8-1.41-2.22s-.05-.07-.07-.1l-.73-.73-.68-.58-.23-.21s0,0,0,0h6.98v18.6ZM38.61,212.05s.05.07.08.1c.01.02.02.04.04.06.04.04.08.07.13.1l.19.09.11.06c.05.05.12.1.19.12l.12.03.11.09c.05.05.12.1.19.12l.23.18s.08.07.13.09l1.23,1.14,1.16,1.73,1.89,4.94.08.51.1.29.67,3.76.06.67.06.38.12,1.27.05.21v.55s0,.08.01.12l.05.85s0,.08.02.12l.04,1.02h-16.82s0,0-.01-.01v-18.58h9.76ZM27.85,230.65h-.7v-.11c0-.06-.03-.14-.06-.21v-1.07s0-.08-.01-.12l-.23-2.81-.12-.67-.06-.73-.32-1.95-.1-.29-.14-.86-.1-.29-.07-.42-.23-.73-.07-.42-1.25-3.42-1.57-2.64-1.49-1.56s-.08-.07-.13-.09l-.29-.21s0,0,0,0h6.98v18.6ZM19.02,212.05s.05.07.08.09c.06.08.13.15.23.18l.61.3.11.06s.08.07.13.09l.42.3,1.17,1.14,1.52,2.4.73,1.82.16.3.24.73,1.25,5.54v.44s.13.67.13.67l.18,2.2.05.21v.49s0,.08.01.12l.05,1.34c0,.05.02.11.05.17H9.86v-18.6h9.16ZM185.36,233.5h-78.35s-.03.01-.04.01c-.03,0-.06-.01-.08-.01H9.68v-1.86h97.2s.08-.01.12-.02c.04.01.08.02.12.02h97.32v1.86h-19.09ZM185.42,211.06h-78.29s-.08.01-.12.02c0,0-.01,0-.02,0-.01,0-.02,0-.03,0-.03,0-.05-.02-.08-.02H9.68v-1.86h97.2s.08-.01.12-.02c.04.01.08.02.12.02h97.32v1.86h-19.03ZM204.14,208.21h-16.28c.03-.08.05-.16.05-.23v-.91l.05-.31s.01-.08.01-.12v-.3l.05-.36s.02-.08.02-.12v-.51s.06-.4.06-.4v-.22s.06-.45.06-.45v-.22s.18-1.11.18-1.11v-.28s.96-4.55.96-4.55l.04-.29.36-1.15.3-.73.12-.36.92-2.02.79-1.21.15-.25,1.17-1.23.11-.09s.09-.06.13-.09l.29-.21s.09-.06.13-.09l.84-.49c.07-.02.14-.06.19-.12l.06-.06s.05-.06.06-.1h9.16v18.59ZM192.72,189.95s-.09.06-.13.09l-1.33,1.39s-.05.06-.07.1l-.42.61-1.44,2.77-.12.36-.3.73-1.23,4.69-.31,1.9v.28s-.18,1.11-.18,1.11v.22s-.06.45-.06.45v.21s-.06.4-.06.4v.54l-.05.18s-.02.08-.02.12v.49l-.05.18s-.01.08-.01.12v.99c-.04.09-.06.2-.06.28v.05h-.7v-18.59h7.01l-.46.33ZM185.16,189.61v18.58s-.01.01-.02.02h-16.81l.04-1.02s.02-.08.02-.12v-.67l.05-.18s.01-.08.01-.12v-.45s.06-.4.06-.4v-.21s.06-.4.06-.4v-.27s.12-.76.12-.76v-.22s.48-2.97.48-2.97l.18-.74.04-.34.14-.44.05-.31.84-2.65,1.05-2.39.42-.61.32-.55,1.36-1.54.11-.06c.07-.02.14-.07.19-.12l.12-.12.42-.27s.09-.06.13-.09l.11-.06c.07-.02.14-.07.19-.12l.2-.1c.18-.02.32-.14.39-.3h9.72ZM165.57,189.61v18.58s-.01.01-.02.02h-16.81v-.17c.04-.07.06-.15.06-.24v-1.06s.06-.4.06-.4v-.39s.06-.4.06-.4v-.21s.06-.4.06-.4v-.22s.06-.45.06-.45v-.22s.12-.75.12-.75v-.28s.48-2.61.48-2.61l.06-.36.37-1.53.04-.34.61-1.88,1.23-2.75.79-1.21.15-.25,1.17-1.23.11-.09s.09-.06.13-.09l.12-.12.11-.06c.07-.02.14-.07.19-.12l.84-.49c.07-.02.14-.07.19-.12l.06-.06s.04-.06.06-.1h9.7ZM154.03,189.62c-.07.02-.14.07-.19.12l-.12.12-.11.09s-.09.06-.13.09l-1.33,1.39s-.05.06-.07.1l-.42.61-1.74,3.49-.75,2.33-.04.34-.56,2.38-.37,2.27v.27s-.12.76-.12.76v.22s-.06.45-.06.45v.21s-.06.4-.06.4v.21s-.06.4-.06.4v.39s-.06.4-.06.4v.97c-.04.07-.06.15-.06.24v.35h-.7v-18.59h6.99,0ZM146.05,189.61v18.58s-.01.01-.02.02h-16.81l.04-1.02s.02-.08.02-.12v-.67l.05-.18s.01-.08.01-.12v-.45s.06-.4.06-.4v-.21s.06-.4.06-.4v-.27s.06-.4.06-.4v-.27s.54-3.29.54-3.29l.18-.74.04-.34.57-1.97.05-.35.17-.35.24-.73,1.05-2.39.61-.91.14-.25,1.36-1.54.54-.39s.09-.06.13-.09l.11-.06c.07-.02.14-.07.19-.12l.11-.06c.07-.02.14-.07.19-.12l.16-.1c.2,0,.36-.13.44-.3h9.72ZM126.46,189.61v18.58s-.01.01-.02.02h-16.81v-.41l.03-.15s.03-.1.03-.16v-.75s.06-.4.06-.4v-.39s.06-.4.06-.4v-.21s.06-.4.06-.4v-.22s.06-.44.06-.44v-.22s.12-.75.12-.75v-.28s.4-2.53.4-2.53l.51-1.97.04-.34.61-1.88,1.23-2.75.79-1.21.15-.25.79-.92.26-.18.12-.12.11-.09s.09-.06.13-.09l.12-.12.11-.06c.07-.02.14-.07.19-.12l.42-.27s.09-.06.13-.09l.2-.1c.11-.01.21-.06.28-.14l.06-.06s.05-.06.06-.1h9.7ZM114.91,189.62c-.07.02-.14.07-.19.12l-.12.12-.11.09s-.09.06-.13.09l-.42.36-.91,1.03s-.05.06-.07.1l-.42.61-1.74,3.49-.75,2.33-.04.34-.51,1.97-.43,2.68v.27s-.12.76-.12.76v.22s-.06.44-.06.44v.21s-.06.4-.06.4v.21s-.06.4-.06.4v.39s-.06.4-.06.4v.67l-.03.21s-.03.1-.03.16v.53h-1.01v-18.59s0,0,0,0h7.29,0ZM106.38,189.61s0,0,0,0v18.59h-1.01v-.53c0-.05,0-.11-.03-.16l-.28-3.62-.06-.38-.06-.65-.44-2.68-.1-.29-.26-1.23-.1-.28-.08-.51-1.36-3.76-1.53-2.58s-.05-.07-.08-.1l-1.33-1.39s-.08-.07-.13-.09l-.23-.21c-.05-.05-.12-.1-.19-.12h0s7.29,0,7.29,0ZM97.26,189.61s.03.05.05.06c.02.03.04.07.06.1.06.06.16.1.26.13l.22.11s.08.07.13.09l.3.18.12.09c.05.05.12.09.19.12l.23.18s.08.07.13.09l1.29,1.32,1.28,2.09,1.47,3.91.08.51.1.29.26,1.23.1.28.37,2.25.37,3.77.05.21v.85c0,.05,0,.11.03.16l.03.56h-16.82s0,0,0,0v-18.59h9.71ZM86.55,208.21h-.77v-.9s0-.08-.01-.12l-.05-.85s0-.08-.02-.12l-.24-2.71-.62-3.7-.1-.28-.08-.51-.1-.29-.07-.42-.35-1.09-.06-.42c0-.05-.02-.1-.05-.15l-.85-2.18-.15-.3-.12-.36s-.03-.07-.05-.1l-1.19-1.93-1.55-1.74s-.08-.07-.13-.09l-.29-.21s-.08-.07-.13-.09l-.04-.03h7.02v18.59ZM77.69,189.61c.08.15.23.26.4.29l.18.11c.05.05.12.1.19.12l.11.06c.05.05.12.1.19.12l.11.06s.08.07.13.09l.42.3.8.78,1.76,2.63.98,2.56.15.29.07.43.24.71.19.81.1.28.08.51.1.29.55,3.35.18,1.94.05.21v.55s0,.08.02.12l.05.85s0,.08.01.12l.04,1.02h-16.82s0,0,0,0v-18.59h9.73ZM66.96,208.21h-.71v-.35c0-.06-.02-.13-.06-.21l-.25-3.76-.06-.38-.06-.65-.81-4.2-.1-.28-.08-.51-1.36-3.76-1.53-2.58s-.05-.07-.07-.1l-1.33-1.39s-.08-.07-.13-.09l-.23-.21c-.05-.05-.12-.1-.19-.12h0s6.99,0,6.99,0v18.59ZM58.14,189.61s.03.04.05.06c.02.03.04.07.06.1.05.06.12.1.19.12l.72.4.11.09c.05.05.12.1.19.12l.23.18s.08.07.13.09l1.29,1.32,1.28,2.1,1.47,3.91.08.51.1.29.73,3.76.37,3.78.05.21v1.15c0,.06.02.13.06.21v.21h-16.83s0,0,0,0v-18.59h9.71ZM47.44,208.21h-.77v-.9s0-.08-.02-.12l-.05-.85s0-.08-.01-.12l-.18-2.04-.06-.29-.06-.67-.56-3.41-.1-.28-.08-.51-.1-.29-.07-.42-1.79-4.88-1.03-1.66-1.55-1.74c-.05-.05-.12-.1-.19-.12l-.23-.18s-.08-.07-.13-.09l-.05-.03h7.03v18.59ZM38.58,189.61c.07.13.19.23.34.28l.24.12c.05.05.12.1.19.12l.11.06s.08.07.13.09l.3.18.23.21c.05.05.12.1.19.12l.8.75,1.03,1.45.2.25.65,1.3.3.73.16.3.84,2.59.19.81.1.28.08.51.1.29.49,2.97.06.67.06.38.12,1.27.05.21v.55s0,.08.01.12l.05.85s0,.08.02.12l.04,1.02h-16.82s0,0,0,0v-18.59h9.74ZM27.85,208.21h-.7v-.11c0-.06-.03-.14-.06-.21v-1.01s0-.08-.01-.12l-.05-.67s0-.08-.02-.12l-.17-2.08-.12-.67-.06-.73-.75-3.83-.12-.34-.19-.81-1.24-3.4-1.53-2.58s-.05-.07-.07-.1l-1.34-1.4s-.08-.07-.13-.09l-.42-.3-.04-.03h7.02v18.59ZM19.02,189.61s.04.07.08.09c.02.02.02.05.04.06.05.06.12.1.19.12l.72.4.11.09s.08.07.13.09l.29.21s.08.07.13.09l1.29,1.32,1.28,2.1.73,1.82.16.3.12.36,1.37,5.91v.45s.13.67.13.67l.12,1.35.05.21v.61s0,.08.02.12l.05.67s0,.08.01.12l.05,1.28c0,.05.02.11.05.17H9.86v-18.59h9.16ZM49.63,272.81l-.05-.61s0-.08-.02-.12l-.54-4.04-.13-.65-.17-.55-.13-.72-.18-.59-.43-1.6-.25-.69-.18-.61-.24-.61s-.04-.08-.06-.11l-.14-.19-.34-.85s-.04-.08-.06-.11l-.14-.19-.1-.24s-.04-.08-.06-.11l-.27-.44-1.49-1.92s-.06-.07-.1-.1l-1.1-.8h7.4v16.4s0,0,0,0c-.02.02-.02.04-.03.07h-1.1l-.05-.47s0-.08-.01-.12ZM87.74,266.59c.78,1.99,2.66,3.36,4.81,3.47.08.05.16.09.26.09h28.2c.09,0,.18-.03.25-.08,2.17-.09,4.07-1.45,4.87-3.45l11.87,6.78h-62.18l11.92-6.81ZM140.37,273.4v-16.3s.05-.02.07-.04c.04-.04.05-.08.07-.13h7.07l-.6.49-1.74,1.99s-.05.07-.06.11l-.91,1.64-.97,2.37s-.02.07-.03.1l-.73,2.54-.61,3.24v.21s-.11.52-.11.52c-.01.04-.02.08-.02.12v.21s-.12.7-.12.7v.15s-.06.4-.06.4v.24l-.05.36s-.01.08-.01.12l-.05.37s-.01.08-.01.12v.47h-1.13ZM142.49,273.4v-.23l.05-.37s.01-.08.01-.12l.05-.36s.01-.08.01-.12v-.39s.06-.4.06-.4v-.14s.24-1.55.24-1.55v-.21s.59-3.11.59-3.11l.37-1.32.28-.82s.02-.07.03-.1l.05-.31.91-2.24.76-1.29s.05-.07.06-.11l.1-.24,2.22-2.32.49-.25.16-.12.15-.04s.09-.04.14-.07c.11-.04.2-.12.26-.22h12.24c.02.06.06.11.1.16.05.05.1.08.16.11v16.01c-.06.02-.11.06-.16.11-.03.03-.04.06-.06.1h-19.28ZM163.05,273.4s-.04-.06-.06-.09v-16.2c.07-.05.13-.11.17-.18h7.1l-.97.8s-.07.06-.1.1l-.5.61-.19.14c-.06.05-.11.11-.15.18l-.92,1.44s-.05.07-.06.11l-.1.24-.14.19s-.05.07-.06.11l-.12.3-.29.57-1.11,3.07s-.02.06-.03.1l-.11.61-.38,1.32-.37,1.98v.21s-.18,1.01-.18,1.01v.15s-.12.7-.12.7v.24l-.05.18s-.01.08-.01.12v.24l-.05.18s-.02.08-.02.12v.24l-.05.37s-.01.08-.01.12v.24l-.05.36s-.01.07-.01.11h-1.07ZM21.02,151.95h24.23v9.32h-24.23v-9.32ZM125.62,152.01h4.39s.24.04.24.04l.23.12.11.11.06.16.04,8.82H46.61v-9.26h41.87s.26-.06.26-.06h4.49v4.96c0,.27.22.5.5.5h27.17c.27,0,.5-.22.5-.5v-4.96h3.89l.35.06Z"/>
  <path class="cls-5" d="M185.36,209.2h-78.23s-.08-.01-.12-.02c-.04.01-.08.02-.12.02H9.68v1.86h97.2s.05.01.08.02c.01,0,.02,0,.03,0,0,0,.01,0,.02,0,.04-.01.08-.02.12-.02h97.32v-1.86h-19.09Z"/>
  <path class="cls-5" d="M185.36,231.64h-78.23s-.08-.01-.12-.02c-.04.01-.08.02-.12.02H9.68v1.86h97.2s.06,0,.08.01c.01,0,.03-.01.04-.01h97.45v-1.86h-19.09Z"/>
  <path class="cls-5" d="M204.45,254.08h-97.32s-.08-.01-.12-.02c-.04.01-.08.02-.12.02H9.68v1.86h18.75s.06-.02.09-.02c.06,0,.12,0,.17.02h156.73s.08-.02.12-.02c.03,0,.06.01.09.02h18.81v-1.86Z"/>
  <path class="cls-5" d="M46.61,150.96h46.61v-2.35c0-.27.22-.5.5-.5h27.17c.27,0,.5.22.5.5v2.35h75.36v-3.56H17.8v3.56h28.81Z"/>
  <path class="cls-5" d="M17.8,146.41h178.94V29.27H17.8v117.14ZM19.34,31.3c0-.27.22-.5.5-.5h174.88c.27,0,.5.22.5.5v113.08c0,.27-.22.5-.5.5H19.83c-.27,0-.5-.22-.5-.5V31.3Z"/>
  <path class="cls-4" d="M194.22,31.79H20.33v112.09h173.89V31.79ZM192.04,135.57c0,.27-.22.5-.5.5H23.07c-.27,0-.5-.22-.5-.5V34.53c0-.27.22-.5.5-.5h168.47c.27,0,.5.22.5.5v101.04Z"/>
  <rect class="cls-6" x="23.56" y="35.03" width="167.48" height="100.04"/>
  <rect class="cls-6" x="21.02" y="151.95" width="24.23" height="9.32"/>
  <path class="cls-1" d="M207.16,114.05c-.85,0-1.54.69-1.54,1.53s.69,1.54,1.54,1.54,1.53-.69,1.53-1.54-.69-1.53-1.53-1.53Z"/>
  <path d="M207.16,113.06c-1.39,0-2.53,1.13-2.53,2.53s1.13,2.53,2.53,2.53,2.53-1.13,2.53-2.53-1.13-2.53-2.53-2.53ZM207.16,117.12c-.85,0-1.54-.69-1.54-1.54s.69-1.53,1.54-1.53,1.53.69,1.53,1.53-.69,1.54-1.53,1.54Z"/>
  <path class="cls-1" d="M207.16,84.94c-.85,0-1.54.69-1.54,1.53s.69,1.54,1.54,1.54,1.53-.69,1.53-1.54-.69-1.53-1.53-1.53Z"/>
  <path d="M207.16,83.95c-1.39,0-2.53,1.13-2.53,2.53s1.13,2.53,2.53,2.53,2.53-1.13,2.53-2.53-1.13-2.53-2.53-2.53ZM207.16,88.01c-.85,0-1.54-.69-1.54-1.54s.69-1.53,1.54-1.53,1.53.69,1.53,1.53-.69,1.54-1.53,1.54Z"/>
  <path class="cls-1" d="M208.94,55.65h-3.56v3.55h3.56v-3.55ZM207.16,58.37c-.56,0-1.01-.45-1.01-1.01s.45-1.01,1.01-1.01,1.01.45,1.01,1.01-.45,1.01-1.01,1.01Z"/>
  <path d="M204.39,60.19h5.54v-5.54h-5.54v5.54ZM205.38,55.65h3.56v3.55h-3.56v-3.55Z"/>
  <path class="cls-1" d="M6.91,102.56c.85,0,1.53-.69,1.53-1.53s-.69-1.54-1.53-1.54-1.53.69-1.53,1.54.69,1.53,1.53,1.53Z"/>
  <path d="M6.91,103.56c1.39,0,2.53-1.13,2.53-2.53s-1.13-2.53-2.53-2.53-2.53,1.13-2.53,2.53,1.13,2.53,2.53,2.53ZM6.91,99.49c.85,0,1.53.69,1.53,1.54s-.69,1.53-1.53,1.53-1.53-.69-1.53-1.53.69-1.54,1.53-1.54Z"/>
  <path class="cls-1" d="M6.91,73.45c.85,0,1.53-.69,1.53-1.54s-.69-1.53-1.53-1.53-1.53.69-1.53,1.53.69,1.54,1.53,1.54Z"/>
  <path d="M6.91,74.45c1.39,0,2.53-1.13,2.53-2.53s-1.13-2.53-2.53-2.53-2.53,1.13-2.53,2.53,1.13,2.53,2.53,2.53ZM6.91,70.38c.85,0,1.53.69,1.53,1.53s-.69,1.54-1.53,1.54-1.53-.69-1.53-1.54.69-1.53,1.53-1.53Z"/>
  <path class="cls-1" d="M6.91,66.18c.85,0,1.53-.69,1.53-1.54s-.69-1.53-1.53-1.53-1.53.69-1.53,1.53.69,1.54,1.53,1.54Z"/>
  <path d="M6.91,67.17c1.39,0,2.53-1.13,2.53-2.53s-1.13-2.53-2.53-2.53-2.53,1.13-2.53,2.53,1.13,2.53,2.53,2.53ZM6.91,63.11c.85,0,1.53.69,1.53,1.53s-.69,1.54-1.53,1.54-1.53-.69-1.53-1.54.69-1.53,1.53-1.53Z"/>
  <path class="cls-1" d="M6.91,95.29c.85,0,1.53-.69,1.53-1.54s-.69-1.53-1.53-1.53-1.53.69-1.53,1.53.69,1.54,1.53,1.54Z"/>
  <path d="M6.91,96.28c1.39,0,2.53-1.13,2.53-2.53s-1.13-2.53-2.53-2.53-2.53,1.13-2.53,2.53,1.13,2.53,2.53,2.53ZM6.91,92.22c.85,0,1.53.69,1.53,1.53s-.69,1.54-1.53,1.54-1.53-.69-1.53-1.54.69-1.53,1.53-1.53Z"/>
  <path class="cls-1" d="M5.07,59.2h3.62v-3.55h-3.62v3.55ZM6.91,56.35c.56,0,1.01.45,1.01,1.01s-.45,1.01-1.01,1.01-1.01-.45-1.01-1.01.45-1.01,1.01-1.01Z"/>
  <path d="M9.68,54.65h-5.6v5.54h5.6v-5.54ZM8.68,59.2h-3.62v-3.55h3.62v3.55Z"/>
  <path class="cls-1" d="M207.16,77.66c-.85,0-1.54.69-1.54,1.54s.69,1.53,1.54,1.53,1.53-.69,1.53-1.53-.69-1.54-1.53-1.54Z"/>
  <path d="M207.16,76.67c-1.39,0-2.53,1.13-2.53,2.53s1.13,2.53,2.53,2.53,2.53-1.13,2.53-2.53-1.13-2.53-2.53-2.53ZM207.16,80.73c-.85,0-1.54-.69-1.54-1.53s.69-1.54,1.54-1.54,1.53.69,1.53,1.54-.69,1.53-1.53,1.53Z"/>
  <path class="cls-1" d="M207.16,106.77c-.85,0-1.54.69-1.54,1.53s.69,1.54,1.54,1.54,1.53-.69,1.53-1.54-.69-1.53-1.53-1.53Z"/>
  <path d="M207.16,105.78c-1.39,0-2.53,1.13-2.53,2.53s1.13,2.53,2.53,2.53,2.53-1.13,2.53-2.53-1.13-2.53-2.53-2.53ZM207.16,109.84c-.85,0-1.54-.69-1.54-1.54s.69-1.53,1.54-1.53,1.53.69,1.53,1.53-.69,1.54-1.53,1.54Z"/>
  <path class="cls-1" d="M207.16,121.33c-.85,0-1.54.69-1.54,1.54s.69,1.53,1.54,1.53,1.53-.69,1.53-1.53-.69-1.54-1.53-1.54Z"/>
  <path d="M207.16,120.33c-1.39,0-2.53,1.13-2.53,2.53s1.13,2.53,2.53,2.53,2.53-1.13,2.53-2.53-1.13-2.53-2.53-2.53ZM207.16,124.4c-.85,0-1.54-.69-1.54-1.53s.69-1.54,1.54-1.54,1.53.69,1.53,1.54-.69,1.53-1.53,1.53Z"/>
  <path class="cls-1" d="M207.16,92.22c-.85,0-1.54.69-1.54,1.53s.69,1.54,1.54,1.54,1.53-.69,1.53-1.54-.69-1.53-1.53-1.53Z"/>
  <path d="M207.16,91.22c-1.39,0-2.53,1.13-2.53,2.53s1.13,2.53,2.53,2.53,2.53-1.13,2.53-2.53-1.13-2.53-2.53-2.53ZM207.16,95.29c-.85,0-1.54-.69-1.54-1.54s.69-1.53,1.54-1.53,1.53.69,1.53,1.53-.69,1.54-1.53,1.54Z"/>
  <path class="cls-1" d="M207.16,63.11c-.85,0-1.54.69-1.54,1.53s.69,1.54,1.54,1.54,1.53-.69,1.53-1.54-.69-1.53-1.53-1.53Z"/>
  <path d="M207.16,62.11c-1.39,0-2.53,1.13-2.53,2.53s1.13,2.53,2.53,2.53,2.53-1.13,2.53-2.53-1.13-2.53-2.53-2.53ZM207.16,66.18c-.85,0-1.54-.69-1.54-1.54s.69-1.53,1.54-1.53,1.53.69,1.53,1.53-.69,1.54-1.53,1.54Z"/>
  <path class="cls-1" d="M6.91,109.84c.85,0,1.53-.69,1.53-1.54s-.69-1.53-1.53-1.53-1.53.69-1.53,1.53.69,1.54,1.53,1.54Z"/>
  <path d="M6.91,110.83c1.39,0,2.53-1.13,2.53-2.53s-1.13-2.53-2.53-2.53-2.53,1.13-2.53,2.53,1.13,2.53,2.53,2.53ZM6.91,106.77c.85,0,1.53.69,1.53,1.53s-.69,1.54-1.53,1.54-1.53-.69-1.53-1.54.69-1.53,1.53-1.53Z"/>
  <path class="cls-1" d="M6.91,80.73c.85,0,1.53-.69,1.53-1.53s-.69-1.54-1.53-1.54-1.53.69-1.53,1.54.69,1.53,1.53,1.53Z"/>
  <path d="M6.91,81.72c1.39,0,2.53-1.13,2.53-2.53s-1.13-2.53-2.53-2.53-2.53,1.13-2.53,2.53,1.13,2.53,2.53,2.53ZM6.91,77.66c.85,0,1.53.69,1.53,1.54s-.69,1.53-1.53,1.53-1.53-.69-1.53-1.53.69-1.54,1.53-1.54Z"/>
  <path class="cls-1" d="M8.44,122.86c0-.85-.69-1.54-1.53-1.54s-1.53.69-1.53,1.54.69,1.53,1.53,1.53,1.53-.69,1.53-1.53Z"/>
  <path d="M9.43,122.86c0-1.39-1.13-2.53-2.53-2.53s-2.53,1.13-2.53,2.53,1.13,2.53,2.53,2.53,2.53-1.13,2.53-2.53ZM5.37,122.86c0-.85.69-1.54,1.53-1.54s1.53.69,1.53,1.54-.69,1.53-1.53,1.53-1.53-.69-1.53-1.53Z"/>
  <path class="cls-1" d="M6.91,88.01c.85,0,1.53-.69,1.53-1.54s-.69-1.53-1.53-1.53-1.53.69-1.53,1.53.69,1.54,1.53,1.54Z"/>
  <path d="M6.91,89c1.39,0,2.53-1.13,2.53-2.53s-1.13-2.53-2.53-2.53-2.53,1.13-2.53,2.53,1.13,2.53,2.53,2.53ZM6.91,84.94c.85,0,1.53.69,1.53,1.53s-.69,1.54-1.53,1.54-1.53-.69-1.53-1.54.69-1.53,1.53-1.53Z"/>
  <path class="cls-1" d="M6.91,117.12c.85,0,1.53-.69,1.53-1.54s-.69-1.53-1.53-1.53-1.53.69-1.53,1.53.69,1.54,1.53,1.54Z"/>
  <path d="M6.91,118.11c1.39,0,2.53-1.13,2.53-2.53s-1.13-2.53-2.53-2.53-2.53,1.13-2.53,2.53,1.13,2.53,2.53,2.53ZM6.91,114.05c.85,0,1.53.69,1.53,1.53s-.69,1.54-1.53,1.54-1.53-.69-1.53-1.54.69-1.53,1.53-1.53Z"/>
  <path class="cls-1" d="M207.16,70.38c-.85,0-1.54.69-1.54,1.53s.69,1.54,1.54,1.54,1.53-.69,1.53-1.54-.69-1.53-1.53-1.53Z"/>
  <path d="M207.16,69.39c-1.39,0-2.53,1.13-2.53,2.53s1.13,2.53,2.53,2.53,2.53-1.13,2.53-2.53-1.13-2.53-2.53-2.53ZM207.16,73.45c-.85,0-1.54-.69-1.54-1.54s.69-1.53,1.54-1.53,1.53.69,1.53,1.53-.69,1.54-1.53,1.54Z"/>
  <path class="cls-1" d="M207.16,99.49c-.85,0-1.54.69-1.54,1.54s.69,1.53,1.54,1.53,1.53-.69,1.53-1.53-.69-1.54-1.53-1.54Z"/>
  <path d="M207.16,98.5c-1.39,0-2.53,1.13-2.53,2.53s1.13,2.53,2.53,2.53,2.53-1.13,2.53-2.53-1.13-2.53-2.53-2.53ZM207.16,102.56c-.85,0-1.54-.69-1.54-1.53s.69-1.54,1.54-1.54,1.53.69,1.53,1.54-.69,1.53-1.53,1.53Z"/>
  <path d="M191.54,34.03H23.07c-.27,0-.5.22-.5.5v101.04c0,.27.22.5.5.5h168.47c.27,0,.5-.22.5-.5V34.53c0-.27-.22-.5-.5-.5ZM191.05,135.07H23.56V35.03h167.48v100.04Z"/>
  <rect class="cls-1" x="94.22" y="149.1" width="26.18" height="7.32"/>
  <polygon class="cls-6" points="57.53 297.88 57.83 298.15 59.99 298.15 60.29 297.88 60.29 296.41 57.53 296.41 57.53 297.88"/>
  <path class="cls-2" d="M193.53,287.82c0-1.85-1.5-3.35-3.35-3.35s-3.35,1.51-3.35,3.35,1.5,3.35,3.35,3.35,3.35-1.5,3.35-3.35Z"/>
  <path d="M190.18,283.47c-2.4,0-4.35,1.95-4.35,4.35s1.95,4.35,4.35,4.35,4.35-1.95,4.35-4.35-1.95-4.35-4.35-4.35ZM186.82,287.82c0-1.85,1.5-3.35,3.35-3.35s3.35,1.51,3.35,3.35-1.5,3.35-3.35,3.35-3.35-1.5-3.35-3.35Z"/>
  <path d="M53,288.32c-.99,0-1.8.81-1.8,1.8s.81,1.8,1.8,1.8,1.8-.81,1.8-1.8-.81-1.8-1.8-1.8ZM53,290.93c-.45,0-.81-.36-.81-.81s.36-.81.81-.81.81.36.81.81-.36.81-.81.81Z"/>
  <path class="cls-2" d="M23.95,284.46c-1.85,0-3.35,1.51-3.35,3.35s1.5,3.35,3.35,3.35,3.35-1.5,3.35-3.35-1.5-3.35-3.35-3.35Z"/>
  <path d="M23.95,283.47c-2.4,0-4.35,1.95-4.35,4.35s1.95,4.35,4.35,4.35,4.35-1.95,4.35-4.35-1.95-4.35-4.35-4.35ZM23.95,291.17c-1.85,0-3.35-1.5-3.35-3.35s1.5-3.35,3.35-3.35,3.35,1.51,3.35,3.35-1.5,3.35-3.35,3.35Z"/>
  <path class="cls-5" d="M113.87,166.06l-.29-.18-.43-.33-1.19-.38-11.04.14-.24.14-.43.18-.71.54-.57.72-.5,1.48.03,11.12.52,1.35.96,1.01.26.11.43.24,1.08.28,10.5-.1.73-.22.72-.45,1.05-1.33.32-1.36-.1-11.12-.31-.79-.79-1.08ZM113.8,178.68l-.11.27v.12l-.57,1.02-1.74,1.01-.31.05-8.94-.05-.16-.06h-.12l-1.12-.64-.97-1.44v-.17s-.06-.11-.06-.11v-.12s-.05-.1-.05-.1v-9.25l.05-.16v-.12l.51-1.19.44-.44.05-.11,1.52-.68h9.03l.49.16h.12l1.08.68.84,1.57v9.75Z"/>
  <path d="M97.59,180.08l.45,1.07,1.09,1.29.93.61,1.12.37,10.67.08,1.49-.39.92-.54.79-.8.55-.85.36-1.09.03-11.86-.33-1.07-.97-1.41-1.04-.79-.3-.12-.25-.12-.58-.19-11.46-.02-1.07.39-1.04.73-.85,1.05-.3.67-.21.37-.11.64v11.4s.07.34.07.34l.03.27ZM115.06,179.05l-.32,1.36-1.05,1.33-.72.45-.73.22-10.5.1-1.08-.28-.43-.24-.26-.11-.96-1.01-.52-1.35-.03-11.12.5-1.48.57-.72.71-.54.43-.18.24-.14,11.04-.14,1.19.38.43.33.29.18.79,1.08.31.79.1,11.12Z"/>
  <path d="M19.83,144.88h174.88c.27,0,.5-.22.5-.5V31.3c0-.27-.22-.5-.5-.5H19.83c-.27,0-.5.22-.5.5v113.08c0,.27.22.5.5.5ZM20.33,31.79h173.89v112.09H20.33V31.79Z"/>
  <polygon class="cls-5" points="120.33 289.61 120.24 289.23 120.08 288.91 119.83 288.74 119.47 288.65 119.16 288.69 118.82 288.86 118.59 289.09 118.48 289.39 118.51 291.61 118.71 291.93 119 292.14 119.32 292.25 119.66 292.22 119.97 292.06 120.2 291.79 120.34 291.21 120.33 289.61"/>
  <path d="M120.85,288.24l-.53-.37-.81-.22-.57.07-.65.29-.49.46-.33.75v2.22s.06.42.06.42l.37.68.56.44.71.28.66-.07.65-.29.59-.63.23-.97v-1.76l-.14-.61-.34-.7ZM119.97,292.06l-.32.16-.34.04-.31-.12-.29-.21-.2-.32-.04-2.22.11-.3.23-.23.34-.17.31-.04.36.08.24.17.16.33.09.37v1.6s-.13.58-.13.58l-.23.27Z"/>
  <polygon class="cls-5" points="95.6 291.21 95.59 289.61 95.5 289.23 95.33 288.91 95.09 288.74 94.73 288.65 94.41 288.69 94.07 288.86 93.85 289.09 93.67 289.6 93.67 291.3 93.77 291.65 93.92 291.94 94.19 292.13 94.56 292.25 94.9 292.22 95.16 292.07 95.42 291.77 95.55 291.46 95.6 291.21"/>
  <path d="M96.11,288.24l-.53-.37-.81-.22-.57.07-.65.29-.49.46-.31.71-.06.24-.02,1.94.17.65.3.6.53.37.78.28.65-.07.62-.31.49-.53.26-.55.1-.5v-1.76l-.14-.61-.34-.7ZM95.16,292.07l-.26.15-.34.04-.37-.12-.27-.19-.15-.29-.1-.36v-1.69l.17-.51.23-.23.34-.17.32-.04.36.08.24.17.16.33.09.37v1.6s-.04.25-.04.25l-.13.31-.26.3Z"/>
  <path d="M207.16,56.35c-.56,0-1.01.45-1.01,1.01s.45,1.01,1.01,1.01,1.01-.45,1.01-1.01-.45-1.01-1.01-1.01Z"/>
  <path d="M91.57,17.38c1.39,0,2.53-1.13,2.53-2.53s-1.13-2.53-2.53-2.53-2.53,1.13-2.53,2.53,1.13,2.53,2.53,2.53ZM91.57,13.32c.85,0,1.54.69,1.54,1.53s-.69,1.54-1.54,1.54-1.53-.69-1.53-1.54.69-1.53,1.53-1.53Z"/>
  <path d="M106.12,17.38c1.39,0,2.53-1.13,2.53-2.53s-1.13-2.53-2.53-2.53-2.53,1.13-2.53,2.53,1.13,2.53,2.53,2.53ZM106.12,13.32c.85,0,1.53.69,1.53,1.53s-.69,1.54-1.53,1.54-1.53-.69-1.53-1.54.69-1.53,1.53-1.53Z"/>
  <path d="M6.91,58.37c.56,0,1.01-.45,1.01-1.01s-.45-1.01-1.01-1.01-1.01.45-1.01,1.01.45,1.01,1.01,1.01Z"/>
  <path d="M113.4,17.38c1.39,0,2.53-1.13,2.53-2.53s-1.13-2.53-2.53-2.53-2.53,1.13-2.53,2.53,1.13,2.53,2.53,2.53ZM113.4,13.32c.85,0,1.53.69,1.53,1.53s-.69,1.54-1.53,1.54-1.53-.69-1.53-1.54.69-1.53,1.53-1.53Z"/>
  <path d="M127.96,17.38c1.39,0,2.53-1.13,2.53-2.53s-1.13-2.53-2.53-2.53-2.53,1.13-2.53,2.53,1.13,2.53,2.53,2.53ZM127.96,13.32c.85,0,1.53.69,1.53,1.53s-.69,1.54-1.53,1.54-1.54-.69-1.54-1.54.69-1.53,1.54-1.53Z"/>
  <path d="M84.29,17.38c1.39,0,2.53-1.13,2.53-2.53s-1.13-2.53-2.53-2.53-2.53,1.13-2.53,2.53,1.13,2.53,2.53,2.53ZM84.29,13.32c.85,0,1.53.69,1.53,1.53s-.69,1.54-1.53,1.54-1.54-.69-1.54-1.54.69-1.53,1.54-1.53Z"/>
  <path d="M98.84,17.38c1.39,0,2.53-1.13,2.53-2.53s-1.13-2.53-2.53-2.53-2.53,1.13-2.53,2.53,1.13,2.53,2.53,2.53ZM98.84,13.32c.85,0,1.54.69,1.54,1.53s-.69,1.54-1.54,1.54-1.53-.69-1.53-1.54.69-1.53,1.53-1.53Z"/>
  <path d="M142.51,13.84c-.56,0-1.01.45-1.01,1.01s.45,1.01,1.01,1.01,1.01-.45,1.01-1.01-.45-1.01-1.01-1.01Z"/>
  <path d="M140.17,17.68h4.61c.27,0,.5-.22.5-.5v-4.61c0-.27-.22-.5-.5-.5h-4.61c-.27,0-.5.22-.5.5v4.61c0,.27.22.5.5.5ZM140.67,13.07h3.62v3.62h-3.62v-3.62Z"/>
  <path d="M120.68,17.38c1.39,0,2.53-1.13,2.53-2.53s-1.13-2.53-2.53-2.53-2.53,1.13-2.53,2.53,1.13,2.53,2.53,2.53ZM120.68,13.32c.85,0,1.53.69,1.53,1.53s-.69,1.54-1.53,1.54-1.53-.69-1.53-1.54.69-1.53,1.53-1.53Z"/>
  <path d="M135.23,17.38c1.39,0,2.53-1.13,2.53-2.53s-1.13-2.53-2.53-2.53-2.53,1.13-2.53,2.53,1.13,2.53,2.53,2.53ZM135.23,13.32c.85,0,1.54.69,1.54,1.53s-.69,1.54-1.54,1.54-1.53-.69-1.53-1.54.69-1.53,1.53-1.53Z"/>
  <path d="M77.01,17.38c1.39,0,2.53-1.13,2.53-2.53s-1.13-2.53-2.53-2.53-2.53,1.13-2.53,2.53,1.13,2.53,2.53,2.53ZM77.01,13.32c.85,0,1.53.69,1.53,1.53s-.69,1.54-1.53,1.54-1.53-.69-1.53-1.54.69-1.53,1.53-1.53Z"/>
  <path class="cls-1" d="M16.11,17.58c0,4.32,3.52,7.84,7.84,7.84s7.84-3.52,7.84-7.84-3.52-7.84-7.84-7.84-7.84,3.52-7.84,7.84ZM23.95,11.05c3.6,0,6.53,2.93,6.53,6.53s-2.93,6.53-6.53,6.53-6.53-2.93-6.53-6.53,2.93-6.53,6.53-6.53Z"/>
  <path d="M23.95,26.42c4.87,0,8.84-3.96,8.84-8.84s-3.96-8.84-8.84-8.84-8.84,3.96-8.84,8.84,3.96,8.84,8.84,8.84ZM31.79,17.58c0,4.32-3.52,7.84-7.84,7.84s-7.84-3.52-7.84-7.84,3.52-7.84,7.84-7.84,7.84,3.52,7.84,7.84Z"/>
  <path class="cls-5" d="M18.41,17.58c0,3.05,2.48,5.54,5.54,5.54s5.54-2.48,5.54-5.54-2.48-5.54-5.54-5.54-5.54,2.48-5.54,5.54ZM23.95,13.55c2.22,0,4.03,1.81,4.03,4.03s-1.81,4.03-4.03,4.03-4.03-1.81-4.03-4.03,1.81-4.03,4.03-4.03Z"/>
  <path d="M23.95,24.11c3.6,0,6.53-2.93,6.53-6.53s-2.93-6.53-6.53-6.53-6.53,2.93-6.53,6.53,2.93,6.53,6.53,6.53ZM29.49,17.58c0,3.05-2.48,5.54-5.54,5.54s-5.54-2.48-5.54-5.54,2.48-5.54,5.54-5.54,5.54,2.48,5.54,5.54Z"/>
  <path class="cls-2" d="M20.91,17.58c0,1.68,1.36,3.04,3.04,3.04s3.04-1.36,3.04-3.04-1.36-3.04-3.04-3.04-3.04,1.36-3.04,3.04Z"/>
  <path d="M23.95,21.61c2.22,0,4.03-1.81,4.03-4.03s-1.81-4.03-4.03-4.03-4.03,1.81-4.03,4.03,1.81,4.03,4.03,4.03ZM26.99,17.58c0,1.68-1.36,3.04-3.04,3.04s-3.04-1.36-3.04-3.04,1.36-3.04,3.04-3.04,3.04,1.36,3.04,3.04Z"/>
  <path class="cls-6" d="M39.59,17.53h6.08v-6.08h-6.08v6.08ZM42.69,11.97c1.39,0,2.52,1.13,2.52,2.52s-1.13,2.52-2.52,2.52-2.52-1.13-2.52-2.52,1.13-2.52,2.52-2.52Z"/>
  <path d="M46.66,10.45h-8.07v8.07h8.07v-8.07ZM45.67,17.53h-6.08v-6.08h6.08v6.08Z"/>
  <path class="cls-5" d="M42.69,16.01c.84,0,1.52-.68,1.52-1.52s-.68-1.52-1.52-1.52-1.52.68-1.52,1.52.68,1.52,1.52,1.52Z"/>
  <path d="M42.69,17.01c1.39,0,2.52-1.13,2.52-2.52s-1.13-2.52-2.52-2.52-2.52,1.13-2.52,2.52,1.13,2.52,2.52,2.52ZM42.69,12.96c.84,0,1.52.68,1.52,1.52s-.68,1.52-1.52,1.52-1.52-.68-1.52-1.52.68-1.52,1.52-1.52Z"/>
  <path d="M203.16,38.73c.86,0,1.56-.7,1.56-1.56s-.7-1.56-1.56-1.56-1.56.7-1.56,1.56.7,1.56,1.56,1.56ZM203.16,36.6c.31,0,.56.25.56.56s-.25.56-.56.56-.56-.25-.56-.56.25-.56.56-.56Z"/>
  <polygon class="cls-6" points="102.14 180.04 102.26 180.04 102.6 180.15 111.15 180.1 111.26 180.04 111.54 179.99 112.2 179.55 112.27 179.4 112.58 179.06 112.8 178.34 112.8 169.16 112.69 168.95 112.63 168.67 111.76 167.74 111.27 167.57 111.15 167.57 110.88 167.51 102.47 167.52 102.36 167.57 102.09 167.63 101.47 167.94 101.41 168.05 101.21 168.17 101.08 168.43 100.97 168.49 100.77 168.94 100.77 169.06 100.71 169.22 100.71 169.33 100.66 169.44 100.66 178.23 100.77 178.55 100.77 178.72 101.28 179.53 102.14 180.04"/>
  <path d="M111.88,166.68h-.12l-.49-.16h-9.03l-1.52.68-.05.11-.44.44-.51,1.19v.12l-.05.16v9.25l.05.1v.12s.06.11.06.11v.17s.97,1.44.97,1.44l1.12.64h.12l.16.06,8.94.05.31-.05,1.74-1.01.57-1.02v-.12l.11-.27v-9.75l-.84-1.57-1.08-.68ZM100.77,178.55l-.11-.32v-8.79s.05-.11.05-.11v-.12l.06-.16v-.12l.2-.46.11-.06.13-.26.2-.13.05-.11.62-.31.28-.06.1-.05h8.41s.27.05.27.05h.12l.49.17.88.93.06.28.11.22v9.18s-.22.71-.22.71l-.31.34-.07.15-.66.44-.28.06-.11.05-8.55.06-.35-.11h-.12l-.86-.51-.51-.81v-.17Z"/>
  <path class="cls-1" d="M190.18,25.42c4.32,0,7.84-3.52,7.84-7.84s-3.52-7.84-7.84-7.84-7.84,3.52-7.84,7.84,3.52,7.84,7.84,7.84ZM190.18,11.05c3.6,0,6.53,2.93,6.53,6.53s-2.93,6.53-6.53,6.53-6.53-2.93-6.53-6.53,2.93-6.53,6.53-6.53Z"/>
  <path d="M190.18,26.42c4.87,0,8.84-3.96,8.84-8.84s-3.96-8.84-8.84-8.84-8.84,3.96-8.84,8.84,3.96,8.84,8.84,8.84ZM190.18,9.74c4.32,0,7.84,3.52,7.84,7.84s-3.52,7.84-7.84,7.84-7.84-3.52-7.84-7.84,3.52-7.84,7.84-7.84Z"/>
  <path class="cls-5" d="M190.18,23.12c3.05,0,5.54-2.48,5.54-5.54s-2.48-5.54-5.54-5.54-5.54,2.48-5.54,5.54,2.48,5.54,5.54,5.54ZM190.18,13.55c2.22,0,4.03,1.81,4.03,4.03s-1.81,4.03-4.03,4.03-4.03-1.81-4.03-4.03,1.81-4.03,4.03-4.03Z"/>
  <path d="M190.18,24.11c3.6,0,6.53-2.93,6.53-6.53s-2.93-6.53-6.53-6.53-6.53,2.93-6.53,6.53,2.93,6.53,6.53,6.53ZM190.18,12.04c3.05,0,5.54,2.48,5.54,5.54s-2.48,5.54-5.54,5.54-5.54-2.48-5.54-5.54,2.48-5.54,5.54-5.54Z"/>
  <path class="cls-2" d="M190.18,20.62c1.68,0,3.04-1.36,3.04-3.04s-1.36-3.04-3.04-3.04-3.04,1.36-3.04,3.04,1.36,3.04,3.04,3.04Z"/>
  <path d="M190.18,21.61c2.22,0,4.03-1.81,4.03-4.03s-1.81-4.03-4.03-4.03-4.03,1.81-4.03,4.03,1.81,4.03,4.03,4.03ZM190.18,14.54c1.68,0,3.04,1.36,3.04,3.04s-1.36,3.04-3.04,3.04-3.04-1.36-3.04-3.04,1.36-3.04,3.04-3.04Z"/>
</svg>