<?xml version="1.0" encoding="UTF-8"?>
<svg id="Layer_1" xmlns="http://www.w3.org/2000/svg" version="1.1" viewBox="0 0 223.5 308">
  <!-- Generator: Adobe Illustrator 29.3.1, SVG Export Plug-In . SVG Version: 2.1.0 Build 151)  -->
  <defs>
    <style>
      .st0 {
        fill: #606060;
      }

      .st0, .st1, .st2, .st3, .st4, .st5 {
        stroke: #000;
      }

      .st0, .st1, .st3, .st4, .st5 {
        stroke-miterlimit: 10;
      }

      .st6, .st5 {
        fill: #d39e4e;
      }

      .st1, .st7 {
        fill: #333531;
      }

      .st2 {
        fill: none;
        stroke-linecap: round;
        stroke-linejoin: round;
      }

      .st3 {
        fill: #535551;
        stroke-width: 2px;
      }

      .st8 {
        fill: #1a1a1a;
      }

      .st4, .st9 {
        fill: #b3b3b3;
      }
    </style>
  </defs>
  <path d="M72.7,308l-1.3-.2-1.1-.3-1.3-.6-1.1-.8-.8-.8-2.1,1.9h-5.2l-2.8-2.5v-.2h-2.2l-.7,1-1,1-1.1.7-1.1.5-1.3.3h-1c0,0-23,.1-23,.1h-1.7c0,0-1.9-.3-1.9-.3l-1.7-.3-1.8-.4-1.8-.6-1.7-.7-1.6-.8-1.6-.9-1.5-1.1-1.4-1.1-1.3-1.2-1.2-1.3-1.2-1.4-1.1-1.5-1-1.6-.8-1.6-.7-1.7-.6-1.8-.4-1.8-.3-1.8-.2-1.8v-1.8C0,282.4,0,25.5,0,25.5v-1.7c0,0,.3-1.8.3-1.8l.3-1.8.4-1.8.6-1.8.7-1.7.8-1.6.9-1.6,1.1-1.5,1.1-1.4,1.2-1.3,1.3-1.2,1.4-1.2,1.5-1.1,1.6-1,1.6-.8,1.7-.7,1.8-.6,1.8-.4,1.8-.3,1.8-.2h1.8C25.6,0,195.9,0,195.9,0h1.7c0,0,1.8.3,1.8.3l1.7.3,1.9.5,1.7.6,1.7.7,1.6.8,1.8,1,1.4,1.1,1.3,1.1,1.4,1.2,1.3,1.3,1.2,1.5,1,1.5.9,1.5.8,1.6.7,1.7.6,1.8.4,1.7.4,1.9v1.8c.1,0,.2,1.7.2,1.7v7.9c1.2.6,2,1.8,2,3.2v7.5c0,1.4-.8,2.6-2,3.2v235.2s0,1.7,0,1.7l-.2,1.9-.4,1.8-.4,1.6-.6,1.8-.7,1.7-.8,1.6-.9,1.6-1,1.5-1.2,1.5-1.3,1.3-1.4,1.2-1.4,1.1-1.5,1.1-1.6.9-1.7.8-1.6.7-1.8.6-1.8.4-1.8.3-1.7.2h-1.8c0,0-123,0-123,0h-.2Z"/>
  <path d="M220,36.2h-1.5v-10.6s0-1.6,0-1.6v-1.5c-.1,0-.5-1.7-.5-1.7l-.4-1.5-.5-1.5-.6-1.5-.7-1.4-.8-1.4-.9-1.4-1-1.3-1.1-1.2-1.2-1.1-1.2-1-1.2-.9-1.5-.9-1.4-.7-1.5-.6-1.5-.5-1.7-.4-1.6-.3-1.6-.2h-1.6c0,0-170.2,0-170.2,0h-1.6c0,0-1.6.3-1.6.3l-1.6.3-1.5.4-1.5.5-1.5.6-1.4.7-1.4.8-1.3.9-1.3,1-1.1,1.1-1.1,1.2-1,1.3-1,1.4-.8,1.4-.7,1.4-.6,1.5-.5,1.5-.4,1.5-.3,1.6-.2,1.6v1.6c0,0,0,256.8,0,256.8v1.6c0,0,.3,1.6.3,1.6l.3,1.6.4,1.5.5,1.5.6,1.5.7,1.4.8,1.4.9,1.3,1,1.3,1.1,1.1,1.2,1.1,1.3,1,1.4,1,1.4.8,1.4.7,1.5.6,1.5.5,1.5.4,1.6.3,1.6.2h1.6c0,0,22.7,0,22.7,0h.6c0,0,.8-.3.8-.3l.7-.3.7-.4.6-.6.5-.7.3-.7.2-.6h7.2v1.9l.9.8h2.9l.9-.8v-1.9h3.7l.2.5.3.7.5.7.5.6.6.5.8.4.7.2h.9c0,.1,123,0,123,0h1.6c0,0,1.6-.3,1.6-.3l1.6-.3,1.6-.4,1.6-.5,1.4-.6,1.5-.7,1.3-.8,1.3-1,1.3-1,1.2-1.1,1.1-1.2,1-1.3.9-1.3.8-1.4.7-1.4.6-1.5.5-1.5.4-1.5.3-1.5v-1.7c.1,0,.2-1.6.2-1.6V44.7s1.5,0,1.5,0c.3,0,.5-.2.5-.5v-7.5c0-.3-.2-.5-.5-.5Z"/>
  <polyline class="st8" points="217.8 44.2 220 44.2 220 36.7 217.8 36.7"/>
  <polyline class="st3" points="201.9 4.8 203.4 5.3 204.8 5.9 206.2 6.6 207.5 7.4 208.8 8.3 210 9.3 211.1 10.3 212.2 11.4 213.2 12.7 214 13.9 214.8 15.3 215.5 16.6 216.1 18.1 216.6 19.6 216.9 21 217.2 22.6 217.4 24.1 217.4 25.6 217.4 282.4 217.4 283.9 217.2 285.4 216.9 287 216.6 288.4 216.1 289.9 215.5 291.4 214.8 292.7 214 294 213.2 295.3 212.2 296.5 211.1 297.6 210 298.7 208.8 299.7 207.5 300.6 206.2 301.4 204.8 302 203.4 302.7 201.9 303.1 200.4 303.5 198.9 303.8 197.3 303.9 195.8 304 72.9 304 72.2 303.9 71.6 303.8 71 303.5 70.5 303.1 70.1 302.7 69.7 302.2 69.5 301.6 69.3 301 69.3 300.4 51.9 300.4 51.8 301 51.6 301.6 51.4 302.2 51 302.7 50.6 303.1 50 303.5 49.5 303.8 48.9 303.9 48.3 304 25.6 304 24.1 303.9 22.6 303.8 21 303.5 19.6 303.1 18.1 302.7 16.6 302 15.3 301.4 13.9 300.6 12.7 299.7 11.4 298.7 10.3 297.6 9.3 296.5 8.3 295.3 7.4 294 6.6 292.7 5.9 291.4 5.3 289.9 4.8 288.4 4.5 287 4.2 285.4 4.1 283.9 4 282.4 4 25.6 4.1 24.1 4.2 22.6 4.5 21 4.8 19.6 5.3 18.1 5.9 16.6 6.6 15.3 7.4 13.9 8.3 12.7 9.3 11.4 10.3 10.3 11.4 9.3 12.7 8.3 13.9 7.4 15.3 6.6 16.6 5.9 18.1 5.3 19.6 4.8 21 4.5 22.6 4.2 24.1 4.1 25.6 4 195.8 4 197.3 4.1 198.9 4.2 200.4 4.5 201.9 4.8"/>
  <polygon class="st1" points="12.4 165.8 12.3 165.9 12.2 165.9 12.2 262.5 12.4 262.8 20.2 262.8 20.2 274.9 20.2 275.6 20.4 276.2 20.6 276.8 20.9 277.4 21.3 277.9 21.8 278.4 22.3 278.8 22.9 279.1 23.5 279.3 24.1 279.5 24.8 279.5 38.1 279.5 38.1 279.5 39.2 279.5 40.3 279.6 41.3 279.8 42.3 280 43.4 280.3 43.4 280.4 53.7 283.7 54.2 283.9 54.7 284.2 55.2 284.6 55.6 284.9 55.9 285.4 56.2 285.9 56.4 286.5 56.5 287 56.5 287.6 56.5 287.6 56.5 289.6 56.6 290 56.7 290.5 56.9 290.9 57.2 291.2 57.5 291.5 58 291.8 58.4 291.9 58.9 292 61.3 292 62 292.5 62.2 292.7 62.5 292.8 62.8 292.9 63.2 292.9 66 292.9 66.3 292.9 66.6 292.9 66.8 292.8 67.1 292.6 68 291.9 70.1 291.9 70.5 291.8 71 291.7 71.4 291.5 71.8 291.2 72 290.9 72.2 290.4 72.4 290 72.4 289.5 72.4 288.2 72.5 287.8 72.6 287.3 72.8 286.8 73 286.5 73.4 286.2 73.8 285.9 74.2 285.7 74.6 285.6 75.1 285.6 75.1 285.6 81.5 285.6 81.5 285.6 81.6 285.9 81.7 286.2 81.8 286.4 82.1 286.5 82.3 286.7 82.6 286.7 86.7 286.7 87 286.7 87.3 286.5 87.5 286.4 87.7 286.2 87.8 285.9 87.8 285.6 87.8 285.6 133.3 285.6 133.3 285.9 133.4 286.2 133.5 286.4 133.7 286.5 133.8 286.7 134.1 286.7 139 286.7 139.3 286.7 139.5 286.5 139.7 286.4 139.8 286.2 139.8 285.9 139.8 285.6 161.1 285.6 162.1 285.5 163.1 285.4 164.1 285.3 165 285 166 284.7 177.7 280.5 178.8 280.1 179.9 279.8 181.1 279.6 182.3 279.5 183.4 279.5 183.5 279.5 196.7 279.5 197.3 279.5 198 279.3 198.6 279.1 199.2 278.8 199.7 278.4 200.1 277.9 200.5 277.4 200.8 276.8 201.1 276.2 201.2 275.6 201.2 274.9 201.2 262.8 209.3 262.8 209.3 165.8 12.4 165.8"/>
  <rect class="st9" x="12.4" y="212.8" width="196.6" height="3.2"/>
  <rect class="st9" x="12.4" y="235.8" width="196.6" height="2.6"/>
  <rect class="st9" x="12.4" y="258.6" width="196.6" height="2.7"/>
  <polyline class="st9" points="20.4 155.5 20.4 32 201.6 32 201.6 155.5 20.4 155.5"/>
  <polyline class="st8" points="199 34.5 199 148.3 23 148.3 23 34.5 199 34.5"/>
  <polyline class="st7" points="195.8 37.8 26.2 37.8 26.2 139.5 195.8 139.5 195.8 37.8"/>
  <rect class="st1" x="23.7" y="155.5" width="25.8" height="10.4"/>
  <path class="st5" d="M213.6,119.3c0-1.1-.9-2.1-2.1-2.1s-2.1.9-2.1,2.1.9,2.1,2.1,2.1,2.1-.9,2.1-2.1"/>
  <path class="st5" d="M213.6,90c0-1.1-.9-2.1-2.1-2.1s-2.1.9-2.1,2.1.9,2.1,2.1,2.1,2.1-.9,2.1-2.1"/>
  <polyline class="st5" points="209.2 63.1 213.8 63.1 213.8 58.5 209.2 58.5 209.2 63.1"/>
  <path class="st5" d="M12,104.7c0-1.1-.9-2.1-2.1-2.1s-2.1.9-2.1,2.1.9,2.1,2.1,2.1,2.1-.9,2.1-2.1"/>
  <path class="st5" d="M12,75.4c0-1.1-.9-2.1-2.1-2.1s-2.1.9-2.1,2.1.9,2.1,2.1,2.1,2.1-.9,2.1-2.1"/>
  <path class="st5" d="M12,68.1c0-1.1-.9-2-2.1-2s-2.1.9-2.1,2,.9,2.1,2.1,2.1,2.1-.9,2.1-2.1"/>
  <path class="st5" d="M12,97.4c0-1.1-.9-2.1-2.1-2.1s-2.1.9-2.1,2.1.9,2.1,2.1,2.1,2.1-.9,2.1-2.1"/>
  <polyline class="st5" points="7.6 63.1 12.2 63.1 12.2 58.5 7.6 58.5 7.6 63.1"/>
  <path class="st5" d="M213.6,82.7c0-1.1-.9-2.1-2.1-2.1s-2.1.9-2.1,2.1.9,2.1,2.1,2.1,2.1-.9,2.1-2.1"/>
  <path class="st5" d="M213.6,112c0-1.1-.9-2.1-2.1-2.1s-2.1.9-2.1,2.1.9,2.1,2.1,2.1,2.1-.9,2.1-2.1"/>
  <path class="st5" d="M213.6,126.7c0-1.1-.9-2.1-2.1-2.1s-2.1.9-2.1,2.1.9,2.1,2.1,2.1,2.1-.9,2.1-2.1"/>
  <path class="st5" d="M213.6,97.4c0-1.1-.9-2.1-2.1-2.1s-2.1.9-2.1,2.1.9,2.1,2.1,2.1,2.1-.9,2.1-2.1"/>
  <path class="st5" d="M213.6,68.1c0-1.1-.9-2-2.1-2s-2.1.9-2.1,2,.9,2.1,2.1,2.1,2.1-.9,2.1-2.1"/>
  <path class="st5" d="M12,112c0-1.1-.9-2.1-2.1-2.1s-2.1.9-2.1,2.1.9,2.1,2.1,2.1,2.1-.9,2.1-2.1"/>
  <path class="st5" d="M12,82.7c0-1.1-.9-2.1-2.1-2.1s-2.1.9-2.1,2.1.9,2.1,2.1,2.1,2.1-.9,2.1-2.1"/>
  <path class="st5" d="M12,126.7c0-1.1-.9-2.1-2.1-2.1s-2.1.9-2.1,2.1.9,2.1,2.1,2.1,2.1-.9,2.1-2.1"/>
  <path class="st5" d="M12,90c0-1.1-.9-2.1-2.1-2.1s-2.1.9-2.1,2.1.9,2.1,2.1,2.1,2.1-.9,2.1-2.1"/>
  <path class="st5" d="M12,119.3c0-1.1-.9-2.1-2.1-2.1s-2.1.9-2.1,2.1.9,2.1,2.1,2.1,2.1-.9,2.1-2.1"/>
  <path class="st5" d="M213.6,75.4c0-1.1-.9-2.1-2.1-2.1s-2.1.9-2.1,2.1.9,2.1,2.1,2.1,2.1-.9,2.1-2.1"/>
  <path class="st5" d="M213.6,104.7c0-1.1-.9-2.1-2.1-2.1s-2.1.9-2.1,2.1.9,2.1,2.1,2.1,2.1-.9,2.1-2.1"/>
  <g>
    <polyline class="st2" points="217.8 44.2 220 44.2 220 36.7 217.8 36.7"/>
    <line class="st2" x1="217.8" y1="44.2" x2="217.8" y2="36.7"/>
  </g>
  <line class="st2" x1="20.4" y1="155.5" x2="97.3" y2="155.5"/>
  <polyline class="st2" points="124.7 155.5 201.6 155.5 201.6 150.9"/>
  <line class="st2" x1="20.4" y1="150.9" x2="20.4" y2="155.5"/>
  <polyline class="st2" points="195.8 37.8 26.2 37.8 26.2 139.5 195.8 139.5 195.8 37.8"/>
  <polyline class="st6" points="97.3 152.6 124.7 152.6 124.7 157.8 124.7 158.6 124.7 159.4 124.7 160 124.7 160.5 124.7 160.8 124.7 161 97.3 161 97.3 160.8 97.3 160.5 97.3 160 97.3 159.4 97.3 158.6 97.3 157.8 97.3 152.6"/>
  <polyline class="st2" points="97.3 152.6 124.7 152.6 124.7 157.8 124.7 158.6 124.7 159.4 124.7 160 124.7 160.5 124.7 160.8 124.7 161 97.3 161 97.3 160.8 97.3 160.5 97.3 160 97.3 159.4 97.3 158.6 97.3 157.8 97.3 152.6"/>
  <line class="st2" x1="12.1" y1="261.1" x2="12.1" y2="262.5"/>
  <polyline class="st2" points="201.2 262.8 209.3 262.8 209.3 261.1"/>
  <polyline class="st2" points="12.1 262.5 12.2 262.6 12.2 262.7 12.2 262.7 12.2 262.7 12.3 262.8 12.4 262.8 20.2 262.8 20.2 274.9 20.2 275.6 20.4 276.2 20.6 276.8 20.9 277.4 21.3 277.9 21.8 278.4 22.3 278.8 22.9 279.1 23.5 279.3 24.1 279.5 24.8 279.5 38.1 279.5 38.1 279.5 39.2 279.5 40.3 279.6 41.3 279.8 42.3 280 43.4 280.3 43.4 280.4 53.7 283.7 54.2 283.9 54.7 284.2 55.2 284.6 55.6 284.9 55.9 285.4 56.2 285.9 56.4 286.5 56.5 287 56.5 287.6 56.5 287.6 56.5 289.6 56.6 290 56.7 290.5 56.9 290.9 57.2 291.2 57.5 291.5 58 291.8 58.4 291.9 58.9 292 61.3 292 62 292.5 62.2 292.7 62.5 292.8 62.8 292.9 63.2 292.9 66 292.9 66.3 292.9 66.6 292.9 66.8 292.8 67.1 292.6 68 291.9 70.1 291.9 70.5 291.8 71 291.7 71.4 291.5 71.8 291.2 72 290.9 72.2 290.4 72.4 290 72.4 289.5 72.4 288.2 72.5 287.8 72.6 287.3 72.8 286.8 73 286.5 73.4 286.2 73.8 285.9 74.2 285.7 74.6 285.6 75.1 285.6 75.1 285.6 81.5 285.6 81.5 285.6 81.6 285.9 81.7 286.2 81.8 286.4 82.1 286.5 82.3 286.7 82.6 286.7 86.7 286.7 87 286.7 87.3 286.5 87.5 286.4 87.7 286.2 87.8 285.9 87.8 285.6 87.8 285.6 133.3 285.6 133.3 285.9 133.4 286.2 133.5 286.4 133.7 286.5 133.8 286.7 134.1 286.7 139 286.7 139.3 286.7 139.5 286.5 139.7 286.4 139.8 286.2 139.8 285.9 139.8 285.6 161.1 285.6 162.1 285.5 163.1 285.4 164.1 285.3 165 285 166 284.7 177.7 280.5 178.8 280.1 179.9 279.8 181.1 279.6 182.3 279.5 183.4 279.5 183.5 279.5 196.7 279.5 197.3 279.5 198 279.3 198.6 279.1 199.2 278.8 199.7 278.4 200.1 277.9 200.5 277.4 200.8 276.8 201.1 276.2 201.2 275.6 201.2 274.9 201.2 262.8"/>
  <line class="st2" x1="23.7" y1="165.8" x2="23.7" y2="155.5"/>
  <line class="st2" x1="49" y1="155.5" x2="49" y2="165.8"/>
  <polygon class="st1" points="60.4 300.9 60.4 303.1 61 303.6 63.6 303.6 64.2 303.1 64.2 300.9 60.4 300.9"/>
  <path class="st0" d="M198.3,292.7c0-2.1-1.7-3.9-3.9-3.9s-3.9,1.7-3.9,3.9,1.7,3.9,3.9,3.9,3.9-1.7,3.9-3.9"/>
  <path class="st2" d="M66.3,295.1c0-.7-.6-1.3-1.3-1.3s-1.3.6-1.3,1.3.6,1.3,1.3,1.3,1.3-.6,1.3-1.3"/>
  <path class="st2" d="M57.7,295.1c0-.7-.6-1.3-1.3-1.3s-1.3.6-1.3,1.3.6,1.3,1.3,1.3,1.3-.6,1.3-1.3"/>
  <path class="st0" d="M31,292.7c0-2.1-1.7-3.9-3.9-3.9s-3.9,1.7-3.9,3.9,1.7,3.9,3.9,3.9,3.9-1.7,3.9-3.9"/>
  <polyline class="st2" points="135.1 165.8 135.1 156.7 135 156.3 134.9 156 134.6 155.8 134.3 155.6 134 155.5 129.5 155.5 129.1 155.5"/>
  <polyline class="st2" points="92.3 155.5 92 155.5 49 155.5"/>
  <polyline class="st4" points="101.6 172.9 101.6 183.1 101.6 183.2 101.6 183.4 101.6 183.7 101.7 183.8 101.7 184 101.7 184.3 101.9 184.5 101.9 184.6 102 184.8 102.1 185 102.2 185.2 102.3 185.4 102.4 185.5 102.5 185.7 102.7 185.9 102.8 186 103 186.1 103.1 186.3 103.3 186.4 103.4 186.5 103.6 186.6 103.8 186.7 104 186.8 104.2 186.9 104.4 187 104.5 187 104.7 187.1 105 187.1 105.2 187.1 105.3 187.2 105.6 187.2 105.8 187.2 115.2 187.2 115.4 187.2 115.5 187.2 115.8 187.1 116 187.1 116.1 187.1 116.4 187 116.6 187 116.8 186.9 116.9 186.8 117.1 186.7 117.3 186.6 117.5 186.5 117.7 186.4 117.8 186.3 118 186.1 118.1 186 118.2 185.9 118.4 185.7 118.5 185.5 118.6 185.4 118.7 185.2 118.8 185 119 184.8 119 184.6 119.1 184.5 119.1 184.3 119.2 184 119.3 183.8 119.3 183.7 119.3 183.4 119.3 183.2 119.3 183.1 119.3 172.9 119.3 172.7 119.3 172.5 119.3 172.3 119.3 172.1 119.2 171.9 119.1 171.7 119.1 171.5 119 171.3 119 171.2 118.8 171 118.7 170.8 118.6 170.6 118.5 170.4 118.4 170.2 118.2 170.1 118.1 169.9 118 169.8 117.8 169.7 117.6 169.6 117.5 169.4 117.3 169.3 117.1 169.2 116.9 169.1 116.8 169.1 116.6 169 116.4 168.9 116.1 168.8 116 168.8 115.8 168.8 115.5 168.8 115.4 168.7 115.2 168.7 105.8 168.7 105.6 168.7 105.3 168.8 105.2 168.8 105 168.8 104.7 168.8 104.5 168.9 104.4 169 104.2 169.1 104 169.1 103.8 169.2 103.6 169.3 103.4 169.4 103.3 169.6 103.1 169.7 103 169.8 102.8 169.9 102.7 170.1 102.5 170.2 102.4 170.4 102.3 170.6 102.2 170.8 102.1 171 102 171.2 101.9 171.3 101.9 171.5 101.7 171.7 101.7 171.9 101.7 172.1 101.6 172.3 101.6 172.5 101.6 172.7 101.6 172.9"/>
  <polyline class="st2" points="12.1 235.8 12.1 236.1 12.1 236.5 12.1 237.1 12.1 237.6 12.1 238.1 12.1 238.4"/>
  <polyline class="st2" points="12.1 190.6 12.1 190.9 12.1 191.4 12.1 192 12.1 192.5 12.1 192.9 12.1 193.3"/>
  <polyline class="st2" points="12.1 213.2 12.1 213.5 12.1 214 12.1 214.6 12.1 215 12.1 215.5 12.1 215.8"/>
  <polyline class="st2" points="12.1 258.4 12.1 258.7 12.1 259.1 12.1 259.7 12.1 260.2 12.1 260.7 12.1 261"/>
  <polyline class="st2" points="199 34.5 199 148.3 23 148.3 23 34.5 199 34.5"/>
  <polyline class="st2" points="20.4 150.9 20.4 32 201.6 32 201.6 150.9 20.4 150.9"/>
  <polyline class="st4" points="123 297.7 123.6 297.6 124.1 297.4 124.4 297 124.6 296.5 124.6 296.2 124.6 294.5 124.5 294 124.3 293.5 123.8 293.2 123.3 293.1 122.8 293.1 122.3 293.4 121.9 293.7 121.8 294.2 121.8 294.5 121.8 296.3 121.8 296.7 122.1 297.2 122.6 297.5 123 297.7"/>
  <polyline class="st4" points="99.7 296.5 99.7 296.2 99.7 294.5 99.6 294 99.4 293.5 98.9 293.2 98.4 293.1 97.9 293.1 97.4 293.4 97 293.7 96.9 294.2 96.8 294.5 96.8 296.3 96.9 296.7 97.2 297.2 97.6 297.5 98.1 297.7 98.7 297.6 99.1 297.4 99.5 297 99.7 296.5"/>
  <path d="M210.5,60.7c0,.6.5,1,1,1s1-.5,1-1-.5-1-1-1-1,.5-1,1"/>
  <path class="st2" d="M97.2,17.9c0-1.1-.9-2.1-2.1-2.1s-2.1.9-2.1,2.1.9,2.1,2.1,2.1,2.1-.9,2.1-2.1"/>
  <path class="st2" d="M111.9,17.9c0-1.1-.9-2.1-2.1-2.1s-2.1.9-2.1,2.1.9,2.1,2.1,2.1,2.1-.9,2.1-2.1"/>
  <path d="M8.9,60.7c0,.6.5,1,1,1s1-.5,1-1-.5-1-1-1-1,.5-1,1"/>
  <path class="st2" d="M119.2,17.9c0-1.1-.9-2.1-2.1-2.1s-2.1.9-2.1,2.1.9,2.1,2.1,2.1,2.1-.9,2.1-2.1"/>
  <path class="st2" d="M133.8,17.9c0-1.1-.9-2.1-2.1-2.1s-2.1.9-2.1,2.1.9,2.1,2.1,2.1,2.1-.9,2.1-2.1"/>
  <path class="st2" d="M89.9,17.9c0-1.1-.9-2.1-2.1-2.1s-2.1.9-2.1,2.1.9,2.1,2.1,2.1,2.1-.9,2.1-2.1"/>
  <path class="st2" d="M104.5,17.9c0-1.1-.9-2.1-2.1-2.1s-2.1.9-2.1,2.1.9,2.1,2.1,2.1,2.1-.9,2.1-2.1"/>
  <path d="M145.4,17.9c0,.6.5,1,1,1s1-.5,1-1-.5-1-1-1-1,.5-1,1"/>
  <polyline class="st2" points="144.1 20.3 148.7 20.3 148.7 15.7 144.1 15.7 144.1 20.3"/>
  <path class="st2" d="M126.5,17.9c0-1.1-.9-2.1-2.1-2.1s-2.1.9-2.1,2.1.9,2.1,2.1,2.1,2.1-.9,2.1-2.1"/>
  <path class="st2" d="M141.2,17.9c0-1.1-.9-2.1-2.1-2.1s-2.1.9-2.1,2.1.9,2.1,2.1,2.1,2.1-.9,2.1-2.1"/>
  <path class="st2" d="M82.6,17.9c0-1.1-.9-2.1-2.1-2.1s-2.1.9-2.1,2.1.9,2.1,2.1,2.1,2.1-.9,2.1-2.1"/>
  <polyline class="st2" points="12.1 166.1 12.2 166 12.2 166 12.2 165.9"/>
  <line class="st2" x1="12.1" y1="258.3" x2="12.1" y2="258.4"/>
  <line class="st2" x1="12.1" y1="261" x2="12.1" y2="261.1"/>
  <line class="st2" x1="12.1" y1="258.3" x2="12.1" y2="238.5"/>
  <line class="st2" x1="12.1" y1="235.7" x2="12.1" y2="235.8"/>
  <line class="st2" x1="12.1" y1="238.4" x2="12.1" y2="238.5"/>
  <line class="st2" x1="12.1" y1="235.7" x2="12.1" y2="216"/>
  <line class="st2" x1="12.1" y1="213.1" x2="12.1" y2="213.2"/>
  <line class="st2" x1="12.1" y1="215.8" x2="12.1" y2="216"/>
  <line class="st2" x1="12.1" y1="213.1" x2="12.1" y2="193.4"/>
  <line class="st2" x1="12.1" y1="166.1" x2="12.1" y2="190.6"/>
  <line class="st2" x1="12.1" y1="193.3" x2="12.1" y2="193.4"/>
  <polyline class="st2" points="54.7 278.7 54.6 278.7 54.6 278.6 54.5 278.6 54.5 278.5 54.5 278.5"/>
  <polyline class="st2" points="45.4 261.3 45.4 261.4 45.4 261.4 45.7 261.5 45.9 261.7 46.2 261.8 46.4 261.9 46.7 262.1 46.9 262.3 47.1 262.5 47.3 262.7 47.5 262.8 47.7 263.1 47.9 263.3 48.1 263.5 48.3 263.7 48.4 263.9 48.6 264.2 48.8 264.4 49 264.7 49.1 265 49.3 265.2 49.4 265.5 49.6 265.8 49.7 266.1 49.8 266.4 50 266.7 50.1 266.9 50.3 267.2 50.4 267.5 50.5 267.9 50.6 268.2 50.7 268.5 50.8 268.8 50.9 269.1 51 269.4 51.1 269.7 51.2 270.4 51.4 271 51.6 271.7 51.7 272.3 51.9 272.9 51.9 273.6 52 273.9 52 274.2 52.1 274.5 52.1 274.8 52.2 275.1 52.2 275.4 52.2 275.7 52.3 276 52.3 276.2 52.3 276.5 52.3 276.8 52.4 277 52.4 277.3 52.4 277.5 52.5 277.7 52.5 278 52.5 278.2 52.5 278.5 52.5 278.5 52.5 278.6 52.5 278.6 52.5 278.7 52.5 278.7 53 278.7 53.6 278.7 54.7 278.7"/>
  <polyline class="st2" points="52.5 278.7 50.6 278.7 49.7 278.7 49.4 278.7 49.2 278.7 48.7 278.7 48.2 278.7 47.7 278.7 47.2 278.6 46.8 278.5 46.3 278.5 45.8 278.4 45.3 278.3 44.9 278.2 44.4 278 44 277.9 43.5 277.7 43.1 277.6 42.6 277.4 42.2 277.2 41.7 276.9 41.3 276.8 40.9 276.5 40.5 276.3 40.1 276 39.6 275.8 39.3 275.5 38.9 275.2 38.5 274.9 38.1 274.6 37.8 274.3 37.4 274 37.1 273.7 36.7 273.3 36.4 273 36.1 272.6 35.8 272.2 35.5 271.8 35.2 271.5 34.9 271.1 34.6 270.7 34.4 270.2 34.2 269.9 33.9 269.4 33.7 269 33.5 268.6 33.3 268.2 33.1 267.7 32.9 267.2 32.7 266.8 32.6 266.3 32.5 265.9 32.4 265.4 32.3 264.9 32.1 264.5 32.1 264 32 263.5 32 263 31.9 262.5 31.9 262.1 31.8 261.6 31.8 261.1 31.9 261.1 31.9 261.2 32 261.2 32 261.3 32 261.3 32.1 261.4 32.1 261.4"/>
  <polyline class="st2" points="45.4 261.3 45.4 261.3 45.4 261.2 45.3 261.2 45.3 261.1 47.6 261.1 50 261.1 54.7 261.1"/>
  <line class="st2" x1="31.8" y1="261.1" x2="45.3" y2="261.1"/>
  <line class="st2" x1="54.7" y1="278.7" x2="54.7" y2="261.1"/>
  <path class="st2" d="M49.5,278.7h.8"/>
  <polyline class="st2" points="77.4 261.6 77.4 261.6 77.4 261.1 77.4 261.2 77.4 261.3 77.3 261.3 77.3 261.3 77.3 261.4 77.2 261.4"/>
  <polyline class="st2" points="77.4 278.7 77.4 278.7 77.4 278.7 77.4 278.6 77.4 278.5 77.3 278.5 77.3 278.5 77.3 278.5"/>
  <line class="st2" x1="77.4" y1="261.1" x2="77.4" y2="261.1"/>
  <polyline class="st2" points="68.2 261.3 68.2 261.4 68.2 261.4 68.2 261.4 68.5 261.5 68.8 261.7 69 261.8 69.2 261.9 69.4 262.1 69.7 262.3 69.9 262.5 70.1 262.7 70.3 262.8 70.5 263.1 70.7 263.3 70.9 263.5 71.1 263.7 71.3 263.9 71.5 264.2 71.6 264.4 71.8 264.7 71.9 265 72.1 265.2 72.2 265.5 72.4 265.8 72.5 266.1 72.7 266.4 72.8 266.7 72.9 266.9 73 267.2 73.2 267.5 73.3 267.9 73.4 268.2 73.5 268.5 73.6 268.8 73.7 269.1 73.8 269.4 73.9 269.7 74.1 270.4 74.2 271 74.4 271.7 74.5 272.3 74.6 272.9 74.8 273.6 74.8 273.9 74.8 274.2 74.9 274.5 74.9 274.8 75 275.1 75 275.4 75.1 275.7 75.1 276 75.1 276.2 75.1 276.5 75.2 276.8 75.2 277 75.2 277.3 75.2 277.5 75.2 277.7 75.3 278 75.3 278.2 75.3 278.5 75.3 278.5 75.3 278.6 75.3 278.7 75.3 278.7 75.2 278.7 75.8 278.7 76.3 278.7 77.4 278.7"/>
  <polyline class="st2" points="54.9 278.5 54.8 278.5 54.8 278.6 54.8 278.6 54.7 278.7 54.7 278.7 75.2 278.7"/>
  <polyline class="st2" points="68.2 261.3 68.2 261.3 68.2 261.2 68.2 261.1 70.5 261.1 72.8 261.1 77.4 261.1"/>
  <line class="st2" x1="54.7" y1="261.1" x2="68.2" y2="261.1"/>
  <polyline class="st2" points="77.4 261.6 77.4 261.7 77.4 278.7"/>
  <polyline class="st2" points="171.1 278.7 77.4 278.7 88 278.7 133.2 278.7 143.8 278.7"/>
  <path class="st2" d="M171.2,278.7h.8"/>
  <line class="st2" x1="166.8" y1="278.7" x2="166.6" y2="278.7"/>
  <line class="st2" x1="143.9" y1="278.7" x2="143.8" y2="278.7"/>
  <line class="st2" x1="77.4" y1="261.3" x2="79.9" y2="261.1"/>
  <line class="st2" x1="141.3" y1="261.1" x2="143.8" y2="261.3"/>
  <path class="st2" d="M184.7,273.1c3.1-3.2,4.9-7.5,5-12"/>
  <polygon class="st2" points="12.2 261.1 209.3 261.1 209.3 165.8 12.4 165.8 12.3 165.9 12.2 165.9 12.2 261.1"/>
  <line class="st2" x1="12.1" y1="261.1" x2="31.7" y2="261.1"/>
  <path class="st2" d="M31.7,261.1c0,1.2.2,2.5.5,3.7"/>
  <polyline class="st2" points="143.8 278.7 143.8 261.7 143.8 261.4"/>
  <line class="st2" x1="89" y1="261.1" x2="79.9" y2="261.1"/>
  <polyline class="st2" points="132.1 261.7 129.7 270.7 143.8 278.7"/>
  <line class="st2" x1="91.5" y1="270.7" x2="89.2" y2="261.7"/>
  <path class="st2" d="M91.6,270.7c.6,2.2,2.6,3.7,4.9,3.7"/>
  <line class="st2" x1="124.8" y1="274.4" x2="96.4" y2="274.4"/>
  <path class="st2" d="M124.8,274.4c2.3,0,4.3-1.5,4.9-3.7"/>
  <line class="st2" x1="77.4" y1="278.7" x2="91.5" y2="270.7"/>
  <polyline class="st2" points="143.9 278.7 145 278.7 145.4 278.7 146 278.7 145.9 278.7 145.9 278.7 145.9 278.6 145.9 278.5 145.9 278.5"/>
  <polyline class="st2" points="143.8 278.7 143.8 278.7 143.9 278.6 143.9 278.5 143.9 278.5"/>
  <line class="st2" x1="146" y1="278.7" x2="166.6" y2="278.7"/>
  <polyline class="st2" points="144 261.4 144 261.4 144 261.3 143.9 261.3 143.9 261.3 143.9 261.2 143.8 261.1 143.8 261.4"/>
  <polyline class="st2" points="145.9 278.5 145.9 278.2 145.9 278 145.9 277.7 146 277.5 146 277.3 146.1 277 146.1 276.8 146.1 276.5 146.1 276.2 146.1 276 146.2 275.7 146.2 275.4 146.2 275.1 146.3 274.8 146.4 274.5 146.4 274.2 146.4 273.9 146.5 273.6 146.6 272.9 146.7 272.3 146.9 271.7 147 271 147.2 270.4 147.3 269.7 147.4 269.4 147.5 269.1 147.6 268.8 147.7 268.5 147.8 268.2 148 267.9 148.1 267.5 148.2 267.2 148.3 266.9 148.4 266.7 148.6 266.4 148.7 266.1 148.9 265.8 149 265.5 149.2 265.2 149.3 265 149.5 264.7 149.6 264.4 149.8 264.2 150 263.9 150.1 263.7 150.3 263.5 150.5 263.3 150.7 263.1 150.9 262.8 151.1 262.7 151.3 262.5 151.6 262.3 151.8 262.1 152 261.9 152.2 261.8 152.5 261.7 152.7 261.5 153 261.4 153 261.4 153.1 261.4 153.1 261.3"/>
  <polyline class="st2" points="166.6 261.1 166.5 261.2 166.4 261.3 166.4 261.3 166.3 261.4 166.3 261.4"/>
  <polyline class="st2" points="166.3 278.5 166.3 278.5 166.4 278.6 166.4 278.6 166.5 278.7 166.5 278.7 166.6 278.7 166.6 261.1"/>
  <line class="st2" x1="143.8" y1="261.1" x2="143.8" y2="261.1"/>
  <polyline class="st2" points="153.1 261.3 153.1 261.3 153.1 261.2 153.1 261.1 150.8 261.1 148.4 261.1 143.8 261.1"/>
  <line class="st2" x1="166.6" y1="261.1" x2="153.1" y2="261.1"/>
  <polyline class="st2" points="166.8 278.7 167.7 278.7 168.3 278.7 168.8 278.7 168.7 278.7 168.7 278.6 168.7 278.5 168.7 278.5"/>
  <polyline class="st2" points="166.6 278.7 166.6 278.7 166.6 278.7 166.6 278.6 166.7 278.5 166.7 278.5 166.8 278.5"/>
  <polyline class="st2" points="168.8 278.7 170.7 278.7 171.6 278.7 171.8 278.7 172.1 278.7 172.6 278.7 173 278.7 173.5 278.7 174 278.6 174.4 278.5 174.9 278.5 175.4 278.4 175.9 278.3 176.3 278.2 176.8 278 177.3 277.9 177.7 277.7 178.2 277.6 178.6 277.4 179 277.2 179.5 276.9 179.9 276.8 180.3 276.5 180.7 276.3 181.2 276 181.6 275.8 182 275.5 182.3 275.2 182.7 274.9 183.1 274.6 183.5 274.3 183.8 274 184.2 273.7 184.5 273.3 184.8 273 185.1 272.6 185.4 272.2 185.7 271.8 186 271.5 186.3 271.1 186.6 270.7 186.8 270.2 187.1 269.9 187.3 269.4 187.5 269 187.8 268.6 187.9 268.2 188.1 267.7 188.3 267.2 188.4 266.8 188.6 266.3 188.7 265.9 188.9 265.4 189 264.9 189.1 264.5 189.2 264 189.2 263.5 189.3 263 189.3 262.5 189.3 262.1 189.4 261.6 189.4 261.1"/>
  <polyline class="st2" points="166.8 261.4 166.8 261.4 166.8 261.3 166.7 261.3 166.6 261.2 166.6 261.1 166.6 261.1"/>
  <polyline class="st2" points="168.7 278.5 168.7 278.2 168.8 278 168.8 277.7 168.8 277.5 168.8 277.3 168.8 277 168.8 276.8 168.9 276.5 168.9 276.2 169 276 169 275.7 169 275.4 169.1 275.1 169.1 274.8 169.1 274.5 169.2 274.2 169.3 273.9 169.3 273.6 169.4 272.9 169.5 272.3 169.6 271.7 169.8 271 170 270.4 170.1 269.7 170.2 269.4 170.3 269.1 170.4 268.8 170.5 268.5 170.7 268.2 170.7 267.9 170.8 267.5 171 267.2 171.1 266.9 171.2 266.7 171.4 266.4 171.5 266.1 171.6 265.8 171.8 265.5 171.9 265.2 172.1 265 172.2 264.7 172.4 264.4 172.6 264.2 172.8 263.9 172.9 263.7 173.2 263.5 173.3 263.3 173.5 263.1 173.7 262.8 174 262.7 174.1 262.5 174.4 262.3 174.6 262.1 174.8 261.9 175.1 261.8 175.3 261.7 175.5 261.5 175.8 261.4 175.9 261.4 175.9 261.3"/>
  <polyline class="st2" points="189.4 261.1 189.3 261.1 189.3 261.2 189.3 261.2 189.2 261.3 189.2 261.3 189.2 261.4 189.1 261.4"/>
  <polyline class="st2" points="175.9 261.3 175.9 261.3 175.9 261.2 175.9 261.1 173.5 261.1 171.2 261.1 166.6 261.1"/>
  <line class="st2" x1="189.4" y1="261.1" x2="175.9" y2="261.1"/>
  <polyline class="st2" points="101.3 238.8 101.4 238.8 101.4 238.9 101.6 238.9 101.7 239 101.9 239 102 239.2 102.2 239.2 102.3 239.3 102.4 239.4 102.6 239.5 102.7 239.6 102.8 239.7 103 239.8 103.1 240 103.2 240.1 103.4 240.2 103.6 240.4 103.8 240.7 104.1 240.9 104.3 241.2 104.5 241.5 104.7 241.8 104.9 242.1 105.1 242.5 105.3 242.8 105.5 243.1 105.6 243.4 105.8 243.8 105.9 244.2 106.1 244.5 106.3 244.8 106.4 245.2 106.6 245.6 106.7 246 106.8 246.4 106.9 246.7 107 247.2 107.2 247.5 107.2 247.9 107.4 248.3 107.4 248.7 107.5 249 107.6 249.5 107.7 249.8 107.8 250.2 107.8 250.6 107.9 251 108 251.4 108 251.7 108.1 252.1 108.1 252.5 108.1 252.8 108.2 253.1 108.3 253.5 108.3 253.8 108.3 254.1 108.3 254.5 108.4 254.8 108.4 255 108.5 255.3 108.5 255.6 108.5 255.9 108.5 256.1 108.5 256.4 108.5 256.6 108.5 256.9 108.5 257 108.6 257.2 108.6 257.3 108.6 257.4 108.6 257.5 108.6 257.5 108.6 257.7 108.6 257.7 108.6 257.8 108.6 257.8 108.6 257.9 108.6 258"/>
  <polyline class="st2" points="108.6 258 108.6 258 108.6 258.1 108.6 258.1 108.5 258.2 108.5 258.3 90.9 258.3"/>
  <line class="st2" x1="108.6" y1="258" x2="108.6" y2="258"/>
  <line class="st2" x1="110.6" y1="258.3" x2="108.5" y2="258.3"/>
  <polyline class="st2" points="101.3 238.8 101.3 238.7 101.3 238.7 101.3 238.6 101.3 238.5 103.6 238.5 105.9 238.5 110.6 238.5"/>
  <line class="st2" x1="90.9" y1="238.5" x2="101.3" y2="238.5"/>
  <polyline class="st2" points="101.3 216.2 101.4 216.2 101.4 216.3 101.6 216.3 101.7 216.4 101.9 216.5 102 216.6 102.2 216.6 102.3 216.8 102.4 216.8 102.6 216.9 102.7 217.1 102.8 217.1 103 217.2 103.1 217.4 103.2 217.5 103.4 217.6 103.6 217.9 103.8 218.1 104.1 218.3 104.3 218.6 104.5 219 104.7 219.3 104.9 219.6 105.1 219.9 105.3 220.2 105.5 220.5 105.6 220.8 105.8 221.2 105.9 221.6 106.1 221.9 106.3 222.3 106.4 222.7 106.6 223 106.7 223.4 106.8 223.8 106.9 224.1 107 224.6 107.2 224.9 107.2 225.3 107.4 225.7 107.4 226.1 107.5 226.5 107.6 226.9 107.7 227.3 107.8 227.6 107.8 228 107.9 228.4 108 228.8 108 229.1 108.1 229.5 108.1 229.9 108.1 230.2 108.2 230.6 108.3 230.9 108.3 231.2 108.3 231.6 108.3 231.9 108.4 232.2 108.4 232.5 108.5 232.7 108.5 233.1 108.5 233.3 108.5 233.5 108.5 233.8 108.5 234 108.5 234.3 108.5 234.5 108.6 234.6 108.6 234.8 108.6 234.8 108.6 234.9 108.6 235 108.6 235.1 108.6 235.1 108.6 235.2 108.6 235.3 108.6 235.3 108.6 235.4"/>
  <polyline class="st2" points="108.6 235.4 108.6 235.4 108.6 235.5 108.6 235.6 108.5 235.6 108.5 235.7 90.9 235.7"/>
  <line class="st2" x1="108.6" y1="235.4" x2="108.6" y2="235.4"/>
  <line class="st2" x1="110.6" y1="235.7" x2="108.5" y2="235.7"/>
  <polyline class="st2" points="101.3 216.2 101.3 216.1 101.3 216.1 101.3 216 101.3 216 103.6 216 105.9 216 110.6 216"/>
  <line class="st2" x1="90.9" y1="216" x2="101.3" y2="216"/>
  <polyline class="st2" points="101.3 193.6 101.4 193.7 101.4 193.7 101.6 193.7 101.7 193.8 101.9 193.9 102 194 102.2 194.1 102.3 194.2 102.4 194.3 102.6 194.3 102.7 194.5 102.8 194.6 103 194.7 103.1 194.8 103.2 194.9 103.4 195 103.6 195.3 103.8 195.5 104.1 195.8 104.3 196.1 104.5 196.4 104.7 196.7 104.9 197 105.1 197.3 105.3 197.6 105.5 198 105.6 198.3 105.8 198.6 105.9 199 106.1 199.4 106.3 199.7 106.4 200.1 106.6 200.5 106.7 200.8 106.8 201.2 106.9 201.6 107 202 107.2 202.3 107.2 202.8 107.4 203.1 107.4 203.5 107.5 203.9 107.6 204.3 107.7 204.7 107.8 205.1 107.8 205.5 107.9 205.8 108 206.2 108 206.6 108.1 206.9 108.1 207.3 108.1 207.7 108.2 208 108.3 208.3 108.3 208.6 108.3 209 108.3 209.3 108.4 209.6 108.4 209.9 108.5 210.2 108.5 210.5 108.5 210.7 108.5 211 108.5 211.3 108.5 211.4 108.5 211.7 108.5 211.9 108.6 212.1 108.6 212.2 108.6 212.2 108.6 212.4 108.6 212.4 108.6 212.5 108.6 212.5 108.6 212.6 108.6 212.7 108.6 212.7 108.6 212.8"/>
  <polyline class="st2" points="108.6 212.8 108.6 212.8 108.6 212.9 108.6 213 108.6 213 108.5 213 108.5 213.1 90.9 213.1"/>
  <line class="st2" x1="108.6" y1="212.8" x2="108.6" y2="212.8"/>
  <line class="st2" x1="110.6" y1="213.1" x2="108.5" y2="213.1"/>
  <polyline class="st2" points="101.3 193.6 101.3 193.6 101.3 193.5 101.3 193.4 101.3 193.4 103.6 193.4 105.9 193.4 110.6 193.4"/>
  <polyline class="st2" points="90.9 213 90.9 213 90.8 213 90.7 213 90.7 212.9 90.6 212.8 90.6 212.8 90.6 193.7 90.6 193.6 90.6 193.6 90.7 193.5 90.7 193.4 90.8 193.4 90.9 193.4 90.9 193.4 101.3 193.4"/>
  <polyline class="st2" points="81.7 193.6 81.7 193.7 81.7 193.7 81.9 193.7 82 193.8 82.1 193.9 82.3 194 82.4 194.1 82.6 194.2 82.7 194.3 82.9 194.3 83 194.5 83.2 194.6 83.3 194.7 83.4 194.8 83.5 194.9 83.7 195 83.9 195.3 84.2 195.5 84.4 195.8 84.6 196.1 84.8 196.4 85 196.7 85.3 197 85.4 197.3 85.6 197.6 85.8 198 86 198.3 86.1 198.6 86.3 199 86.4 199.4 86.6 199.7 86.7 200.1 86.8 200.5 87 200.8 87.1 201.2 87.2 201.6 87.3 202 87.5 202.3 87.6 202.8 87.6 203.1 87.8 203.5 87.8 203.9 87.9 204.3 88 204.7 88.1 205.1 88.1 205.5 88.2 205.8 88.2 206.2 88.3 206.6 88.4 206.9 88.4 207.3 88.5 207.7 88.5 208 88.5 208.3 88.6 208.6 88.6 209 88.7 209.3 88.7 209.6 88.7 209.9 88.7 210.2 88.7 210.5 88.8 210.7 88.8 211 88.8 211.3 88.8 211.4 88.9 211.7 88.9 211.9 88.9 212.1 88.9 212.2 88.9 212.2 88.9 212.4 88.9 212.4 88.9 212.5 88.9 212.5 88.9 212.6 88.9 212.7 88.9 212.7 88.9 212.8"/>
  <polyline class="st2" points="88.9 212.8 88.9 212.8 88.9 212.9 88.9 213 88.9 213 88.9 213.1 88.8 213.1 71.2 213.1"/>
  <line class="st2" x1="88.9" y1="212.8" x2="88.9" y2="212.8"/>
  <line class="st2" x1="90.9" y1="213.1" x2="88.8" y2="213.1"/>
  <polyline class="st2" points="81.7 193.6 81.7 193.6 81.7 193.5 81.7 193.4 81.7 193.4 81.6 193.4 84 193.4 86.3 193.4 90.9 193.4"/>
  <line class="st2" x1="71.2" y1="193.4" x2="81.6" y2="193.4"/>
  <polyline class="st2" points="90.9 216 90.9 216 90.8 216 90.7 216 90.7 216.1 90.6 216.1 90.6 216.2 90.6 216.3 90.6 235.4 90.6 235.4 90.7 235.4 90.7 235.5 90.7 235.5 90.7 235.6 90.8 235.6 90.9 235.6 90.9 235.6"/>
  <polyline class="st2" points="81.7 216.2 81.7 216.3 81.9 216.3 82 216.4 82.1 216.5 82.3 216.6 82.4 216.6 82.6 216.8 82.7 216.8 82.9 216.9 83 217.1 83.2 217.1 83.3 217.2 83.4 217.4 83.5 217.5 83.7 217.6 83.9 217.9 84.2 218.1 84.4 218.3 84.6 218.6 84.8 219 85 219.3 85.3 219.6 85.4 219.9 85.6 220.2 85.8 220.5 86 220.8 86.1 221.2 86.3 221.6 86.4 221.9 86.6 222.3 86.7 222.7 86.8 223 87 223.4 87.1 223.8 87.2 224.1 87.3 224.6 87.5 224.9 87.6 225.3 87.6 225.7 87.8 226.1 87.8 226.5 87.9 226.9 88 227.3 88.1 227.6 88.1 228 88.2 228.4 88.2 228.8 88.3 229.1 88.4 229.5 88.4 229.9 88.5 230.2 88.5 230.6 88.5 230.9 88.6 231.2 88.6 231.6 88.7 231.9 88.7 232.2 88.7 232.5 88.7 232.7 88.7 233.1 88.8 233.3 88.8 233.5 88.8 233.8 88.8 234 88.9 234.3 88.9 234.5 88.9 234.6 88.9 234.8 88.9 234.8 88.9 234.9 88.9 235 88.9 235.1 88.9 235.1 88.9 235.2 88.9 235.3 88.9 235.3 88.9 235.4"/>
  <polyline class="st2" points="88.9 235.4 88.9 235.4 88.9 235.5 88.9 235.6 88.9 235.6 88.8 235.7 71.2 235.7"/>
  <line class="st2" x1="88.9" y1="235.4" x2="88.9" y2="235.4"/>
  <line class="st2" x1="90.9" y1="235.7" x2="88.8" y2="235.7"/>
  <polyline class="st2" points="81.7 216.2 81.7 216.1 81.7 216.1 81.7 216 81.7 216 81.6 216 84 216 86.3 216 90.9 216"/>
  <line class="st2" x1="71.2" y1="216" x2="81.6" y2="216"/>
  <polyline class="st2" points="90.9 238.5 90.9 238.5 90.8 238.5 90.7 238.6 90.7 238.6 90.7 238.7 90.6 238.7 90.6 238.8 90.6 238.9 90.6 258 90.6 258 90.7 258 90.7 258.1 90.7 258.1 90.7 258.1 90.8 258.1 90.9 258.1 90.9 258.2"/>
  <polyline class="st2" points="81.7 238.8 81.7 238.9 81.9 238.9 82 239 82.1 239 82.3 239.2 82.4 239.2 82.6 239.3 82.7 239.4 82.9 239.5 83 239.6 83.2 239.7 83.3 239.8 83.4 240 83.5 240.1 83.7 240.2 83.9 240.4 84.2 240.7 84.4 240.9 84.6 241.2 84.8 241.5 85 241.8 85.3 242.1 85.4 242.5 85.6 242.8 85.8 243.1 86 243.4 86.1 243.8 86.3 244.2 86.4 244.5 86.6 244.8 86.7 245.2 86.8 245.6 87 246 87.1 246.4 87.2 246.7 87.3 247.2 87.5 247.5 87.6 247.9 87.6 248.3 87.8 248.7 87.8 249 87.9 249.5 88 249.8 88.1 250.2 88.1 250.6 88.2 251 88.2 251.4 88.3 251.7 88.4 252.1 88.4 252.5 88.5 252.8 88.5 253.1 88.5 253.5 88.6 253.8 88.6 254.1 88.7 254.5 88.7 254.8 88.7 255 88.7 255.3 88.7 255.6 88.8 255.9 88.8 256.1 88.8 256.4 88.8 256.6 88.9 256.9 88.9 257 88.9 257.2 88.9 257.3 88.9 257.4 88.9 257.5 88.9 257.5 88.9 257.7 88.9 257.7 88.9 257.8 88.9 257.8 88.9 257.9 88.9 258"/>
  <polyline class="st2" points="88.9 258 88.9 258 88.9 258.1 88.9 258.1 88.9 258.2 88.8 258.2 88.8 258.3 71.2 258.3"/>
  <line class="st2" x1="88.9" y1="258" x2="88.9" y2="258"/>
  <line class="st2" x1="90.9" y1="258.3" x2="88.8" y2="258.3"/>
  <polyline class="st2" points="81.7 238.8 81.7 238.7 81.7 238.7 81.7 238.6 81.7 238.5 81.6 238.5 84 238.5 86.3 238.5 90.9 238.5"/>
  <polyline class="st2" points="71.2 258.2 71.2 258.1 71.1 258.1 71 258.1 71 258.1 71 258 70.9 258 70.9 238.9 70.9 238.8 71 238.8 71 238.7 71 238.7 71 238.6 71.1 238.6 71.1 238.5 71.2 238.5 71.2 238.5 81.6 238.5"/>
  <polyline class="st2" points="61.9 238.8 62 238.8 62 238.9 62.2 238.9 62.3 239 62.5 239 62.6 239.2 62.8 239.2 62.9 239.3 63 239.4 63.2 239.5 63.3 239.6 63.5 239.7 63.6 239.8 63.7 240 63.8 240.1 63.9 240.2 64.2 240.4 64.4 240.7 64.7 240.9 64.9 241.2 65.1 241.5 65.4 241.8 65.5 242.1 65.7 242.5 65.9 242.8 66.1 243.1 66.3 243.4 66.4 243.8 66.6 244.2 66.8 244.5 66.9 244.8 67.1 245.2 67.2 245.6 67.3 246 67.4 246.4 67.5 246.7 67.7 247.2 67.8 247.5 67.9 247.9 68 248.3 68 248.7 68.2 249 68.2 249.5 68.3 249.8 68.4 250.2 68.5 250.6 68.5 251 68.6 251.4 68.6 251.7 68.7 252.1 68.8 252.5 68.8 252.8 68.8 253.1 68.9 253.5 68.9 253.8 69 254.1 69 254.5 69 254.8 69 255 69.1 255.3 69.1 255.6 69.1 255.9 69.1 256.1 69.1 256.4 69.1 256.6 69.1 256.9 69.1 257 69.1 257.2 69.1 257.3 69.2 257.4 69.2 257.5 69.2 257.5 69.2 257.7 69.2 257.7 69.2 257.8 69.2 257.8 69.2 257.9 69.2 258"/>
  <polyline class="st2" points="69.2 258 69.2 258 69.2 258.1 69.1 258.1 69.1 258.2 69.1 258.3 51.6 258.3"/>
  <line class="st2" x1="69.2" y1="258" x2="69.2" y2="258"/>
  <line class="st2" x1="71.2" y1="258.3" x2="69.1" y2="258.3"/>
  <polyline class="st2" points="61.9 238.8 61.9 238.7 61.9 238.7 61.9 238.6 61.9 238.5 64.3 238.5 66.6 238.5 71.2 238.5"/>
  <line class="st2" x1="51.6" y1="238.5" x2="61.9" y2="238.5"/>
  <polyline class="st2" points="71.2 216 71.2 216 71.1 216 71 216.1 71 216.1 71 216.1 71 216.2 70.9 216.2 70.9 216.3 70.9 235.4 71 235.4 71 235.5 71 235.5 71.1 235.6 71.2 235.6 71.2 235.6"/>
  <polyline class="st2" points="61.9 216.2 62 216.2 62 216.3 62.2 216.3 62.3 216.4 62.5 216.5 62.6 216.6 62.8 216.6 62.9 216.8 63 216.8 63.2 216.9 63.3 217.1 63.5 217.1 63.6 217.2 63.7 217.4 63.8 217.5 63.9 217.6 64.2 217.9 64.4 218.1 64.7 218.3 64.9 218.6 65.1 219 65.4 219.3 65.5 219.6 65.7 219.9 65.9 220.2 66.1 220.5 66.3 220.8 66.4 221.2 66.6 221.6 66.8 221.9 66.9 222.3 67.1 222.7 67.2 223 67.3 223.4 67.4 223.8 67.5 224.1 67.7 224.6 67.8 224.9 67.9 225.3 68 225.7 68 226.1 68.2 226.5 68.2 226.9 68.3 227.3 68.4 227.6 68.5 228 68.5 228.4 68.6 228.8 68.6 229.1 68.7 229.5 68.8 229.9 68.8 230.2 68.8 230.6 68.9 230.9 68.9 231.2 69 231.6 69 231.9 69 232.2 69 232.5 69.1 232.7 69.1 233.1 69.1 233.3 69.1 233.5 69.1 233.8 69.1 234 69.1 234.3 69.1 234.5 69.1 234.6 69.1 234.8 69.2 234.8 69.2 234.9 69.2 235 69.2 235.1 69.2 235.1 69.2 235.2 69.2 235.3 69.2 235.3 69.2 235.4"/>
  <polyline class="st2" points="69.2 235.4 69.2 235.4 69.2 235.5 69.2 235.6 69.1 235.6 69.1 235.6 69.1 235.7 51.6 235.7"/>
  <line class="st2" x1="71.2" y1="235.7" x2="69.1" y2="235.7"/>
  <polyline class="st2" points="61.9 216.2 61.9 216.1 61.9 216.1 61.9 216 61.9 216 64.3 216 66.6 216 71.2 216"/>
  <line class="st2" x1="51.6" y1="216" x2="61.9" y2="216"/>
  <polyline class="st2" points="71.2 193.4 71.2 193.4 71.1 193.4 71 193.5 71 193.5 71 193.6 71 193.6 70.9 193.7 70.9 212.8 70.9 212.8 71 212.8 71 212.9 71 213 71.1 213 71.2 213 71.2 213"/>
  <polyline class="st2" points="61.9 193.6 62 193.7 62.2 193.7 62.3 193.8 62.5 193.9 62.6 194 62.8 194.1 62.9 194.2 63 194.3 63.2 194.3 63.3 194.5 63.5 194.6 63.6 194.7 63.7 194.8 63.8 194.9 63.9 195 64.2 195.3 64.4 195.5 64.7 195.8 64.9 196.1 65.1 196.4 65.4 196.7 65.5 197 65.7 197.3 65.9 197.6 66.1 198 66.3 198.3 66.4 198.6 66.6 199 66.8 199.4 66.9 199.7 67.1 200.1 67.2 200.5 67.3 200.8 67.4 201.2 67.5 201.6 67.7 202 67.8 202.3 67.9 202.8 68 203.1 68 203.5 68.2 203.9 68.2 204.3 68.3 204.7 68.4 205.1 68.5 205.5 68.5 205.8 68.6 206.2 68.6 206.6 68.7 206.9 68.8 207.3 68.8 207.7 68.8 208 68.9 208.3 68.9 208.6 69 209 69 209.3 69 209.6 69 209.9 69.1 210.2 69.1 210.5 69.1 210.7 69.1 211 69.1 211.3 69.1 211.4 69.1 211.7 69.1 211.9 69.1 212.1 69.1 212.2 69.2 212.2 69.2 212.4 69.2 212.4 69.2 212.5 69.2 212.5 69.2 212.6 69.2 212.7 69.2 212.7 69.2 212.8"/>
  <polyline class="st2" points="69.2 212.8 69.2 212.8 69.2 212.9 69.2 213 69.1 213 69.1 213.1 51.6 213.1"/>
  <line class="st2" x1="71.2" y1="213.1" x2="69.1" y2="213.1"/>
  <polyline class="st2" points="61.9 193.6 61.9 193.6 61.9 193.5 61.9 193.4 61.9 193.4 64.3 193.4 66.6 193.4 71.2 193.4"/>
  <polyline class="st2" points="51.6 213 51.5 213 51.4 213 51.4 213 51.3 213 51.3 212.9 51.2 212.9 51.2 212.8 51.2 212.8 51.2 193.7 51.2 193.6 51.2 193.6 51.3 193.5 51.4 193.4 51.4 193.4 51.5 193.4 51.6 193.4 61.9 193.4"/>
  <polyline class="st2" points="42.3 193.6 42.3 193.7 42.3 193.7 42.5 193.7 42.6 193.8 42.8 193.9 42.9 194 43.1 194.1 43.2 194.2 43.4 194.3 43.5 194.3 43.6 194.5 43.7 194.6 43.9 194.7 44 194.8 44.2 194.9 44.3 195 44.5 195.3 44.8 195.5 45 195.8 45.2 196.1 45.4 196.4 45.6 196.7 45.8 197 46.1 197.3 46.2 197.6 46.4 198 46.5 198.3 46.7 198.6 46.9 199 47 199.4 47.2 199.7 47.3 200.1 47.5 200.5 47.6 200.8 47.7 201.2 47.8 201.6 48 202 48.1 202.3 48.2 202.8 48.3 203.1 48.4 203.5 48.4 203.9 48.6 204.3 48.6 204.7 48.7 205.1 48.7 205.5 48.8 205.8 48.9 206.2 48.9 206.6 49 206.9 49 207.3 49.1 207.7 49.1 208 49.2 208.3 49.2 208.6 49.2 209 49.3 209.3 49.3 209.6 49.4 209.9 49.4 210.2 49.4 210.5 49.4 210.7 49.4 211 49.4 211.3 49.4 211.4 49.5 211.7 49.5 211.9 49.5 212.1 49.5 212.2 49.5 212.2 49.5 212.4 49.5 212.4 49.5 212.5 49.5 212.5 49.5 212.6 49.5 212.7 49.5 212.7 49.5 212.8"/>
  <polyline class="st2" points="49.5 212.8 49.5 212.8 49.5 212.9 49.5 213 49.5 213 49.5 213.1 49.4 213.1 31.8 213.1"/>
  <line class="st2" x1="49.5" y1="212.8" x2="49.5" y2="212.8"/>
  <line class="st2" x1="51.6" y1="213.1" x2="49.4" y2="213.1"/>
  <polyline class="st2" points="42.3 193.6 42.3 193.6 42.3 193.5 42.3 193.4 42.2 193.4 42.2 193.4 44.5 193.4 46.9 193.4 51.6 193.4"/>
  <line class="st2" x1="31.8" y1="193.4" x2="42.2" y2="193.4"/>
  <polyline class="st2" points="51.6 216 51.5 216 51.4 216 51.4 216 51.3 216.1 51.2 216.1 51.2 216.2 51.2 216.3 51.2 235.4 51.2 235.4 51.3 235.5 51.4 235.6 51.4 235.6 51.5 235.6 51.6 235.6"/>
  <polyline class="st2" points="42.3 216.2 42.3 216.3 42.5 216.3 42.6 216.4 42.8 216.5 42.9 216.6 43.1 216.6 43.2 216.8 43.4 216.8 43.5 216.9 43.6 217.1 43.7 217.1 43.9 217.2 44 217.4 44.2 217.5 44.3 217.6 44.5 217.9 44.8 218.1 45 218.3 45.2 218.6 45.4 219 45.6 219.3 45.8 219.6 46.1 219.9 46.2 220.2 46.4 220.5 46.5 220.8 46.7 221.2 46.9 221.6 47 221.9 47.2 222.3 47.3 222.7 47.5 223 47.6 223.4 47.7 223.8 47.8 224.1 48 224.6 48.1 224.9 48.2 225.3 48.3 225.7 48.4 226.1 48.4 226.5 48.6 226.9 48.6 227.3 48.7 227.6 48.7 228 48.8 228.4 48.9 228.8 48.9 229.1 49 229.5 49 229.9 49.1 230.2 49.1 230.6 49.2 230.9 49.2 231.2 49.2 231.6 49.3 231.9 49.3 232.2 49.4 232.5 49.4 232.7 49.4 233.1 49.4 233.3 49.4 233.5 49.4 233.8 49.4 234 49.5 234.3 49.5 234.5 49.5 234.6 49.5 234.8 49.5 234.8 49.5 234.9 49.5 235 49.5 235.1 49.5 235.1 49.5 235.2 49.5 235.3 49.5 235.3 49.5 235.4"/>
  <polyline class="st2" points="49.5 235.4 49.5 235.4 49.5 235.5 49.5 235.6 49.5 235.6 49.4 235.7 31.8 235.7"/>
  <line class="st2" x1="49.5" y1="235.4" x2="49.5" y2="235.4"/>
  <line class="st2" x1="51.6" y1="235.7" x2="49.4" y2="235.7"/>
  <polyline class="st2" points="42.3 216.2 42.3 216.1 42.3 216.1 42.3 216 42.2 216 42.2 216 44.5 216 46.9 216 51.6 216"/>
  <line class="st2" x1="31.8" y1="216" x2="42.2" y2="216"/>
  <polyline class="st2" points="51.6 238.5 51.5 238.5 51.4 238.5 51.4 238.6 51.3 238.6 51.3 238.7 51.2 238.7 51.2 238.8 51.2 238.9 51.2 258 51.2 258 51.3 258.1 51.4 258.1 51.4 258.1 51.5 258.1 51.6 258.2"/>
  <polyline class="st2" points="42.3 238.8 42.3 238.9 42.5 238.9 42.6 239 42.8 239 42.9 239.2 43.1 239.2 43.2 239.3 43.4 239.4 43.5 239.5 43.6 239.6 43.7 239.7 43.9 239.8 44 240 44.2 240.1 44.3 240.2 44.5 240.4 44.8 240.7 45 240.9 45.2 241.2 45.4 241.5 45.6 241.8 45.8 242.1 46.1 242.5 46.2 242.8 46.4 243.1 46.5 243.4 46.7 243.8 46.9 244.2 47 244.5 47.2 244.8 47.3 245.2 47.5 245.6 47.6 246 47.7 246.4 47.8 246.7 48 247.2 48.1 247.5 48.2 247.9 48.3 248.3 48.4 248.7 48.4 249 48.6 249.5 48.6 249.8 48.7 250.2 48.7 250.6 48.8 251 48.9 251.4 48.9 251.7 49 252.1 49 252.5 49.1 252.8 49.1 253.1 49.2 253.5 49.2 253.8 49.2 254.1 49.3 254.5 49.3 254.8 49.4 255 49.4 255.3 49.4 255.6 49.4 255.9 49.4 256.1 49.4 256.4 49.4 256.6 49.5 256.9 49.5 257 49.5 257.2 49.5 257.3 49.5 257.4 49.5 257.5 49.5 257.5 49.5 257.7 49.5 257.7 49.5 257.8 49.5 257.8 49.5 257.9 49.5 258"/>
  <polyline class="st2" points="49.5 258 49.5 258 49.5 258.1 49.5 258.1 49.5 258.2 49.4 258.2 49.4 258.3 31.8 258.3"/>
  <line class="st2" x1="49.5" y1="258" x2="49.5" y2="258"/>
  <line class="st2" x1="51.6" y1="258.3" x2="49.4" y2="258.3"/>
  <polyline class="st2" points="42.3 238.8 42.3 238.7 42.3 238.7 42.3 238.6 42.2 238.6 42.2 238.5 44.5 238.5 46.9 238.5 51.6 238.5"/>
  <polyline class="st2" points="31.8 258.2 31.8 258.1 31.7 258.1 31.7 258.1 31.6 258.1 31.6 258 31.5 258 31.5 258 31.5 238.9 31.5 238.8 31.6 238.7 31.6 238.7 31.7 238.6 31.7 238.5 31.8 238.5 31.8 238.5 42.2 238.5"/>
  <polyline class="st2" points="31.8 258.3 29.8 258.3 12.1 258.3"/>
  <polyline class="st2" points="22.6 238.8 22.6 238.8 22.6 238.9 22.8 238.9 22.9 239 23.1 239 23.2 239.2 23.4 239.2 23.5 239.3 23.7 239.4 23.8 239.5 24 239.6 24.1 239.7 24.2 239.8 24.3 240 24.4 240.1 24.6 240.2 24.8 240.4 25.1 240.7 25.3 240.9 25.5 241.2 25.7 241.5 26 241.8 26.2 242.1 26.3 242.5 26.5 242.8 26.7 243.1 26.9 243.4 27.1 243.8 27.2 244.2 27.4 244.5 27.5 244.8 27.6 245.2 27.8 245.6 27.9 246 28 246.4 28.2 246.7 28.3 247.2 28.4 247.5 28.5 247.9 28.6 248.3 28.7 248.7 28.8 249 28.8 249.5 28.9 249.8 29 250.2 29.1 250.6 29.1 251 29.2 251.4 29.3 251.7 29.3 252.1 29.3 252.5 29.4 252.8 29.5 253.1 29.5 253.5 29.5 253.8 29.6 254.1 29.6 254.5 29.6 254.8 29.6 255 29.6 255.3 29.7 255.6 29.7 255.9 29.7 256.1 29.8 256.4 29.8 256.6 29.8 256.9 29.8 257 29.8 257.2 29.8 257.3 29.8 257.4 29.8 257.5 29.8 257.5 29.8 257.7 29.8 257.7 29.8 257.8 29.8 257.8 29.8 257.9 29.8 258 29.8 258 29.8 258.1 29.8 258.1 29.8 258.1 29.8 258.2 29.8 258.3"/>
  <path class="st2" d="M12.1,258.2c.1,0,.3-.1.3-.3"/>
  <line class="st2" x1="29.8" y1="258" x2="29.8" y2="258"/>
  <line class="st2" x1="12.4" y1="238.9" x2="12.4" y2="258"/>
  <path class="st2" d="M12.4,238.8c0-.1-.1-.3-.3-.3"/>
  <polyline class="st2" points="12.1 238.5 22.6 238.5 24.9 238.5 27.2 238.5 31.8 238.5"/>
  <polyline class="st2" points="22.6 238.5 22.6 238.6 22.6 238.7 22.6 238.7 22.6 238.8"/>
  <polyline class="st2" points="31.8 216 31.8 216 31.7 216 31.7 216 31.7 216.1 31.6 216.1 31.6 216.1 31.5 216.2 31.5 216.3 31.5 235.4 31.5 235.4 31.6 235.4 31.6 235.5 31.7 235.5 31.7 235.6 31.8 235.6 31.8 235.6"/>
  <polyline class="st2" points="31.8 235.7 29.8 235.7 12.1 235.7"/>
  <polyline class="st2" points="22.6 216.2 22.6 216.2 22.6 216.3 22.8 216.3 22.9 216.4 23.1 216.5 23.2 216.6 23.4 216.6 23.5 216.8 23.7 216.8 23.8 216.9 24 217.1 24.1 217.1 24.2 217.2 24.3 217.4 24.4 217.5 24.6 217.6 24.8 217.9 25.1 218.1 25.3 218.3 25.5 218.6 25.7 219 26 219.3 26.2 219.6 26.3 219.9 26.5 220.2 26.7 220.5 26.9 220.8 27.1 221.2 27.2 221.6 27.4 221.9 27.5 222.3 27.6 222.7 27.8 223 27.9 223.4 28 223.8 28.2 224.1 28.3 224.6 28.4 224.9 28.5 225.3 28.6 225.7 28.7 226.1 28.8 226.5 28.8 226.9 28.9 227.3 29 227.6 29.1 228 29.1 228.4 29.2 228.8 29.3 229.1 29.3 229.5 29.3 229.9 29.4 230.2 29.5 230.6 29.5 230.9 29.5 231.2 29.6 231.6 29.6 231.9 29.6 232.2 29.6 232.5 29.6 232.7 29.7 233.1 29.7 233.3 29.7 233.5 29.8 233.8 29.8 234 29.8 234.3 29.8 234.5 29.8 234.6 29.8 234.8 29.8 234.8 29.8 234.9 29.8 235 29.8 235.1 29.8 235.1 29.8 235.2 29.8 235.3 29.8 235.3 29.8 235.4 29.8 235.4 29.8 235.5 29.8 235.6 29.8 235.6 29.8 235.7"/>
  <path class="st2" d="M12.1,235.6c.1,0,.3-.1.3-.3"/>
  <line class="st2" x1="29.8" y1="235.4" x2="29.8" y2="235.4"/>
  <line class="st2" x1="12.4" y1="216.3" x2="12.4" y2="235.4"/>
  <path class="st2" d="M12.4,216.2c0-.1-.1-.3-.3-.3"/>
  <polyline class="st2" points="12.1 216 22.6 216 24.9 216 27.2 216 31.8 216"/>
  <polyline class="st2" points="22.6 216 22.6 216 22.6 216.1 22.6 216.1 22.6 216.2"/>
  <polyline class="st2" points="31.8 193.4 31.8 193.4 31.7 193.4 31.7 193.4 31.7 193.5 31.6 193.5 31.6 193.6 31.6 193.6 31.5 193.6 31.5 193.7 31.5 212.8 31.5 212.8 31.6 212.8 31.6 212.9 31.7 213 31.7 213 31.8 213 31.8 213"/>
  <polyline class="st2" points="31.8 213.1 29.8 213.1 12.1 213.1"/>
  <polyline class="st2" points="22.6 193.6 22.6 193.7 22.8 193.7 22.9 193.8 23.1 193.9 23.2 194 23.4 194.1 23.5 194.2 23.7 194.3 23.8 194.3 24 194.5 24.1 194.6 24.2 194.7 24.3 194.8 24.4 194.9 24.6 195 24.8 195.3 25.1 195.5 25.3 195.8 25.5 196.1 25.7 196.4 26 196.7 26.2 197 26.3 197.3 26.5 197.6 26.7 198 26.9 198.3 27.1 198.6 27.2 199 27.4 199.4 27.5 199.7 27.6 200.1 27.8 200.5 27.9 200.8 28 201.2 28.2 201.6 28.3 202 28.4 202.3 28.5 202.8 28.6 203.1 28.7 203.5 28.8 203.9 28.8 204.3 28.9 204.7 29 205.1 29.1 205.5 29.1 205.8 29.2 206.2 29.3 206.6 29.3 206.9 29.3 207.3 29.4 207.7 29.5 208 29.5 208.3 29.5 208.6 29.6 209 29.6 209.3 29.6 209.6 29.6 209.9 29.6 210.2 29.7 210.5 29.7 210.7 29.7 211 29.8 211.3 29.8 211.4 29.8 211.7 29.8 211.9 29.8 212.1 29.8 212.2 29.8 212.2 29.8 212.4 29.8 212.4 29.8 212.5 29.8 212.5 29.8 212.6 29.8 212.7 29.8 212.7 29.8 212.8 29.8 212.8 29.8 212.9 29.8 213 29.8 213 29.8 213.1"/>
  <path class="st2" d="M12.1,213c.1,0,.3-.1.3-.3"/>
  <line class="st2" x1="29.8" y1="212.8" x2="29.8" y2="212.8"/>
  <line class="st2" x1="12.4" y1="193.7" x2="12.4" y2="212.8"/>
  <path class="st2" d="M12.4,193.6c0-.1-.1-.3-.3-.3"/>
  <polyline class="st2" points="12.1 193.4 22.6 193.4 24.9 193.4 27.2 193.4 31.8 193.4"/>
  <polyline class="st2" points="22.6 193.4 22.6 193.4 22.6 193.5 22.6 193.6 22.6 193.6"/>
  <polyline class="st2" points="110.9 193.7 110.9 193.6 110.9 193.6 110.8 193.5 110.8 193.4 110.7 193.4 110.6 193.4 110.6 193.4 110.6 213 110.6 213.1"/>
  <polyline class="st2" points="110.9 238.9 110.9 238.8 110.9 238.7 110.8 238.7 110.8 238.6 110.8 238.6 110.7 238.5 110.6 238.5 110.6 238.5 110.6 258.2 110.6 258.3"/>
  <polyline class="st2" points="110.9 216.3 110.9 216.2 110.9 216.1 110.8 216.1 110.8 216 110.7 216 110.6 216 110.6 216 110.6 235.6 110.6 235.7"/>
  <polyline class="st2" points="209.3 235.8 209.3 236.1 209.3 236.5 209.3 237.1 209.3 237.6 209.3 238.1 209.3 238.4"/>
  <polyline class="st2" points="209.3 190.6 209.3 190.9 209.3 191.4 209.3 192 209.3 192.5 209.3 192.9 209.3 193.3"/>
  <polyline class="st2" points="209.3 213.2 209.3 213.5 209.3 214 209.3 214.6 209.3 215 209.3 215.5 209.3 215.8"/>
  <polyline class="st2" points="209.3 258.4 209.3 258.7 209.3 259.1 209.3 259.7 209.3 260.2 209.3 260.7 209.3 261"/>
  <line class="st2" x1="209.3" y1="258.3" x2="209.3" y2="258.4"/>
  <line class="st2" x1="209.3" y1="258.3" x2="209.3" y2="238.5"/>
  <line class="st2" x1="209.3" y1="235.7" x2="209.3" y2="235.8"/>
  <line class="st2" x1="209.3" y1="238.4" x2="209.3" y2="238.5"/>
  <line class="st2" x1="209.3" y1="235.7" x2="209.3" y2="216"/>
  <line class="st2" x1="209.3" y1="213.1" x2="209.3" y2="213.2"/>
  <line class="st2" x1="209.3" y1="215.8" x2="209.3" y2="216"/>
  <line class="st2" x1="209.3" y1="213.1" x2="209.3" y2="193.4"/>
  <line class="st2" x1="209.3" y1="193.3" x2="209.3" y2="193.4"/>
  <polyline class="st2" points="120.1 238.8 120.1 238.8 120 238.9 119.9 238.9 119.7 239 119.6 239 119.4 239.2 119.3 239.2 119.1 239.3 119 239.4 118.8 239.5 118.7 239.6 118.6 239.7 118.5 239.8 118.3 240 118.2 240.1 118 240.2 117.8 240.4 117.6 240.7 117.4 240.9 117.1 241.2 116.9 241.5 116.7 241.8 116.5 242.1 116.3 242.5 116.1 242.8 116 243.1 115.8 243.4 115.6 243.8 115.5 244.2 115.3 244.5 115.2 244.8 115 245.2 114.9 245.6 114.7 246 114.6 246.4 114.5 246.7 114.4 247.2 114.3 247.5 114.2 247.9 114.1 248.3 114 248.7 113.9 249 113.8 249.5 113.7 249.8 113.6 250.2 113.6 250.6 113.5 251 113.5 251.4 113.4 251.7 113.3 252.1 113.3 252.5 113.3 252.8 113.2 253.1 113.2 253.5 113.2 253.8 113.1 254.1 113.1 254.5 113 254.8 113 255 113 255.3 113 255.6 113 255.9 112.9 256.1 112.9 256.4 112.9 256.6 112.9 256.9 112.9 257 112.8 257.2 112.8 257.3 112.8 257.4 112.8 257.5 112.8 257.5 112.8 257.7 112.8 257.7 112.8 257.8 112.8 257.8 112.8 257.9 112.8 258"/>
  <polyline class="st2" points="112.8 258 112.8 258 112.8 258.1 112.8 258.1 112.9 258.2 112.9 258.3 130.5 258.3"/>
  <line class="st2" x1="112.8" y1="258" x2="112.8" y2="258"/>
  <line class="st2" x1="110.8" y1="258.3" x2="112.9" y2="258.3"/>
  <polyline class="st2" points="120.1 238.8 120.1 238.7 120.1 238.7 120.1 238.6 120.1 238.5 117.8 238.5 115.5 238.5 110.8 238.5"/>
  <line class="st2" x1="130.5" y1="238.5" x2="120.1" y2="238.5"/>
  <polyline class="st2" points="120.1 216.2 120.1 216.2 120 216.3 119.9 216.3 119.7 216.4 119.6 216.5 119.4 216.6 119.3 216.6 119.1 216.8 119 216.8 118.8 216.9 118.7 217.1 118.6 217.1 118.5 217.2 118.3 217.4 118.2 217.5 118 217.6 117.8 217.9 117.6 218.1 117.4 218.3 117.1 218.6 116.9 219 116.7 219.3 116.5 219.6 116.3 219.9 116.1 220.2 116 220.5 115.8 220.8 115.6 221.2 115.5 221.6 115.3 221.9 115.2 222.3 115 222.7 114.9 223 114.7 223.4 114.6 223.8 114.5 224.1 114.4 224.6 114.3 224.9 114.2 225.3 114.1 225.7 114 226.1 113.9 226.5 113.8 226.9 113.7 227.3 113.6 227.6 113.6 228 113.5 228.4 113.5 228.8 113.4 229.1 113.3 229.5 113.3 229.9 113.3 230.2 113.2 230.6 113.2 230.9 113.2 231.2 113.1 231.6 113.1 231.9 113 232.2 113 232.5 113 232.7 113 233.1 113 233.3 112.9 233.5 112.9 233.8 112.9 234 112.9 234.3 112.9 234.5 112.8 234.6 112.8 234.8 112.8 234.8 112.8 234.9 112.8 235 112.8 235.1 112.8 235.1 112.8 235.2 112.8 235.3 112.8 235.3 112.8 235.4"/>
  <polyline class="st2" points="112.8 235.4 112.8 235.4 112.8 235.5 112.8 235.6 112.9 235.6 112.9 235.7 130.5 235.7"/>
  <line class="st2" x1="112.8" y1="235.4" x2="112.8" y2="235.4"/>
  <line class="st2" x1="110.8" y1="235.7" x2="112.9" y2="235.7"/>
  <polyline class="st2" points="120.1 216.2 120.1 216.1 120.1 216.1 120.1 216 120.1 216 117.8 216 115.5 216 110.8 216"/>
  <line class="st2" x1="130.5" y1="216" x2="120.1" y2="216"/>
  <polyline class="st2" points="120.1 193.6 120.1 193.7 120 193.7 119.9 193.7 119.7 193.8 119.6 193.9 119.4 194 119.3 194.1 119.1 194.2 119 194.3 118.8 194.3 118.7 194.5 118.6 194.6 118.5 194.7 118.3 194.8 118.2 194.9 118 195 117.8 195.3 117.6 195.5 117.4 195.8 117.1 196.1 116.9 196.4 116.7 196.7 116.5 197 116.3 197.3 116.1 197.6 116 198 115.8 198.3 115.6 198.6 115.5 199 115.3 199.4 115.2 199.7 115 200.1 114.9 200.5 114.7 200.8 114.6 201.2 114.5 201.6 114.4 202 114.3 202.3 114.2 202.8 114.1 203.1 114 203.5 113.9 203.9 113.8 204.3 113.7 204.7 113.6 205.1 113.6 205.5 113.5 205.8 113.5 206.2 113.4 206.6 113.3 206.9 113.3 207.3 113.3 207.7 113.2 208 113.2 208.3 113.2 208.6 113.1 209 113.1 209.3 113 209.6 113 209.9 113 210.2 113 210.5 113 210.7 112.9 211 112.9 211.3 112.9 211.4 112.9 211.7 112.9 211.9 112.8 212.1 112.8 212.2 112.8 212.2 112.8 212.4 112.8 212.4 112.8 212.5 112.8 212.5 112.8 212.6 112.8 212.7 112.8 212.7 112.8 212.8"/>
  <polyline class="st2" points="112.8 212.8 112.8 212.8 112.8 212.9 112.8 213 112.8 213 112.9 213 112.9 213.1 130.5 213.1"/>
  <line class="st2" x1="112.8" y1="212.8" x2="112.8" y2="212.8"/>
  <line class="st2" x1="110.8" y1="213.1" x2="112.9" y2="213.1"/>
  <polyline class="st2" points="120.1 193.6 120.1 193.6 120.1 193.5 120.1 193.4 120.1 193.4 117.8 193.4 115.5 193.4 110.8 193.4"/>
  <polyline class="st2" points="130.5 213 130.6 213 130.6 213 130.7 213 130.7 212.9 130.8 212.8 130.8 212.8 130.8 193.7 130.8 193.6 130.8 193.6 130.7 193.5 130.7 193.4 130.6 193.4 130.6 193.4 130.5 193.4 120.1 193.4"/>
  <polyline class="st2" points="139.8 193.6 139.8 193.7 139.7 193.7 139.5 193.7 139.4 193.8 139.3 193.9 139.1 194 139 194.1 138.8 194.2 138.7 194.3 138.5 194.3 138.4 194.5 138.2 194.6 138.1 194.7 138 194.8 137.9 194.9 137.8 195 137.5 195.3 137.3 195.5 137 195.8 136.8 196.1 136.6 196.4 136.4 196.7 136.2 197 136 197.3 135.8 197.6 135.6 198 135.4 198.3 135.3 198.6 135.1 199 135 199.4 134.8 199.7 134.7 200.1 134.6 200.5 134.5 200.8 134.3 201.2 134.2 201.6 134.1 202 134 202.3 133.8 202.8 133.8 203.1 133.7 203.5 133.6 203.9 133.5 204.3 133.4 204.7 133.4 205.1 133.3 205.5 133.2 205.8 133.2 206.2 133.1 206.6 133.1 206.9 133 207.3 132.9 207.7 132.9 208 132.9 208.3 132.8 208.6 132.8 209 132.7 209.3 132.7 209.6 132.7 209.9 132.7 210.2 132.7 210.5 132.6 210.7 132.6 211 132.6 211.3 132.6 211.4 132.6 211.7 132.6 211.9 132.6 212.1 132.6 212.2 132.6 212.2 132.6 212.4 132.6 212.4 132.6 212.5 132.6 212.5 132.6 212.6 132.6 212.7 132.6 212.7 132.6 212.8"/>
  <polyline class="st2" points="132.6 212.8 132.6 212.8 132.6 212.9 132.6 213 132.6 213 132.6 213.1 132.6 213.1 150.2 213.1"/>
  <line class="st2" x1="132.6" y1="212.8" x2="132.6" y2="212.8"/>
  <line class="st2" x1="130.5" y1="213.1" x2="132.6" y2="213.1"/>
  <polyline class="st2" points="139.8 193.6 139.8 193.6 139.8 193.5 139.8 193.4 139.8 193.4 139.8 193.4 137.5 193.4 135.1 193.4 130.5 193.4"/>
  <line class="st2" x1="150.2" y1="193.4" x2="139.8" y2="193.4"/>
  <polyline class="st2" points="130.5 216 130.6 216 130.6 216 130.7 216 130.7 216.1 130.8 216.1 130.8 216.2 130.8 216.3 130.8 235.4 130.8 235.4 130.7 235.4 130.7 235.5 130.7 235.5 130.7 235.6 130.6 235.6 130.6 235.6 130.5 235.6"/>
  <polyline class="st2" points="139.8 216.2 139.7 216.3 139.5 216.3 139.4 216.4 139.3 216.5 139.1 216.6 139 216.6 138.8 216.8 138.7 216.8 138.5 216.9 138.4 217.1 138.2 217.1 138.1 217.2 138 217.4 137.9 217.5 137.8 217.6 137.5 217.9 137.3 218.1 137 218.3 136.8 218.6 136.6 219 136.4 219.3 136.2 219.6 136 219.9 135.8 220.2 135.6 220.5 135.4 220.8 135.3 221.2 135.1 221.6 135 221.9 134.8 222.3 134.7 222.7 134.6 223 134.5 223.4 134.3 223.8 134.2 224.1 134.1 224.6 134 224.9 133.8 225.3 133.8 225.7 133.7 226.1 133.6 226.5 133.5 226.9 133.4 227.3 133.4 227.6 133.3 228 133.2 228.4 133.2 228.8 133.1 229.1 133.1 229.5 133 229.9 132.9 230.2 132.9 230.6 132.9 230.9 132.8 231.2 132.8 231.6 132.7 231.9 132.7 232.2 132.7 232.5 132.7 232.7 132.7 233.1 132.6 233.3 132.6 233.5 132.6 233.8 132.6 234 132.6 234.3 132.6 234.5 132.6 234.6 132.6 234.8 132.6 234.8 132.6 234.9 132.6 235 132.6 235.1 132.6 235.1 132.6 235.2 132.6 235.3 132.6 235.3 132.6 235.4"/>
  <polyline class="st2" points="132.6 235.4 132.6 235.4 132.6 235.5 132.6 235.6 132.6 235.6 132.6 235.7 150.2 235.7"/>
  <line class="st2" x1="132.6" y1="235.4" x2="132.6" y2="235.4"/>
  <line class="st2" x1="130.5" y1="235.7" x2="132.6" y2="235.7"/>
  <polyline class="st2" points="139.8 216.2 139.8 216.1 139.8 216.1 139.8 216 139.8 216 139.8 216 137.5 216 135.1 216 130.5 216"/>
  <line class="st2" x1="150.2" y1="216" x2="139.8" y2="216"/>
  <polyline class="st2" points="130.5 238.5 130.6 238.5 130.6 238.5 130.7 238.6 130.7 238.6 130.7 238.7 130.8 238.7 130.8 238.8 130.8 238.9 130.8 258 130.8 258 130.7 258 130.7 258.1 130.7 258.1 130.7 258.1 130.6 258.1 130.6 258.1 130.5 258.2"/>
  <polyline class="st2" points="139.8 238.8 139.7 238.9 139.5 238.9 139.4 239 139.3 239 139.1 239.2 139 239.2 138.8 239.3 138.7 239.4 138.5 239.5 138.4 239.6 138.2 239.7 138.1 239.8 138 240 137.9 240.1 137.8 240.2 137.5 240.4 137.3 240.7 137 240.9 136.8 241.2 136.6 241.5 136.4 241.8 136.2 242.1 136 242.5 135.8 242.8 135.6 243.1 135.4 243.4 135.3 243.8 135.1 244.2 135 244.5 134.8 244.8 134.7 245.2 134.6 245.6 134.5 246 134.3 246.4 134.2 246.7 134.1 247.2 134 247.5 133.8 247.9 133.8 248.3 133.7 248.7 133.6 249 133.5 249.5 133.4 249.8 133.4 250.2 133.3 250.6 133.2 251 133.2 251.4 133.1 251.7 133.1 252.1 133 252.5 132.9 252.8 132.9 253.1 132.9 253.5 132.8 253.8 132.8 254.1 132.7 254.5 132.7 254.8 132.7 255 132.7 255.3 132.7 255.6 132.6 255.9 132.6 256.1 132.6 256.4 132.6 256.6 132.6 256.9 132.6 257 132.6 257.2 132.6 257.3 132.6 257.4 132.6 257.5 132.6 257.5 132.6 257.7 132.6 257.7 132.6 257.8 132.6 257.8 132.6 257.9 132.6 258"/>
  <polyline class="st2" points="132.6 258 132.6 258 132.6 258.1 132.6 258.1 132.6 258.2 132.6 258.2 132.6 258.3 150.2 258.3"/>
  <line class="st2" x1="132.6" y1="258" x2="132.6" y2="258"/>
  <line class="st2" x1="130.5" y1="258.3" x2="132.6" y2="258.3"/>
  <polyline class="st2" points="139.8 238.8 139.8 238.7 139.8 238.7 139.8 238.6 139.8 238.5 139.8 238.5 137.5 238.5 135.1 238.5 130.5 238.5"/>
  <polyline class="st2" points="150.2 258.2 150.3 258.1 150.3 258.1 150.4 258.1 150.5 258.1 150.5 258 150.5 258 150.5 238.9 150.5 238.8 150.5 238.8 150.5 238.7 150.5 238.7 150.4 238.6 150.3 238.6 150.3 238.5 150.3 238.5 150.2 238.5 139.8 238.5"/>
  <polyline class="st2" points="159.5 238.8 159.4 238.8 159.4 238.9 159.2 238.9 159.1 239 158.9 239 158.8 239.2 158.6 239.2 158.5 239.3 158.4 239.4 158.2 239.5 158.1 239.6 158 239.7 157.8 239.8 157.7 240 157.6 240.1 157.5 240.2 157.2 240.4 157 240.7 156.7 240.9 156.5 241.2 156.3 241.5 156.1 241.8 155.9 242.1 155.7 242.5 155.5 242.8 155.3 243.1 155.2 243.4 155 243.8 154.8 244.2 154.7 244.5 154.5 244.8 154.4 245.2 154.2 245.6 154.1 246 154 246.4 153.9 246.7 153.8 247.2 153.6 247.5 153.6 247.9 153.4 248.3 153.4 248.7 153.3 249 153.2 249.5 153.1 249.8 153 250.2 153 250.6 152.9 251 152.8 251.4 152.8 251.7 152.7 252.1 152.7 252.5 152.7 252.8 152.6 253.1 152.5 253.5 152.5 253.8 152.5 254.1 152.5 254.5 152.4 254.8 152.4 255 152.3 255.3 152.3 255.6 152.3 255.9 152.3 256.1 152.3 256.4 152.3 256.6 152.3 256.9 152.3 257 152.3 257.2 152.3 257.3 152.2 257.4 152.2 257.5 152.2 257.5 152.2 257.7 152.2 257.7 152.2 257.8 152.2 257.8 152.2 257.9 152.2 258"/>
  <polyline class="st2" points="152.2 258 152.2 258 152.2 258.1 152.3 258.1 152.3 258.2 152.3 258.3 169.9 258.3"/>
  <line class="st2" x1="152.2" y1="258" x2="152.2" y2="258"/>
  <line class="st2" x1="150.2" y1="258.3" x2="152.3" y2="258.3"/>
  <polyline class="st2" points="159.5 238.8 159.5 238.7 159.5 238.7 159.5 238.6 159.5 238.5 157.2 238.5 154.8 238.5 150.2 238.5"/>
  <line class="st2" x1="169.9" y1="238.5" x2="159.5" y2="238.5"/>
  <polyline class="st2" points="150.2 216 150.3 216 150.3 216 150.4 216.1 150.5 216.1 150.5 216.1 150.5 216.2 150.5 216.2 150.5 216.3 150.5 235.4 150.5 235.4 150.5 235.5 150.4 235.5 150.3 235.6 150.3 235.6 150.2 235.6"/>
  <polyline class="st2" points="159.5 216.2 159.4 216.2 159.4 216.3 159.2 216.3 159.1 216.4 158.9 216.5 158.8 216.6 158.6 216.6 158.5 216.8 158.4 216.8 158.2 216.9 158.1 217.1 158 217.1 157.8 217.2 157.7 217.4 157.6 217.5 157.5 217.6 157.2 217.9 157 218.1 156.7 218.3 156.5 218.6 156.3 219 156.1 219.3 155.9 219.6 155.7 219.9 155.5 220.2 155.3 220.5 155.2 220.8 155 221.2 154.8 221.6 154.7 221.9 154.5 222.3 154.4 222.7 154.2 223 154.1 223.4 154 223.8 153.9 224.1 153.8 224.6 153.6 224.9 153.6 225.3 153.4 225.7 153.4 226.1 153.3 226.5 153.2 226.9 153.1 227.3 153 227.6 153 228 152.9 228.4 152.8 228.8 152.8 229.1 152.7 229.5 152.7 229.9 152.7 230.2 152.6 230.6 152.5 230.9 152.5 231.2 152.5 231.6 152.5 231.9 152.4 232.2 152.4 232.5 152.3 232.7 152.3 233.1 152.3 233.3 152.3 233.5 152.3 233.8 152.3 234 152.3 234.3 152.3 234.5 152.3 234.6 152.3 234.8 152.2 234.8 152.2 234.9 152.2 235 152.2 235.1 152.2 235.1 152.2 235.2 152.2 235.3 152.2 235.3 152.2 235.4"/>
  <polyline class="st2" points="152.2 235.4 152.2 235.4 152.2 235.5 152.2 235.6 152.3 235.6 152.3 235.6 152.3 235.7 169.9 235.7"/>
  <line class="st2" x1="150.2" y1="235.7" x2="152.3" y2="235.7"/>
  <polyline class="st2" points="159.5 216.2 159.5 216.1 159.5 216.1 159.5 216 159.5 216 157.2 216 154.8 216 150.2 216"/>
  <line class="st2" x1="169.9" y1="216" x2="159.5" y2="216"/>
  <polyline class="st2" points="150.2 193.4 150.3 193.4 150.3 193.4 150.4 193.5 150.5 193.5 150.5 193.6 150.5 193.6 150.5 193.7 150.5 212.8 150.5 212.8 150.5 212.8 150.5 212.9 150.4 213 150.3 213 150.3 213 150.2 213"/>
  <polyline class="st2" points="159.5 193.6 159.4 193.7 159.2 193.7 159.1 193.8 158.9 193.9 158.8 194 158.6 194.1 158.5 194.2 158.4 194.3 158.2 194.3 158.1 194.5 158 194.6 157.8 194.7 157.7 194.8 157.6 194.9 157.5 195 157.2 195.3 157 195.5 156.7 195.8 156.5 196.1 156.3 196.4 156.1 196.7 155.9 197 155.7 197.3 155.5 197.6 155.3 198 155.2 198.3 155 198.6 154.8 199 154.7 199.4 154.5 199.7 154.4 200.1 154.2 200.5 154.1 200.8 154 201.2 153.9 201.6 153.8 202 153.6 202.3 153.6 202.8 153.4 203.1 153.4 203.5 153.3 203.9 153.2 204.3 153.1 204.7 153 205.1 153 205.5 152.9 205.8 152.8 206.2 152.8 206.6 152.7 206.9 152.7 207.3 152.7 207.7 152.6 208 152.5 208.3 152.5 208.6 152.5 209 152.5 209.3 152.4 209.6 152.4 209.9 152.3 210.2 152.3 210.5 152.3 210.7 152.3 211 152.3 211.3 152.3 211.4 152.3 211.7 152.3 211.9 152.3 212.1 152.3 212.2 152.2 212.2 152.2 212.4 152.2 212.4 152.2 212.5 152.2 212.5 152.2 212.6 152.2 212.7 152.2 212.7 152.2 212.8"/>
  <polyline class="st2" points="152.2 212.8 152.2 212.8 152.2 212.9 152.2 213 152.3 213 152.3 213.1 169.9 213.1"/>
  <line class="st2" x1="150.2" y1="213.1" x2="152.3" y2="213.1"/>
  <polyline class="st2" points="159.5 193.6 159.5 193.6 159.5 193.5 159.5 193.4 159.5 193.4 157.2 193.4 154.8 193.4 150.2 193.4"/>
  <polyline class="st2" points="169.9 213 169.9 213 170 213 170.1 213 170.1 213 170.1 212.9 170.2 212.9 170.2 212.8 170.2 212.8 170.2 193.7 170.2 193.6 170.2 193.6 170.1 193.5 170.1 193.4 170 193.4 169.9 193.4 169.9 193.4 159.5 193.4"/>
  <polyline class="st2" points="179.1 193.6 179.1 193.7 179.1 193.7 179 193.7 178.8 193.8 178.7 193.9 178.5 194 178.4 194.1 178.2 194.2 178 194.3 177.9 194.3 177.8 194.5 177.7 194.6 177.5 194.7 177.4 194.8 177.3 194.9 177.1 195 176.9 195.3 176.6 195.5 176.4 195.8 176.2 196.1 176 196.4 175.8 196.7 175.6 197 175.4 197.3 175.2 197.6 175 198 174.9 198.3 174.7 198.6 174.5 199 174.4 199.4 174.2 199.7 174.1 200.1 174 200.5 173.8 200.8 173.7 201.2 173.6 201.6 173.5 202 173.3 202.3 173.2 202.8 173.2 203.1 173 203.5 173 203.9 172.9 204.3 172.8 204.7 172.7 205.1 172.7 205.5 172.6 205.8 172.6 206.2 172.5 206.6 172.4 206.9 172.4 207.3 172.3 207.7 172.3 208 172.2 208.3 172.2 208.6 172.2 209 172.1 209.3 172.1 209.6 172.1 209.9 172.1 210.2 172.1 210.5 172 210.7 172 211 172 211.3 172 211.4 171.9 211.7 171.9 211.9 171.9 212.1 171.9 212.2 171.9 212.2 171.9 212.4 171.9 212.4 171.9 212.5 171.9 212.5 171.9 212.6 171.9 212.7 171.9 212.7 171.9 212.8"/>
  <polyline class="st2" points="171.9 212.8 171.9 212.8 171.9 212.9 171.9 213 171.9 213 171.9 213.1 172 213.1 189.6 213.1"/>
  <line class="st2" x1="171.9" y1="212.8" x2="171.9" y2="212.8"/>
  <line class="st2" x1="169.9" y1="213.1" x2="172" y2="213.1"/>
  <polyline class="st2" points="179.1 193.6 179.1 193.6 179.1 193.5 179.1 193.4 179.2 193.4 179.2 193.4 176.9 193.4 174.6 193.4 169.9 193.4"/>
  <line class="st2" x1="189.6" y1="193.4" x2="179.2" y2="193.4"/>
  <polyline class="st2" points="169.9 216 169.9 216 170 216 170.1 216 170.1 216.1 170.2 216.1 170.2 216.2 170.2 216.3 170.2 235.4 170.2 235.4 170.1 235.5 170.1 235.6 170 235.6 169.9 235.6 169.9 235.6"/>
  <polyline class="st2" points="179.1 216.2 179.1 216.3 179 216.3 178.8 216.4 178.7 216.5 178.5 216.6 178.4 216.6 178.2 216.8 178 216.8 177.9 216.9 177.8 217.1 177.7 217.1 177.5 217.2 177.4 217.4 177.3 217.5 177.1 217.6 176.9 217.9 176.6 218.1 176.4 218.3 176.2 218.6 176 219 175.8 219.3 175.6 219.6 175.4 219.9 175.2 220.2 175 220.5 174.9 220.8 174.7 221.2 174.5 221.6 174.4 221.9 174.2 222.3 174.1 222.7 174 223 173.8 223.4 173.7 223.8 173.6 224.1 173.5 224.6 173.3 224.9 173.2 225.3 173.2 225.7 173 226.1 173 226.5 172.9 226.9 172.8 227.3 172.7 227.6 172.7 228 172.6 228.4 172.6 228.8 172.5 229.1 172.4 229.5 172.4 229.9 172.3 230.2 172.3 230.6 172.2 230.9 172.2 231.2 172.2 231.6 172.1 231.9 172.1 232.2 172.1 232.5 172.1 232.7 172.1 233.1 172 233.3 172 233.5 172 233.8 172 234 171.9 234.3 171.9 234.5 171.9 234.6 171.9 234.8 171.9 234.8 171.9 234.9 171.9 235 171.9 235.1 171.9 235.1 171.9 235.2 171.9 235.3 171.9 235.3 171.9 235.4"/>
  <polyline class="st2" points="171.9 235.4 171.9 235.4 171.9 235.5 171.9 235.6 171.9 235.6 172 235.7 189.6 235.7"/>
  <line class="st2" x1="171.9" y1="235.4" x2="171.9" y2="235.4"/>
  <line class="st2" x1="169.9" y1="235.7" x2="172" y2="235.7"/>
  <polyline class="st2" points="179.1 216.2 179.1 216.1 179.1 216.1 179.1 216 179.2 216 179.2 216 176.9 216 174.6 216 169.9 216"/>
  <line class="st2" x1="189.6" y1="216" x2="179.2" y2="216"/>
  <polyline class="st2" points="169.9 238.5 169.9 238.5 170 238.5 170.1 238.6 170.1 238.6 170.1 238.7 170.2 238.7 170.2 238.8 170.2 238.9 170.2 258 170.2 258 170.1 258.1 170.1 258.1 170 258.1 169.9 258.1 169.9 258.2"/>
  <polyline class="st2" points="179.1 238.8 179.1 238.9 179 238.9 178.8 239 178.7 239 178.5 239.2 178.4 239.2 178.2 239.3 178 239.4 177.9 239.5 177.8 239.6 177.7 239.7 177.5 239.8 177.4 240 177.3 240.1 177.1 240.2 176.9 240.4 176.6 240.7 176.4 240.9 176.2 241.2 176 241.5 175.8 241.8 175.6 242.1 175.4 242.5 175.2 242.8 175 243.1 174.9 243.4 174.7 243.8 174.5 244.2 174.4 244.5 174.2 244.8 174.1 245.2 174 245.6 173.8 246 173.7 246.4 173.6 246.7 173.5 247.2 173.3 247.5 173.2 247.9 173.2 248.3 173 248.7 173 249 172.9 249.5 172.8 249.8 172.7 250.2 172.7 250.6 172.6 251 172.6 251.4 172.5 251.7 172.4 252.1 172.4 252.5 172.3 252.8 172.3 253.1 172.2 253.5 172.2 253.8 172.2 254.1 172.1 254.5 172.1 254.8 172.1 255 172.1 255.3 172.1 255.6 172 255.9 172 256.1 172 256.4 172 256.6 171.9 256.9 171.9 257 171.9 257.2 171.9 257.3 171.9 257.4 171.9 257.5 171.9 257.5 171.9 257.7 171.9 257.7 171.9 257.8 171.9 257.8 171.9 257.9 171.9 258"/>
  <polyline class="st2" points="171.9 258 171.9 258 171.9 258.1 171.9 258.1 171.9 258.2 172 258.2 172 258.3 189.6 258.3"/>
  <line class="st2" x1="171.9" y1="258" x2="171.9" y2="258"/>
  <line class="st2" x1="169.9" y1="258.3" x2="172" y2="258.3"/>
  <polyline class="st2" points="179.1 238.8 179.1 238.7 179.1 238.7 179.1 238.6 179.2 238.6 179.2 238.5 176.9 238.5 174.6 238.5 169.9 238.5"/>
  <polyline class="st2" points="189.6 258.2 189.6 258.1 189.7 258.1 189.8 258.1 189.8 258.1 189.8 258 189.9 258 189.9 258 189.9 238.9 189.9 238.8 189.8 238.7 189.8 238.7 189.8 238.6 189.7 238.5 189.6 238.5 189.6 238.5 179.2 238.5"/>
  <polyline class="st2" points="189.6 258.3 191.7 258.3 209.3 258.3"/>
  <polyline class="st2" points="198.9 238.8 198.8 238.8 198.8 238.9 198.6 238.9 198.5 239 198.3 239 198.2 239.2 198 239.2 197.9 239.3 197.8 239.4 197.6 239.5 197.5 239.6 197.3 239.7 197.2 239.8 197.1 240 197 240.1 196.9 240.2 196.6 240.4 196.4 240.7 196.1 240.9 195.9 241.2 195.7 241.5 195.4 241.8 195.3 242.1 195.1 242.5 194.9 242.8 194.7 243.1 194.5 243.4 194.3 243.8 194.2 244.2 194 244.5 193.9 244.8 193.8 245.2 193.6 245.6 193.5 246 193.4 246.4 193.3 246.7 193.1 247.2 193.1 247.5 192.9 247.9 192.8 248.3 192.8 248.7 192.6 249 192.6 249.5 192.5 249.8 192.4 250.2 192.3 250.6 192.3 251 192.2 251.4 192.2 251.7 192.1 252.1 192.1 252.5 192 252.8 192 253.1 191.9 253.5 191.9 253.8 191.8 254.1 191.8 254.5 191.8 254.8 191.8 255 191.8 255.3 191.7 255.6 191.7 255.9 191.7 256.1 191.7 256.4 191.7 256.6 191.7 256.9 191.7 257 191.7 257.2 191.7 257.3 191.7 257.4 191.7 257.5 191.7 257.5 191.6 257.7 191.6 257.7 191.6 257.8 191.6 257.8 191.6 257.9 191.6 258 191.6 258 191.6 258.1 191.7 258.1 191.7 258.1 191.7 258.2 191.7 258.3"/>
  <path class="st2" d="M209.3,258.2c-.1,0-.3-.1-.3-.3"/>
  <line class="st2" x1="191.6" y1="258" x2="191.6" y2="258"/>
  <line class="st2" x1="209" y1="238.9" x2="209" y2="258"/>
  <path class="st2" d="M209,238.8c0-.1.1-.3.3-.3"/>
  <polyline class="st2" points="209.3 238.5 198.9 238.5 196.5 238.5 194.2 238.5 189.6 238.5"/>
  <polyline class="st2" points="198.9 238.5 198.9 238.6 198.9 238.7 198.9 238.7 198.9 238.8"/>
  <polyline class="st2" points="189.6 216 189.6 216 189.7 216 189.8 216 189.8 216.1 189.8 216.1 189.8 216.1 189.9 216.2 189.9 216.3 189.9 235.4 189.9 235.4 189.8 235.4 189.8 235.5 189.8 235.5 189.7 235.6 189.6 235.6 189.6 235.6"/>
  <polyline class="st2" points="189.6 235.7 191.7 235.7 209.3 235.7"/>
  <polyline class="st2" points="198.9 216.2 198.8 216.2 198.8 216.3 198.6 216.3 198.5 216.4 198.3 216.5 198.2 216.6 198 216.6 197.9 216.8 197.8 216.8 197.6 216.9 197.5 217.1 197.3 217.1 197.2 217.2 197.1 217.4 197 217.5 196.9 217.6 196.6 217.9 196.4 218.1 196.1 218.3 195.9 218.6 195.7 219 195.4 219.3 195.3 219.6 195.1 219.9 194.9 220.2 194.7 220.5 194.5 220.8 194.3 221.2 194.2 221.6 194 221.9 193.9 222.3 193.8 222.7 193.6 223 193.5 223.4 193.4 223.8 193.3 224.1 193.1 224.6 193.1 224.9 192.9 225.3 192.8 225.7 192.8 226.1 192.6 226.5 192.6 226.9 192.5 227.3 192.4 227.6 192.3 228 192.3 228.4 192.2 228.8 192.2 229.1 192.1 229.5 192.1 229.9 192 230.2 192 230.6 191.9 230.9 191.9 231.2 191.8 231.6 191.8 231.9 191.8 232.2 191.8 232.5 191.8 232.7 191.7 233.1 191.7 233.3 191.7 233.5 191.7 233.8 191.7 234 191.7 234.3 191.7 234.5 191.7 234.6 191.7 234.8 191.7 234.8 191.7 234.9 191.7 235 191.6 235.1 191.6 235.1 191.6 235.2 191.6 235.3 191.6 235.3 191.6 235.4 191.6 235.4 191.6 235.5 191.7 235.6 191.7 235.6 191.7 235.7"/>
  <path class="st2" d="M209.3,235.6c-.1,0-.3-.1-.3-.3"/>
  <line class="st2" x1="191.6" y1="235.4" x2="191.6" y2="235.4"/>
  <line class="st2" x1="209" y1="216.3" x2="209" y2="235.4"/>
  <path class="st2" d="M209,216.2c0-.1.1-.3.3-.3"/>
  <polyline class="st2" points="209.3 216 198.9 216 196.5 216 194.2 216 189.6 216"/>
  <polyline class="st2" points="198.9 216 198.9 216 198.9 216.1 198.9 216.1 198.9 216.2"/>
  <polyline class="st2" points="189.6 193.4 189.6 193.4 189.7 193.4 189.8 193.4 189.8 193.5 189.8 193.5 189.8 193.6 189.8 193.6 189.9 193.6 189.9 193.7 189.9 212.8 189.9 212.8 189.8 212.8 189.8 212.9 189.8 213 189.7 213 189.6 213 189.6 213"/>
  <polyline class="st2" points="189.6 213.1 191.7 213.1 209.3 213.1"/>
  <polyline class="st2" points="198.9 193.6 198.8 193.7 198.6 193.7 198.5 193.8 198.3 193.9 198.2 194 198 194.1 197.9 194.2 197.8 194.3 197.6 194.3 197.5 194.5 197.3 194.6 197.2 194.7 197.1 194.8 197 194.9 196.9 195 196.6 195.3 196.4 195.5 196.1 195.8 195.9 196.1 195.7 196.4 195.4 196.7 195.3 197 195.1 197.3 194.9 197.6 194.7 198 194.5 198.3 194.3 198.6 194.2 199 194 199.4 193.9 199.7 193.8 200.1 193.6 200.5 193.5 200.8 193.4 201.2 193.3 201.6 193.1 202 193.1 202.3 192.9 202.8 192.8 203.1 192.8 203.5 192.6 203.9 192.6 204.3 192.5 204.7 192.4 205.1 192.3 205.5 192.3 205.8 192.2 206.2 192.2 206.6 192.1 206.9 192.1 207.3 192 207.7 192 208 191.9 208.3 191.9 208.6 191.8 209 191.8 209.3 191.8 209.6 191.8 209.9 191.8 210.2 191.7 210.5 191.7 210.7 191.7 211 191.7 211.3 191.7 211.4 191.7 211.7 191.7 211.9 191.7 212.1 191.7 212.2 191.7 212.2 191.7 212.4 191.7 212.4 191.6 212.5 191.6 212.5 191.6 212.6 191.6 212.7 191.6 212.7 191.6 212.8 191.6 212.8 191.6 212.9 191.7 213 191.7 213 191.7 213.1"/>
  <path class="st2" d="M209.3,213c-.1,0-.3-.1-.3-.3"/>
  <line class="st2" x1="191.6" y1="212.8" x2="191.6" y2="212.8"/>
  <line class="st2" x1="209" y1="193.7" x2="209" y2="212.8"/>
  <path class="st2" d="M209,193.6c0-.1.1-.3.3-.3"/>
  <polyline class="st2" points="209.3 193.4 198.9 193.4 196.5 193.4 194.2 193.4 189.6 193.4"/>
  <polyline class="st2" points="198.9 193.4 198.9 193.4 198.9 193.5 198.9 193.6 198.9 193.6"/>
  <polyline class="st2" points="110.5 193.7 110.5 193.6 110.5 193.6 110.6 193.5 110.6 193.4 110.7 193.4 110.8 193.4 110.8 193.4 110.8 213 110.8 213.1"/>
  <polyline class="st2" points="110.5 238.9 110.5 238.8 110.5 238.7 110.6 238.7 110.6 238.6 110.6 238.6 110.7 238.5 110.8 238.5 110.8 238.5 110.8 258.2 110.8 258.3"/>
  <polyline class="st2" points="110.5 216.3 110.5 216.2 110.5 216.1 110.6 216.1 110.6 216 110.7 216 110.8 216 110.8 216 110.8 235.6 110.8 235.7"/>
  <g>
    <path class="st5" d="M35.5,20.7c0-4.6-3.8-8.4-8.4-8.4s-8.4,3.8-8.4,8.4,3.8,8.4,8.4,8.4,8.4-3.8,8.4-8.4"/>
    <path class="st4" d="M21,20.7c0,3.4,2.7,6.1,6.1,6.1s6.1-2.7,6.1-6.1-2.7-6.1-6.1-6.1-6.1,2.7-6.1,6.1"/>
    <path class="st0" d="M30.7,20.7c0-2-1.6-3.6-3.6-3.6s-3.6,1.6-3.6,3.6,1.6,3.6,3.6,3.6,3.6-1.6,3.6-3.6"/>
  </g>
  <polyline class="st1" points="42.3 21.1 42.3 14 49.5 14 49.5 21.1 42.3 21.1"/>
  <path class="st4" d="M43.9,17.6c0,1.1.9,2,2,2s2-.9,2-2-.9-2-2-2-2,.9-2,2"/>
  <path class="st2" d="M216.5,40.4c0-.6-.5-1.1-1.1-1.1s-1.1.5-1.1,1.1.5,1.1,1.1,1.1,1.1-.5,1.1-1.1"/>
  <path class="st2" d="M208.6,40.4c0-.6-.5-1.1-1.1-1.1s-1.1.5-1.1,1.1.5,1.1,1.1,1.1,1.1-.5,1.1-1.1"/>
  <polyline class="st1" points="103.8 173.7 103.8 182.2 103.8 182.4 103.8 182.5 103.9 182.6 103.9 182.7 103.9 182.9 103.9 183 104 183.1 104 183.2 104.1 183.4 104.2 183.5 104.2 183.6 104.3 183.7 104.4 183.8 104.4 183.9 104.5 184 104.6 184.1 104.7 184.2 104.8 184.2 104.9 184.3 105 184.4 105.1 184.5 105.2 184.5 105.3 184.6 105.4 184.6 105.5 184.7 105.6 184.7 105.8 184.7 105.9 184.8 106 184.8 106.2 184.9 106.3 184.9 106.4 184.9 114.4 184.9 114.6 184.9 114.7 184.9 114.9 184.8 115 184.8 115.1 184.7 115.2 184.7 115.4 184.7 115.5 184.6 115.6 184.6 115.7 184.5 115.8 184.5 115.9 184.4 116.1 184.3 116.1 184.2 116.2 184.2 116.3 184.1 116.4 184 116.5 183.9 116.6 183.8 116.6 183.7 116.7 183.6 116.8 183.5 116.8 183.4 116.9 183.2 116.9 183.1 116.9 183 117 182.9 117 182.7 117 182.6 117 182.5 117 182.4 117 182.2 117 173.7 117 173.6 117 173.4 117 173.3 117 173.2 117 173.1 116.9 173 116.9 172.8 116.9 172.7 116.8 172.6 116.8 172.5 116.7 172.3 116.6 172.2 116.6 172.2 116.5 172.1 116.4 172 116.3 171.8 116.2 171.8 116.1 171.7 116.1 171.6 115.9 171.6 115.8 171.5 115.7 171.4 115.6 171.3 115.5 171.3 115.4 171.3 115.2 171.2 115.1 171.2 115 171.2 114.9 171.1 114.7 171.1 114.6 171.1 114.4 171.1 106.4 171.1 106.3 171.1 106.2 171.1 106 171.1 105.9 171.2 105.8 171.2 105.6 171.2 105.5 171.3 105.4 171.3 105.3 171.3 105.2 171.4 105.1 171.5 105 171.6 104.9 171.6 104.8 171.7 104.7 171.8 104.6 171.8 104.5 172 104.4 172.1 104.4 172.2 104.3 172.2 104.2 172.3 104.2 172.5 104.1 172.6 104 172.7 104 172.8 103.9 173 103.9 173.1 103.9 173.2 103.9 173.3 103.8 173.4 103.8 173.6 103.8 173.7"/>
  <g>
    <path class="st5" d="M202.8,20.7c0-4.6-3.8-8.4-8.4-8.4s-8.4,3.8-8.4,8.4,3.8,8.4,8.4,8.4,8.4-3.8,8.4-8.4"/>
    <path class="st4" d="M188.4,20.7c0,3.4,2.7,6.1,6.1,6.1s6.1-2.7,6.1-6.1-2.7-6.1-6.1-6.1-6.1,2.7-6.1,6.1"/>
    <path class="st0" d="M198,20.7c0-2-1.6-3.6-3.6-3.6s-3.6,1.6-3.6,3.6,1.6,3.6,3.6,3.6,3.6-1.6,3.6-3.6"/>
  </g>
</svg>