<?xml version="1.0" encoding="UTF-8"?>
<svg id="Layer_1" xmlns="http://www.w3.org/2000/svg" version="1.1" viewBox="0 0 199.4 308">
  <!-- Generator: Adobe Illustrator 29.3.1, SVG Export Plug-In . SVG Version: 2.1.0 Build 151)  -->
  <defs>
    <style>
      .st0 {
        fill: #7a1508;
      }

      .st1 {
        fill: #d39e4e;
      }

      .st1, .st2, .st3, .st4, .st5 {
        stroke: #000;
        stroke-width: 2px;
      }

      .st1, .st2, .st3, .st4, .st5, .st6 {
        stroke-miterlimit: 10;
      }

      .st7 {
        fill-rule: evenodd;
      }

      .st7, .st8, .st9, .st10, .st11 {
        fill: #fff;
      }

      .st2, .st6 {
        fill: none;
      }

      .st12, .st8, .st9, .st10, .st11 {
        isolation: isolate;
      }

      .st3, .st13 {
        fill: #b3b3b3;
      }

      .st14, .st4 {
        fill: #535551;
      }

      .st8, .st9, .st11 {
        font-family: Arial-BoldMT, Arial;
        font-weight: 700;
      }

      .st8, .st10 {
        font-size: 9px;
      }

      .st9 {
        font-size: 11px;
      }

      .st5 {
        fill: #ef3e28;
      }

      .st10 {
        font-family: ArialMT, Arial;
      }

      .st15 {
        fill: #333531;
      }

      .st6 {
        stroke: #7a1508;
        stroke-width: .5px;
      }

      .st11 {
        font-size: 21px;
      }
    </style>
  </defs>
  <path d="M197.3,224.5V10c0-5.5-4.5-10-10-10H14.3C8.7,0,4.3,4.5,4.3,10v107c-1.5,1-2.4,2.7-2.4,4.6v35c0,1.9,1,3.6,2.4,4.6v62.6c-2.5.7-4.3,3-4.3,5.7v15c0,2.7,1.8,5,4.3,5.7v47.7c0,5.5,4.5,10,10,10h173c5.5,0,10-4.5,10-10v-64.8h2.1v-8.7h-2.1ZM46.2,17.2h-27.4c-1.9,0-3.4-1.5-3.4-3.4s1.5-3.4,3.4-3.4h27.4c1.9,0,3.4,1.5,3.4,3.4s-1.5,3.4-3.4,3.4ZM114.5,17.2h-27.4c-1.9,0-3.4-1.5-3.4-3.4s1.5-3.4,3.4-3.4h27.4c1.9,0,3.4,1.5,3.4,3.4s-1.5,3.4-3.4,3.4ZM182.8,17.2h-27.4c-1.9,0-3.4-1.5-3.4-3.4s1.5-3.4,3.4-3.4h27.4c1.9,0,3.4,1.5,3.4,3.4s-1.5,3.4-3.4,3.4Z"/>
  <g>
    <path class="st13" d="M6,246.5c-1.1,0-2-.9-2-2v-15c0-1.1.9-2,2-2h7.6v19h-7.6Z"/>
    <path d="M12.6,228.5v17h-6.6c-.5,0-1-.4-1-1v-15c0-.6.5-1,1-1h6.6M14.6,226.5H6c-1.6,0-3,1.4-3,3v15c0,1.6,1.4,3,3,3h8.6v-21h0Z"/>
  </g>
  <g>
    <rect class="st13" x="4.5" y="231.5" width="5.7" height="11"/>
    <path d="M9.7,232v10h-4.7v-10h4.7M10.7,231h-6.7v12h6.7v-12h0Z"/>
  </g>
  <path class="st5" d="M187.3,4H14.3c-3.3,0-6,2.7-6,6v288c0,3.3,2.7,6,6,6h173c3.3,0,6-2.7,6-6V10c0-3.3-2.7-6-6-6ZM46.2,18.2h-27.4c-2.4,0-4.4-2-4.4-4.4s2-4.4,4.4-4.4h27.4c2.4,0,4.4,2,4.4,4.4s-2,4.4-4.4,4.4ZM114.5,18.2h-27.4c-2.4,0-4.4-2-4.4-4.4s2-4.4,4.4-4.4h27.4c2.4,0,4.4,2,4.4,4.4s-2,4.4-4.4,4.4ZM182.8,18.2h-27.4c-2.4,0-4.4-2-4.4-4.4s2-4.4,4.4-4.4h27.4c2.4,0,4.4,2,4.4,4.4s-2,4.4-4.4,4.4h0Z"/>
  <g>
    <circle cx="16.2" cy="232.5" r="1"/>
    <circle cx="16.2" cy="241.5" r="1"/>
  </g>
  <g>
    <circle cx="188.3" cy="227.5" r="1"/>
    <circle cx="188.3" cy="234.5" r="1"/>
  </g>
  <rect class="st14" x="194.3" y="227.5" width="2.1" height="2.7"/>
  <rect x="193.3" y="227.5" width="2" height="2.7"/>
  <g class="st12">
    <g class="st12">
      <text class="st9" transform="translate(152 259.3)"><tspan x="0" y="0">B</tspan></text>
    </g>
  </g>
  <g class="st12">
    <g class="st12">
      <text class="st9" transform="translate(42.1 259.3)"><tspan x="0" y="0">A</tspan></text>
    </g>
  </g>
  <g class="st12">
    <g class="st12">
      <text class="st8" transform="translate(46.7 193)"><tspan x="0" y="0">T</tspan></text>
    </g>
    <g class="st12">
      <text class="st8" transform="translate(52 193)"><tspan x="0" y="0">hink</tspan></text>
    </g>
    <g class="st12">
      <text class="st8" transform="translate(72.4 193)"><tspan x="0" y="0">i</tspan></text>
    </g>
    <g class="st12">
      <text class="st8" transform="translate(74.8 193)"><tspan x="0" y="0">t</tspan></text>
    </g>
    <g class="st12">
      <text class="st8" transform="translate(78.2 193)"><tspan x="0" y="0">,</tspan></text>
    </g>
    <g class="st12">
      <text class="st8" transform="translate(82.9 193)"><tspan x="0" y="0">c</tspan></text>
    </g>
    <g class="st12">
      <text class="st8" transform="translate(87.8 193)"><tspan x="0" y="0">o</tspan></text>
    </g>
    <g class="st12">
      <text class="st8" transform="translate(93 193)"><tspan x="0" y="0">d</tspan></text>
    </g>
    <g class="st12">
      <text class="st8" transform="translate(98.5 193)"><tspan x="0" y="0">e</tspan></text>
    </g>
    <g class="st12">
      <text class="st8" transform="translate(105.5 193)"><tspan x="0" y="0">i</tspan></text>
    </g>
    <g class="st12">
      <text class="st8" transform="translate(108 193)"><tspan x="0" y="0">t</tspan></text>
    </g>
    <g class="st12">
      <text class="st8" transform="translate(111.4 193)"><tspan x="0" y="0">,</tspan></text>
    </g>
    <g class="st12">
      <text class="st8" transform="translate(116 193)"><tspan x="0" y="0">t</tspan></text>
    </g>
    <g class="st12">
      <text class="st8" transform="translate(119.3 193)"><tspan x="0" y="0">r</tspan></text>
    </g>
    <g class="st12">
      <text class="st8" transform="translate(122.8 193)"><tspan x="0" y="0">ig</tspan></text>
    </g>
    <g class="st12">
      <text class="st8" transform="translate(130.6 193)"><tspan x="0" y="0">g</tspan></text>
    </g>
    <g class="st12">
      <text class="st8" transform="translate(136 193)"><tspan x="0" y="0">e</tspan></text>
    </g>
    <g class="st12">
      <text class="st8" transform="translate(141 193)"><tspan x="0" y="0">r</tspan></text>
    </g>
    <g class="st12">
      <text class="st8" transform="translate(146.8 193)"><tspan x="0" y="0">i</tspan></text>
    </g>
    <g class="st12">
      <text class="st8" transform="translate(149.2 193)"><tspan x="0" y="0">t</tspan></text>
    </g>
    <g class="st12">
      <text class="st8" transform="translate(152.6 193)"><tspan x="0" y="0">.</tspan></text>
    </g>
    <g class="st12">
      <text class="st10" transform="translate(37.7 203.8)"><tspan x="0" y="0">d</tspan></text>
    </g>
    <g class="st12">
      <text class="st10" transform="translate(42.8 203.8)"><tspan x="0" y="0">e</tspan></text>
    </g>
    <g class="st12">
      <text class="st10" transform="translate(47.7 203.8)"><tspan x="0" y="0">v</tspan></text>
    </g>
    <g class="st12">
      <text class="st10" transform="translate(52.1 203.8)"><tspan x="0" y="0">e</tspan></text>
    </g>
    <g class="st12">
      <text class="st10" transform="translate(56.8 203.8)"><tspan x="0" y="0">lo</tspan></text>
    </g>
    <g class="st12">
      <text class="st10" transform="translate(64 203.8)"><tspan x="0" y="0">p</tspan></text>
    </g>
    <g class="st12">
      <text class="st10" transform="translate(69.3 203.8)"><tspan x="0" y="0">e</tspan></text>
    </g>
    <g class="st12">
      <text class="st10" transform="translate(74 203.8)"><tspan x="0" y="0">r</tspan></text>
    </g>
    <g class="st12">
      <text class="st10" transform="translate(76.8 203.8)"><tspan x="0" y="0">.</tspan></text>
    </g>
    <g class="st12">
      <text class="st10" transform="translate(78.6 203.8)"><tspan x="0" y="0">o</tspan></text>
    </g>
    <g class="st12">
      <text class="st10" transform="translate(83.6 203.8)"><tspan x="0" y="0">r</tspan></text>
    </g>
    <g class="st12">
      <text class="st10" transform="translate(86.7 203.8)"><tspan x="0" y="0">ac</tspan></text>
    </g>
    <g class="st12">
      <text class="st10" transform="translate(96.1 203.8)"><tspan x="0" y="0">l</tspan></text>
    </g>
    <g class="st12">
      <text class="st10" transform="translate(98.3 203.8)"><tspan x="0" y="0">e</tspan></text>
    </g>
    <g class="st12">
      <text class="st10" transform="translate(103.2 203.8)"><tspan x="0" y="0">.</tspan></text>
    </g>
    <g class="st12">
      <text class="st10" transform="translate(105 203.8)"><tspan x="0" y="0">c</tspan></text>
    </g>
    <g class="st12">
      <text class="st10" transform="translate(109.7 203.8)"><tspan x="0" y="0">om/</tspan></text>
    </g>
    <g class="st12">
      <text class="st10" transform="translate(126.4 203.8)"><tspan x="0" y="0">c</tspan></text>
    </g>
    <g class="st12">
      <text class="st10" transform="translate(131 203.8)"><tspan x="0" y="0">o</tspan></text>
    </g>
    <g class="st12">
      <text class="st10" transform="translate(136.1 203.8)"><tspan x="0" y="0">d</tspan></text>
    </g>
    <g class="st12">
      <text class="st10" transform="translate(141.3 203.8)"><tspan x="0" y="0">e</tspan></text>
    </g>
    <g class="st12">
      <text class="st10" transform="translate(146.1 203.8)"><tspan x="0" y="0">c</tspan></text>
    </g>
    <g class="st12">
      <text class="st10" transform="translate(150.8 203.8)"><tspan x="0" y="0">a</tspan></text>
    </g>
    <g class="st12">
      <text class="st10" transform="translate(155.5 203.8)"><tspan x="0" y="0">r</tspan></text>
    </g>
    <g class="st12">
      <text class="st10" transform="translate(158.7 203.8)"><tspan x="0" y="0">d</tspan></text>
    </g>
  </g>
  <g class="st12">
    <g class="st12">
      <text class="st11" transform="translate(49 239.1)"><tspan x="0" y="0">C</tspan></text>
    </g>
    <g class="st12">
      <text class="st11" transform="translate(63.9 239.1)"><tspan x="0" y="0">o</tspan></text>
    </g>
    <g class="st12">
      <text class="st11" transform="translate(76.2 239.1)"><tspan x="0" y="0">d</tspan></text>
    </g>
    <g class="st12">
      <text class="st11" transform="translate(88.8 239.1)"><tspan x="0" y="0">e</tspan></text>
    </g>
    <g class="st12">
      <text class="st11" transform="translate(105.4 239.1)"><tspan x="0" y="0">C</tspan></text>
    </g>
    <g class="st12">
      <text class="st11" transform="translate(120.1 239.1)"><tspan x="0" y="0">a</tspan></text>
    </g>
    <g class="st12">
      <text class="st11" transform="translate(131.8 239.1)"><tspan x="0" y="0">r</tspan></text>
    </g>
    <g class="st12">
      <text class="st11" transform="translate(139.9 239.1)"><tspan x="0" y="0">d</tspan></text>
    </g>
  </g>
  <g>
    <polygon class="st6" points="173.5 288.9 131.9 288.9 121.8 278.9 52.7 278.9 52.7 274.9 123.5 274.9 133.5 284.9 171.9 284.9 180.7 276.1 180.7 204.4 145.2 168.9 72.7 168.9 72.7 164.9 146.8 164.9 184.7 202.7 184.7 277.7 173.5 288.9"/>
    <polyline class="st6" points="52.7 276.9 122.7 276.9 132.7 286.9 172.7 286.9 182.7 276.9 182.7 203.6 146 166.9 72.7 166.9"/>
    <polyline class="st6" points="180.6 229.1 180.6 246.6 159.4 267.8 21 267.8 9.8 256.6 9.8 147.9"/>
    <polyline class="st6" points="13.8 147.9 13.8 254.9 22.7 263.8 157.8 263.8 176.6 244.9 176.6 226.1"/>
    <polyline class="st6" points="178.6 228.3 178.6 245.7 158.6 265.8 21.8 265.8 11.8 255.8 11.8 147.9"/>
    <polyline class="st6" points="180.5 230.2 161.7 211.4 161.7 185.4"/>
    <polyline class="st6" points="165.7 189.5 165.7 209.7 180.6 224.6"/>
    <polyline class="st6" points="163.7 187.4 163.7 210.5 180.7 227.5"/>
    <g>
      <line class="st6" x1="170.7" y1="220.3" x2="122.4" y2="220.3"/>
      <circle class="st0" cx="122.5" cy="220.3" r=".8"/>
    </g>
    <g>
      <line class="st6" x1="122.4" y1="216.3" x2="166.8" y2="216.3"/>
      <circle class="st0" cx="122.5" cy="216.3" r=".8"/>
    </g>
    <g>
      <line class="st6" x1="122.4" y1="218.3" x2="168.8" y2="218.3"/>
      <circle class="st0" cx="122.5" cy="218.3" r=".8"/>
    </g>
  </g>
  <g>
    <rect class="st4" x="141.5" y="262.4" width="28.5" height="28.5" rx="2" ry="2"/>
    <rect class="st3" x="144.7" y="265.6" width="22" height="22" rx="1" ry="1"/>
    <path class="st4" d="M155.7,269.6h0c3.9,0,7,3.1,7,7h0c0,3.9-3.1,7-7,7h0c-3.9,0-7-3.1-7-7h0c0-3.9,3.1-7,7-7Z"/>
    <path d="M147.7,267.6h0c.6,0,1,.4,1,1h0c0,.6-.4,1-1,1h0c-.6,0-1-.4-1-1h0c0-.6.4-1,1-1Z"/>
    <path d="M164.7,268.6h0c0,.6-.4,1-1,1h0c-.6,0-1-.4-1-1h0c0-.6.4-1,1-1h0c.6,0,1,.4,1,1Z"/>
    <rect class="st3" x="170" y="269.1" width="4" height="3"/>
    <rect class="st3" x="170" y="281.1" width="4" height="3"/>
    <rect class="st3" x="137.5" y="269.1" width="4" height="3"/>
    <rect class="st3" x="137.5" y="281.1" width="4" height="3"/>
    <path d="M163.7,285.6h0c-.6,0-1-.4-1-1h0c0-.6.4-1,1-1h0c.6,0,1,.4,1,1h0c0,.6-.4,1-1,1Z"/>
    <path d="M146.7,284.6h0c0-.6.4-1,1-1h0c.6,0,1,.4,1,1h0c0,.6-.4,1-1,1h0c-.6,0-1-.4-1-1Z"/>
  </g>
  <g>
    <polygon class="st7" points="124.3 33.7 122 33.7 122 47.5 132.6 47.5 134.1 45.2 124.3 45.2 124.3 33.7 124.3 33.7 124.3 33.7"/>
    <path class="st7" d="M93.4,34.4l-8.3,13.1h2.7l2.5-4h5.3l1.4-2.2h-5.3l2.9-4.5,6.8,10.8h2.7l-8.3-13.1h0c-.5-.9-1.9-.9-2.5,0h.1Z"/>
    <path class="st7" d="M109.4,35.9h9.5l1.4-2.2h-10.9c-3.8,0-6.3,3.1-6.3,6.9s2.5,6.9,6.3,6.9h9.2l1.4-2.2h-10.6c-2.6,0-4.1-2.1-4.1-4.7s1.5-4.7,4.1-4.7h0Z"/>
    <path class="st7" d="M61.1,33.7h-9.8c-3.8,0-6.3,3.1-6.3,6.9s2.5,6.9,6.3,6.9h9.8c3.8,0,6.3-3.1,6.3-6.9s-2.5-6.9-6.3-6.9h0ZM61.1,45.2h-9.8c-2.6,0-4.1-2.1-4.1-4.7s1.5-4.7,4.1-4.7h9.8c2.6,0,4.1,2.1,4.1,4.7s-1.5,4.7-4.1,4.7h0Z"/>
    <path class="st7" d="M140.5,35.9h9.5l1.4-2.2h-10.9c-3.8,0-6.3,3.1-6.3,6.9s2.5,6.9,6.3,6.9h9.2l1.4-2.2h-10.6c-2.2,0-3.6-1.5-4-3.5h11.9l1.4-2.2h-13.4c.4-2,1.8-3.5,4-3.5h0v-.2Z"/>
    <path class="st7" d="M80.2,41.9c2.3,0,4.1-1.8,4.1-4.1s-1.8-4.1-4.1-4.1h-11.5v13.8h2.5v-11.5h9c1,0,1.8.8,1.8,1.8s-.8,1.8-1.8,1.8h-7.2l8.1,7.8h3.3l-5.8-5.6h1.6Z"/>
    <path class="st7" d="M153.8,33.5c-.7,0-1.2.5-1.2,1.2s.6,1.2,1.2,1.2,1.2-.5,1.2-1.2-.6-1.2-1.2-1.2h0ZM153.8,35.8c-.6,0-1-.4-1-1s.4-1,1-1,1,.4,1,1-.4,1-1,1h0Z"/>
    <path class="st7" d="M154,34.8c.2,0,.4,0,.4-.4s-.2-.4-.5-.4h-.5v1.4h.2v-.6h.2l.4.6h.2l-.4-.6h0ZM153.5,34.7v-.4h.3c.1,0,.3,0,.3.2s-.2.2-.4.2h-.3,0Z"/>
  </g>
  <g>
    <rect class="st4" x="31.6" y="262.4" width="28.5" height="28.5" rx="2" ry="2"/>
    <rect class="st3" x="34.9" y="265.6" width="22" height="22" rx="1" ry="1"/>
    <path class="st4" d="M45.9,269.6h0c3.9,0,7,3.1,7,7h0c0,3.9-3.1,7-7,7h0c-3.9,0-7-3.1-7-7h0c0-3.9,3.1-7,7-7Z"/>
    <path d="M37.9,267.6h0c.6,0,1,.4,1,1h0c0,.6-.4,1-1,1h0c-.6,0-1-.4-1-1h0c0-.6.4-1,1-1Z"/>
    <path d="M54.9,268.6h0c0,.6-.4,1-1,1h0c-.6,0-1-.4-1-1h0c0-.6.4-1,1-1h0c.6,0,1,.4,1,1Z"/>
    <rect class="st3" x="60.1" y="269.1" width="4" height="3"/>
    <rect class="st3" x="60.1" y="281.1" width="4" height="3"/>
    <rect class="st3" x="27.6" y="269.1" width="4" height="3"/>
    <rect class="st3" x="27.6" y="281.1" width="4" height="3"/>
    <path d="M53.8,285.6h0c-.6,0-1-.4-1-1h0c0-.6.4-1,1-1h0c.6,0,1,.4,1,1h0c0,.6-.4,1-1,1Z"/>
    <path d="M36.9,284.6h0c0-.6.4-1,1-1h0c.6,0,1,.4,1,1h0c0,.6-.4,1-1,1h0c-.6,0-1-.4-1-1Z"/>
  </g>
  <g>
    <g>
      <polygon class="st3" points="24.1 85.5 24.1 62.8 24 62.8 21.4 62.8 18.6 62.8 16 62.8 16 172 29.6 172 29.6 85.5 24.1 85.5"/>
      <polygon class="st2" points="27.5 80 35.4 80 35.4 166.5 180.4 166.5 180.4 68.4 27.5 68.4 27.5 80"/>
      <polygon class="st4" points="185.5 62.8 24.1 62.8 24.1 85.5 29.6 85.5 29.6 172 185.5 172 185.5 62.8"/>
      <polygon class="st3" points="180.4 166.5 35.4 166.5 35.4 80 27.5 80 27.5 68.4 180.4 68.4 180.4 166.5"/>
      <path class="st2" d="M31.6,72.5c.9,0,1.7.8,1.7,1.7s-.8,1.7-1.7,1.7-1.7-.8-1.7-1.7.8-1.7,1.7-1.7Z"/>
      <g>
        <rect class="st15" x="38.8" y="71.8" width="138.1" height="91.2"/>
        <path d="M175.9,72.8v89.2H39.8v-89.2h136.1M177.9,70.8H37.8v93.2h140.1v-93.2h0Z"/>
      </g>
      <rect class="st4" x="20.3" y="118.6" width="5" height="41"/>
    </g>
    <g>
      <polygon class="st7" points="129.9 111.2 127.9 111.2 127.9 123.7 137.5 123.7 138.8 121.7 129.9 121.7 129.9 111.2 129.9 111.2 129.9 111.2"/>
      <path class="st7" d="M101.9,111.8l-7.5,11.9h2.5l2.3-3.6h4.8l1.3-2.1h-4.8l2.6-4.1,6.2,9.8h2.5l-7.6-11.9h0c-.5-.8-1.7-.8-2.2,0h-.1Z"/>
      <path class="st7" d="M116.4,113.2h8.6l1.3-2.1h-9.9c-3.5,0-5.7,2.8-5.7,6.3s2.3,6.3,5.7,6.3h8.4l1.3-2h-9.7c-2.3,0-3.7-1.9-3.7-4.2s1.4-4.2,3.7-4.2h0Z"/>
      <path class="st7" d="M72.5,111.2h-8.9c-3.5,0-5.7,2.8-5.7,6.3s2.3,6.3,5.7,6.3h8.9c3.5,0,5.7-2.8,5.7-6.3s-2.3-6.3-5.7-6.3h0ZM72.5,121.7h-8.9c-2.3,0-3.7-1.9-3.7-4.2s1.4-4.2,3.7-4.2h8.9c2.3,0,3.7,1.9,3.7,4.2s-1.4,4.2-3.7,4.2h0Z"/>
      <path class="st7" d="M144.7,113.2h8.6l1.3-2.1h-9.9c-3.5,0-5.7,2.8-5.7,6.3s2.3,6.3,5.7,6.3h8.4l1.3-2h-9.7c-2,0-3.3-1.4-3.6-3.2h10.8l1.3-2.1h-12.1c.4-1.8,1.6-3.2,3.6-3.2h0Z"/>
      <path class="st7" d="M89.9,118.6c2.1,0,3.7-1.7,3.7-3.7s-1.7-3.7-3.7-3.7h-10.4v12.5h2.3v-10.5h8.1c.9,0,1.7.8,1.7,1.7s-.8,1.7-1.7,1.7h-6.5l7.4,7.1h3l-5.3-5.1h1.5,0Z"/>
      <path class="st7" d="M156.7,111c-.6,0-1.1.5-1.1,1.1s.5,1.1,1.1,1.1,1.1-.5,1.1-1.1-.5-1.1-1.1-1.1h0ZM156.7,113.1c-.5,0-.9-.4-.9-.9s.4-.9.9-.9.9.4.9.9-.4.9-.9.9h0Z"/>
      <path class="st7" d="M156.9,112.2c.2,0,.3,0,.3-.4s-.1-.4-.5-.4h-.5v1.3h.2v-.6h.2l.3.6h.2l-.4-.6h.2ZM156.5,112.1v-.4h.3c.1,0,.3,0,.3.2s-.1.2-.3.2h-.3Z"/>
    </g>
  </g>
  <path class="st1" d="M7.3,119.6h8.7v39H7.3c-1.1,0-2-.9-2-2v-35c0-1.1.9-2,2-2Z"/>
</svg>