<?xml version="1.0" encoding="UTF-8"?>
<svg id="Layer_1" xmlns="http://www.w3.org/2000/svg" version="1.1" viewBox="0 0 316.6 197.2">
  <!-- Generator: Adobe Illustrator 29.3.1, SVG Export Plug-In . SVG Version: 2.1.0 Build 151)  -->
  <defs>
    <style>
      .st0, .st1 {
        fill: #d39e4e;
      }

      .st2, .st3, .st4, .st5, .st6, .st7, .st1 {
        stroke: #000;
      }

      .st2, .st3, .st5, .st6, .st7, .st1 {
        stroke-miterlimit: 10;
      }

      .st2, .st3, .st8 {
        fill: #333531;
      }

      .st2, .st5 {
        stroke-width: 2px;
      }

      .st9, .st4 {
        fill: none;
      }

      .st4 {
        stroke-linecap: round;
        stroke-linejoin: round;
      }

      .st5, .st7, .st10 {
        fill: #b3b3b3;
      }

      .st11, .st6 {
        fill: #535551;
      }
    </style>
  </defs>
  <path d="M312.1,104.3V21.1h2v-10.5h-2.2c-1.1-6-6.4-10.6-12.8-10.6H17.1C9.9,0,4.1,5.8,4.1,13v39.8c-2.4,1.1-4.1,3.6-4.1,6.3v32.2c0,2.8,1.7,5.2,4.1,6.3v86.6c0,7.2,5.8,13,13,13h282c7.2,0,13-5.8,13-13v-43.9c2.5-.3,4.5-2.4,4.5-5v-26c0-2.6-2-4.7-4.5-5Z"/>
  <rect class="st2" x="307.6" y="14.6" width="2.5" height="2.5"/>
  <path class="st5" d="M311.6,136.3h-3.9v-28h3.9c.5,0,1,.4,1,1v26c0,.6-.5,1-1,1Z"/>
  <rect class="st5" x="307.6" y="112.8" width="4.9" height="19"/>
  <g>
    <circle class="st6" cx="285.5" cy="156.1" r="1"/>
    <circle class="st6" cx="285.5" cy="163.1" r="1"/>
  </g>
  <rect class="st6" x="290.5" y="156.1" width="2" height="2.7"/>
  <rect class="st2" x="8.1" y="4" width="300" height="189.2" rx="9" ry="9"/>
  <g>
    <path class="st10" d="M281.3,159.5c-3.8,0-6.9,3.1-6.9,6.9s3.1,6.9,6.9,6.9,6.9-3.1,6.9-6.9-3.1-6.9-6.9-6.9ZM281.3,172c-3.1,0-5.6-2.5-5.6-5.6s2.5-5.6,5.6-5.6,5.6,2.5,5.6,5.6-2.5,5.6-5.6,5.6Z"/>
    <path class="st10" d="M274.9,154.3h-.1c0-.1-.1-.2-.1-.2l-3.8-3.7-3.9,3.9-1.8,1.9,3.9,3.9,5.8-5.8h0Z"/>
    <path class="st10" d="M295.8,162.1l1.7-1.7-10.9-10.3-1.4,1.4h0l10.6,10.6h0Z"/>
    <path class="st11" d="M293.3,172.4h.1l2.6-2.6-.2-6.9h-.1c0-.1-10.6-10.7-10.6-10.7h-.5l-6.4-.2-1.8,1.8.3.4v.3l-2.5,5.1h-.1c0,.1-5.1,2.6-5.1,2.6h-.3l-.4-.4-1.7,1.8.2,6.4h0v.3h0c0,.1,10.8,10.9,10.8,10.9l6.5.3v-.2h.3l2.7-2.6h0l5.9-5.9h0c0-.1.3-.4.3-.4ZM281.3,173.8c-4.1,0-7.4-3.3-7.4-7.4s3.3-7.4,7.4-7.4,7.4,3.3,7.4,7.4-3.3,7.4-7.4,7.4Z"/>
    <polygon class="st10" points="293.5 172.9 287.8 178.6 291.4 182.2 297.1 176.5 295.3 174.7 293.5 172.9"/>
    <path class="st10" d="M273.7,159l2.4-4.9-.2-.2-.6.6h0l-6.7,6.6.2.2,4.9-2.4h0Z"/>
    <polygon class="st10" points="264.7 172.1 275.2 182.7 277 181 266.4 170.4 264.7 172.1"/>
    <path class="st10" d="M281.3,161.3c-2.8,0-5.1,2.3-5.1,5.1s2.3,5.1,5.1,5.1,5.1-2.3,5.1-5.1-2.3-5.1-5.1-5.1ZM285,168.2c0,1.1-.9,2-2,2h-3.4c-1.1,0-2-.9-2-2h0v-3.4c0-1.1,1-2,2.1-2h3.4c1.1,0,2,.9,2,2v3.4h-.1Z"/>
    <path class="st3" d="M283,163.2h-3.3c-.4,0-.8.1-1.1.4-.3.3-.5.7-.5,1.1v3.4c0,.4,0,.8.4,1.1s.7.5,1.1.5h3.4c.4,0,.8-.1,1.1-.4.3-.3.5-.7.5-1.1v-3.4c0-.9-.7-1.6-1.5-1.6h-.1Z"/>
    <path class="st10" d="M297.7,176.5v-.2l-2-2-1.8-1.8,2.6-2.6v-.2l-.2-7.1v-.2h0l1.9-1.9v-.4l-11.2-10.6h-.3l-1.8,1.8-6.7-.2h-.2l-2,2.1-.6.6-.2-.2h-.1l-3.9-3.8h-.1l-4,4-2,2.1h0v.2h0l4.1,4.1-.6.6h0l-2,2.1v.2l.2,6.7-2.1,2.1v.3l10.9,10.9h.4l1.9-1.9h.1c0,.1,7.1.4,7.1.4h.1l2.7-2.7,3.8,3.8h.4l6.1-6.1v-.2h-.5ZM286.6,150.1l10.9,10.3-1.7,1.7-10.6-10.6h0l1.4-1.4h0ZM265.1,156.1l1.8-1.9,3.9-3.9,3.8,3.7h.2c0,.1-5.8,5.9-5.8,5.9l-3.9-3.9h0ZM275.3,154.5h0l.6-.6.2.2-2.4,4.9-4.9,2.4-.2-.2,6.7-6.6h0ZM275.2,182.7l-10.5-10.5,1.7-1.7,10.6,10.6-1.8,1.7h0ZM287.3,178.4h0l-2.7,2.7h0c0-.2-.2-.2-.3-.1,0,0-.1.1,0,.2l-6.5-.3-10.8-10.8h0v-.4h0l-.2-6.4,1.7-1.8.4.4h.3l5.1-2.5h.1c0-.1,2.5-5.2,2.5-5.2v-.3l-.3-.4,1.8-1.8,6.4.2h.5l10.6,10.6h0q0,.1.1.1h0l.2,7-2.6,2.6h-.1c0,.1-5.9,6-5.9,6h0l-.3.2ZM291.4,182.2l-3.6-3.6,5.7-5.7,1.8,1.8,1.8,1.8-5.8,5.7h.1Z"/>
    <path class="st10" d="M281.3,160.8c-3.1,0-5.6,2.5-5.6,5.6s2.5,5.6,5.6,5.6,5.6-2.5,5.6-5.6-2.5-5.6-5.6-5.6ZM281.3,171.5c-2.8,0-5.1-2.3-5.1-5.1s2.3-5.1,5.1-5.1,5.1,2.3,5.1,5.1-2.3,5.1-5.1,5.1Z"/>
    <path class="st10" d="M283,162.7h-3.4c-1.1,0-2,.9-2,2v3.4h0c0,1.1.9,2,2,2.1h3.4c1.1,0,2-.9,2-2v-3.4c0-1.1-.9-2-2-2h0ZM284.5,168.2c0,.4-.2.8-.5,1.1s-.7.4-1.1.4h-3.4c-.4,0-.8-.2-1.1-.5s-.4-.7-.4-1.1v-3.4c0-.4.2-.8.5-1.1s.7-.4,1.1-.4h3.3c.9,0,1.5.7,1.5,1.6v3.4h.1Z"/>
    <path class="st10" d="M281.3,159c-4.1,0-7.4,3.3-7.4,7.4s3.3,7.4,7.4,7.4,7.4-3.3,7.4-7.4-3.3-7.4-7.4-7.4ZM281.3,173.3c-3.8,0-6.9-3.1-6.9-6.9s3.1-6.9,6.9-6.9,6.9,3.1,6.9,6.9-3.1,6.9-6.9,6.9Z"/>
    <line class="st4" x1="274.8" y1="153.9" x2="275.2" y2="154.3"/>
    <line class="st4" x1="284.5" y1="181.5" x2="284.3" y2="181.2"/>
    <polyline class="st4" points="276 153.5 276.4 154.1 273.9 159.2 268.8 161.7 268.3 161.1"/>
    <polyline class="st4" points="266.3 163.2 266.5 170.2 277.5 181.2 284.5 181.5 286.6 179.4 294.2 171.8 296.2 169.8 296 162.6 285.1 151.7 277.9 151.5 276 153.5 268.3 161.1 266.3 163.2"/>
    <polyline class="st4" points="287.4 178.6 291.4 182.5 297.5 176.5 295.5 174.5 293.4 172.5"/>
    <polyline class="st4" points="270.8 150 268.8 152 266.8 154.1 264.8 156.1"/>
    <line class="st4" x1="269" y1="160.4" x2="264.8" y2="156.1"/>
    <line class="st4" x1="270.8" y1="150" x2="274.8" y2="153.9"/>
    <polyline class="st4" points="266.6 169.8 264.3 172.1 275.2 183 277.2 181"/>
    <polyline class="st4" points="295.8 162.5 297.8 160.4 286.6 149.8 284.6 151.8"/>
    <path class="st4" d="M286.7,166.4c0-3-2.4-5.4-5.4-5.4s-5.4,2.4-5.4,5.4,2.4,5.4,5.4,5.4,5.4-2.4,5.4-5.4"/>
    <path class="st4" d="M277.8,168.1c0,1,.8,1.8,1.8,1.8h3.4c1,0,1.8-.8,1.8-1.8v-3.4c0-1-.8-1.8-1.8-1.8h-3.3c-1,0-1.8.8-1.8,1.8v3.4h-.1Z"/>
    <path class="st4" d="M288.5,166.4c0-4-3.2-7.2-7.2-7.2s-7.2,3.2-7.2,7.2,3.2,7.2,7.2,7.2,7.2-3.2,7.2-7.2"/>
  </g>
  <g>
    <rect class="st7" x="16.4" y="10.9" width="277.5" height="128.7"/>
    <path class="st6" d="M293.8,139.6V10.9H29.3v26.6h11c0,0,.2,0,.2.2v101.8h253.3Z"/>
    <path class="st7" d="M32.9,33.8c-.1,0-.2,0-.2-.2v-13.4c0-.1.1-.2.2-.2h254.7c.1,0,.2.1.2.2v110.2c0,.1-.1.2-.2.2H44.1c0,0-.2,0-.2-.2V33.8s-11,0-11,0Z"/>
    <rect class="st7" x="47.9" y="23.9" width="235.9" height="102.8" rx=".2" ry=".2"/>
    <path class="st7" d="M39.6,31.2c-2.1,0-3.8-1.7-3.8-3.8s1.7-3.8,3.8-3.8,3.8,1.7,3.8,3.8-1.7,3.8-3.8,3.8Z"/>
    <rect class="st6" x="25.2" y="52.7" width="4.8" height="45.2"/>
  </g>
  <g>
    <g>
      <path class="st0" d="M185.6,163.8c2.4.2,4,2.1,2.9,4.4-.5,1.1-1.1,1.2-2,1.7q-.1,0-.1.2c.1,0,.2,0,.4.1,1.3,1.1,2,2.9,3.1,4.2l3.9-10.7h3l4,11.3h-2.6l-.9-2.6h-4l-.9,2.6h-5c-.3-.1-2-3.4-2.5-3.9s-1-.5-1.6-.5v4.4h-2.5v-11.3c1.6.1,3.4-.1,4.9,0h0ZM183.3,165.7h-.1v3.1c.4.2,1.5.2,1.9,0,1.1-.4,1.5-2.2.4-2.8,0,0-.5-.2-.6-.2h-1.6,0ZM193.8,170.7h2.7v-.2c.1,0-1.3-4.6-1.3-4.6l-1.4,4.8h0Z"/>
      <polygon class="st0" points="140.9 163.8 140.9 168.3 145.6 168.3 145.6 163.8 148.2 163.8 148.2 175 148.1 175.1 145.6 175.1 145.6 170.5 141 170.5 140.9 170.6 140.9 175.1 138.4 175.1 138.4 163.8 140.9 163.8"/>
      <path class="st0" d="M167.4,166.4c-1.8-.6-4.1-1.2-5.7.2-1.9,1.6-1.6,5.7.9,6.4.5.2,2.1.3,2.5,0,.3-.2,0-1.7.1-2.1v-.2h-2.2v-2h4.7v5.7c-3.4,1.6-8.8,1.2-9.8-3.1-.7-3.2.6-6.4,3.9-7.4,1.7-.5,3.9-.4,5.5.3v2.2h.1Z"/>
      <path class="st0" d="M210.4,164v2.3c-1.5-.6-3.2-1-4.8-.3-3,1.3-2.7,6.8.9,7.1.4,0,1.8,0,1.9-.4v-2.1h-2.2v-2h4.7v5.5h0c0,.1-.1.1-.1.1-4.1,2-9.7,1-9.9-4.3-.2-5.4,4.9-7.4,9.4-5.9h.1Z"/>
      <path class="st0" d="M168.5,175.1l4.1-11.3h3.1l3.9,11.3h-2.8l-.8-2.6h-4l-.8,2.6h-2.7ZM175.4,170.7l-1.4-4.8-1.4,4.6v.2h2.8,0Z"/>
      <polygon class="st0" points="156.9 163.8 156.9 165.8 152.9 165.8 152.9 168.3 156.6 168.3 156.6 170.5 152.9 170.5 152.9 173.1 157.1 173.1 157.1 175.1 150.3 175.1 150.3 163.8 156.9 163.8"/>
      <polygon class="st0" points="219.3 163.8 219.3 165.8 215.3 165.8 215.3 168.3 215.4 168.4 219 168.4 219 170.3 218.9 170.5 215.3 170.5 215.3 173.1 219.6 173.1 219.6 175.1 212.8 175.1 212.8 163.8 219.3 163.8"/>
      <path class="st0" d="M137.2,163.8v2.1h-3.2v9.3h-2.5v-9.1h-.1c0-.1-3.1-.1-3.1-.1v-2.1h9,0Z"/>
      <g>
        <path class="st0" d="M122.9,175.1h-18.1v-11.9l4-1.4c1.5-.5,3-1.1,4.5-1.6.3-.1.6-.3.9-.2,2.8,1,5.5,2,8.3,3,0,0,.2,0,.3.1,0,0,.2,0,.2.1v11.8h-.1ZM106.1,164.2v9.7h15.4v-9.7h-15.4Z"/>
        <path class="st0" d="M102,161.3l1.4-.5c3.2-1.1,10.3-3.6,10.3-3.6h.2s7.7,2.7,11.3,3.9c0,0,.3,0,.4.2v2.6h-1.2v-1.8c0-.1-.3-.1-.4-.2-3.4-1.2-6.8-2.3-10.1-3.4l-9.6,3.3c-.2,0-.4.1-.7.2-.2,0-.3,0-.3.2v1.6h0c0,.1,0,0,0,0h-1.1v-2.7h0l-.2.2Z"/>
        <rect class="st0" x="106.8" y="164.9" width="14.1" height="1.1"/>
        <rect class="st0" x="106.8" y="168.6" width="14.1" height="1"/>
        <rect class="st0" x="106.8" y="172.1" width="14" height="1"/>
        <rect class="st0" x="106.8" y="170.3" width="14.1" height="1"/>
        <rect class="st0" x="106.9" y="166.7" width="14" height="1"/>
      </g>
    </g>
    <g>
      <path class="st0" d="M39.1,173.2c0,5.7-2.1,9.2-8.8,9.2s-7.7-3.6-7.9-5.6h5c.3,1.2,1.2,2,3.1,2,3.2,0,3.8-1.9,3.8-5.4v-.8c-.9,1.5-2.4,2.5-5,2.5-4.6,0-7.3-3.8-7.3-8.6s3.3-9.3,7.7-9.3,4.3,1.4,4.5,2.2c0-.5.2-1.6.2-1.8h4.6v15.5h0ZM27,166.3c0,3,1.5,4.8,3.7,4.8s3.7-2,3.7-5-.5-5-3.6-5-3.8,1.6-3.8,5.2h0Z"/>
      <rect class="st0" x="43.4" y="157.7" width="4.9" height="17.6"/>
      <path class="st0" d="M56,157.7c1.7,6,3.1,11.2,3.4,13.3h0c.5-2.9,2.2-8.2,3.8-13.3h4.9l-6.2,17.6h-5.1l-6-17.6h5.3,0Z"/>
      <path class="st0" d="M74.1,167.5c0,2.2,1.1,4.4,3.5,4.4s2.6-.8,3.1-1.9h4.9c-.6,2.2-2.6,5.7-8.1,5.7s-8.3-4.3-8.3-9,2.8-9.5,8.5-9.5,8.1,4.4,8.1,8.8,0,1,0,1.5h-11.7ZM80.9,164.5c0-2.1-.8-3.8-3.2-3.8s-3.3,1.6-3.5,3.8h6.7Z"/>
      <path class="st0" d="M45.8,151.8c.3-.9,1.1-1.4,2-1.4s1.9.8,1.9,1.8-.7,2.1-1.5,2.9c-.7.8-2.1,2.1-2.5,2.5h0c-.4-.3-1.8-1.7-2.5-2.5s-1.5-1.7-1.5-2.9.9-1.8,1.9-1.8,1.7.5,2,1.4h.2Z"/>
    </g>
  </g>
  <g>
    <circle class="st6" cx="302.8" cy="15.8" r="1.2"/>
    <circle class="st6" cx="302.8" cy="27" r="1.2"/>
  </g>
  <g>
    <circle class="st6" cx="302.8" cy="115.8" r="1.2"/>
    <circle class="st6" cx="302.8" cy="127" r="1.2"/>
  </g>
  <path class="st1" d="M7,55.6h9.4v39.2H7c-1.9,0-3.5-1.6-3.5-3.5v-32.2c0-1.9,1.6-3.5,3.5-3.5Z"/>
  <rect class="st9" x="47.9" y="24.3" width="235.9" height="102"/>
  <g>
    <path class="st8" d="M65.9,54.3h20.3v20.3h-20.3v-20.3h0Z"/>
    <path class="st8" d="M88.2,54.3h20.3v20.3h-20.3v-20.3h0Z"/>
    <path class="st8" d="M155,62.3c.9,0,1.9.2,2.4.9.7.8.8,2,.3,2.8-.6,1-1.8,1.5-2.9,1.2-1.1-.2-2.1-1.3-2-2.5,0-1.2,1-2.3,2.2-2.5h0Z"/>
    <path class="st8" d="M121.3,62.8h6.4c2,5.1,4,10.1,6,15.2.5,1.3,1,2.5,1.5,3.8,2.6-6.3,5.1-12.6,7.7-18.9h6.1v25.6h-4.4v-18.9c0-6.3,0-.6,0-.8,0,0-.2.3-.2.4-2.5,6.4-5.1,12.9-7.6,19.3h-3.2c-2.6-6.4-5.2-12.9-7.8-19.4,0,0,0-.3-.2-.4v19.8h-4.2v-25.6h-.1Z"/>
    <path class="st8" d="M167.1,70.1c2.1-.6,4.4-.6,6.5,0,.4,0,.9.3,1.2.5v4.2c-1.4-1.1-3.2-1.8-5-1.5-1.4,0-2.8.9-3.6,2-1.1,1.4-1.4,3.3-1.2,5.1.1,1.4.7,2.7,1.8,3.7s2.7,1.3,4.1,1.2c1.4-.2,2.8-.8,3.9-1.6v4c-1.8,1.1-3.9,1.3-6,1.2-2.1,0-4.2-.9-5.7-2.4-1.6-1.6-2.6-3.9-2.7-6.2-.1-2.4.4-4.8,1.7-6.8,1.1-1.7,2.9-2.9,4.9-3.4h.1Z"/>
    <path class="st8" d="M215.1,69.8c2-.4,4.2,0,6.1.6v4c-1.3-.9-3-1.4-4.6-1.4s-1.7.4-2.1,1.2c-.3.8,0,1.8.6,2.2,1.2.8,2.7,1.2,4,1.9,1,.6,2,1.3,2.5,2.4,1,2,.6,4.7-1.1,6.2-1.6,1.5-4,1.9-6.1,1.9s-3.1-.4-4.5-1v-4.2c1.2.9,2.5,1.5,4,1.7,1,.2,2.1.2,3-.3.9-.4,1.1-1.7.5-2.5-.5-.6-1.2-.9-1.9-1.3-1.3-.6-2.7-1.1-3.8-1.9-.8-.6-1.4-1.5-1.6-2.5-.4-1.5-.2-3.1.6-4.4,1-1.5,2.7-2.4,4.4-2.7h0Z"/>
    <path class="st8" d="M184.7,70.4c1.2-.7,2.8-.8,4.1-.3v4.4c-.9-.6-1.9-.8-3-.7-1.2,0-2.2,1.1-2.8,2.2-.6,1.2-.7,2.5-.6,3.8v8.8h-4.3v-18.4h4.3v3.2c.5-1.1,1.2-2.2,2.3-2.9h0Z"/>
    <path class="st8" d="M153.2,70.1h4.4v18.3h-4.4v-18.4h0Z"/>
    <path class="st8" d="M207,74.4c-.8-1.7-2.1-3.1-3.8-3.9-2-.9-4.2-1-6.3-.7-2.2.3-4.4,1.3-5.8,3.1-1.3,1.6-1.9,3.6-2,5.6-.2,2.4.2,4.9,1.6,6.9,1.2,1.7,3.1,2.9,5.1,3.3,1.7.4,3.5.4,5.1,0,2-.4,3.8-1.5,5-3.1,1.2-1.5,1.8-3.4,1.9-5.3.1-2,0-4-.9-5.8h0ZM202.8,82.8c-.4.9-1.2,1.7-2.2,2.1-1.1.4-2.4.5-3.6.2-1.2-.3-2.2-1.2-2.8-2.3-.7-1.4-.8-3.1-.7-4.6.1-1.4.6-2.9,1.7-3.8.8-.7,1.8-1.1,2.9-1.1s2.7.3,3.7,1.2c1,1,1.4,2.4,1.5,3.8,0,1.5,0,3.1-.6,4.5h.1Z"/>
    <path class="st8" d="M242.2,74.9c-.7-1.8-2-3.4-3.8-4.3s-4.3-1.2-6.5-.9c-1.8.2-3.5.9-4.9,2.1-1.6,1.4-2.6,3.5-2.9,5.6-.3,2.1-.2,4.4.7,6.4.8,2,2.5,3.6,4.5,4.3,2,.8,4.1.9,6.2.5,2.1-.3,4.1-1.4,5.4-3.2,1.4-1.8,2-4,2-6.3s-.1-3-.7-4.4h0v.2ZM238.2,81.1c-.2,1-.5,1.9-1.1,2.7s-1.6,1.2-2.6,1.4c-1.1.2-2.2,0-3.1-.3-1.1-.4-1.9-1.4-2.3-2.4-.5-1.3-.6-2.7-.5-4s.5-2.6,1.3-3.7c.8-.9,2-1.5,3.2-1.5s2.6.2,3.5,1c.9.7,1.4,1.8,1.6,2.9.2,1.3.2,2.6,0,3.9h0Z"/>
    <path class="st8" d="M265.9,73.7v-3.6h-4.4v-5.5c-1.5.4-2.9.9-4.4,1.3v4.2h-6.4v-3.3c.1-.9.6-1.7,1.5-2,1.1-.4,2.2-.2,3.2.3v-3.8c-2.1-.6-4.5-.5-6.4.8-1.2.8-2.1,2-2.5,3.4-.5,1.5-.2,3.1-.3,4.7h-3.1v3.5h3.1v14.8h4.4v-14.8h6.4v9.4c0,1.5.3,3,1.2,4.2.8,1,2.2,1.5,3.5,1.6,1.4,0,2.8,0,4-.6v-3.6c-1,.6-2.3.9-3.3.3-.6-.3-.9-1.1-1-1.8-.1-1.1,0-2.3,0-3.4v-6.2h4.5Z"/>
    <path class="st8" d="M65.9,76.7h20.3v20.3h-20.3v-20.3h0Z"/>
    <path class="st8" d="M88.3,76.7h20.3v20.3h-20.3v-20.3h0Z"/>
  </g>
</svg>