<?xml version="1.0" encoding="UTF-8"?>
<svg id="Layer_1" xmlns="http://www.w3.org/2000/svg" version="1.1" viewBox="0 0 162.1 208">
  <!-- Generator: Adobe Illustrator 29.3.1, SVG Export Plug-In . SVG Version: 2.1.0 Build 151)  -->
  <defs>
    <style>
      .st0 {
        fill: #d39e4e;
        stroke-miterlimit: 10;
      }

      .st0, .st1 {
        stroke: #000;
        stroke-width: 2px;
      }

      .st2, .st1 {
        fill: none;
      }

      .st1 {
        stroke-linecap: round;
        stroke-linejoin: round;
      }

      .st3 {
        fill: #535551;
      }

      .st4 {
        fill: #b3b3b3;
      }

      .st5 {
        fill: #333531;
      }
    </style>
  </defs>
  <path d="M162.1,50.1v-7c0-2-1.5-3.7-3.5-4v-17.7c0-11.8-9.6-21.4-21.4-21.4H24.9C13.1,0,3.5,9.6,3.5,21.4v17.7c-1.9.3-3.4,2-3.4,4v7c0,2,1.5,3.7,3.4,4v32.4c-2,.7-3.5,2.6-3.5,4.8v30.2c0,2.2,1.5,4.2,3.5,4.8v27.7c-1.9.3-3.4,2-3.4,4v7c0,2,1.5,3.7,3.4,4v17.7c0,11.7,9.6,21.3,21.4,21.4h112.3c11.8,0,21.4-9.6,21.4-21.4s0-.6,0-.8v-16.8c2-.2,3.5-1.9,3.5-4v-7c0-2-1.5-3.7-3.5-4V54.1c2-.2,3.5-1.9,3.5-4h0ZM24.6,13.8h113.1c1.9,0,3.4,1.5,3.4,3.4s-1.5,3.4-3.4,3.4H24.6c-1.9,0-3.4-1.5-3.4-3.4s1.5-3.4,3.4-3.4ZM137.7,194.2H24.6c-1.9,0-3.4-1.5-3.4-3.4s1.5-3.4,3.4-3.4h17.6c1.4,0,2.6-.9,3-2.2h9v.2c0,1.5,1.2,2.7,2.7,2.7h49.6c1.5,0,2.7-1.2,2.7-2.7v-.2h4.1c.4,1.3,1.6,2.2,3,2.2h21.5c1.9,0,3.4,1.5,3.4,3.4s-1.5,3.4-3.4,3.4h0Z"/>
  <g>
    <rect class="st3" x="154.1" y="158.2" width="3.9" height="6.4"/>
    <rect class="st3" x="154.2" y="43.1" width="3.9" height="7"/>
    <rect class="st3" x="4.1" y="158" width="3.7" height="7"/>
    <rect class="st3" x="4.1" y="43.1" width="4.6" height="7"/>
    <path class="st4" d="M7.5,122.6h-2.4c-.6,0-1.1-.5-1.1-1.1v-30.2c0-.6.5-1.1,1.1-1.1h2.4"/>
    <g>
      <rect class="st2" x="4.8" y="43.8" width="2.1" height="5.7"/>
      <rect class="st2" x="4.7" y="95.6" width="2.2" height="21.5"/>
      <path class="st2" d="M6.9,90.9h-1.8c-.2,0-.4.2-.4.4v3.7h2.2s0-4.1,0-4.1Z"/>
      <rect class="st2" x="155.3" y="43.8" width="2.2" height="5.7"/>
      <rect class="st2" x="155.3" y="158.6" width="2.2" height="5.7"/>
      <rect class="st2" x="4.8" y="158.6" width="2.1" height="5.7"/>
      <path class="st2" d="M4.7,117.8v3.7c0,.2.2.4.4.4h1.8v-4.1h-2.2Z"/>
      <path class="st5" d="M150,197.5s.1-.2.2-.2c.1-.1.2-.2.3-.4,0,0,.1-.2.2-.3,0-.1.2-.2.3-.4,0,0,.1-.2.2-.3,0-.1.2-.3.3-.4,0,0,.1-.2.2-.3,0-.1.2-.3.2-.4,0,0,.1-.2.2-.3,0-.1.1-.3.2-.4,0-.1.1-.2.1-.3s.1-.3.2-.4c0-.1,0-.2.1-.3,0-.1.1-.3.2-.4,0-.1,0-.2.1-.3,0-.1.1-.3.2-.4,0-.1,0-.2.1-.3,0-.1,0-.3.1-.4v-.3c0-.1,0-.3.1-.5v-2.9h0V21.1h0v-3.2c0-.1,0-.3-.1-.5v-.3c0-.2,0-.3-.1-.5,0-.1,0-.2-.1-.3,0-.2-.1-.3-.2-.5,0-.1,0-.2-.1-.3,0-.2-.1-.3-.2-.5,0,0,0-.2-.1-.3,0-.2-.1-.3-.2-.5,0,0,0-.2-.1-.2,0-.2-.2-.3-.2-.5,0,0,0-.2-.1-.2,0-.2-.2-.3-.3-.5,0,0,0-.1-.1-.2-.1-.2-.2-.3-.3-.5,0,0,0-.1-.1-.2-.1-.1-.2-.3-.3-.4,0,0,0-.1-.1-.2-.1-.1-.2-.3-.4-.4,0,0-.1-.1-.1-.2-.1-.1-.2-.3-.4-.4,0,0-.1-.1-.1-.2-.1-.1-.3-.3-.4-.4,0,0-.1-.1-.2-.2-.1-.1-.3-.3-.4-.4,0,0-.1,0-.2-.2-.1-.1-.3-.2-.4-.4,0,0-.1,0-.2-.2-.1-.1-.3-.2-.4-.3,0,0-.1,0-.2,0-.1,0-.3-.2-.5-.3,0,0-.1,0-.2,0-.1,0-.3-.2-.5-.3,0,0-.1,0-.2,0-.2,0-.3-.2-.5-.3,0,0-.1,0-.2,0-.2,0-.3-.2-.5-.2,0,0-.1,0-.2,0-.2,0-.3-.2-.5-.2,0,0-.2,0-.2,0-.2,0-.3,0-.5-.2h-.3c-.2,0-.3,0-.5-.2h-.3c-.2,0-.3,0-.5,0h-.3c-.2,0-.3,0-.5,0H25c-9.2,0-16.8,7.5-16.8,16.8v165.1c0,9.2,7.5,16.8,16.8,16.8h115.9c.1,0,.3,0,.4-.1h.3c.1,0,.3,0,.4-.1.1,0,.2,0,.3-.1.1,0,.3,0,.4-.1.1,0,.2,0,.3-.1.1,0,.3-.1.4-.2.1,0,.2,0,.3-.1.1,0,.3-.1.4-.2.1,0,.2-.1.3-.1s.3-.1.4-.2c.1,0,.2-.1.3-.2.1,0,.3-.1.4-.2.1,0,.2-.1.3-.2.1,0,.3-.2.4-.2,0,0,.2-.1.3-.2.1,0,.2-.2.4-.3,0,0,.2-.1.3-.2.1,0,.2-.2.4-.3,0,0,.2-.1.3-.2.1-.1.2-.2.4-.3,0,0,.2-.1.2-.2l.3-.3s.2-.1.2-.2l.3-.3c.1-.1.1-.2.2-.2l.3-.3h0l.2-1.6ZM24.6,12.1h113.1c2.8,0,5,2.3,5,5s-2.3,5-5,5H24.6c-2.8,0-5-2.3-5-5s2.3-5,5-5ZM108.9,182.6v1.1h5.1c.4,0,.7.3.7.7,0,.8.7,1.5,1.5,1.5h21.5c2.8,0,5,2.3,5,5s-2.3,5-5,5H24.6c-2.8,0-5-2.3-5-5s2.3-5,5-5h17.6c.8,0,1.5-.7,1.5-1.5s.3-.7.7-.7h10v-1.1H12c-.2,0-.3-.1-.3-.3v-19.4s-.1.1-.2.1h0c-.8-.2-1.3-.8-1.3-1.6s.6-1.5,1.3-1.6c.1,0,.2,0,.3.1V48.1s-.1,0-.2,0h0c-.8-.2-1.3-.8-1.3-1.6s.6-1.5,1.3-1.6c.1,0,.2,0,.3,0v-20.7c0-.2.1-.3.3-.3h138.4c.2,0,.3.1.3.3v20.6h.2c.8.2,1.3.8,1.3,1.6s-.6,1.5-1.3,1.6h-.2v111.7h.2c.8.2,1.3.8,1.3,1.6s-.6,1.5-1.3,1.6h-.2v19.3c0,.2-.1.3-.3.3h-41.7Z"/>
      <path class="st3" d="M11.5,160.4c-.5,0-.8.5-.8,1s.3.9.8,1c0,0,.1,0,.2.1v-2.2s-.1.1-.2.1h0Z"/>
      <path class="st3" d="M26.4,160.7c-1,0-1.8.8-1.8,1.8s.8,1.8,1.8,1.8,1.8-.8,1.8-1.8-.8-1.8-1.8-1.8Z"/>
      <path class="st4" d="M150.1,172.1v-11.5H45.4c-2.4.1-4.3,2.1-4.3,4.6h0v6.9c0,.2-.2.3-.3.3H12.3v9.6h137.8v-9.9h0ZM110.1,172.1v4.3c0,.2-.2.3-.3.3h-57.7c-.2,0-.3-.1-.3-.3v-10.3c0-.2.2-.3.3-.3h57.7c.2,0,.3.1.3.3v6Z"/>
      <polygon class="st3" points="52.3 166.4 52.3 172.1 52.3 176.1 109.4 176.1 109.4 172.1 109.4 166.4 52.3 166.4"/>
      <path class="st3" d="M12.3,171.7h28.1v-6.6h0c0-2.9,2.4-5.3,5.3-5.3s.2,0,.2,0h104.2V24.7H12.3v147ZM18.6,30.9c0-.2.1-.3.3-.3h124.4c.2,0,.3.1.3.3v126.8c0,.2-.1.3-.3.3H34v9.6c0,.2,0,.3-.3.3h-14.7c-.2,0-.3-.1-.3-.3V30.8h-.1Z"/>
      <path class="st3" d="M150.7,162.4h.1c.5,0,.8-.5.8-1s-.3-.9-.8-1h-.1v2h0Z"/>
      <path class="st3" d="M11.5,45.6c-.5,0-.8.5-.8,1s.3.9.8,1c0,0,.1,0,.2,0v-2.2s-.1,0-.2.1Z"/>
      <path class="st4" d="M19.3,167.3h14.1v-9.6c0-.2,0-.3.3-.3h109.4V31.2H19.3v136.1ZM26.4,165.1c-1.4,0-2.5-1.1-2.5-2.5s1.1-2.5,2.5-2.5,2.5,1.1,2.5,2.5-1.1,2.5-2.5,2.5ZM21.7,34c0-.2.1-.3.3-.3h118.2c.2,0,.3,0,.3.3v120.7c0,.2-.1.3-.3.3H22c-.2,0-.3-.1-.3-.3V34h0Z"/>
      <path class="st3" d="M150.8,47.5c.5,0,.8-.5.8-1s-.3-.9-.8-1h-.1v2h.1Z"/>
    </g>
    <path class="st1" d="M24.9,4c-9.6,0-17.4,7.8-17.4,17.4v165.2h0c0,9.6,7.8,17.4,17.4,17.4h112.3c9.6,0,17.4-7.8,17.4-17.4h0V21.5h0c0-9.7-7.8-17.5-17.4-17.5H24.9Z"/>
    <path class="st1" d="M137.7,21.5c2.4,0,4.4-2,4.4-4.4s-2-4.4-4.4-4.4H24.6c-2.4,0-4.4,2-4.4,4.4s2,4.4,4.4,4.4h113.1Z"/>
    <path class="st1" d="M44.3,184.4c0,1.2-1,2.2-2.2,2.2h-17.6c-2.4,0-4.4,2-4.4,4.4s2,4.4,4.4,4.4h113.1c2.4,0,4.4-2,4.4-4.4s-2-4.4-4.4-4.4h-21.5c-1.2,0-2.2-1-2.2-2.2H44.3Z"/>
    <line class="st1" x1="4" y1="95.3" x2="7.5" y2="95.3"/>
    <line class="st1" x1="4" y1="117.5" x2="7.5" y2="117.5"/>
    <path class="st1" d="M7.5,122.6h-2.4c-.6,0-1.1-.5-1.1-1.1v-30.2c0-.6.5-1.1,1.1-1.1h2.4"/>
    <line class="st1" x1="158.1" y1="158" x2="154.6" y2="158"/>
    <polyline class="st1" points="154.6 165 158.1 165 158.1 158"/>
    <path class="st1" d="M150.8,162.7c.6-.1,1.1-.7,1.1-1.3s-.4-1.2-1.1-1.3"/>
    <line class="st1" x1="158.1" y1="43.1" x2="154.6" y2="43.1"/>
    <polyline class="st1" points="154.6 50.1 158.1 50.1 158.1 43.1"/>
    <path class="st1" d="M150.8,47.9c.6,0,1.1-.7,1.1-1.3s-.4-1.2-1.1-1.3"/>
    <line class="st1" x1="4.1" y1="50.1" x2="7.5" y2="50.1"/>
    <polyline class="st1" points="7.5 43.1 4.1 43.1 4.1 50.1"/>
    <path class="st1" d="M11.3,45.3c-.6,0-1.1.7-1.1,1.3s.4,1.2,1.1,1.3"/>
    <line class="st1" x1="4.1" y1="165" x2="7.5" y2="165"/>
    <polyline class="st1" points="7.5 158 4.1 158 4.1 165"/>
    <path class="st1" d="M11.3,160.1c-.6.1-1.1.7-1.1,1.3s.4,1.2,1.1,1.3"/>
    <path class="st1" d="M28.5,162.6c0-1.2-1-2.2-2.2-2.2s-2.2,1-2.2,2.2,1,2.2,2.2,2.2,2.2-1,2.2-2.2"/>
    <polyline class="st1" points="33.6 167.7 33.6 157.7 143.4 157.7 143.4 30.9"/>
    <path class="st1" d="M24.2,162.6c0,1.2,1,2.2,2.2,2.2s2.2-1,2.2-2.2-1-2.2-2.2-2.2-2.2,1-2.2,2.2"/>
    <line class="st1" x1="143.4" y1="30.9" x2="18.9" y2="30.9"/>
    <polyline class="st1" points="18.9 30.9 18.9 167.7 33.6 167.7"/>
    <polyline class="st1" points="150.3 182.3 150.3 179 150.3 175.5 150.3 172.1"/>
    <polyline class="st1" points="109.7 172.1 109.7 176.4 52 176.4 52 172.1"/>
    <polyline class="st1" points="11.9 24.4 11.9 172 11.9 172.1 11.9 175.5 11.9 179 11.9 182.3 150.3 182.3"/>
    <polyline class="st1" points="52 172.1 52 166.1 109.7 166.1 109.7 172.1"/>
    <line class="st1" x1="150.3" y1="160.2" x2="150.3" y2="172.1"/>
    <polyline class="st1" points="11.9 24.4 150.3 24.4 150.3 160.2"/>
    <polyline class="st1" points="11.9 172 40.6 172 40.6 165.1"/>
    <line class="st1" x1="45.5" y1="160.2" x2="150.3" y2="160.2"/>
    <path class="st1" d="M45.6,160.1c-2.7,0-4.9,2.2-4.9,4.9"/>
    <polyline class="st1" points="33.6 167.7 18.9 167.7 18.9 30.9 143.4 30.9 143.4 157.7 33.6 157.7 33.6 167.7"/>
    <line class="st1" x1="11.9" y1="182.3" x2="150.3" y2="182.3"/>
    <path class="st0" d="M54.6,182.6v3c0,1.2,1,2.2,2.2,2.2h49.6c1.2,0,2.2-1,2.2-2.2v-3"/>
    <g>
      <rect class="st4" x="23.4" y="35.3" width="115.5" height="118"/>
      <path d="M137.9,36.3v116H24.4V36.3h113.5M139.9,34.3H22.4v120h117.5V34.3h0Z"/>
    </g>
  </g>
  <g>
    <path class="st5" d="M47.9,83.2v22.1h-22.1v-22.1h22.1ZM43.5,100.9v-13.2h-13.2v13.2h13.2Z"/>
    <path class="st5" d="M70,96.5h-17.7v-13.3h22.1v22.1h-22.1v-4.5h17.7v-4.4h0ZM56.8,92.1h13.2v-4.4h-13.2v4.4Z"/>
    <path class="st5" d="M78.9,87.7h4.5v4.5h-4.5v-4.5ZM78.9,100.9h4.5v4.5h-4.5v-4.5Z"/>
    <path class="st5" d="M87.8,92.1h17.7v-4.4h-17.7v-4.5h22.1v22.1h-22.1v-4.5h17.7v-4.4h-17.7v-4.5h0v.2Z"/>
    <path class="st5" d="M136.5,83.2v22.1h-22.1v-22.1h22.1ZM132,100.9v-13.2h-13.2v13.2h13.2Z"/>
  </g>
</svg>