<?xml version="1.0" encoding="UTF-8"?>
<svg id="Layer_1" xmlns="http://www.w3.org/2000/svg" version="1.1" viewBox="0 0 181.5 208">
  <!-- Generator: Adobe Illustrator 29.3.1, SVG Export Plug-In . SVG Version: 2.1.0 Build 151)  -->
  <defs>
    <style>
      .st0 {
        fill: #d39e4e;
      }

      .st1 {
        stroke-miterlimit: 10;
        stroke-width: 2px;
      }

      .st1, .st2 {
        stroke: #000;
      }

      .st1, .st3 {
        fill: #333531;
      }

      .st2 {
        fill: none;
        stroke-linecap: round;
        stroke-linejoin: round;
      }

      .st4 {
        fill: #535551;
      }

      .st5 {
        fill: #b3b3b3;
      }
    </style>
  </defs>
  <path d="M142.1,208c-3.3,0-6.6-.7-9.6-1.9H49c-3,1.3-6.3,1.9-9.6,1.9s-6.2-.6-9.1-1.7c-6.1-2.4-11.1-7.1-13.8-13.1-.1-.1-.2-.3-.3-.4h0c0,0,0-.2,0-.2,0-.1-.1-.3-.2-.4-.9-1.7-1.7-3.5-2.2-5.3-.4,0-.9-.1-1.3-.3-.6-.2-1.2-.6-1.6-1.1l-3.2-3.2h0c-.3-.4-.7-.9-.9-1.6-.2-.5-.3-1.1-.3-1.6v-3.6c-.5,0-.9-.1-1.4-.3-2.3-.6-4.1-2.4-4.7-4.7-.2-.5-.3-1.1-.3-1.6v-25.1c0-.5,0-1,.2-1.4.6-3,3.1-5.2,6.1-5.3v-4.6c.1,0,.2-.3.2-.3v-.3c0,0,.1,0,.1,0l.2-.7.3-.4s.1-.2.1-.2l.2-.3,2.4-2.5,1-.9c.3-.2.6-.5.9-.6h.2c0-.1,0-.2,0-.2.1,0,.3-.1.4-.2v-43.3s-.3-.1-.3-.1l-.5-.3h0c-.1-.1-.3-.2-.3-.2h-.1c0,0-.3-.4-.3-.4l-1.9-1.8-1.8-2h0c-.2-.4-.4-.7-.5-1.1h0c0-.1-.2-.7-.2-.7v-.2c0-.2,0-.3,0-.4v-.3s0-3.8,0-3.8c-.5,0-.9-.1-1.4-.3-2.3-.6-4.1-2.4-4.7-4.7-.2-.5-.3-1.1-.3-1.7v-25.1c0-.5,0-1,.2-1.4.6-3,3.1-5.2,6.1-5.3v-3.6c0-.6.1-1.1.3-1.6.1-.3.3-.6.5-.9l.9-1.8h.8s2-2.1,2-2.1c.4-.4.9-.7,1.4-.9.4-.2.9-.3,1.4-.4h.1c.5-1.8,1.2-3.4,2-5h0c0-.1.5-1,.5-1v-.2c2.8-6.1,7.9-10.9,14-13.3,2.9-1.1,6-1.7,9.1-1.7s6.8.7,9.9,2h83c3.1-1.3,6.5-2,9.8-2s6.2.6,9.1,1.7c6.2,2.4,11.2,7.3,13.9,13.4,1.1,1.9,2,4,2.7,6.2h.6s.4.2.4.2c.6.2,1.2.6,1.7,1.1l3.3,3.3h0c.8,1,1.2,2.1,1.2,3.2v3.6c3.5.2,6.3,3.1,6.3,6.6v9.7h0s0,15.5,0,15.5c0,3.1-2.1,5.8-5.1,6.5-.4.2-.8.2-1.3.3v3.6c0,.4,0,.8-.1,1.1,0,0,0,.2,0,.3,0,.2-.1.3-.2.5v.2c-.2.3-.3.4-.4.5l-.4.5-2.5,2.6-1,.9c-.2.2-.4.3-.6.5l-.2.2-.5.2s-.3.1-.3.1v43.3l.5.2.5.3c0,0,.3.2.3.2l.3.3,1.9,1.8,1.5,1.6c.1.1.2.2.3.4l.8.8v1.2c0,0,.2.6.2.6v3.8c3.5.2,6.4,3.1,6.4,6.6v25.2c0,3.1-2.1,5.8-5.1,6.5-.4.1-.8.2-1.2.3v3.6c0,.9-.3,1.8-.7,2.5v.2c0,0-.4.3-.4.3l-.2.2-3.2,3.2c-.5.5-1,.8-1.6,1.1-.4.1-.8.2-1.2.3-.6,2.1-1.5,4.2-2.6,6.1-2.7,6.1-7.7,11-13.9,13.4-2.9,1.1-6,1.7-9.1,1.7Z"/>
  <path d="M174.8,35.7h-2.7v-6.6c0-.3,0-.7-.4-1.1l-3.2-3.2c-.2-.2-.4-.3-.6-.4h-2.4c-.5-2.8-1.5-5.4-2.9-7.8h0c-2.3-5.6-6.8-9.9-12.3-12-5.5-2.2-11.8-2-17.3.5H48.7c-5.4-2.5-11.7-2.7-17.3-.5-5.5,2.1-10,6.5-12.3,12h0c0,.1,0,.2,0,.2l-.2.3h0c-1.3,2.3-2.1,4.7-2.6,7.3h-2s0,0,0,0h0c0,0-.3,0-.5.1-.2,0-.3.2-.5.3l-2.9,2.9h-.2s-.2.5-.2.5c0,.1-.2.3-.2.4,0,.1-.1.4-.1.6v6.6h-2.8c-1.8,0-3.2,1.4-3.5,3.1,0,.2-.1.4-.1.6v25.1c0,.2,0,.5.2.7.3,1.4,1.4,2.5,2.8,2.8.2,0,.4.2.7.2h2.7v6.8s0,.1,0,.2v.3c.1.1.2.2.2.3l1.6,1.8,1.8,1.7h.1c0,.1,0,.2.1.2l.3.2c.2,0,.4.1.6.1h1.4v48.8h-1.8c0,0-.2,0-.3.1h-.2c0,.1-.2.2-.3.3l-1,.9-2.3,2.3h0c0,.1,0,.2-.1.3h0c0,0,0,.3,0,.3,0,0,0,0,0,0h0c0,.1,0,.2,0,.2v.2c0,0,0,6.8,0,6.8h-2.8c-1.8,0-3.2,1.4-3.5,3.1,0,.2-.1.4-.1.6v25.1c0,.2,0,.5.2.7.3,1.4,1.4,2.5,2.8,2.8.2,0,.4.2.7.2h2.7v6.6c0,.2,0,.4.1.6,0,.2.2.4.4.6l3.2,3.2c.2.2.4.3.6.4.1,0,.4.1.6.1h2c.5,2.5,1.4,4.9,2.6,7.1,0,.1,0,.2.1.3,0,.1.1.2.2.3,2.3,5.4,6.8,9.7,12.3,11.8,2.6,1,5.3,1.5,8.1,1.5s6.2-.7,9-1.9h84.7c2.8,1.3,5.9,1.9,9,1.9s5.5-.5,8.1-1.5c5.5-2.1,10-6.5,12.3-12h0c1.4-2.4,2.3-5,2.9-7.7h1.9c.2,0,.4,0,.6-.1.2,0,.4-.2.6-.4l3.2-3.2v-.2c.1,0,.2,0,.2,0,.2-.3.3-.6.3-1v-6.6h2.7c.2,0,.5,0,.7-.2,1.7-.3,3-1.8,3-3.6v-25.2c0-2-1.6-3.6-3.7-3.6h-2.7v-6.9s0-.1,0-.2v-.3s-.2-.2-.2-.2c0,0-.1-.2-.2-.3l-1.5-1.6-1.8-1.7h-.1c0-.1,0-.2-.1-.2h-.2c0-.1-.2-.2-.2-.2,0,0-.1,0-.2,0h-.2s0,0,0,0h-1.6v-48.8h1.4c.2,0,.4,0,.6-.1h.2c0,0,0-.1,0-.1,0,0,.2-.1.3-.2l1-.9,2.3-2.4.2-.3s0,0,0-.2h0c0-.1,0-.1,0-.2h0c0,0,0-.1,0-.1h0c0-.2,0-.3,0-.5v-6.6h2.7c.2,0,.5,0,.7-.2,1.7-.3,3-1.8,3-3.6v-22.8h0s0-2.4,0-2.4c0-2-1.6-3.6-3.7-3.6Z"/>
  <g>
    <path class="st1" d="M177.5,39.3c0-1.5-1.2-2.6-2.6-2.6h-3.7v-7.6h0c0-.2,0-.4-.2-.5,0,0,0,0,0,0l-3.2-3.1c0,0-.1-.1-.2-.1,0,0,0,0,0,0,0,0,0,0,0,0,0,0,0,0,0,0h-2.7c-.4-2.9-1.4-5.6-2.9-8.1,0,0,0,0,0,0-2.2-5.3-6.5-9.5-11.8-11.6-5.4-2.1-11.4-1.9-16.7.5H48.4c-5.2-2.5-11.3-2.7-16.7-.6-5.3,2.1-9.6,6.3-11.8,11.6,0,0,0,0,0,0,0,0,0,0,0,0,0,0,0,0,0,0,0,0,0,0,0,0-1.4,2.4-2.4,5.1-2.8,7.9h-2.8s0,0-.1,0h0s0,0-.1,0c0,0-.1,0-.2.1l-3.2,3.1s0,0,0,0c0,0,0,.1-.1.2h0c0,0,0,.2,0,.2v7.6h-3.7c-1.3,0-2.4,1.1-2.5,2.4,0,.1-.1.2-.1.3v25.1c0,.1,0,.2.1.3.2,1.1,1,2,2.2,2.2.1,0,.2.1.4.1h3.7v7.6s0,0,0,.1,0,0,0,.1h0c0,0,0,0,0,.1,0,0,0,0,0,0l1.4,1.5,1.8,1.7h0s0,0,.1,0c0,0,0,0,0,0h0c0,0,.2,0,.2,0h2.4v50.8h-2.4s0,0,0,0,0,0,0,0c0,0,0,0-.1,0h0s0,0,0,0c0,0,0,0-.1,0l-.9.9-2.3,2.3s0,.1-.1.2c0,0,0,0,0,0h0s0,0,0,.1c0,0,0,0,0,.1v7.6h-3.7c-1.3,0-2.4,1.1-2.5,2.4,0,.1-.1.2-.1.4v25.1c0,.1,0,.2.1.4.2,1.1,1,2,2.2,2.2.1,0,.2.1.4.1h3.7v7.6c0,0,0,.2,0,.2s0,.1.1.2l3.2,3.2c0,0,.1.1.2.1s.2,0,.2,0h2.8c.4,2.7,1.4,5.4,2.7,7.8,0,0,0,.1,0,.2,0,0,.1.2.2.2,2.2,5.2,6.5,9.4,11.8,11.5,2.5,1,5.1,1.4,7.7,1.4s6-.6,8.8-1.9h85.1c2.8,1.3,5.8,1.9,8.8,1.9s5.2-.5,7.7-1.4c5.3-2.1,9.6-6.3,11.8-11.6,0,0,0,0,0,0,1.5-2.5,2.4-5.2,2.9-8h2.7c0,0,.2,0,.2,0s.1,0,.2-.1l3.2-3.2s0,0,0,0c.1-.1.2-.3.2-.4h0v-7.6h3.7c.1,0,.2,0,.4-.1,1.3-.2,2.3-1.2,2.3-2.6h0v-25.2h0c0-1.5-1.2-2.7-2.6-2.7h-3.7v-7.6s0,0,0-.1c0,0,0,0,0-.1h0s0,0,0,0c0,0,0-.1-.1-.2l-1.4-1.5-1.8-1.7h0s0,0-.1,0c0,0,0,0,0,0h0s0,0-.1,0c0,0,0,0,0,0s0,0,0,0h-2.4v-50.8h2.4c0,0,.2,0,.2,0h0s0,0,0,0c0,0,0,0,.1,0l.9-.9,2.3-2.3s0,0,0,0c0,0,0,0,0,0,0,0,0,0,0,0h0c0,0,0-.2,0-.2h0v-7.6h3.7c.1,0,.2,0,.4-.1,1.3-.2,2.3-1.2,2.3-2.6h0v-25.2h0s0,0,0,0Z"/>
    <polygon class="st0" points="169.8 74.5 167.9 76.4 167.9 66 167.9 37.9 167.9 27.5 169.8 29.3 169.8 74.5"/>
    <path class="st0" d="M163.3,182.4c-.4,2.6-1.2,5.1-2.5,7.3l-4.4-2.2c1.4-2.5,2.2-5.3,2.2-8.2s0-.2,0-.3V29c0,0,0-.2,0-.3,0-2.9-.8-5.7-2.2-8.1l4.4-2.2c1.2,2.3,2.1,4.8,2.4,7.3,0,0,0,.1,0,.2,0,.1,0,.2.1.3.1.8.1,1.6.1,2.5h0v5.4c-.4,1.2-.6,2.5-.6,3.8h0v28.1h0c0,1.3.2,2.5.6,3.8h0v68.6c-.4,1.2-.6,2.5-.6,3.8h0v28.1h0c0,1.3.2,2.5.6,3.8v5.4c0,.9,0,1.7-.2,2.6,0,0,0,.2,0,.3s0,.1,0,.1h0Z"/>
    <path class="st0" d="M135.2,194.5c-.2-.1-.4-.1-.6,0H46.9c-.2,0-.4,0-.6,0-3.5,2.1-7.7,2.4-11.5,1.1-3.8-1.4-6.8-4.3-8.2-8.1,0-.1-.1-.2-.2-.2-1.5-2.4-2.2-5.1-2.2-7.9V28.7h0c0-2.9.8-5.7,2.3-8.1,0,0,0,0,.1-.1,1.4-3.8,4.4-6.8,8.2-8.1,3.8-1.3,7.9-1,11.3,1,0,0,0,0,0,0,0,0,0,0,0,0,0,0,0,0,.1,0,0,0,0,0,0,0,0,0,0,0,.2,0h88.1c0,0,.1,0,.1,0h0c0,0,0,0,.1,0,0,0,0,0,0,0,3.5-2.1,7.7-2.5,11.5-1.1,3.7,1.3,6.7,4.2,8.1,7.9,0,0,0,.2,0,.3,0,.1.1.2.2.3,1.4,2.3,2.1,4.9,2.2,7.6,0,0,0,.2,0,.3v150.7c0,.1,0,.2,0,.3,0,2.7-.8,5.3-2.2,7.6,0,0,0,0,0,.1,0,0,0,0-.1.1,0,0,0,0,0,.1-1.4,3.7-4.4,6.6-8.1,8-3.8,1.4-8,1-11.5-1.1h0Z"/>
    <polygon class="st0" points="132.8 200.8 48.7 200.8 47.5 195.8 133.9 195.8 132.8 200.8"/>
    <path class="st0" d="M20.7,189.7c-1.7-3.2-2.7-6.7-2.7-10.3s0-.2,0-.3v-4.9s0,0,0,0c.4-1.3.6-2.6.6-3.9s0-.2,0-.3v-27.5c0,0,0-.2,0-.3,0-1.3-.2-2.7-.6-3.9,0,0,0,0,0,0v-68.2s0,0,0,0c.4-1.3.6-2.6.6-3.9s0-.2,0-.3v-27.5c0,0,0-.2,0-.3,0-1.3-.2-2.7-.6-3.9,0,0,0,0,0,0v-4.9c0,0,0-.2,0-.3,0-3.6.9-7.1,2.6-10.3l4.5,2.2c-1.4,2.5-2.1,5.3-2.1,8.1h0v150.7h0c0,2.9.8,5.6,2.2,8.1l-4.5,2.2h0Z"/>
    <polygon class="st0" points="48.7 7.3 132.8 7.3 133.9 12.3 47.5 12.3 48.7 7.3"/>
    <path class="st0" d="M149.3,6.7c4.9,1.9,8.8,5.7,10.9,10.5l-4.4,2.2c-1.6-3.8-4.7-6.8-8.7-8.2-3.9-1.4-8.2-1.1-11.9.8l-1.2-4.9c4.8-2.1,10.3-2.3,15.2-.4h0Z"/>
    <path class="st0" d="M32.2,6.7c4.9-1.9,10.4-1.8,15.2.3l-1.2,4.9c-3.7-1.9-7.9-2.2-11.8-.8-4,1.4-7.1,4.4-8.7,8.3l-4.5-2.2c2.1-4.8,6-8.6,11-10.6Z"/>
    <polygon class="st0" points="13.5 37.9 13.5 66 13.5 76.4 11.7 74.5 11.7 37.9 11.7 29.3 13.5 27.5 13.5 37.9"/>
    <path class="st5" d="M7,65.9c0,0-.2,0-.3,0-.7,0-1.3-.6-1.3-1.3s0-.2,0-.3v-24.6c0,0,0-.2,0-.3,0-.7.6-1.3,1.3-1.3h3.6v27.9h-3.3Z"/>
    <path class="st0" d="M14.9,77.3V26.5h2c0,.6-.1,1.2-.1,1.9,0,.1,0,.2,0,.3v5.5c0,.2,0,.4.2.5.3.9.4,1.9.4,2.9,0,0,0,.2,0,.3v28.1c0,0,0,.2,0,.3,0,1.1-.2,2.1-.5,3.1,0,.1-.1.2-.1.4v7.6h-1.8,0Z"/>
    <polygon class="st0" points="11.7 142.1 11.7 133.6 13.5 131.7 13.5 142.1 13.5 180.6 11.7 178.8 11.7 142.1"/>
    <path class="st5" d="M7,170.1c0,0-.2,0-.3,0-.7,0-1.3-.6-1.3-1.3s0-.2,0-.3v-24.6c0,0,0-.2,0-.3,0-.7.6-1.3,1.3-1.3h3.6v27.9h-3.3Z"/>
    <path class="st0" d="M14.9,181.6v-50.8h1.8v7.6c0,.2,0,.3.2.4.3,1,.5,2,.5,3.1,0,0,0,.2,0,.3v28.1c0,.1,0,.2,0,.3,0,1-.2,2-.5,3-.1.1-.2.3-.2.4v5.5c0,.1,0,.2.1.3,0,.6,0,1.2.1,1.9h-2Z"/>
    <path class="st0" d="M32.2,201.3c-4.9-1.9-8.8-5.7-10.9-10.5l4.4-2.2c1.6,3.8,4.7,6.8,8.7,8.2,1.6.6,3.3.9,5,.9s4.6-.6,6.8-1.7l1.2,4.9c-4.8,2.1-10.3,2.2-15.2.3h0Z"/>
    <path class="st0" d="M149.3,201.3c-4.9,1.9-10.4,1.8-15.2-.4l1.2-4.9c2.1,1.1,4.5,1.7,6.8,1.7s3.4-.3,5-.9c3.9-1.4,7-4.4,8.7-8.2l4.4,2.2c-2.1,4.8-6,8.6-10.9,10.4Z"/>
    <polygon class="st0" points="167.9 170.2 167.9 142.1 167.9 131.7 169.8 133.6 169.8 142.1 169.8 170.2 169.8 178.8 167.9 180.6 167.9 170.2"/>
    <path class="st5" d="M176.1,143.5s0,0,0,0,0,0,0,0v25.1c0,.7-.6,1.3-1.3,1.3s-.2,0-.3,0h-3.4v-27.9h3.7c.7,0,1.3.6,1.3,1.3h0Z"/>
    <path class="st0" d="M166.6,130.8v50.8h-1.9c0-.7.1-1.4.1-2.2h0v-5.4h0c0-.2,0-.2,0-.3-.4-1.1-.6-2.3-.6-3.5v-28h0c0-1.2.2-2.4.6-3.6,0,0,0-.1,0-.2h0v-7.6h1.8Z"/>
    <path class="st0" d="M164.9,69.7c0,0,0-.2,0-.3-.4-1.1-.6-2.3-.6-3.5v-28h0c0-1.2.2-2.3.5-3.4,0,0,0-.2,0-.3h0v-5.5h0c0-.8,0-1.5-.1-2.2h1.9v50.8h-1.8v-7.6h0Z"/>
    <path class="st5" d="M174.8,65.8c-.1,0-.2,0-.3,0h-3.4v-27.9h3.7c.7,0,1.3.6,1.3,1.3s0,0,0,0,0,0,0,0v25.1c0,.7-.6,1.3-1.3,1.3h0Z"/>
    <circle class="st0" cx="39.5" cy="25.2" r="4.6"/>
    <circle class="st0" cx="39.5" cy="25.2" r="3.3"/>
    <path class="st0" d="M39.5,178.2c-2.5,0-4.6,2.1-4.6,4.6s2.1,4.6,4.6,4.6,4.6-2.1,4.6-4.6-2.1-4.6-4.6-4.6Z"/>
    <path class="st0" d="M39.5,186.2c-1.8,0-3.3-1.5-3.3-3.3s1.5-3.3,3.3-3.3,3.3,1.5,3.3,3.3-1.5,3.3-3.3,3.3Z"/>
    <circle class="st0" cx="142.1" cy="25.2" r="4.6"/>
    <circle class="st0" cx="142.1" cy="25.2" r="3.3"/>
    <path class="st0" d="M142.1,178.2c-2.6,0-4.6,2.1-4.6,4.6s2.1,4.6,4.6,4.6,4.6-2.1,4.6-4.6-2.1-4.6-4.6-4.6Z"/>
    <path class="st0" d="M142.1,186.2c-1.8,0-3.3-1.5-3.3-3.3s1.5-3.3,3.3-3.3,3.3,1.5,3.3,3.3-1.5,3.3-3.3,3.3Z"/>
    <path class="st5" d="M149,37.1c0,.2,0,.3.2.4,0,.3.1.7.2,1.1,0,0,0,.2,0,.3v106.6c0,0,0,.2,0,.3-.2,2.7-2.4,4.9-5.2,4.9s-.2,0-.3,0H37.8c0,0-.2,0-.3,0-2.9,0-5.2-2.3-5.2-5.2V38.9h0c0-.5,0-1.1.2-1.5h0l.7-1.5.7-.8s0,0,0,0c1-.9,2.2-1.4,3.5-1.4h106.7c1.2,0,2.4.5,3.4,1.3,0,0,0,0,0,0l.4.4.3.4.7,1.2h0c0,.1,0,.1,0,.1Z"/>
    <path class="st4" d="M140.8,32.3c-3.7-.6-6.3-4-5.9-7.8.3-3.8,3.4-6.6,7.2-6.6s6.9,2.8,7.2,6.6c.3,3.8-2.2,7.1-5.9,7.8,0,0,0,0,0,0h-2.4s0,0,0,0h0Z"/>
    <path class="st4" d="M32.2,24.5c.3-3.8,3.4-6.6,7.2-6.6s6.9,2.8,7.2,6.6c.3,3.8-2.2,7.1-6,7.8,0,0,0,0,0,0h-2.4s0,0,0,0c-3.7-.6-6.3-4-6-7.8Z"/>
    <path class="st4" d="M39.5,190.1c-4,0-7.2-3.2-7.2-7.2s3.2-7.2,7.2-7.2,7.2,3.2,7.2,7.2-3.2,7.2-7.2,7.2Z"/>
    <path class="st4" d="M142.1,190.1c-4,0-7.2-3.2-7.2-7.2s3.2-7.2,7.2-7.2,7.2,3.2,7.2,7.2-3.2,7.2-7.2,7.2Z"/>
    <polyline class="st2" points="4.7 39.3 4.7 39.4 4.7 39.8 4.7 40.4 4.7 41.1 4.7 41.9 4.7 62 4.7 62.8 4.7 63.5 4.7 64.1 4.7 64.5 4.7 64.5"/>
    <path class="st2" d="M6.7,37.3c-1.1,0-2,.9-2,2"/>
    <path class="st2" d="M4.8,64.5c0,1.1.9,2,2,2"/>
    <line class="st2" x1="11" y1="37.3" x2="6.7" y2="37.3"/>
    <line class="st2" x1="11" y1="66.5" x2="6.7" y2="66.5"/>
    <polyline class="st2" points="4.7 143.6 4.7 143.6 4.7 144 4.7 144.6 4.7 145.3 4.7 146.1 4.7 166.2 4.7 167 4.7 167.7 4.7 168.3 4.7 168.7 4.7 168.8"/>
    <path class="st2" d="M6.7,141.5c-1.1,0-2,.9-2,2"/>
    <path class="st2" d="M4.8,168.7c0,1.1.9,2,2,2"/>
    <line class="st2" x1="11" y1="141.5" x2="6.7" y2="141.5"/>
    <line class="st2" x1="11" y1="170.8" x2="6.7" y2="170.8"/>
    <polyline class="st2" points="176.8 168.8 176.8 168.7 176.8 168.3 176.8 167.7 176.8 167 176.8 166.2 176.8 146.1 176.8 145.3 176.8 144.6 176.8 144 176.8 143.6 176.8 143.6"/>
    <path class="st2" d="M174.8,170.7c1.1,0,2-.9,2-2"/>
    <path class="st2" d="M176.8,143.5c0-1.1-.9-2-2-2"/>
    <line class="st2" x1="170.5" y1="170.8" x2="174.8" y2="170.8"/>
    <line class="st2" x1="170.5" y1="141.5" x2="174.8" y2="141.5"/>
    <polyline class="st2" points="176.8 64.5 176.8 64.5 176.8 64.1 176.8 63.5 176.8 62.8 176.8 62 176.8 41.9 176.8 41.1 176.8 40.4 176.8 39.8 176.8 39.4 176.8 39.3"/>
    <path class="st2" d="M174.8,66.5c1.1,0,2-.9,2-2"/>
    <path class="st2" d="M176.8,39.3c0-1.1-.9-2-2-2"/>
    <line class="st2" x1="170.5" y1="66.5" x2="174.8" y2="66.5"/>
    <line class="st2" x1="170.5" y1="37.3" x2="174.8" y2="37.3"/>
    <path class="st2" d="M35.5,25.2c0,2.2,1.8,4,4,4s4-1.8,4-4-1.8-4-4-4-4,1.8-4,4"/>
    <path class="st2" d="M35.5,182.8c0,2.2,1.8,4,4,4s4-1.8,4-4-1.8-4-4-4-4,1.8-4,4"/>
    <path class="st2" d="M138.1,25.2c0,2.2,1.8,4,4,4s4-1.8,4-4-1.8-4-4-4-4,1.8-4,4"/>
    <path class="st2" d="M138.1,182.8c0,2.2,1.8,4,4,4s4-1.8,4-4-1.8-4-4-4-4,1.8-4,4"/>
    <line class="st2" x1="167.3" y1="37.9" x2="167.3" y2="66"/>
    <line class="st2" x1="163.6" y1="66" x2="163.6" y2="37.9"/>
    <polyline class="st2" points="170.5 74.8 170.5 74.6 170.5 74.1 170.5 73.2 170.5 72.1 170.5 70.8 170.5 69.3 170.5 67.6 170.5 66 170.5 37.9 170.5 36.2 170.5 34.6 170.5 33.1 170.5 31.7 170.5 30.6 170.5 29.8 170.5 29.3 170.5 29"/>
    <path class="st2" d="M163.6,65.9c0,1.3.2,2.5.6,3.7"/>
    <path class="st2" d="M164.2,34.1c-.4,1.2-.6,2.5-.6,3.7"/>
    <line class="st2" x1="164.2" y1="34.2" x2="164.2" y2="28.7"/>
    <line class="st2" x1="157.8" y1="28.7" x2="157.8" y2="179.4"/>
    <line class="st2" x1="164.2" y1="179.4" x2="164.2" y2="173.9"/>
    <path class="st2" d="M163.6,170.2c0,1.3.2,2.5.6,3.7"/>
    <line class="st2" x1="163.6" y1="170.2" x2="163.6" y2="142.1"/>
    <path class="st2" d="M164.2,138.4c-.4,1.2-.6,2.5-.6,3.7"/>
    <line class="st2" x1="164.2" y1="138.4" x2="164.2" y2="69.7"/>
    <path class="st2" d="M164.2,28.7c0-4-1.1-7.8-3.1-11.2"/>
    <polyline class="st2" points="170.5 29 169 27.6 168.2 26.8 167.3 25.9 163.9 25.9"/>
    <polyline class="st2" points="17.5 25.9 14.2 25.9 13.3 26.8 12.4 27.6 11 29"/>
    <polyline class="st2" points="14.2 142.1 14.2 140.3 14.2 138.5 14.2 136.7 14.2 135.1 14.2 133.7 14.2 132.5 14.2 131.5 14.2 130.8 14.2 130.3 14.2 130.1 13.3 130.9 12.4 131.8 11 133.3 11 133.4 11 134 11 134.9 11 136 11 137.3 11 138.8 11 140.5 11 142.1"/>
    <path class="st2" d="M17.9,142.1c0-1.3-.2-2.5-.6-3.7"/>
    <line class="st2" x1="14.2" y1="130.1" x2="17.3" y2="130.1"/>
    <polyline class="st2" points="11 142.1 11 170.2 11 171.9 11 173.5 11 175 11 176.4 11 177.5 11 178.3 11 178.8 11 179"/>
    <polyline class="st2" points="163.9 182.2 164.2 182.2 167.3 182.2 168.2 181.3 169 180.5 170.5 179"/>
    <polyline class="st2" points="11 179 12.4 180.5 13.3 181.3 14.2 182.2 17.5 182.2"/>
    <polyline class="st2" points="11 29 11 29.3 11 29.8 11 30.6 11 31.7 11 33.1 11 34.6 11 36.2 11 37.9"/>
    <polyline class="st2" points="14.2 37.9 14.2 36.1 14.2 34.3 14.2 32.6 14.2 31 14.2 29.5 14.2 28.3 14.2 27.3 14.2 26.5 14.2 26.1 14.2 25.9"/>
    <path class="st2" d="M17.9,37.9c0-1.3-.2-2.5-.6-3.7"/>
    <line class="st2" x1="14.2" y1="66" x2="14.2" y2="37.9"/>
    <line class="st2" x1="17.9" y1="37.9" x2="17.9" y2="66"/>
    <polyline class="st2" points="11 37.9 11 66 11 67.6 11 69.3 11 70.8 11 72.1 11 73.2 11 74.1 11 74.6 11 74.8"/>
    <polyline class="st2" points="11 74.8 12.4 76.3 13.3 77.2 14.2 78 17.3 78"/>
    <polyline class="st2" points="167.3 142.1 167.3 140.3 167.3 138.5 167.3 136.7 167.3 135.1 167.3 133.7 167.3 132.5 167.3 131.5 167.3 130.8 167.3 130.3 167.3 130.1 168.2 130.9 169 131.8 170.5 133.3 170.5 133.4 170.5 134 170.5 134.9 170.5 136 170.5 137.3 170.5 138.8 170.5 140.5 170.5 142.1"/>
    <line class="st2" x1="167.3" y1="130.1" x2="164.2" y2="130.1"/>
    <polyline class="st2" points="164.2 78 167.3 78 168.2 77.2 169 76.3 170.5 74.8"/>
    <polyline class="st2" points="167.3 37.9 167.3 36.1 167.3 34.3 167.3 32.6 167.3 31 167.3 29.5 167.3 28.3 167.3 27.3 167.3 26.5 167.3 26.1 167.3 25.9"/>
    <path class="st2" d="M144.1,151.3c3.2,0,5.9-2.6,5.9-5.9"/>
    <line class="st2" x1="144.1" y1="151.4" x2="37.4" y2="151.4"/>
    <path class="st2" d="M31.6,145.4c0,3.2,2.6,5.9,5.9,5.9"/>
    <line class="st2" x1="31.6" y1="145.5" x2="31.6" y2="38.9"/>
    <path class="st2" d="M31.8,37.2c-.2.5-.2,1.1-.2,1.7"/>
    <path class="st2" d="M37.4,33c-1.5,0-2.9.5-4,1.5"/>
    <polyline class="st2" points="33.5 34.5 33.1 34.9 32.6 35.4 32.4 35.8 32.1 36.3 32 36.6 31.9 36.9 31.8 37.1"/>
    <polyline class="st2" points="37.4 33 38.1 33 40.7 33 47.3 33 48 33 48.7 33 49.3 33 50 33 50.5 33 50.9 33 51.2 33 51.3 33 130.2 33 130.3 33 130.5 33 130.9 33 131.4 33 132.1 33 132.8 33 133.5 33 134.2 33 140.7 33 143.4 33 144.1 33"/>
    <path class="st2" d="M150,38.9c0-.6,0-1.2-.2-1.7"/>
    <polyline class="st2" points="149.7 37.1 149.7 36.9 149.5 36.6 149.3 36.3 149.2 35.9 148.8 35.4 148.5 35 148 34.5"/>
    <path class="st2" d="M148.1,34.5c-1.1-1-2.5-1.5-4-1.5"/>
    <line class="st2" x1="149.9" y1="38.9" x2="149.9" y2="145.5"/>
    <path class="st2" d="M20.4,17.4c-2,3.4-3.1,7.3-3.1,11.2"/>
    <path class="st2" d="M17.4,179.3c0,4,1.1,7.8,3.1,11.2"/>
    <path class="st2" d="M161.1,190.6c2-3.4,3.1-7.3,3.1-11.2"/>
    <polyline class="st2" points="14.2 78 14.2 77.8 14.2 77.3 14.2 76.6 14.2 75.6 14.2 74.4 14.2 73 14.2 71.4 14.2 69.6 14.2 67.8 14.2 66"/>
    <path class="st2" d="M17.4,69.7c.4-1.2.6-2.5.6-3.7"/>
    <line class="st2" x1="17.3" y1="69.7" x2="17.3" y2="138.4"/>
    <polyline class="st2" points="14.2 182.2 14.2 182 14.2 181.6 14.2 180.8 14.2 179.8 14.2 178.5 14.2 177.1 14.2 175.5 14.2 173.9 14.2 172 14.2 170.2 14.2 142.1"/>
    <line class="st2" x1="17.9" y1="142.1" x2="17.9" y2="170.2"/>
    <path class="st2" d="M17.4,173.9c.4-1.2.6-2.5.6-3.7"/>
    <line class="st2" x1="17.3" y1="173.9" x2="17.3" y2="179.4"/>
    <line class="st2" x1="17.3" y1="28.7" x2="17.3" y2="34.2"/>
    <polyline class="st2" points="170.5 179 170.5 178.8 170.5 178.3 170.5 177.5 170.5 176.4 170.5 175 170.5 173.5 170.5 171.9 170.5 170.2"/>
    <polyline class="st2" points="167.3 170.2 167.3 172 167.3 173.9 167.3 175.5 167.3 177.1 167.3 178.5 167.3 179.8 167.3 180.8 167.3 181.6 167.3 182 167.3 182.2"/>
    <line class="st2" x1="170.5" y1="170.2" x2="170.5" y2="142.1"/>
    <line class="st2" x1="167.3" y1="142.1" x2="167.3" y2="170.2"/>
    <polyline class="st2" points="167.3 66 167.3 67.8 167.3 69.6 167.3 71.4 167.3 73 167.3 74.4 167.3 75.6 167.3 76.6 167.3 77.3 167.3 77.8 167.3 78"/>
    <path class="st2" d="M23.6,179.3c0,3,.9,5.9,2.5,8.5"/>
    <line class="st2" x1="20.4" y1="190.6" x2="26" y2="187.8"/>
    <path class="st2" d="M46.7,12.9c-3.6-2.2-8-2.6-12-1.1s-7.1,4.5-8.6,8.5"/>
    <line class="st2" x1="46.7" y1="12.9" x2="48.2" y2="6.7"/>
    <path class="st2" d="M48.2,6.6c-5.1-2.4-11-2.6-16.2-.6-5.3,2-9.4,6.2-11.5,11.4"/>
    <line class="st2" x1="26" y1="20.3" x2="20.4" y2="17.5"/>
    <polyline class="st2" points="46.7 12.9 134.8 12.9 133.3 6.7 48.2 6.7"/>
    <path class="st2" d="M157.9,28.7c0-3-.9-5.9-2.4-8.5"/>
    <line class="st2" x1="161.1" y1="17.5" x2="155.4" y2="20.3"/>
    <path class="st2" d="M155.5,187.8c1.6-2.5,2.4-5.5,2.4-8.5"/>
    <line class="st2" x1="155.4" y1="187.8" x2="161.1" y2="190.6"/>
    <path class="st2" d="M155.5,20.3c-1.4-4-4.6-7.1-8.6-8.5s-8.4-1-12,1.1"/>
    <path class="st2" d="M161.1,17.5c-2.1-5.2-6.3-9.4-11.6-11.4-5.3-2-11.1-1.9-16.2.6"/>
    <path class="st2" d="M133.3,201.4c5.1,2.4,11,2.6,16.2.6,5.3-2.1,9.4-6.2,11.6-11.4"/>
    <path class="st2" d="M134.9,195.1c3.6,2.1,8.1,2.6,12,1.1,4-1.4,7.1-4.5,8.6-8.5"/>
    <polyline class="st2" points="48.2 201.4 46.7 195.2 134.8 195.2 133.3 201.4 48.2 201.4"/>
    <path class="st2" d="M20.4,190.5c2.1,5.2,6.3,9.4,11.6,11.4,5.3,2.1,11.1,1.9,16.2-.6"/>
    <path class="st2" d="M26.1,187.7c1.5,4,4.6,7.1,8.6,8.5s8.4,1,12-1.1"/>
    <line class="st2" x1="23.6" y1="179.4" x2="23.6" y2="28.7"/>
    <path class="st2" d="M26.1,20.2c-1.6,2.5-2.5,5.5-2.5,8.5"/>
    <path class="st2" d="M31.6,182.8c0,4.4,3.5,7.9,7.9,7.9s7.9-3.5,7.9-7.9-3.5-7.9-7.9-7.9-7.9,3.5-7.9,7.9"/>
    <path class="st2" d="M134.2,182.8c0,4.4,3.5,7.9,7.9,7.9s7.9-3.5,7.9-7.9-3.5-7.9-7.9-7.9-7.9,3.5-7.9,7.9"/>
    <path class="st2" d="M40.8,32.9c4-.7,6.9-4.4,6.5-8.5-.3-4.1-3.8-7.2-7.9-7.2s-7.5,3.1-7.9,7.2,2.5,7.8,6.5,8.5"/>
    <path class="st2" d="M143.5,32.9c4-.7,6.9-4.4,6.5-8.5-.4-4.1-3.8-7.2-7.9-7.2s-7.5,3.1-7.9,7.2,2.5,7.8,6.5,8.5"/>
    <line class="st2" x1="170.5" y1="29" x2="170.5" y2="29"/>
    <line class="st2" x1="170.5" y1="74.8" x2="170.5" y2="74.8"/>
    <polyline class="st2" points="11 29 12.4 27.6 13.3 26.8 14.2 25.9 17.5 25.9"/>
    <polyline class="st2" points="170.5 29 169 27.6 168.2 26.8 167.3 25.9 163.9 25.9"/>
    <polyline class="st2" points="170.5 133.3 170.5 133.3 169 131.8 168.2 130.9 167.3 130.1 164.2 130.1"/>
    <line class="st2" x1="170.5" y1="179" x2="170.5" y2="179"/>
    <polyline class="st2" points="11 179 11 179 14.2 182.2 17.5 182.2"/>
    <polyline class="st2" points="163.9 182.2 167.3 182.2 170.5 179"/>
    <line class="st2" x1="167.3" y1="25.9" x2="167.3" y2="25.9"/>
    <polyline class="st2" points="164.2 78 167.3 78 170.5 74.8"/>
    <line class="st2" x1="14.2" y1="25.9" x2="14.2" y2="25.9"/>
    <line class="st2" x1="11" y1="29" x2="11" y2="29"/>
    <polyline class="st2" points="11 74.8 11 74.8 14.2 78 17.3 78"/>
    <polyline class="st2" points="11 133.3 11 133.3 12.4 131.8 13.3 130.9 14.2 130.1 17.3 130.1"/>
    <line class="st2" x1="36.7" y1="33" x2="144.7" y2="33"/>
    <path class="st2" d="M150,60.5h0"/>
    <path class="st2" d="M31.6,60.5h0"/>
    <polyline class="st2" points="170.5 133.3 167.3 130.1 164.2 130.1"/>
    <polyline class="st2" points="170.5 29 167.3 25.9 163.9 25.9"/>
    <polyline class="st2" points="11 29 14.2 25.9 17.5 25.9"/>
    <polyline class="st2" points="11 133.3 14.2 130.1 17.3 130.1"/>
  </g>
  <g>
    <path d="M105.4,163.4c-.1-.2-.6-.7-.7-.9,0-.1.2-.6.2-.9.2-1.5-1-2.6-2.5-2.4-.2,0-.6.3-.7.2-6.9-5.4-16.9-5-23.3,1.1-4.9,4.7-6.7,11.2-5,17.8.6,2.3,1.7,4.3,3.1,6.2,0,.2-.2.6-.2.9-.2,1.8,1.6,3,3.2,2.1,6.2,4.9,14.9,5.2,21.3.7,8.1-5.7,10.1-16.7,4.5-24.8h0ZM93.4,189.9c-4.5.7-9.3-.4-12.9-3.3,0-.1.1-.6.1-.9,0-1.2-1.2-2.3-2.4-2.1-.2,0-.5.2-.6.1-3.3-4.3-4.3-9.9-2.7-15.1,2.6-8.2,10.9-13,19.3-11.2,2.4.5,4.7,1.6,6.7,3.1-.3.9-.1,1.9.7,2.5.7.6,1.4.5,2.2.3,1.2,1.7,2.2,3.5,2.8,5.5,2.8,9.6-3.4,19.5-13.2,21.1h0Z"/>
    <path d="M95.4,171c-3.3,3.4-8.9,2.1-10.6-2.2-.3-.7-.3-1.2-.4-1.9,0-.4-.5-.6-.9-.3-.3.3-.1,1.2-.1,1.6,0,3.7,0,7.5,0,11.2,0,.4-.2,1.3.4,1.4.3,0,.4,0,.6-.2.2-3.9,3.7-6.8,7.6-6,2.4.4,4.4,2.4,5,4.7,0,.3.1,1.1.2,1.3.2.4.8.3.9,0v-13.6c-.1-.5-.7-.6-.9-.1-.1.5-.1,1-.2,1.4-.2,1-.9,2.1-1.6,2.9Z"/>
  </g>
  <g>
    <g id="Mankind">
      <path class="st3" d="M73.4,106.6c-1.5-4.6-1.3-4.1-1.6-4.9-.4-1.3-.8-2.6-1.3-3.9-.2-.6-.4-1.2-.8-1.7-.5-.6-1.1-.9-1.3-1-1-.5-2-.4-2.4-.3-.3,0-1.2.2-2,.9-.3.3-.6.7-.8,1.2-.4.8-.6,1.8-.9,2.7-.6,2-1.3,3.9-1.9,5.9-.3,1-.8,2.4-1.4,4.2h10.3c-.3-1-.7-2-1-3.1h-5.1c0,0,0-.2,0-.2.6-1.8,1.2-3.5,1.7-5.3.3-.9.6-1.8.9-2.8.1-.4.5-.6.9-.5.3,0,.5.3.6.6.6,1.7,1.1,3.5,1.7,5.2.6,1.7,1.1,3.4,1.7,5.2,0,.3.2.6.3.8h3.2c-.2-.7-.6-1.7-1-3h0ZM57.5,98.3c0-.4,0-.8,0-1.1-.2-1.2-.9-2-2.1-2.3-.8-.3-1.7-.3-2.6,0-.5,0-.9.3-1.3.6-.7.6-1.1,1.3-1.3,2.2-.3,1.3-.6,2.6-.9,3.8-.3,1.2-.6,2.5-.9,3.8-.1.5-.2.9-.3,1.4,0,.3-.4.5-.7.4-.3,0-.5-.2-.6-.5,0,0,0-.2,0-.3-.3-1.3-.6-2.7-.9-4-.2-.9-.4-1.7-.6-2.6-.2-.8-.3-1.6-.6-2.4-.3-1.2-1.1-2-2.3-2.3-1-.3-1.9-.2-2.9,0-.4.1-.8.3-1.1.6-.3.2-.5.5-.6.8-.4.7-.5,1.5-.5,1.8,0,1,0,5.5,0,11.6h2.9v-11.4c0-.4.2-.6.6-.7.4,0,.8,0,.9.4,0,.2.1.3.2.5.2,1.1.5,2.2.8,3.3.3,1.3.6,2.7.9,4,.2.8.3,1.5.6,2.2.4.8,1,1.5,2,1.7.8.2,1.5.2,2.3,0,.8-.2,1.5-.5,1.9-1.2.2-.4.5-.8.6-1.3.2-.8.4-1.6.6-2.4.5-2.2,1.1-4.5,1.6-6.7.1-.6.5-.8,1.1-.6.3,0,.4.3.5.6v11.4h2.9v-11.2h0ZM91.8,94.9h-3v11.3c0,0,0,.2,0,.2,0,.2-.2.4-.4.5-.4,0-.7,0-.9-.4-.1-.2-.2-.4-.3-.7-.8-1.8-1.7-3.6-2.5-5.4-.5-1.1-1-2.2-1.5-3.3-.2-.4-.4-.8-.6-1.1-.4-.6-.9-1-1.6-1.1-.9-.2-1.7-.2-2.6,0-.8.2-1.4.7-1.8,1.4-.3.5-.4,1.1-.4,1.7v11.4h0v.2h2.9c0-6.8,0-11.1,0-11.3,0,0,0-.1,0-.3,0-.2.2-.4.4-.5.4,0,.7,0,.8.4.3.7.6,1.3.9,2,.6,1.4,1.3,2.8,1.9,4.2.6,1.2,1.1,2.5,1.7,3.7.4.8,1,1.5,1.8,1.7.4.1.9.2,1.3.2.8,0,1.6,0,2.3-.5,1-.6,1.4-1.6,1.4-2.7,0-3.9,0-7.7,0-11.6v-.2h0ZM108.4,109.6h2.9v-14.7h-2.9v14.7ZM143.9,98.9c-.4-1.3-1.2-2.3-2.3-3-1.1-.6-2.3-.9-3.5-.9-2.5,0-4.9,0-7.4,0h-.2v2.9h7.1c.3,0,.6,0,1,0,1.4.2,2.3.9,2.6,2.2.4,1.4.4,2.8,0,4.3-.2.8-.6,1.5-1.4,1.8-.7.4-1.4.4-1.7.4-2.1,0-4.2,0-4.6,0v-7.1h-3v.2h0c0,2.9,0,5.8,0,8.6,0,.7.5,1.2,1.2,1.2,2,0,4,0,6,0s1.6,0,2.4-.3c1.9-.6,3.1-1.8,3.7-3.7.3-.8.4-1.6.4-2.5.1-1.5,0-2.9-.5-4.3h0ZM105.5,106.8s-.8-1.6-1.7-3.1c-.2-.2-.5-.7-1-1.2-.3-.2-.5-.3-.7-.4,0,0,0,0,.1,0,.2-.2.4-.3.6-.5.5-.5.9-1.1,1.2-1.7.7-1.4,1.4-2.8,2.2-4.3.1-.2.2-.4.3-.7h-3.2c-.4.8-.9,1.7-1.3,2.5-.4.8-.9,1.7-1.3,2.5-.1.3-.3.5-.5.6-.3.2-.7.3-.9.3-1.1,0-2.4,0-2.8,0v-6h-2.9v14.7h2.9v-5.9c.3,0,1.9,0,3.1,0,.2,0,.6,0,1,.3.2.2.4.4.5.6.7,1.3,1.4,2.7,2.1,4,.2.3.3.6.4.8h3.3c-.6-1.1-1.1-2.1-1.4-2.8h0ZM128.7,95.2v-.2h-3v11.5c0,.3-.2.6-.6.6-.4,0-.6-.2-.8-.6-.5-1.1-1-2.3-1.6-3.4-.8-1.7-1.5-3.4-2.3-5-.3-.6-.5-1.3-.9-1.9-.4-.5-.9-1-1.5-1.2-.8-.3-1.7-.3-2.5-.1-.7.1-1.3.4-1.7,1-.5.7-.7,1.4-.7,2.2v11.2h0v.4h2.9v-.2h0v-11.1c0,0,0-.2,0-.3,0-.2,0-.3.3-.4.4-.2.8,0,1,.4.8,1.8,1.6,3.5,2.4,5.3.7,1.5,1.3,3,2,4.5.3.7.7,1.2,1.4,1.6.8.5,1.7.6,2.6.5.6,0,1.2-.2,1.7-.6.8-.6,1.2-1.5,1.2-2.6,0-3.8,0-7.7,0-11.5h0Z"/>
    </g>
    <g id="For_All">
      <path class="st3" d="M72.9,75.7c-.9-.5-1.9-.8-2.9-.9-.9,0-1.8,0-2.7,0-.9,0-1.8,0-2.7.4-1.1.3-2,.9-2.7,1.8-.8,1-1.1,2.2-1.3,3.4-.2,1.3-.2,2.7,0,4,.2.9.5,1.8,1,2.7.9,1.3,2.2,2,3.7,2.3.9.2,1.8.2,2.9.2,1,0,2.1,0,3.1-.3,1.9-.5,3.2-1.7,3.8-3.5.3-.8.5-1.7.5-2.6,0-1.4,0-2.8-.4-4.1-.4-1.4-1.2-2.6-2.5-3.3h0ZM72.7,82.9c0,.6-.2,1.3-.4,1.8-.4.8-1.1,1.3-1.9,1.5-.8.2-1.5.1-2.3.2-.6,0-1.2,0-1.8,0-.9,0-1.7-.4-2.2-1.2-.3-.5-.5-1.1-.6-1.6-.2-1.2-.2-2.4.2-3.6.3-1.3,1.2-2,2.5-2.2.3,0,.6,0,1,0,.8,0,1.6,0,2.4,0,.6,0,1.2.2,1.7.4.7.4,1.1,1,1.3,1.7.3,1,.3,2,.2,3.1ZM116.3,86.5c-.3,0-.7,0-1,0-.9-.2-1.6-.6-1.8-1.4,0-.2,0-.5,0-.7v-9.1h0v-.5h-2.9v8.9c0,.5,0,.9,0,1.4.2,1.9,1.1,3.2,2.9,3.9.8.3,1.6.4,2.5.4h5.9v-2.9c0,0-.2,0-.3,0h-5.4ZM53.2,74.7c-.6,0-1.2,0-1.8.2-1.1.2-2,.8-2.6,1.7-.6.9-.9,1.8-.9,2.9,0,3.2,0,6.5,0,9.8v.2h2.9v-5.6h8.5v-2.8h-8.6c0-.6,0-1.2.1-1.8,0-.6.5-1,1-1.2.4-.2.9-.3,1.3-.3,2,0,4,0,6,0h.2v-2.9h-.8c-1.8,0-3.6,0-5.4,0h0ZM133.7,86.5h-5.2c-.4,0-.8,0-1.1,0-.6,0-1.1-.3-1.5-.8-.3-.4-.3-.9-.3-1.4v-9.1h0v-.4h-3v.3c0,3.1,0,6.2,0,9.3,0,.5,0,1.1.2,1.6.2,1,.7,1.8,1.5,2.5,1,.7,2.1,1,3.2,1,2.1,0,4.2,0,6.3,0h.1v-2.9c0,0-.1,0-.2,0h0ZM107.7,81.5c-.4-1.3-.8-2.6-1.3-3.9-.2-.6-.4-1.2-.8-1.7-.5-.6-1.1-.9-1.3-1-1-.5-2-.4-2.4-.3-.3,0-1.2.2-2,.9-.3.3-.6.7-.8,1.2-.4.8-.6,1.8-.9,2.7-.6,2-1.3,3.9-1.9,5.9-.3,1-.8,2.4-1.3,4.2h10.3c-.3-1-.7-2-1-3.1h-5.1c0,0,0-.2,0-.2.6-1.8,1.2-3.5,1.7-5.3.3-.9.6-1.8.9-2.8.1-.4.5-.6.9-.5.3,0,.5.3.6.6.6,1.7,1.1,3.5,1.7,5.2.6,1.7,1.1,3.4,1.7,5.2,0,.3.2.6.3.8h3.2c-.2-.7-.6-1.7-1-3-1.5-4.6-1.3-4-1.6-4.9h0ZM87.1,83.5c1-.4,1.7-1.1,2.2-2.1.5-1.1.6-2.2.3-3.4-.3-1.2-.9-2.1-2-2.7-.3-.2-.6-.3-.9-.4-.7-.2-1.2-.2-1.4-.2-.4,0-1.3,0-2.7,0h-5.6v2.9h2.1s5.2,0,5.2,0c.3,0,.6,0,1,0,.4,0,.7.2,1,.4.6.6.6,1.8,0,2.5-.3.4-.8.5-1.3.5h-5.4c-.3,0-.6,0-.9,0-.8.1-1.4.6-1.6,1.4,0,.3-.1.7-.1,1.1,0,1.9,0,3.7,0,5.6v.2h3v-5.5h3.5s0,0,.2,0c0,0,0,0,.1.2.8,1.4,1.6,2.8,2.4,4.1.2.4.5.8.7,1.2h3.3c-1.1-1.9-2.2-3.8-3.4-5.8.1,0,.2,0,.3,0h0Z"/>
    </g>
  </g>
</svg>