<?xml version="1.0" encoding="UTF-8"?>
<svg id="Layer_1" xmlns="http://www.w3.org/2000/svg" version="1.1" viewBox="0 0 407 202">
  <!-- Generator: Adobe Illustrator 29.3.1, SVG Export Plug-In . SVG Version: 2.1.0 Build 151)  -->
  <defs>
    <style>
      .st0 {
        fill: #d39e4e;
      }

      .st0, .st1, .st2, .st3, .st4 {
        stroke: #000;
      }

      .st0, .st1, .st4 {
        stroke-miterlimit: 10;
      }

      .st0, .st3 {
        stroke-width: 2px;
      }

      .st1, .st5 {
        fill: #333531;
      }

      .st2, .st3 {
        fill: none;
        stroke-linecap: round;
        stroke-linejoin: round;
      }

      .st6 {
        fill: #535551;
      }

      .st4 {
        fill: #08395e;
      }

      .st7 {
        fill: #b3b3b3;
      }
    </style>
  </defs>
  <path d="M391,16.2H15.8c-4.2,0-8.2,1.6-11.2,4.6C1.5,23.8-.2,27.9-.2,32.3v24.2c0,2.8,1.8,5.1,4.3,5.8v1.4H1.1v72.8c-.9,1-1.3,2.4-1.3,3.6v29.8c0,9,7.2,16.3,16.1,16.3h374.8c4.9,0,9.5-2.3,12.6-6.2,2.3-2.8,3.6-6.3,3.7-9.9V33.5c.1-.4.2-.8.2-1.2,0-8.9-7.2-16.1-16.2-16.1Z"/>
  <g>
    <path class="st4" d="M391,20H16c-6.6,0-12.1,5.5-12.1,12.3s0,0,0,0v24.1h0c0,1.1.8,2,1.9,2s2.4,1.1,2.4,2.4,0,0,0,0v6.9h4.5V25.3c0-.1,0-.3.3-.3h329.1c.1,0,.3,0,.3.3v152.9c0,.1,0,.3-.3.3H12.7c-.1,0-.3,0-.3-.3v-45.1h-4.5v2.8c0,1.3-1.1,2.4-2.4,2.4s-1.9.8-1.9,1.7,0,.1,0,.3v29.5c0,6.8,5.5,12.3,12.1,12.3s.1,0,.1,0h374.7c6.7,0,12.1-5.5,12.1-12.3V32.3h0c0-6.8-5.5-12.3-12.1-12.3h.5ZM387.5,159.1c0,.8-.7,1.5-1.3,1.5s-1.3-.7-1.3-1.5v-1.2c0-.8.7-1.5,1.3-1.5s1.3.7,1.3,1.5v1.2ZM387.5,138.3c0,.8-.7,1.5-1.3,1.5s-1.3-.7-1.3-1.5v-1.2c0-.8.7-1.5,1.3-1.5s1.3.7,1.3,1.5v1.2ZM391,120.1h-.3l-4.4-4.4-3.2,3.2h-.1l-8.1-.4h-.1l-2.3,2.1h-.3l-12.7-12.7v-.4l2.5-2.4-.3-7.7v-.3l2.3-2.4h0l.7-.7-4.8-4.8h0v-.3h0l2.3-2.4,4.7-4.7h.3l4.5,4.4h.1l.3.3.7-.7,2.3-2.4h.1l7.7.3,2.1-2.1h.4l13.1,12.4h0v.4l-2.1,2.1h0v.3l.3,8.3v.3l-3.1,3.1,2.1,2,2.3,2.3h0v.3l-7.1,7.1h.1ZM398.8,164h-2.8c-.7,0-1.2-.5-1.2-1.3s.5-1.2,1.2-1.3h2.8c.7,0,1.3.5,1.3,1.3s-.5,1.3-1.3,1.3ZM398.8,134.8h-2.7c-.7,0-1.3-.5-1.3-1.3s.5-1.2,1.2-1.3h2.8c.7,0,1.3.5,1.3,1.3s-.5,1.3-1.3,1.3h0Z"/>
    <polygon class="st0" points="13 67.7 10.8 67.7 9 67.7 7.4 67.7 6.2 67.7 5.4 67.7 5.1 67.7 5.1 133.6 5.4 133.6 6.2 133.6 7.4 133.6 9 133.6 10.8 133.6 13 133.6 13 67.7"/>
    <path class="st7" d="M40.4,41.2c-2.1,0-3.9,1.7-3.9,3.9s1.7,3.9,3.9,3.9,3.9-1.7,3.9-3.9-1.7-3.9-3.9-3.9Z"/>
    <rect class="st7" x="51" y="41.6" width="278.3" height="120.5"/>
    <path class="st7" d="M46.2,52.5v114.4h287.7V36.9H32.8v15.3h13.1c0,0,.3,0,.3.3h0ZM50.4,41.3c0,0,0-.3.3-.3h278.8c.1,0,.3,0,.3.3v121.1c0,.1,0,.3-.3.3H50.7c0,0-.3,0-.3-.3V41.3ZM40.4,49.6c-2.4,0-4.4-2-4.4-4.4s2-4.4,4.4-4.4,4.4,2,4.4,4.4-2,4.4-4.4,4.4Z"/>
    <path class="st6" d="M341.6,178.1V25.6H28.3v31.6h13.1c0,0,.3,0,.3.3v120.5h300-.1ZM32.6,52.8c-.1,0-.3,0-.3-.3v-15.9c0,0,0-.3.3-.3h301.6c.1,0,.3,0,.3.3v130.5c0,.1,0,.3-.3.3H45.9c0,0-.3,0-.3-.3V52.8h-13.1,0Z"/>
    <rect class="st6" x="23.5" y="75.1" width="5.7" height="53.5"/>
    <path class="st7" d="M13,25.6v152.4h28V57.7h-13.1c-.1,0-.3,0-.3-.3v-31.9h-14.7,0ZM29.4,74.5c.1,0,.3,0,.3.3v54c0,.1,0,.3-.3.3h-6.3c-.1,0-.3,0-.3-.3v-54c0,0,0-.3.3-.3h6.3Z"/>
    <path class="st7" d="M398.8,162h-2.8c-.4,0-.8.3-.8.8s.3.8.8.8h2.8c.4,0,.8-.3.8-.8s-.3-.8-.8-.8Z"/>
    <path class="st7" d="M386.2,136.1c-.4,0-.8.4-.8.9v1.2c0,.5.4.9.8.9s.8-.4.8-.9v-1.2c0-.5-.4-.9-.8-.9Z"/>
    <path class="st7" d="M386.2,156.9c-.4,0-.8.4-.8.9v1.2c0,.5.4.9.8.9s.8-.4.8-.9v-1.2c0-.5-.4-.9-.8-.9Z"/>
    <path class="st7" d="M398.8,132.8h-2.8c-.4,0-.8.3-.8.8s.3.8.8.8h2.7c.4,0,.8-.3.8-.8s-.3-.8-.8-.8h.1,0Z"/>
    <path class="st7" d="M386.2,156.4c-.8,0-1.3.7-1.3,1.5v1.2c0,.8.7,1.5,1.3,1.5s1.3-.7,1.3-1.5v-1.2c0-.8-.7-1.5-1.3-1.5ZM387,159.1c0,.5-.4.9-.8.9s-.8-.4-.8-.9v-1.2c0-.5.4-.9.8-.9s.8.4.8.9v1.2Z"/>
    <path class="st7" d="M398.8,161.5h-2.8c-.7,0-1.2.5-1.2,1.3s.5,1.2,1.2,1.3h2.8c.7,0,1.3-.5,1.3-1.3s-.5-1.3-1.3-1.3ZM398.8,163.5h-2.8c-.4,0-.8-.3-.8-.8s.3-.8.8-.8h2.8c.4,0,.8.3.8.8s-.3.8-.8.8Z"/>
    <path class="st7" d="M398.8,132.3h-2.8c-.7,0-1.2.5-1.2,1.3s.5,1.3,1.3,1.3h2.7c.7,0,1.3-.5,1.3-1.3s-.5-1.3-1.3-1.3h0ZM398.8,134.3h-2.7c-.4,0-.8-.3-.8-.8s.3-.8.8-.8h2.8c.4,0,.8.3.8.8s-.3.8-.8.8h-.1,0Z"/>
    <path class="st7" d="M386.2,135.6c-.8,0-1.3.7-1.3,1.5v1.2c0,.8.7,1.5,1.3,1.5s1.3-.7,1.3-1.5v-1.2c0-.8-.7-1.5-1.3-1.5ZM387,138.3c0,.5-.4.9-.8.9s-.8-.4-.8-.9v-1.2c0-.5.4-.9.8-.9s.8.4.8.9v1.2Z"/>
    <path class="st7" d="M22.8,74.8v54c0,.1,0,.3.3.3h6.3c.1,0,.3,0,.3-.3v-54c0,0,0-.3-.3-.3h-6.3c-.1,0-.3,0-.3.3ZM23.5,75.1h5.7v53.5h-5.7v-53.5Z"/>
    <path class="st7" d="M50.7,162.8h278.8c.1,0,.3,0,.3-.3V41.3c0,0,0-.3-.3-.3H50.7c0,0-.3,0-.3.3v121.1c0,.1,0,.3.3.3h0ZM51,41.6h278.3v120.5H51V41.6Z"/>
    <path class="st7" d="M40.4,40.7c-2.4,0-4.4,2-4.4,4.4s2,4.4,4.4,4.4,4.4-2,4.4-4.4-2-4.4-4.4-4.4ZM40.4,49.1c-2.1,0-3.9-1.7-3.9-3.9s1.7-3.9,3.9-3.9,3.9,1.7,3.9,3.9-1.7,3.9-3.9,3.9Z"/>
    <path class="st7" d="M45.6,167.2c0,.1,0,.3.3.3h288.3c.1,0,.3,0,.3-.3V36.7c0,0,0-.3-.3-.3H32.6c-.1,0-.3,0-.3.3v15.9c0,0,0,.3.3.3h13.1v114.4h-.1ZM32.8,52.3v-15.3h301.1v130H46.2V52.5c0,0,0-.3-.3-.3h-13.1Z"/>
    <path class="st2" d="M387.2,157.9c0-.7-.5-1.2-1.1-1.2s-1.1.5-1.1,1.2v1.2c0,.7.5,1.2,1.1,1.2s1.1-.5,1.1-1.2v-1.2Z"/>
    <path class="st2" d="M3.6,169.7c0,6.9,5.6,12.5,12.5,12.5"/>
    <line class="st2" x1="16" y1="182.3" x2="391" y2="182.3"/>
    <path class="st2" d="M391,182.3c6.9,0,12.5-5.6,12.5-12.5"/>
    <line class="st2" x1="403.5" y1="169.7" x2="403.5" y2="32.3"/>
    <path class="st2" d="M403.5,32.3c0-6.9-5.6-12.5-12.5-12.5"/>
    <line class="st2" x1="391" y1="19.7" x2="16" y2="19.7"/>
    <path class="st2" d="M16,19.7c-6.8,0-12.4,5.6-12.4,12.6"/>
    <line class="st2" x1="3.5" y1="32.3" x2="3.5" y2="56.8"/>
    <path class="st2" d="M3.6,56.8c0,1.2.9,2,2,2"/>
    <path class="st2" d="M7.8,60.9c0-1.2-.9-2-2-2"/>
    <line class="st2" x1="7.6" y1="61.1" x2="7.6" y2="68.4"/>
    <line class="st2" x1="7.6" y1="133.1" x2="7.6" y2="136"/>
    <path class="st2" d="M5.6,138c1.2,0,2-.9,2-2.1"/>
    <path class="st2" d="M5.6,138c-1.2,0-2,.9-2,2.1"/>
    <line class="st2" x1="3.5" y1="140.1" x2="3.5" y2="169.7"/>
    <line class="st2" x1="398.7" y1="163.7" x2="396" y2="163.7"/>
    <path class="st2" d="M396,161.7c-.5,0-1.1.4-1.1,1.1s.4,1.1,1.1,1.1"/>
    <line class="st2" x1="396" y1="161.7" x2="398.7" y2="161.7"/>
    <path class="st2" d="M398.8,163.7c.5,0,1.1-.4,1.1-1.1s-.4-1.1-1.1-1.1"/>
    <line class="st2" x1="396" y1="132.5" x2="398.7" y2="132.5"/>
    <path class="st2" d="M396,132.5c-.5,0-1.1.4-1.1,1.1s.4,1.1,1.1,1.1h2.7c.5,0,1.1-.4,1.1-1.1s-.4-1.1-1.1-1.1"/>
    <path class="st2" d="M387.2,137.1c0-.7-.5-1.2-1.1-1.2s-1.1.5-1.1,1.2v1.2c0,.7.5,1.2,1.1,1.2s1.1-.5,1.1-1.2v-1.2Z"/>
    <path class="st3" d="M403.2,32.3c0-6.8-5.5-12.1-12.1-12.1H16c-6.8,0-12.2,5.4-12.2,12.1s0,0,0,0v24.1h0c0,1.1.8,2,1.9,2s2.4,1.1,2.4,2.4,0,0,0,0v6.7h-2.7v65.9h2.7v2.4c0,1.3-1.1,2.4-2.4,2.4s-1.9.8-1.9,1.7,0,.1,0,.3v29.5c0,6.8,5.5,12.3,12.1,12.3s.1,0,.1,0h374.7c6.7,0,12.1-5.5,12.1-12.3V32.3h.4Z"/>
    <polyline class="st2" points="329.4 41.3 329.4 162.4 50.7 162.4 50.7 41.3 329.4 41.3"/>
    <line class="st2" x1="41.4" y1="178.4" x2="41.4" y2="57.5"/>
    <polyline class="st2" points="41.4 57.5 28 57.5 28 25.3"/>
    <polyline class="st2" points="29.4 74.8 29.4 128.9 23.1 128.9 23.1 74.8 29.4 74.8"/>
    <polyline class="st2" points="341.9 178.4 341.9 25.3 12.7 25.3 12.7 178.4 341.9 178.4"/>
    <polyline class="st2" points="329.4 162.4 50.7 162.4 50.7 41.3 329.4 41.3 329.4 162.4"/>
    <path class="st2" d="M36.3,45.2c0,2.3,1.9,4.1,4.1,4.1s4.1-1.9,4.1-4.1-1.9-4.1-4.1-4.1-4.1,1.9-4.1,4.1"/>
    <polyline class="st2" points="45.9 52.5 45.9 167.2 334.2 167.2 334.2 36.7 32.6 36.7 32.6 52.5 45.9 52.5"/>
    <polyline class="st2" points="32.6 36.7 334.2 36.7 334.2 167.2 45.9 167.2 45.9 52.5 32.6 52.5 32.6 36.7"/>
    <line class="st2" x1="28" y1="57.5" x2="41.4" y2="57.5"/>
    <path class="st1" d="M391,120.1h-.3l-4.4-4.4-3.2,3.2h-.1l-8.1-.4h-.1l-2.3,2.1h-.3l-12.7-12.7v-.4l2.5-2.4-.3-7.7v-.3l2.3-2.4h0l.7-.7-4.8-4.8h0v-.3h0l2.3-2.4,4.7-4.7h.3l4.5,4.4h.1l.3.3.7-.7,2.3-2.4h.1l7.7.3,2.1-2.1h.4l13.1,12.4h0v.4l-2.1,2.1h0v.3l.3,8.3v.3l-3.1,3.1,2.1,2,2.3,2.3h0v.3l-7.1,7.1h.1Z"/>
    <g>
      <path class="st7" d="M379.1,93.2c-4.4,0-8,3.6-8,8s3.6,8,8,8,8-3.6,8-8-3.6-8-8-8ZM379.1,107.7c-3.6,0-6.5-2.9-6.5-6.5s2.9-6.5,6.5-6.5,6.5,2.9,6.5,6.5-2.9,6.5-6.5,6.5Z"/>
      <path class="st7" d="M371.5,87.2h-.1c0,0,0-.3-.1-.3l-4.4-4.3-4.5,4.5-2.1,2.1,4.5,4.5,6.8-6.7h0v.2Z"/>
      <path class="st7" d="M395.9,96.3l2-2-12.7-12-1.6,1.6h0l12.3,12.3h0Z"/>
      <path class="st6" d="M393,108.1h.1l3.1-3.1-.3-8h-.1c-.1,0,0,0,0,0l-12.3-12.3h-.7l-7.5-.3-2,2.1.4.4v.3l-2.9,5.9h0l-5.9,2.9h-.1l-.4-.4-2,2.1.3,7.5h0v.4h0l12.5,12.7,7.6.3v-.3h.4l3.2-3.1h0l6.9-6.9h0c0,0-.4,0-.4,0h0ZM379.1,109.9c-4.8,0-8.7-3.9-8.7-8.7s3.9-8.7,8.7-8.7,8.7,3.9,8.7,8.7-3.9,8.7-8.7,8.7Z"/>
      <polygon class="st7" points="393.1 108.8 386.6 115.3 390.7 119.6 397.4 112.9 395.2 110.8 393.1 108.8"/>
      <path class="st7" d="M370.3,92.7l2.8-5.6-.3-.3-.7.7h0l-7.9,7.7.3.3,5.6-2.8h.2Z"/>
      <polygon class="st7" points="359.8 107.9 371.9 120.1 373.9 118.1 361.8 105.9 359.8 107.9"/>
      <path class="st7" d="M379.1,95.3c-3.3,0-6,2.7-6,6s2.7,6,6,6,6-2.7,6-6-2.7-6-6-6ZM383.4,103.3c0,1.3-1.1,2.3-2.4,2.3h-4c-1.3,0-2.4-1.1-2.3-2.4h0v-4c0-1.3,1.2-2.3,2.4-2.3h3.9c1.3,0,2.4,1.1,2.3,2.4v4h.1Z"/>
      <path class="st1" d="M381,97.5h-3.9c-.5,0-.9,0-1.3.5-.4.3-.5.8-.5,1.3v4c0,.5,0,.9.4,1.3s.8.5,1.3.5h4c.5,0,.9,0,1.3-.5.4-.3.5-.8.5-1.3v-4c0-1.1-.8-1.9-1.7-1.9h-.1,0Z"/>
      <path class="st7" d="M398,112.9h0c0,0-2.3-2.4-2.3-2.4l-2.1-2,3.1-3.1v-.3l-.3-8.3h0c0,0,2.1-2.3,2.1-2.3v-.3c0-.3,0,0,0,0l-13.1-12.4h-.4l-2.1,2.1-7.7-.3h-.1l-2.3,2.4-.7.7-.3-.3h-.1l-4.5-4.4h-.3l-4.7,4.7-2.3,2.4h0v.3h0l4.8,4.8-.7.7h0l-2.3,2.4v.3l.3,7.7-2.5,2.4v.4l12.7,12.7h.3l2.3-2.1h.1l8.1.4h.1l3.2-3.2,4.4,4.4h.3l7.1-7.1h0c0,0-.1-.3-.1-.3h0ZM385.1,82.4l12.7,12-2,2-12.3-12.3h0l1.6-1.6h0ZM360.3,89.3l2.1-2.1,4.5-4.5,4.4,4.3h.3c0,0-6.8,6.8-6.8,6.8l-4.5-4.5h0ZM372,87.3h0l.7-.7.3.3-2.8,5.6-5.6,2.8-.3-.3,7.9-7.7h-.2ZM371.9,120.1l-12.3-12.3,2-2,12.3,12.3-2,2ZM385.9,115.2h0l-3.2,3.1h0c0-.3-.3-.3-.4,0v.3l-7.6-.3-12.5-12.5h0v-.5h0l-.3-7.5,2-2.1.4.4h.1c.1,0,0,0,0,0l5.9-2.9h0l2.9-5.9v-.3l-.4-.4,2-2.1,7.5.3h.7l12.3,12.3h0c0,.3,0,0,.1,0h0l.3,8.1-3.1,3.1h-.1c0,0-6.9,7.1-6.9,7.1h.4v-.2ZM390.7,119.6l-4.1-4.3,6.7-6.7,2.1,2.1,2.1,2.1-6.7,6.7h-.1Z"/>
      <path class="st7" d="M379.1,94.8c-3.6,0-6.5,2.9-6.5,6.5s2.9,6.5,6.5,6.5,6.5-2.9,6.5-6.5-2.9-6.5-6.5-6.5ZM379.1,107.2c-3.3,0-6-2.7-6-6s2.7-6,6-6,6,2.7,6,6-2.7,6-6,6Z"/>
      <path class="st7" d="M381,96.9h-3.9c-1.3,0-2.3,1.1-2.4,2.3v4h0c0,1.3,1.1,2.4,2.3,2.4h4c1.3,0,2.3-1.1,2.4-2.3v-4c0-1.3-1.1-2.4-2.3-2.4h-.1ZM382.7,103.3c0,.5-.1.9-.5,1.2s-.8.5-1.3.5h-4c-.5,0-.9-.3-1.3-.5s-.5-.8-.5-1.3v-4c0-.5.3-.9.7-1.3s.8-.5,1.3-.5h3.9c.9,0,1.7.8,1.7,1.9v4h.1-.1Z"/>
      <path class="st7" d="M379.1,92.7c-4.8,0-8.7,3.9-8.7,8.7s3.9,8.5,8.7,8.5,8.7-3.9,8.7-8.7-3.9-8.7-8.7-8.5ZM379.1,109.3c-4.4,0-8-3.6-8-8s3.6-8,8-8,8,3.6,8,8-3.6,8-8,8Z"/>
      <line class="st2" x1="371.5" y1="86.7" x2="371.9" y2="87.2"/>
      <line class="st2" x1="382.8" y1="118.8" x2="382.6" y2="118.4"/>
      <polyline class="st2" points="372.8 86.3 373.4 86.9 370.4 92.8 364.6 95.7 363.9 95.1"/>
      <polyline class="st2" points="361.6 97.5 361.9 105.7 374.6 118.4 382.8 118.8 385.1 116.4 394 107.6 396.3 105.2 396 96.9 383.4 84.1 375.1 83.9 372.8 86.3 363.9 95.1 361.6 97.5"/>
      <polyline class="st2" points="386.2 115.3 390.7 120 397.8 112.9 395.5 110.7 393.1 108.3"/>
      <polyline class="st2" points="366.8 82.3 364.6 84.5 362.2 86.9 359.9 89.3"/>
      <line class="st2" x1="364.8" y1="94.3" x2="359.9" y2="89.3"/>
      <line class="st2" x1="366.8" y1="82.3" x2="371.4" y2="86.7"/>
      <polyline class="st2" points="361.9 105.2 359.4 107.9 371.9 120.5 374.3 118.3"/>
      <polyline class="st2" points="395.8 96.7 398.2 94.3 385.1 82 382.8 84.3"/>
      <path class="st2" d="M385.2,101.2c0-3.5-2.8-6.3-6.3-6.3s-6.3,2.8-6.3,6.3,2.8,6.3,6.3,6.3,6.3-2.8,6.3-6.3"/>
      <path class="st2" d="M375,103.2c0,1.2.9,2.1,2,2.1h4c1.2,0,2.1-.9,2.1-2v-4c0-1.2-.9-2.1-2-2.1h-3.9c-1.2,0-2.1.9-2.1,2v4h-.1Z"/>
      <path class="st2" d="M387.4,101.2c0-4.7-3.7-8.3-8.3-8.3s-8.3,3.7-8.3,8.3,3.7,8.3,8.3,8.3,8.3-3.7,8.3-8.3"/>
    </g>
    <g>
      <path class="st5" d="M279,150h0c0,4-3.3,7.3-7.3,7.3H108.6c-4,0-7.3-3.3-7.3-7.3h177.7Z"/>
      <g>
        <path class="st5" d="M127.9,98h6.7l-2.8,13.2c1.6-1.9,4-3.3,7.5-3.3,5.3,0,8.1,4,8.1,9.5s-4.3,16.8-13.6,16.8-5.5-1.3-6.3-2.9c0,.7-.4,1.9-.7,2.4h-6.5c.4-1.7.9-3.9,1.5-6.5l6.1-29.2h0ZM140.3,118.1c0-3.2-1.3-4.8-4.3-4.8s-5.7,2.5-6.8,7.9c-.9,4.9,0,7.6,3.9,7.6s7.1-6.5,7.1-10.7c0,0,.1,0,.1,0Z"/>
        <path class="st5" d="M171.5,127.6c-.5,2.7-1.1,5.5-1.1,6.3h-6.5c0-.7.3-2,.4-2.9-1.2,1.6-2.9,3.3-7.7,3.3s-7.1-3.5-7.1-6.5c0-7.1,6.1-8.9,11.7-9.6,2.1-.3,4.1-.3,5.6-.3l.3-1.2c.4-1.9.4-4.3-3.2-4.3s-3.7,1.7-4.3,2.9h-6.8c.9-4.1,3.7-7.6,11.6-7.6s10.7,2.5,9.3,9.2l-2.3,10.4h0v.3h.1ZM166,122.4c-1.6,0-3.1,0-4.4.3-3.7.5-5.2,1.7-5.2,3.9s.9,2.5,3.1,2.5c4.5,0,5.7-3.7,6.4-6.4v-.4h.1,0Z"/>
        <path class="st5" d="M207,98l-6.1,28.9c-.5,2.3-1.1,4.5-1.5,6.9h-6.4c0-.9.1-1.7.4-2.9-1.6,2.3-4,3.5-7.3,3.5-5.5,0-8.4-3.9-8.4-10s4.7-16.3,13.5-16.3,5.9,1.5,6.5,2.7l2.7-12.5h6.7v-.3h0ZM184.7,123.5c0,3.3,1.3,5.2,4.1,5.2,4.1,0,6.1-3.5,7.2-8.5.8-4.3-.4-6.7-4.1-6.7s-7.2,5.5-7.2,10h0Z"/>
        <path class="st5" d="M229.1,130.1c-1.7,8.3-4,13.9-13.9,13.9s-10.4-5.1-10.4-8h6.8c0,1.6,1.1,3.1,4.1,3.1s5.3-2.4,6.5-7.7v-.8c-1.5,2.1-3.6,3.1-6.9,3.1-5.5,0-8.4-4-8.4-9.9s4.8-15.7,12.8-15.7,6,1.5,6.7,3.1c.3-.8.7-2,.8-2.5h6.4c-.4,1.9-.9,4.3-1.5,6.4l-3.3,15.3h.3v-.3ZM214,123.2c0,3.1,1.3,4.9,4.1,4.9s5.7-2.9,6.8-7.6c.8-3.5.5-7.2-4-7.2s-6.9,5.3-6.9,9.9h0Z"/>
        <path class="st5" d="M244,108.4c.9,10.8,1.3,17.3,1.5,19.9h0c1.2-2.8,4.1-9.3,9.3-19.9h6.9l-13.9,26.5c-4.3,8.3-7.1,9.1-12.3,9.1s-2.4-.1-3.3-.3l1.2-5.5c.4,0,1.2.3,2.3.3,3.1,0,4-1.2,5.1-3.1l-3.3-26.8h6.7v-.3h-.2Z"/>
      </g>
      <g>
        <path class="st5" d="M202.2,76.1c-.8,0-1.2.7-1.3,1.5h2.5c0-.8-.4-1.5-1.2-1.5Z"/>
        <path class="st5" d="M186.8,79.2c0,.5.3.9.9.9,1.2,0,1.3-.8,1.3-1.7h0c0,0-.8,0-.8,0-.9,0-1.5.3-1.5.9h.1Z"/>
        <path class="st5" d="M209.9,59.2c-2.1,0-3.3,1.7-3.3,4.4s1.2,4.4,3.3,4.4,3.3-1.7,3.3-4.4-1.2-4.4-3.3-4.4Z"/>
        <path class="st5" d="M271.6,46.5H108.6c-4,0-7.3,3.3-7.3,7.3v32.9h177.7v-32.9c0-4-3.3-7.3-7.3-7.3h-.1ZM193.5,52.1h2.4v17.5h-2.4v-17.5ZM163.9,53.1h2.4v6.8h8.3v-6.8h2.4v16.5h-2.4v-7.6h-8.3v7.6h-2.4v-16.5ZM171.6,80.7h-.9v-3.2c0-.5-.3-1.2-.9-1.2s-1.1.5-1.1,1.5v2.9h-.9v-3.2c0-.7-.1-1.2-.9-1.2s-1.2.7-1.2,1.6v2.8h-.9v-5.2h.9v.8c.3-.4.7-.9,1.5-.9s1.2.4,1.5.9c.3-.5.8-.9,1.6-.9s1.6.5,1.6,1.9v3.3h-.3ZM175.4,80.9c-.5,1.5-.9,1.9-2,1.9s-.4,0-.5,0v-.8h.4c.7,0,.9-.3,1.2-1.1l-1.9-5.3h1.1c.8,2.3,1.2,3.7,1.3,4.3h0c.1-.5.5-1.7,1.3-4.3h1.1l-1.9,5.3h-.1ZM184.8,80.7h-.9v-3.2c0-.7-.3-1.2-1.1-1.2s-1.3.7-1.3,1.6v2.8h-.9v-5.2h.9v.8c.1-.4.7-.9,1.6-.9s1.7.7,1.7,2v3.3h0ZM189.2,80.7v-.7c-.1.3-.5.8-1.6.8s-1.7-.8-1.7-1.6c0-1.2.9-1.7,2.4-1.7h.8v-.4c0-.4-.1-.9-1.1-.9s-.9.4-1.1.8h-.9c0-.8.5-1.6,2-1.6s2,.5,2,1.7v3.6h-.9s.1,0,.1,0ZM190.8,64h-8.4c0,2.3,1.2,4,3.2,4s2.4-.9,2.8-1.7h2.4c-.5,1.6-1.7,3.7-5.2,3.7s-5.5-3.1-5.5-6.3,1.9-6.5,5.6-6.5,5.2,3.1,5.2,5.7,0,.7,0,1.1h-.1ZM198.7,80.7h-.9v-3.2c0-.5-.1-1.2-.9-1.2s-1.2.5-1.2,1.5v2.9h-.9v-3.2c0-.7-.1-1.2-.9-1.2s-1.2.7-1.2,1.6v2.8h-.9v-5.2h.9v.8c.3-.4.7-.9,1.5-.9s1.2.4,1.5.9c.3-.5.8-.9,1.6-.9s1.6.5,1.6,1.9v3.3h-.2ZM199.2,52.1h2.4v17.5h-2.4v-17.5ZM204.4,78.3h-3.6c0,.9.5,1.7,1.3,1.7s1.1-.4,1.2-.8h1.1c-.1.7-.8,1.6-2.1,1.6s-2.3-1.3-2.3-2.7.8-2.8,2.4-2.8,2.3,1.3,2.3,2.4,0,.3,0,.4h-.3v.2ZM209,80.7h-.9v-5.1h.9v5.1ZM209,74.4h-.9v-1.1h.9v1.1ZM212.2,80.8c-1.3,0-2-.7-2.1-1.6h.9c.1.5.5.8,1.2.8s.9-.3.9-.7-.3-.7-1.2-.9c-1.5-.4-1.9-.8-1.9-1.6s.5-1.5,1.9-1.5,1.9.8,2,1.5h-.9c0-.3-.3-.8-1.1-.8s-.8.3-.8.7.1.5,1.1.8c1.6.4,1.9.9,1.9,1.6s-.7,1.6-2,1.6h.1ZM209.9,70c-3.5,0-5.6-2.7-5.6-6.4s2.1-6.4,5.7-6.4,5.6,2.5,5.6,6.4-2,6.4-5.7,6.4h0Z"/>
        <path class="st5" d="M185.5,59.1c-2,0-2.9,1.5-3.1,3.3h6c0-1.9-.9-3.3-2.9-3.3Z"/>
      </g>
    </g>
  </g>
</svg>