<?xml version="1.0" encoding="UTF-8"?>
<svg id="Layer_1" data-name="Layer 1" xmlns="http://www.w3.org/2000/svg" viewBox="0 0 130.35 150">
  <defs>
    <style>
      .cls-1 {
        fill: #d39e4e;
      }

      .cls-2 {
        fill: none;
      }

      .cls-3 {
        fill: #535551;
      }

      .cls-4 {
        fill: #b3b3b3;
      }

      .cls-5 {
        fill: #333531;
      }
    </style>
  </defs>
  <path class="cls-2" d="M12.07,9.93s-.05.05-.07.08h0s.07-.08.07-.08Z"/>
  <path class="cls-5" d="M17.03,143.92c-.18-.17-.34-.36-.51-.54.17.18.33.37.51.54Z"/>
  <path class="cls-5" d="M16.06,142.88c-.21-.24-.4-.5-.59-.76.19.26.38.51.59.76Z"/>
  <path class="cls-5" d="M14.43,140.54c-.19-.34-.36-.68-.52-1.04.16.35.33.7.52,1.04Z"/>
  <polygon class="cls-5" points="17.09 137.68 13.8 139.28 13.8 139.28 17.09 137.68 17.09 137.68"/>
  <path class="cls-5" d="M18.11,144.86c-.13-.11-.26-.23-.39-.34.13.11.25.23.39.34Z"/>
  <path class="cls-5" d="M15.19,141.75c-.21-.3-.4-.62-.59-.93.19.32.38.63.59.93Z"/>
  <path class="cls-5" d="M106.38,2.32c.25.06.51.1.76.17-.25-.07-.51-.12-.76-.17Z"/>
  <path class="cls-5" d="M111.13,4.29c.19.13.38.27.56.4-.19-.13-.37-.28-.56-.4Z"/>
  <path class="cls-5" d="M15.43,16.08s-.02.08-.03.12c0-.04.02-.08.03-.12Z"/>
  <path class="cls-5" d="M19.28,145.71c-.09-.06-.17-.12-.25-.18.09.06.16.12.25.18Z"/>
  <path class="cls-5" d="M17.59,138.71s0,0,0,0c0,0,0,0,0,0Z"/>
  <path class="cls-5" d="M104.69,2.05c.34.03.69.07,1.03.13-.34-.06-.68-.09-1.03-.13Z"/>
  <path class="cls-5" d="M109.89,3.57s0,0-.01,0c.14.07.27.16.41.23-.13-.07-.26-.16-.39-.23Z"/>
  <path class="cls-5" d="M18.18,139.66s.02.02.03.04c0-.01-.02-.02-.03-.04Z"/>
  <polygon class="cls-5" points="32.23 143.16 32.23 143.16 32.23 143.16 32.23 143.16"/>
  <path class="cls-5" d="M30.99,143.7s.03-.01.05-.02c-.02,0-.03.01-.05.02Z"/>
  <polygon class="cls-5" points="13.78 10.77 13.78 10.77 17.07 12.37 17.07 12.36 17.07 12.37 13.78 10.77"/>
  <path class="cls-5" d="M31.18,147.47c-.24.07-.48.14-.73.2.24-.05.48-.13.73-.2Z"/>
  <path class="cls-5" d="M15.32,8.07c.23-.32.47-.64.72-.94-.26.3-.49.62-.72.94Z"/>
  <path class="cls-5" d="M19.61,8.66c.05-.05.1-.09.16-.14-.05.05-.11.09-.16.14Z"/>
  <path class="cls-5" d="M26.51,5.65c.13,0,.25-.02.38-.03-.13,0-.25.02-.38.03Z"/>
  <path class="cls-5" d="M113.38,6.08c.26.25.5.51.73.78-.24-.27-.48-.53-.73-.78Z"/>
  <path class="cls-5" d="M20.47,142.08c.11.08.22.15.33.23-.11-.08-.22-.15-.33-.23Z"/>
  <path class="cls-5" d="M18.86,140.54s.06.06.09.1c-.03-.03-.06-.06-.09-.1Z"/>
  <path class="cls-5" d="M21.41,142.73c.17.11.36.2.54.3-.18-.1-.36-.19-.54-.3Z"/>
  <path class="cls-5" d="M29.47,144.13c.12-.03.24-.04.36-.07-.12.03-.24.05-.36.07Z"/>
  <path class="cls-5" d="M22.42,143.29c.34.17.69.31,1.05.44-.36-.13-.71-.28-1.05-.44Z"/>
  <path class="cls-5" d="M32.79,146.92c-.32.13-.65.26-.98.37.33-.11.66-.24.98-.37Z"/>
  <path class="cls-5" d="M105.16,5.8c-.17-.03-.34-.07-.52-.09.17.02.34.06.52.09Z"/>
  <path class="cls-5" d="M106.88,6.24c-.36-.13-.73-.24-1.1-.33.37.09.74.2,1.1.33Z"/>
  <path class="cls-5" d="M102.59,5.64c-.06,0-.12,0-.18,0,.06,0,.12,0,.18,0Z"/>
  <path class="cls-5" d="M101.38,5.77s-.05,0-.07.01c.02,0,.05,0,.07-.01Z"/>
  <path class="cls-5" d="M108,6.71c-.34-.17-.7-.32-1.06-.45.36.13.72.28,1.06.45Z"/>
  <path class="cls-5" d="M109.01,7.27c-.17-.11-.35-.19-.52-.29.18.1.35.19.52.29Z"/>
  <path class="cls-5" d="M109.94,7.92c-.1-.08-.2-.14-.3-.21.1.07.2.14.3.21Z"/>
  <path class="cls-5" d="M100.23,6.03s0,0,0,0c0,0,0,0,0,0Z"/>
  <path class="cls-5" d="M11.33,49.73c.04-.12.07-.25.1-.37-.03.12-.07.25-.11.37,0,.02-.02.03-.03.04v5.48h0v-5.48s.02-.02.03-.04Z"/>
  <path class="cls-5" d="M11.3,23.06v-3.6s0,0,0,0v3.6s.02.03.03.05c.06.2.12.4.17.6-.05-.2-.11-.4-.17-.6,0-.02-.02-.04-.03-.05Z"/>
  <path class="cls-5" d="M11.33,126.88c.04-.12.07-.25.1-.37-.03.12-.07.25-.11.37,0,.02-.02.03-.03.04v3.61s0,0,0,0v-3.61s.02-.02.03-.04Z"/>
  <path class="cls-5" d="M12.83,137.43s.01.02.02.03c-.05-.11-.1-.23-.15-.34.03.06.05.13.08.19.02.04.04.08.06.12Z"/>
  <path class="cls-5" d="M11.3,100.22v-5.41h0v5.41s.02.03.03.05c.06.2.12.4.17.6-.05-.2-.11-.4-.17-.6,0-.02-.02-.04-.03-.05Z"/>
  <polygon class="cls-5" points="3.21 46.78 3.21 46.78 3.21 46.78 3.21 46.78"/>
  <path class="cls-5" d="M114.36,7.12c.26.31.5.63.74.96-.24-.33-.48-.65-.74-.96Z"/>
  <rect class="cls-5" x="5.68" y="26.13" width="0" height="20.66"/>
  <rect class="cls-5" x="5.68" y="103.28" width="0" height="20.66"/>
  <path class="cls-5" d="M2.13,123.33s0,0,0,0c.02.04.05.08.08.11,0,0,0,0,0,0-.03-.04-.06-.07-.08-.12Z"/>
  <path class="cls-5" d="M115.99,9.47c.21.37.4.76.57,1.15-.18-.39-.36-.78-.57-1.15Z"/>
  <path class="cls-5" d="M115.23,8.25c.24.35.47.72.68,1.09-.21-.37-.44-.74-.68-1.09Z"/>
  <path class="cls-5" d="M20.54,146.43s0,0,0,0c-.04-.02-.08-.05-.12-.07.04.02.08.05.12.07Z"/>
  <path class="cls-5" d="M112.24,10.35s0-.01-.01-.02c0,0,0,.01.01.02Z"/>
  <path class="cls-5" d="M111.56,9.46s-.04-.05-.06-.07c.02.02.04.05.06.07Z"/>
  <path class="cls-5" d="M2.44,123.68s.08.06.12.08c0,0,0,0,0,0-.05-.02-.08-.06-.13-.09,0,0,0,0,0,0Z"/>
  <path class="cls-5" d="M2.74,123.82s0,0,0,0c.08.02.15.05.24.05,0,0,0,0,0,0,0,0,0,0,0,0-.09,0-.16-.03-.24-.05Z"/>
  <polygon class="cls-5" points="3.21 123.93 3.21 123.93 3.21 123.93 3.21 123.93"/>
  <path class="cls-5" d="M112.3,5.13c.23.19.45.39.67.59-.22-.2-.44-.4-.67-.59Z"/>
  <path class="cls-5" d="M11.53,100.99s0,0,0,0c0,0,0,0,0,0Z"/>
  <rect class="cls-5" x="9.01" y="94.81" width="1.31" height="0"/>
  <path class="cls-5" d="M10.33,100.49s0,.08.02.12c-.01-.04-.02-.08-.02-.12Z"/>
  <path class="cls-5" d="M2.44,46.53s.08.06.12.08c0,0,0,0,0,0-.05-.02-.08-.06-.13-.09,0,0,0,0,0,0Z"/>
  <polygon class="cls-5" points="11.73 26.26 11.73 46.58 11.73 46.58 11.73 26.26 11.73 26.26"/>
  <path class="cls-5" d="M11.53,23.83s0,0,0,0c0,0,0,0,0,0Z"/>
  <polygon class="cls-5" points="11.73 103.42 11.73 123.74 11.73 123.74 11.73 103.41 11.73 103.42"/>
  <path class="cls-5" d="M10.39,131.03s0,0,0,0c0,0,0,.01,0,.02,0,0,0-.01,0-.02Z"/>
  <path class="cls-5" d="M10.44,126.4c.22-.72.33-1.45.35-2.2-.02.75-.14,1.49-.35,2.2,0,0,0,0,0,0Z"/>
  <path class="cls-5" d="M10.47,132.39s0,0,0,.01h0s0,0,0-.01Z"/>
  <path class="cls-5" d="M10.8,103.02s0,0,0,0c-.02-.77-.14-1.53-.36-2.26,0,0,0,0,0,0,0,0,0,0,0,0,.22.74.34,1.49.36,2.26Z"/>
  <path class="cls-5" d="M11.43,132.17c-.01-.12-.03-.25-.04-.37,0,.12.02.25.04.37Z"/>
  <path class="cls-5" d="M10.35,126.54s0,.05-.01.07c0-.02,0-.05.01-.07Z"/>
  <path class="cls-5" d="M12.21,14.13c.04-.13.09-.25.14-.38-.05.13-.09.25-.14.38Z"/>
  <path class="cls-5" d="M2.13,46.18s0,0,0,0c.02.04.05.08.08.11,0,0,0,0,0,0-.03-.04-.06-.07-.08-.12Z"/>
  <path class="cls-5" d="M11.55,16.83l-.06.37c.02-.14.04-.27.07-.41,0,.01,0,.03,0,.04Z"/>
  <path class="cls-5" d="M15.93,14.61s-.02.05-.03.07c0-.02.02-.05.03-.07Z"/>
  <path class="cls-5" d="M11.39,18.21c0-.13.02-.25.04-.38-.01.13-.03.25-.04.38Z"/>
  <path class="cls-5" d="M2.74,46.67s0,0,0,0c.08.02.15.05.24.05,0,0,0,0,0,0,0,0,0,0,0,0-.09,0-.16-.03-.24-.05Z"/>
  <path class="cls-5" d="M16.32,6.84c.23-.26.46-.51.71-.75-.25.24-.48.5-.71.75Z"/>
  <path class="cls-5" d="M10.8,25.86c-.02-.74-.13-1.46-.34-2.17,0,0,0,0,0,0,.2.71.32,1.43.34,2.17,0,0,0,0,0,0Z"/>
  <path class="cls-5" d="M10.35,49.47s-.02.09-.03.14c0-.05.01-.09.03-.14Z"/>
  <path class="cls-5" d="M9.01,17.66h1.45s0,0,0,.01c0,0,0,0,0-.01h-1.45Z"/>
  <polygon class="cls-5" points="8.03 26.07 8.03 46.84 8.03 54.56 7.89 54.42 8.03 54.56 8.03 46.84 8.03 26.07 8.03 18.35 8.03 18.35 8.03 26.07"/>
  <path class="cls-5" d="M10.38,19.03s0-.01,0-.02c0,0,0,.01,0,.02,0,0,0,0,0,0Z"/>
  <polygon class="cls-5" points="8.03 103.22 8.03 131.71 8.03 131.71 8.03 103.22 8.03 95.5 7.62 95.91 8.03 95.5 8.03 103.22"/>
  <path class="cls-5" d="M10.41,49.34c.23-.75.36-1.52.38-2.3-.02.78-.14,1.55-.38,2.3,0,0,0,0,0,0Z"/>
  <path class="cls-5" d="M31.77,2.69c.44.14.87.31,1.29.49-.42-.18-.85-.35-1.29-.49Z"/>
  <path class="cls-5" d="M24.63,5.92c-.34.08-.69.19-1.02.3.34-.12.68-.22,1.02-.3Z"/>
  <path class="cls-5" d="M17.47,5.69c.21-.19.41-.38.63-.55-.22.17-.42.37-.63.55Z"/>
  <path class="cls-5" d="M19.81,141.51c-.06-.06-.13-.11-.19-.16.06.06.12.11.19.16Z"/>
  <path class="cls-5" d="M28,5.65c-.08,0-.16,0-.23,0,.08,0,.16,0,.23,0Z"/>
  <path class="cls-5" d="M28.57,144.3c-.45.05-.89.09-1.34.09-1.18,0-2.37-.2-3.52-.59,1.15.39,2.34.59,3.52.59.45,0,.9-.03,1.34-.09Z"/>
  <path class="cls-5" d="M29.09,5.78s-.08-.01-.12-.02c.04,0,.08.01.12.02Z"/>
  <path class="cls-5" d="M25.76,5.71c-.19.02-.37.07-.56.1.19-.04.37-.08.56-.1Z"/>
  <path class="cls-5" d="M18.18,10.34s-.01.01-.02.02c0,0,.01-.01.02-.02Z"/>
  <path class="cls-5" d="M13.84,10.64c.18-.39.36-.78.57-1.15-.21.37-.4.76-.57,1.15Z"/>
  <path class="cls-5" d="M18.91,9.4s-.05.05-.07.07c.02-.03.05-.05.07-.07Z"/>
  <path class="cls-5" d="M29.12,147.9s-.04,0-.06,0c.02,0,.04,0,.06,0Z"/>
  <path class="cls-5" d="M20.76,7.72c-.1.07-.2.13-.29.21.09-.07.19-.14.29-.21Z"/>
  <path class="cls-5" d="M21.88,7c-.16.09-.33.17-.48.27.16-.1.32-.18.48-.27Z"/>
  <path class="cls-5" d="M23.36,6.32c-.32.12-.64.25-.94.4.3-.15.62-.28.94-.4Z"/>
  <path class="cls-5" d="M12.34,136.22c-.04-.11-.08-.22-.12-.32.04.11.08.22.12.32Z"/>
  <path class="cls-5" d="M11.49,132.81l.07.41s0,0,0,0c0,.01,0,.02,0,.03-.02-.15-.05-.3-.07-.46,0,0,0,0,0,0Z"/>
  <path class="cls-5" d="M23.34,2.48s-.02,0-.03,0c0,0-.01,0-.02,0,.17-.05.35-.08.52-.12-.16.04-.31.06-.47.1Z"/>
  <path class="cls-5" d="M20.53,3.57c-.11.06-.21.13-.32.19.11-.06.22-.13.33-.19,0,0,0,0,0,0Z"/>
  <path class="cls-5" d="M24.75,2.17s-.04,0-.05.01c.28-.05.57-.07.86-.11-.27.03-.54.05-.8.09Z"/>
  <path class="cls-5" d="M18.77,4.65c.17-.12.33-.25.5-.36-.17.11-.33.24-.5.36Z"/>
  <path class="cls-5" d="M30.16,6.02s-.03,0-.04-.01c.01,0,.03,0,.04.01Z"/>
  <path class="cls-5" d="M14.5,9.35c.21-.37.44-.73.68-1.08-.24.35-.47.71-.68,1.08Z"/>
  <path class="cls-5" d="M26.22,1.99s-.06,0-.1.01c.36-.03.71-.03,1.07-.03-.33,0-.65,0-.98.02Z"/>
  <path class="cls-5" d="M30.38,2.32c.45.1.89.22,1.33.36-.44-.14-.88-.26-1.33-.36Z"/>
  <path class="cls-5" d="M27.55,1.97c.41.01.82.04,1.23.09-.41-.04-.82-.08-1.23-.09Z"/>
  <path class="cls-5" d="M28.98,2.08c.44.05.88.13,1.32.22-.44-.09-.87-.17-1.32-.22Z"/>
  <path class="cls-5" d="M111.17,145.69c.2-.13.38-.27.57-.41-.2.15-.4.3-.61.43.01,0,.03-.01.04-.02Z"/>
  <path class="cls-5" d="M112.81,138.73s0,0,0,0c0,0,0,0,0,0Z"/>
  <path class="cls-5" d="M106.91,143.75c.37-.13.74-.29,1.09-.46-.35.17-.72.32-1.09.46-1.21.43-2.47.65-3.72.65-.45,0-.9-.03-1.35-.09.45.06.9.09,1.35.09,1.25,0,2.51-.21,3.72-.65Z"/>
  <path class="cls-5" d="M110.78,141.36c-.06.06-.13.11-.19.17.06-.06.13-.11.19-.17Z"/>
  <path class="cls-5" d="M115.06,141.97c-.23.32-.47.63-.72.93.25-.3.49-.61.72-.93Z"/>
  <path class="cls-5" d="M116.53,139.45c-.17.38-.36.75-.56,1.11.2-.36.39-.73.56-1.11Z"/>
  <path class="cls-5" d="M115.87,140.72c-.21.36-.43.71-.66,1.05.24-.34.45-.69.66-1.05Z"/>
  <polygon class="cls-5" points="116.6 139.3 116.6 139.3 113.32 137.71 113.31 137.71 113.32 137.71 116.6 139.3"/>
  <path class="cls-5" d="M108.54,8.13c.25.16.49.33.72.51-.23-.18-.47-.35-.72-.51Z"/>
  <path class="cls-5" d="M107.59,7.6c.19.09.36.2.54.3-.18-.1-.35-.21-.54-.3Z"/>
  <path class="cls-5" d="M16.42,133.81c-.14-.49-.24-.99-.31-1.49.07.51.18,1,.31,1.49Z"/>
  <path class="cls-5" d="M27.04,6.59c.32,0,.65,0,.97.04-.32-.03-.65-.04-.97-.04Z"/>
  <path class="cls-5" d="M24.9,6.86c.19-.04.37-.07.56-.1-.19.03-.37.06-.56.1Z"/>
  <path class="cls-5" d="M25.97,6.67c.27-.03.54-.05.8-.06-.27.01-.54.02-.8.06Z"/>
  <path class="cls-5" d="M32.22,7.93c-1.28-.73-2.68-1.17-4.1-1.3,1.43.13,2.83.57,4.1,1.3,0,0,0,0,0,0Z"/>
  <path class="cls-5" d="M109.89,146.43c.16-.08.3-.18.46-.27-.16.09-.31.19-.48.27,0,0,.01,0,.02,0Z"/>
  <path class="cls-5" d="M12.86,12.52c-.03.06-.05.11-.08.17-.03.07-.05.14-.08.2.06-.13.11-.25.16-.38,0,0,0,0,0,0Z"/>
  <path class="cls-5" d="M99.93,147.66c-.2-.05-.4-.11-.6-.16.2.05.4.12.6.16Z"/>
  <path class="cls-5" d="M98.57,147.28c-.32-.11-.64-.24-.95-.36.31.13.63.26.95.36Z"/>
  <path class="cls-5" d="M112.98,144.27c-.23.2-.45.41-.69.6.24-.19.46-.4.69-.6Z"/>
  <path class="cls-5" d="M114.1,143.16c-.24.26-.48.53-.73.77.26-.25.49-.51.73-.77Z"/>
  <path class="cls-5" d="M109.6,142.33c.11-.08.23-.16.34-.24-.11.09-.23.16-.34.24Z"/>
  <path class="cls-5" d="M112.19,139.72s.02-.03.03-.04c0,.01-.02.03-.03.04Z"/>
  <path class="cls-5" d="M111.45,140.65s.06-.06.09-.1c-.03.03-.06.07-.09.1Z"/>
  <polygon class="cls-5" points="98.13 143.13 97.62 145.26 98.13 143.13 98.13 143.13"/>
  <path class="cls-5" d="M108.44,143.04c.19-.1.38-.2.56-.31-.18.11-.37.21-.56.31Z"/>
  <polygon class="cls-5" points="119.95 17.66 121.34 17.66 121.34 26.07 121.34 46.84 121.34 55.25 121.34 55.25 121.34 46.84 121.34 26.07 121.34 17.66 119.95 17.66 119.95 17.66"/>
  <path class="cls-5" d="M99.34,143.67s.02,0,.02,0c0,0-.02,0-.02,0Z"/>
  <path class="cls-5" d="M100.56,144.06c.11.03.22.04.33.07-.11-.02-.22-.04-.33-.07Z"/>
  <path class="cls-5" d="M24.05,7.11c-.07.02-.14.04-.21.06-1.41.5-2.67,1.3-3.7,2.33,1.03-1.02,2.29-1.82,3.7-2.33.07-.02.14-.04.21-.06Z"/>
  <path class="cls-5" d="M17.78,13.18c.35-.96.85-1.83,1.45-2.62-.6.79-1.1,1.67-1.45,2.62-.01.04-.05.06-.07.09-.56.89-.99,1.86-1.28,2.86.29-1,.72-1.96,1.28-2.86.02-.03.06-.05.07-.09Z"/>
  <path class="cls-5" d="M16.42,133.82c.28.99.7,1.93,1.24,2.82,0,0,0,0,0,0,0,0,0,0,0,0-.54-.88-.96-1.83-1.24-2.82Z"/>
  <path class="cls-5" d="M15.99,19.27s0,0,0-.02c0,0,0,0,0-.02,0-1.06.15-2.1.44-3.1-.29,1-.44,2.05-.44,3.1,0,0,0,.01,0,.02,0,0,0,.01,0,.02v111.49c0,.52.04,1.03.11,1.54-.07-.51-.11-1.02-.11-1.54V19.27Z"/>
  <path class="cls-5" d="M98.09,7.99c.7-.41,1.44-.73,2.2-.96-.76.23-1.5.54-2.2.96-.02.01-.04.01-.07.02,0,0,0,0,0,0,0,0,0,0,0,0,.02,0,.05-.01.07-.02Z"/>
  <path class="cls-5" d="M97.79,8.07s.07-.02.11-.02c0,0,0,0,0,0-.04,0-.07.02-.11.02H32.57s0,0,0,0c-.02,0-.04,0-.07,0,.02,0,.05,0,.07,0h65.22Z"/>
  <path class="cls-5" d="M112.57,13.03s0,0,0,0c-.53-1.37-1.33-2.59-2.35-3.58,1.02,1,1.83,2.22,2.35,3.58,0,0,0,0,0,0Z"/>
  <polygon class="cls-5" points="97.17 142.97 33.19 142.97 33.19 142.97 97.17 142.97 96.29 146.6 96.29 146.6 97.17 142.97"/>
  <path class="cls-5" d="M15.42,133.87s.01.05.02.07c0-.02-.01-.05-.02-.07Z"/>
  <polygon class="cls-5" points="34.06 146.62 34.07 146.62 33.26 143.25 34.06 146.62"/>
  <polygon class="cls-5" points="33.19 7.09 33.19 7.09 34.07 3.44 96.29 3.44 97.17 7.09 97.17 7.09 96.29 3.44 34.07 3.44 33.19 7.09"/>
  <path class="cls-5" d="M29.14,143.22c-1.75.34-3.58.22-5.3-.4-.24-.09-.47-.19-.7-.3.23.1.46.21.7.3,1.73.62,3.55.74,5.3.4Z"/>
  <path class="cls-5" d="M17.77,136.8s0,.01.01.02c.48,1.32,1.23,2.49,2.17,3.47-.94-.99-1.69-2.16-2.17-3.47,0,0,0-.01-.01-.02Z"/>
  <path class="cls-5" d="M112.68,13.31s-.05-.04-.06-.07c0,0,0-.01,0-.02,0,0,0,.01,0,.02.01.03.04.04.06.07Z"/>
  <polygon class="cls-5" points="32.76 141.99 32.76 141.99 32.75 141.99 32.76 141.99"/>
  <path class="cls-5" d="M108.03,142.15c-.15.08-.29.17-.44.24.15-.07.29-.16.44-.24Z"/>
  <path class="cls-5" d="M109.42,8.75c.27.22.54.45.79.69-.25-.24-.51-.48-.79-.69Z"/>
  <path class="cls-5" d="M110.21,140.55c-.25.24-.51.47-.78.69.27-.22.53-.45.78-.69Z"/>
  <path class="cls-5" d="M109.23,141.38c-.22.17-.44.33-.68.48.24-.15.46-.31.68-.48Z"/>
  <path class="cls-5" d="M32.54,141.95s.01,0,.02,0c0,0-.01,0-.02,0Z"/>
  <path class="cls-5" d="M114.36,130.79s0,0,0,.01c0,0,0,0,0-.01V19.27s0,0,0,0c0,0,0,0,0,0v111.52Z"/>
  <path class="cls-5" d="M97.86,141.95s.01,0,.02,0c0,0-.01,0-.02,0Z"/>
  <path class="cls-5" d="M112.76,136.64s0,0,0,0c0,0,0,0,0,0,1.04-1.7,1.61-3.64,1.66-5.63,0,0,0,0,0,0,0,0,0,0,0,0-.04,1.99-.61,3.93-1.66,5.63Z"/>
  <path class="cls-5" d="M114.41,19.05s0,0,0,0c0,0,0,0,0,0-.03-1.98-.59-3.91-1.61-5.61t0,0s0,0,0,0c1.02,1.7,1.58,3.63,1.61,5.61Z"/>
  <path class="cls-5" d="M102.24,143.37c1.42.14,2.87-.04,4.26-.52-1.39.48-2.84.65-4.26.52Z"/>
  <path class="cls-5" d="M112.62,136.82s-.01.06-.02.08c-.52,1.38-1.33,2.61-2.35,3.62,1.03-1.01,1.83-2.24,2.35-3.62,0-.03,0-.06.02-.09.02-.04.05-.06.07-.09,0,0,0,0,0,0,0,0,0,0,0,0-.03.03-.05.06-.07.09Z"/>
  <path class="cls-5" d="M114.47,135.43s.01-.02.02-.04c0,.01-.01.02-.02.04Z"/>
  <path class="cls-5" d="M118.15,13.95s-.02-.05-.03-.07c-.08-.24-.19-.46-.28-.69.13.31.25.63.36.95-.02-.06-.03-.12-.05-.18Z"/>
  <path class="cls-5" d="M118.74,101.76s0,.01,0,.02c0,0,0-.01,0-.02Z"/>
  <path class="cls-5" d="M118.94,17.41s0,0,0,0c.04.3.06.61.08.91-.02-.3-.05-.61-.08-.91Z"/>
  <path class="cls-5" d="M118.86,133.23l.02-.14c-.02.15-.06.29-.08.44.02-.1.05-.2.06-.3Z"/>
  <path class="cls-5" d="M118.58,15.4s-.01-.05-.02-.07c-.04-.17-.1-.34-.15-.51.06.21.13.43.18.65,0-.02,0-.04-.01-.06Z"/>
  <path class="cls-5" d="M118.86,16.82c-.01-.08-.04-.16-.05-.25.02.12.05.23.06.35l-.02-.1Z"/>
  <path class="cls-5" d="M118.74,24.61s0,.01,0,.02c0,0,0-.01,0-.02Z"/>
  <polygon class="cls-5" points="16.6 13.24 16.6 13.23 13.32 11.64 13.32 11.64 16.6 13.23 16.6 13.24"/>
  <path class="cls-5" d="M114.98,133.94s.01-.06.02-.08c0,.03-.01.06-.02.08Z"/>
  <path class="cls-5" d="M115.3,17.74s0-.07-.01-.11c0,.04,0,.07.01.11Z"/>
  <path class="cls-5" d="M118.56,134.69s0-.01,0-.02c0-.03.01-.06.02-.1-.06.22-.12.44-.19.66.05-.18.12-.36.17-.55Z"/>
  <path class="cls-5" d="M119.7,24.78c.06-.41.16-.81.28-1.21-.12.4-.22.8-.28,1.21Z"/>
  <path class="cls-5" d="M118.11,136.15s.02-.05.03-.08c.02-.05.03-.11.05-.16-.11.33-.25.66-.38.99.1-.25.21-.49.3-.74Z"/>
  <path class="cls-5" d="M115.29,132.38s0-.07.01-.1c0,.03,0,.07-.01.1Z"/>
  <path class="cls-5" d="M15.93,135.38s.01.03.02.05c0-.02-.01-.03-.02-.05Z"/>
  <path class="cls-5" d="M15.12,132.35s0,.02,0,.04c0-.01,0-.02,0-.04Z"/>
  <polygon class="cls-5" points="13.34 138.41 13.34 138.41 16.63 136.82 16.63 136.81 16.63 136.82 13.34 138.41"/>
  <path class="cls-5" d="M15.12,17.63s0,.07-.01.11c0-.04,0-.07.01-.11Z"/>
  <path class="cls-5" d="M97.29,3.21c.43-.19.87-.36,1.31-.51-.44.15-.88.32-1.31.51Z"/>
  <polygon class="cls-5" points="98.12 6.87 98.12 6.87 97.64 4.87 98.12 6.87"/>
  <path class="cls-5" d="M101.5,2.07c.45-.05.89-.09,1.34-.1-.45.01-.9.05-1.34.1Z"/>
  <path class="cls-5" d="M110.63,8.51c.05.05.11.09.16.14-.05-.05-.11-.09-.16-.14Z"/>
  <path class="cls-5" d="M103.52,5.62c.11,0,.21.02.32.02-.11,0-.21-.02-.32-.02Z"/>
  <path class="cls-5" d="M98.61,2.7c.46-.15.92-.28,1.39-.38-.47.1-.93.23-1.39.38Z"/>
  <polygon class="cls-5" points="113.33 12.34 113.34 12.34 116.63 10.75 116.63 10.75 113.34 12.34 113.33 12.34"/>
  <path class="cls-5" d="M104.28,2c-.4-.03-.81-.03-1.21-.03.4,0,.81,0,1.21.03Z"/>
  <path class="cls-5" d="M100.01,2.32c.46-.1.93-.18,1.4-.24-.47.06-.94.14-1.4.24Z"/>
  <path class="cls-5" d="M117.5,137.61c.05-.11.11-.23.16-.34,0-.02.02-.05.03-.07-.17.38-.35.75-.55,1.11.13-.23.25-.47.37-.71Z"/>
  <path class="cls-5" d="M127.72,103.34c-.09-.03-.17-.05-.27-.05h0c.1,0,.18.03.27.05,0,0,0,0,0,0Z"/>
  <path class="cls-5" d="M127.86,123.76s.04-.03.06-.04c0,0,0,0,0,0-.02.01-.04.03-.07.05,0,0,0,0,0,0Z"/>
  <polygon class="cls-5" points="127.2 46.78 127.21 46.78 127.2 46.78 127.2 46.78"/>
  <path class="cls-5" d="M127.87,26.25s-.04-.03-.06-.04c0,0,0,0,0,0,.02.01.04.03.06.04Z"/>
  <path class="cls-5" d="M115.01,16.18s-.02-.07-.03-.1c0,.03.02.07.03.1Z"/>
  <path class="cls-5" d="M127.72,26.18c-.09-.03-.17-.05-.27-.05h0c.1,0,.18.03.27.05,0,0,0,0,0,0Z"/>
  <path class="cls-5" d="M127.81,103.36s0,0,0,0c.02.01.04.03.06.04-.02-.01-.04-.03-.06-.04Z"/>
  <polygon class="cls-5" points="121.34 123.99 121.34 103.22 121.34 94.81 120.04 94.81 120.04 94.81 121.34 94.81 121.34 103.22 121.34 123.99 121.34 132.4 121.34 132.4 121.34 123.99"/>
  <polygon class="cls-5" points="122.33 95.5 122.33 95.5 123.01 96.19 122.33 95.5"/>
  <polygon class="cls-5" points="122.33 54.56 122.33 54.56 122.74 54.15 122.33 54.56"/>
  <polygon class="cls-5" points="127.2 123.93 127.21 123.93 127.2 123.93 127.2 123.93"/>
  <polygon class="cls-5" points="124.67 123.93 124.67 123.93 124.67 103.28 127.33 103.28 127.33 103.28 124.67 103.28 124.67 123.93"/>
  <path class="cls-5" d="M127.47,123.86s.08-.02.13-.03c0,0,0,0,0,0-.05,0-.09.03-.14.03h0Z"/>
  <polygon class="cls-5" points="127.33 26.13 127.33 26.13 124.67 26.13 124.67 46.78 124.67 46.78 124.67 26.13 127.33 26.13"/>
  <polygon class="cls-5" points="115.4 19.24 115.4 19.24 115.4 19.24 115.4 19.24"/>
  <polygon class="cls-5" points="117.09 11.61 117.09 11.61 113.8 13.21 113.8 13.21 113.8 13.21 117.09 11.61"/>
  <path class="cls-5" d="M119.06,130.76c0,.64-.04,1.27-.12,1.9,0,0,0,0,0,0,.08-.63.12-1.26.12-1.9v-3.99s0-.01,0-.02c0,0,0,.01,0,.02v3.99Z"/>
  <polygon class="cls-5" points="113.78 136.83 113.77 136.84 117.06 138.44 117.06 138.44 113.77 136.84 113.78 136.83"/>
  <path class="cls-5" d="M117.65,12.73c-.05-.11-.1-.22-.15-.33-.1-.21-.21-.41-.32-.61.18.34.36.69.51,1.05-.01-.03-.03-.07-.04-.1Z"/>
  <path class="cls-5" d="M127.47,46.71s.08-.02.13-.03c0,0,0,0,0,0-.05,0-.09.03-.14.03h0Z"/>
  <path class="cls-5" d="M114.5,14.66s-.02-.04-.02-.06c0,.02.02.04.02.06Z"/>
  <path class="cls-5" d="M127.86,46.61s.04-.03.06-.04c0,0,0,0,0,0-.02.01-.04.03-.07.05,0,0,0,0,0,0Z"/>
  <path class="cls-5" d="M119.06,19.25s0,0,0,.02v3.96s0,.01,0,.02c0,0,0-.01,0-.02v-3.96s0-.01,0-.02c0,0,0-.01,0-.02,0-.24-.01-.48-.02-.72.01.24.02.48.02.72,0,0,0,0,0,.02Z"/>
  <path class="cls-5" d="M119.06,49.62v50.76s0,.01,0,.02c0,0,0-.01,0-.02v-5.57h0v-39.56h0v-5.63s0,0,0,0c0,0,0-.01,0-.02,0,0,0,.01,0,.02,0,0,0,0,0,0Z"/>
  <path class="cls-5" d="M118.63,26.05s0,0,0,.02v20.77s0,0,0,0c0,0,0,.01,0,.02,0,0,0-.01,0-.02,0,0,0,0,0,0v-20.77s0,0,0-.02c0,0,0,0,0-.02,0,0,0,0,0-.01,0,0,0,0,0,.01,0,0,0,0,0,.02Z"/>
  <path class="cls-5" d="M118.63,103.21s0,0,0,.02v20.77s0,0,0,0c0,0,0,.01,0,.02,0,0,0-.01,0-.02,0,0,0,0,0,0v-20.77s0,0,0-.02c0,0,0,0,0-.02,0,0,0,0,0-.01,0,0,0,0,0,.01,0,0,0,0,0,.02Z"/>
  <path d="M103.2,150c2.09,0,4.12-.38,6.05-1.13,4.13-1.61,7.49-4.87,9.24-8.95l.05-.08c1-1.69,1.71-3.53,2.1-5.47h1.19c.19,0,.38-.04.57-.11.18-.07.34-.18.47-.32l2.35-2.35.13-.16c.2-.26.31-.57.31-.88v-4.65s1.74,0,1.74,0c.2,0,.39-.04.57-.12,1.33-.25,2.32-1.38,2.38-2.74v-18.8s0-.06,0-.08v-.06c-.07-1.5-1.29-2.72-2.8-2.78h-1.9v-4.65c0-.15-.03-.26-.03-.26l-.03-.16-.14-.32c-.05-.08-.11-.18-.2-.28l-2.49-2.49-.05-.02s-.07-.05-.1-.06c-.05-.04-.11-.07-.15-.09l-.31-.1s-.06-.01-.09-.02l-1.05-.02v-35.64h.82c.16,0,.32-.03.47-.08l1.27-.98,1.69-1.75c.09-.1.14-.19.17-.23l.16-.33c.05-.15.08-.3.08-.45v-4.65s1.74,0,1.74,0c.2,0,.39-.04.57-.12,1.33-.25,2.32-1.38,2.38-2.74v-18.8s0-.06,0-.08v-.06c-.07-1.5-1.29-2.72-2.8-2.78h-1.9s0-4.65,0-4.65c0-.37-.14-.72-.4-1.01l-2.38-2.38c-.14-.14-.3-.24-.46-.31l-.26-.08s-.04,0-.06-.01l-1.43-.03c-.39-1.96-1.11-3.82-2.12-5.53l-.03-.05c-1.75-4.09-5.11-7.36-9.25-8.98-4.15-1.62-8.85-1.5-12.92.34h-62.25c-4.07-1.84-8.76-1.97-12.92-.34-4.14,1.62-7.5,4.88-9.25,8.97l-.19.33c-.93,1.64-1.6,3.41-1.97,5.27h-1.34s-.46.11-.46.11c-.18.07-.34.18-.47.32l-2.28,2.28-.11.1c-.11.12-.2.27-.25.37l-.06.15c-.06.16-.09.33-.09.49v4.65h-1.94c-1.35.12-2.45,1.15-2.65,2.48-.07.17-.1.35-.1.53v18.61c0,.15.03.37.14.6.24,1.11,1.1,1.97,2.21,2.21.19.09.4.14.61.14h1.74v4.77s.11.44.11.44c.05.11.1.2.14.26l1.24,1.35,1.33,1.26.15.12.37.19c.15.05.31.08.47.08h.82v35.64h-.82l-.29.04s-.1.02-.16.04l-1.28.99-1.69,1.75c-.1.1-.16.21-.21.3-.03.04-.06.1-.08.16l-.11,5.2h-1.94c-1.35.12-2.45,1.15-2.65,2.48-.07.17-.1.35-.1.53v18.61c0,.15.03.37.14.6.24,1.11,1.1,1.97,2.21,2.21.19.09.4.14.61.14h1.74v4.65c0,.19.04.38.11.56.08.18.18.35.32.48l2.35,2.35c.14.14.3.24.48.32.18.07.37.11.56.11h1.25c.37,1.8,1.01,3.51,1.91,5.11.02.07.05.16.09.24.06.12.13.22.2.3,1.76,4.03,5.1,7.25,9.19,8.84,4.04,1.58,8.73,1.49,12.76-.28h62.57c2.11.93,4.42,1.42,6.71,1.42ZM28.92,147.93c-.46.05-.92.09-1.39.1-.06,0-.12,0-.18,0-.41,0-.83,0-1.24-.03-.13,0-.26-.03-.4-.05-.34-.03-.69-.07-1.03-.13-.23-.04-.46-.1-.69-.15-.24-.05-.49-.1-.73-.16-.46-.13-.91-.28-1.35-.45-.02,0-.03,0-.05-.02-.02,0-.05-.02-.07-.03-.43-.17-.86-.36-1.27-.57,0,0,0,0,0,0-.04-.02-.08-.05-.12-.07-.19-.1-.37-.21-.55-.32-.19-.11-.39-.22-.58-.34,0,0,0,0,0,0-.09-.06-.17-.12-.25-.18-.21-.14-.41-.28-.61-.43-.1-.07-.2-.14-.3-.22,0,0,0,0-.01-.01-.13-.11-.26-.23-.39-.34-.18-.16-.37-.31-.54-.47-.04-.04-.09-.07-.13-.11,0,0-.02-.02-.02-.02-.18-.17-.34-.36-.51-.54-.14-.15-.28-.29-.42-.44,0,0-.01-.01-.02-.02-.01-.01-.02-.02-.03-.04-.21-.24-.4-.5-.59-.76-.09-.13-.19-.24-.28-.37-.21-.3-.4-.62-.59-.93-.06-.09-.12-.18-.17-.28-.19-.34-.36-.68-.52-1.04-.03-.07-.08-.15-.11-.22h0s0,0,0,0l3.29-1.6s0,0,0,0c.15.35.32.7.5,1.03,0,0,0,0,0,0,.18.33.38.64.59.95,0,.01.02.02.03.04.2.29.42.57.65.84.03.03.06.06.09.1.22.25.44.48.68.71.06.06.12.11.19.16.22.2.43.39.66.57.11.08.22.15.33.23.2.14.4.29.6.42.17.11.36.2.54.3.16.09.31.18.48.26.34.16.69.31,1.05.44.01,0,.02.01.03.01.06.02.13.04.19.06,1.15.39,2.34.59,3.52.59.45,0,.9-.03,1.34-.09.3-.04.6-.1.9-.17.12-.03.24-.04.36-.07.39-.1.77-.22,1.16-.36.02,0,.03-.01.05-.02.4-.15.8-.33,1.19-.52,0,0,0,0,0,0h0l.87,3.64c-.1.04-.21.08-.31.12-.32.13-.65.26-.98.37-.21.07-.42.12-.63.18-.24.07-.48.14-.73.2-.44.1-.88.18-1.33.23-.02,0-.04,0-.06,0-.04,0-.08.02-.12.02,0,0-.02,0-.03,0ZM12.49,136.62s-.01-.03-.02-.05c-.05-.12-.08-.24-.13-.35-.04-.11-.08-.22-.12-.32-.02-.07-.05-.13-.07-.2-.01-.04-.02-.08-.04-.12-.09-.27-.17-.55-.24-.82-.02-.08-.04-.16-.06-.23-.06-.24-.12-.49-.17-.73-.03-.13-.04-.26-.07-.39,0-.04-.01-.09-.02-.13,0-.01,0-.02,0-.03,0,0,0,0,0,0l-.07-.41s0,0,0,0c-.03-.21-.05-.43-.06-.64-.01-.12-.03-.25-.04-.37-.02-.34-.03-.69-.03-1.04,0-.08-.03-.16-.06-.23,0,0,0,0,0,0v-3.61s.02-.02.03-.04c.04-.12.07-.25.11-.37.23-.83.36-1.68.36-2.55,0-.08-.03-.16-.06-.22,0,0,0,0,0,0v-20.32s0,0,0,0c.04-.07.06-.14.06-.22,0-.75-.09-1.48-.26-2.2,0,0,0,0,0,0,0-.04-.02-.07-.03-.11-.05-.2-.11-.4-.17-.6,0-.02-.02-.04-.03-.05v-5.41h0v-39.56h0v-5.48s.02-.02.03-.04c.04-.12.07-.25.11-.37.23-.83.36-1.68.36-2.55,0-.08-.03-.16-.06-.22,0,0,0,0,0,0v-20.32s0,0,0,0c.04-.07.06-.14.06-.22,0-.75-.09-1.48-.26-2.2,0,0,0,0,0,0,0-.04-.02-.07-.03-.11-.05-.2-.11-.4-.17-.6,0-.02-.02-.04-.03-.05v-3.6s0,0,0,0c.04-.07.06-.14.06-.23,0-.34.01-.69.03-1.03,0-.13.03-.25.04-.38.02-.21.04-.42.06-.62,0,0,0,0,0,0l.06-.37s0-.03,0-.04c0-.06.02-.11.03-.17.02-.13.04-.26.07-.39.05-.24.1-.48.16-.72.02-.08.04-.16.06-.24.07-.27.15-.54.24-.81.01-.04.03-.08.04-.13.02-.07.05-.13.07-.2.04-.13.09-.25.14-.38.04-.1.07-.19.1-.29,0-.02.01-.03.02-.05.07-.17.15-.35.22-.52.03-.07.05-.14.08-.2.03-.06.05-.11.08-.17,0,0,0,0,0,0,.14-.3.29-.59.45-.88h0s0,0,0,0l3.28,1.59s0,0,0,0c-.25.44-.47.9-.66,1.37,0,.02-.02.05-.03.07-.18.46-.34.92-.47,1.4-.01.04-.02.08-.03.12-.12.47-.22.95-.28,1.43,0,.04,0,.07-.01.11-.06.49-.1.99-.1,1.5,0,0,0,.01,0,.02,0,0,0,.01,0,.02v111.52s0,0,0,0c0,.52.04,1.04.11,1.55,0,.01,0,.02,0,.04.07.5.17,1,.3,1.49,0,.02.01.05.02.07.13.49.3.97.49,1.44,0,.02.01.03.02.05.2.48.42.94.68,1.39h0s-3.29,1.6-3.29,1.6c0,0,0,0,0,0h0c-.16-.29-.31-.59-.46-.89,0,0,0,0,0,0,0-.02-.02-.04-.03-.06,0-.01-.01-.02-.02-.03-.02-.04-.04-.08-.06-.12-.03-.06-.05-.13-.08-.19-.07-.16-.15-.33-.21-.49ZM2.13,123.33s0,0,0,0c0-.02-.02-.03-.03-.05-.05-.12-.08-.24-.08-.37,0-.08-.03-.16-.06-.22v-18.22c.04-.07.06-.14.06-.22,0-.36.2-.65.49-.82.14-.08.3-.14.47-.14h2.69s0,0,0,0v20.66h-2.47s0,0,0,0c-.07-.04-.14-.06-.22-.06,0,0,0,0,0,0-.08,0-.16-.03-.24-.05,0,0,0,0,0,0-.06-.02-.12-.03-.18-.06,0,0,0,0,0,0-.04-.02-.08-.05-.12-.08,0,0,0,0,0,0-.09-.06-.17-.14-.23-.23,0,0,0,0,0,0-.03-.04-.06-.07-.08-.11ZM2.13,46.18s0,0,0,0c0-.02-.02-.03-.03-.05-.05-.12-.08-.24-.08-.37,0-.08-.03-.16-.06-.22v-18.22c.04-.07.06-.14.06-.22,0-.36.2-.65.49-.82.14-.08.3-.14.47-.14h2.69s0,0,0,0v20.66h-2.47s0,0,0,0c-.07-.04-.14-.06-.22-.06,0,0,0,0,0,0-.08,0-.16-.03-.24-.05,0,0,0,0,0,0-.06-.02-.12-.03-.18-.06,0,0,0,0,0,0-.04-.02-.08-.05-.12-.08,0,0,0,0,0,0-.09-.06-.17-.14-.23-.23,0,0,0,0,0,0-.03-.04-.06-.07-.08-.11ZM10.46,17.67c-.04.45-.07.89-.07,1.34,0,0,0,.01,0,.02,0,0,0,0,0,0-.04.07-.07.15-.07.24v4.08c0,.14.06.26.14.35,0,0,0,0,0,0,.2.71.32,1.43.34,2.17,0,0,0,0,0,0-.03.06-.05.13-.05.21v20.77c0,.07.02.14.04.2,0,0,0,0,0,0-.02.78-.14,1.56-.38,2.3,0,0,0,0,0,0-.03.04-.05.08-.07.12-.01.04-.03.09-.03.14,0,0,0,.01,0,.02v5.63h-1.31V17.66h0s1.45,0,1.45,0c0,0,0,0,0,.01ZM8.03,26.07v28.49l-.14-.14-1.23-1.23V19.72l1.37-1.37h0s0,7.72,0,7.72ZM6.66,103.22v-6.35l.96-.96.41-.41v36.21h0s-1.37-1.37-1.37-1.37v-27.12ZM10.47,132.4h-1.46v-37.6h0s1.31,0,1.31,0h0v5.63s0,.04.01.06c0,.04,0,.08.02.12.02.05.05.1.09.14,0,0,0,0,0,0,.22.73.34,1.49.36,2.26,0,0,0,0,0,0-.03.06-.05.13-.05.21v20.77c0,.07.02.14.04.2,0,0,0,0,0,0-.02.75-.14,1.49-.35,2.2,0,0,0,0,0,0-.04.04-.07.09-.09.14,0,.02,0,.05-.01.07,0,.03-.02.07-.02.1v4.08c0,.09.03.17.07.24,0,0,0,0,0,0,0,0,0,.01,0,.02,0,.45.04.9.08,1.34,0,0,0,0,0,.01h0ZM16.07,7.1c.08-.09.17-.17.25-.26.23-.26.46-.51.71-.75,0,0,.01-.01.02-.02.03-.03.07-.06.1-.09.11-.1.22-.19.33-.29.21-.19.41-.38.63-.55,0,0,0,0,0,0,.09-.07.19-.14.28-.21.12-.09.25-.18.38-.27.17-.12.33-.25.5-.36,0,0,0,0,0,0,.19-.12.4-.23.59-.35.11-.06.22-.13.33-.19.11-.06.21-.13.32-.19,0,0,0,0,0,0,.44-.22.88-.43,1.34-.61.46-.18.93-.33,1.41-.47,0,0,.01,0,.02,0,.01,0,.02,0,.03,0,.16-.04.31-.07.47-.1.3-.07.6-.15.9-.2.02,0,.04,0,.05-.01.27-.04.54-.06.8-.09.01,0,.03,0,.04,0,.17-.02.35-.05.52-.06.03,0,.06,0,.1-.01.32-.02.65-.02.98-.02.04,0,.07,0,.11,0,.08,0,.16,0,.24,0,0,0,0,0,0,0,.41,0,.82.04,1.23.09.04,0,.08,0,.13,0,.02,0,.03,0,.05,0,0,0,.01,0,.02,0,.44.05.88.13,1.32.22.03,0,.06.01.09.02.45.1.89.22,1.33.36.02,0,.04,0,.05.02.44.14.87.31,1.29.49.02,0,.04.01.05.02l-.87,3.63c-.67-.34-1.37-.62-2.09-.82-.01,0-.03,0-.04-.01-.34-.09-.68-.17-1.03-.23-.04,0-.08-.01-.12-.02-.32-.05-.64-.09-.97-.12-.08,0-.16,0-.23,0-.29-.01-.58-.02-.87-.02-.13,0-.25.02-.38.03-.25.02-.5.03-.75.06-.19.03-.37.07-.56.1-.19.04-.38.06-.57.11-.34.08-.69.19-1.02.3-.03.01-.07.02-.1.03-.05.02-.1.04-.15.06-.32.12-.64.25-.94.4-.18.09-.36.19-.53.29-.16.09-.33.17-.48.27-.22.14-.43.29-.65.45-.1.07-.2.13-.29.21-.24.19-.47.39-.7.6-.05.05-.11.09-.16.14-.25.23-.48.48-.7.74-.02.03-.05.05-.07.07-.24.28-.46.57-.67.87,0,0-.01.01-.02.02-.43.62-.8,1.29-1.09,2,0,0,0,0,0,0l-3.29-1.6s0,0,0,0h0s.04-.08.06-.13c.18-.39.36-.78.57-1.15.03-.05.06-.09.08-.14.21-.37.43-.73.68-1.08.05-.07.1-.13.15-.2.23-.32.47-.64.72-.94,0,0,.01-.02.02-.03,0,0,0,0,0,0ZM104.29,2c.09,0,.18.02.27.03.04,0,.09.01.13.02.34.03.69.07,1.03.13,0,0,0,0,0,0,.17.03.35.08.52.11.05,0,.09.02.14.03.25.06.51.1.76.17,0,0,0,0,0,0,.33.09.65.21.98.32.14.05.28.09.42.14.11.04.21.1.31.14.35.14.69.29,1.02.46,0,0,0,0,.01,0,.14.07.26.15.39.23.11.06.23.13.34.19.17.1.35.19.51.3,0,0,0,0,0,0,.19.13.38.27.56.4.12.08.23.16.35.25.08.06.17.12.25.18,0,0,0,0,.01,0,.23.19.45.39.67.59.1.09.21.17.3.27.03.03.06.05.08.08,0,0,.01.01.02.02.26.25.5.51.73.78.08.09.17.17.24.26.26.31.5.63.74.96.04.06.09.11.13.17.25.35.47.72.68,1.09.03.04.05.09.08.13.21.37.4.76.57,1.15.02.04.04.08.06.12h0s0,0,0,0l-3.29,1.6s0,0,0,0c-.3-.71-.67-1.37-1.1-1.99,0,0,0-.01-.01-.02-.21-.3-.43-.59-.67-.87-.02-.02-.04-.05-.06-.07-.22-.26-.45-.5-.7-.74-.05-.05-.11-.09-.16-.14-.22-.2-.45-.4-.69-.59-.1-.08-.2-.14-.3-.21-.21-.15-.41-.3-.63-.43-.17-.1-.35-.2-.52-.29-.16-.09-.32-.19-.49-.27-.34-.17-.7-.32-1.06-.45,0,0-.02,0-.03-.01,0,0-.02,0-.03,0-.36-.13-.73-.24-1.1-.33-.2-.05-.41-.08-.62-.12-.17-.03-.34-.07-.52-.09-.27-.04-.54-.05-.81-.07-.11,0-.21-.02-.32-.02-.31,0-.63,0-.94.02-.06,0-.12,0-.18,0-.34.02-.68.07-1.03.13-.02,0-.05,0-.07.01-.36.06-.72.15-1.07.25,0,0,0,0,0,0-.72.2-1.43.48-2.11.84,0,0,0,0,0,0l-.48-1.99-.39-1.64s.03-.01.04-.02c.43-.19.87-.36,1.31-.51,0,0,0,0,0,0,.46-.15.92-.28,1.39-.38,0,0,0,0,.01,0,.46-.1.93-.18,1.4-.24.03,0,.06,0,.09,0,.45-.05.89-.09,1.34-.1,0,0,0,0,0,0,.03,0,.06,0,.09,0,.04,0,.09,0,.13,0,.4,0,.81,0,1.21.03,0,0,0,0,0,0ZM118.12,13.88s.02.05.03.07c.02.06.03.12.05.18.08.23.14.46.21.69.05.17.11.34.15.51,0,.02.01.05.02.07,0,.02,0,.04.01.06,0,.02.01.03.01.05.02.07.03.13.05.2.07.28.11.57.16.86.01.08.04.16.05.25l.02.1s.01.07.02.11c-.01.04-.03.09-.03.14,0,.09.03.17.07.24,0,0,0,0,0,0,.04.3.06.6.08.91,0,.07,0,.13,0,.2.01.24.02.48.02.72,0,0,0,.01,0,.02,0,0,0,.01,0,.02v3.96s0,.01,0,.02c-.14.45-.25.9-.32,1.37,0,0,0,.01,0,.02-.07.46-.11.93-.11,1.39,0,0,0,0,0,.01,0,0,0,0,0,.02,0,0,0,0,0,.02v20.77s0,0,0,0c0,0,0,.01,0,.02,0,.93.15,1.85.43,2.74,0,0,0,.01,0,.02,0,0,0,0,0,0v5.63h0v39.56h0v5.57s0,.01,0,.02c-.14.45-.25.9-.32,1.37,0,0,0,.01,0,.02-.07.46-.11.93-.11,1.39,0,0,0,0,0,.01,0,0,0,0,0,.02,0,0,0,0,0,.02v20.77s0,0,0,0c0,0,0,.01,0,.02,0,.93.15,1.85.43,2.74,0,0,0,.01,0,.02v3.99c0,.64-.04,1.27-.12,1.9,0,0,0,0,0,0-.04.07-.06.15-.06.23,0,.04.01.07.02.11,0,.03-.01.06-.02.09l-.02.14c-.02.1-.04.2-.06.3-.05.26-.09.53-.15.79-.01.06-.03.12-.04.18,0,.02-.01.04-.02.07,0,.03-.01.06-.02.1,0,0,0,.01,0,.02-.05.19-.11.37-.17.55-.07.22-.13.45-.2.67-.02.05-.03.11-.05.16,0,.03-.02.05-.03.08-.09.25-.2.5-.3.74-.04.1-.08.21-.13.31,0,.02-.02.05-.03.07-.05.11-.1.23-.16.34-.11.24-.24.47-.37.71-.02.04-.04.08-.06.12,0,0,0,0,0,0h0s0,0,0,0l-3.29-1.6s0,0,0,0c.26-.46.49-.93.69-1.41,0-.01.01-.02.02-.04.19-.47.36-.96.49-1.45,0-.03.01-.06.02-.08.13-.48.23-.97.29-1.47,0-.03,0-.07.01-.1.06-.5.1-1.01.1-1.52,0-.08-.03-.16-.06-.23V19.46c.04-.07.06-.14.06-.22,0,0,0,0,0,0,0,0,0,0,0,0,0-.5-.04-1-.1-1.5,0-.04,0-.07-.01-.11-.06-.49-.16-.97-.29-1.44,0-.03-.02-.07-.03-.1-.13-.48-.29-.96-.48-1.42,0-.02-.02-.04-.02-.06-.2-.47-.42-.94-.67-1.39,0,0,0,0,0,0l3.29-1.6s0,0,0,0h0c.03.05.05.11.09.17.11.2.22.41.32.61.05.11.1.22.15.33.01.03.03.07.04.1.05.12.09.23.14.35.1.23.2.46.28.69ZM127.87,26.25c.3.16.52.47.52.84,0,.02,0,.03,0,.05,0,.02,0,.03,0,.05v18.58c0,.27-.11.51-.28.68-.05.05-.12.09-.18.12,0,0,0,0,0,0-.02.01-.04.03-.06.04,0,0,0,0,0,0-.08.04-.16.06-.25.08,0,0,0,0,0,0-.04,0-.08.02-.13.03h0s-.02,0-.04,0c0,0,0,0,0,0-.08,0-.15.03-.22.06,0,0,0,0,0,0h-2.53v-20.66h2.66s.07,0,.07,0c0,0,0,0,.02,0,0,0,0,0,.02,0,0,0,.01,0,.02,0h0c.09,0,.18.03.27.05,0,0,0,0,0,0,.03,0,.06,0,.09.02,0,0,0,0,0,0,.02.01.04.03.06.04ZM127.33,103.28h0s.07,0,.07,0c0,0,0,0,.02,0,0,0,0,0,.02,0,0,0,.01,0,.02,0h0c.09,0,.18.03.27.05,0,0,0,0,0,0,.03,0,.06,0,.09.02,0,0,0,0,0,0,.02.01.04.03.06.04.3.16.52.47.52.84,0,.02,0,.03,0,.05,0,.02,0,.03,0,.05v18.58c0,.27-.11.51-.28.68-.05.05-.12.09-.18.12,0,0,0,0,0,0-.02.01-.04.03-.06.04,0,0,0,0,0,0-.08.04-.16.06-.25.08,0,0,0,0,0,0-.04,0-.08.02-.13.03h0s-.02,0-.04,0c0,0,0,0,0,0-.08,0-.15.03-.22.06,0,0,0,0,0,0h-2.53v-20.66h2.66ZM122.33,103.22v-7.72h0s.68.68.68.68l.68.68v33.47l-1.37,1.37v-28.49ZM119.95,132.4c.05-.53.09-1.07.09-1.61,0,0,0,0,0,0v-4.01s0-.04,0-.06v-.02s0-.01,0-.02c0-.04,0-.08-.01-.11-.28-.84-.42-1.72-.42-2.61v-20.74s0,0,0-.02c0,0,0,0,0-.02,0-.89.14-1.77.42-2.61.01-.04.01-.08.01-.12,0,0,0-.01,0-.02h0s0-.05,0-.07v-5.56h0s1.31,0,1.31,0v37.6h-1.4ZM122.33,54.56V18.35l1.37,1.37v33.47l-.96.96-.41.41h0ZM121.34,26.07v29.18h0s-1.31,0-1.31,0v-5.62c0-.07,0-.14-.02-.21-.28-.84-.42-1.72-.42-2.61v-20.74s0,0,0-.02c0,0,0,0,0-.02,0-.42.04-.84.1-1.26.06-.41.16-.81.28-1.21,0,0,0,0,0-.01.03-.06.05-.13.05-.21v-.08s0-.04,0-.06v-3.94s0-.01,0-.02c0,0,0-.01,0-.02,0-.53-.03-1.06-.08-1.58h0s1.39,0,1.39,0v8.41ZM114.28,142.97c-.06.07-.12.13-.18.19-.24.26-.48.53-.73.77,0,0,0,0-.01.01-.05.05-.11.09-.16.14-.07.06-.14.12-.21.19-.23.2-.45.41-.69.6,0,0,0,0,0,0-.11.09-.23.16-.34.25-.07.05-.14.1-.21.15-.19.14-.37.28-.57.41-.01,0-.03.01-.04.02-.2.13-.42.24-.63.37-.05.03-.1.06-.14.08-.15.09-.3.19-.46.27,0,0-.01,0-.02,0-.43.22-.88.43-1.34.6-.46.18-.93.33-1.4.47-.22.06-.45.1-.68.15-.25.06-.49.12-.74.16-.33.06-.67.09-1,.12-.14.01-.29.04-.43.05-.41.03-.82.03-1.23.03-.07,0-.13,0-.2,0-.46-.01-.93-.05-1.39-.1-.01,0-.02,0-.03,0-.5-.06-1-.15-1.5-.27-.2-.05-.4-.11-.6-.16-.26-.07-.51-.13-.76-.22-.32-.11-.64-.24-.95-.36-.12-.05-.24-.09-.36-.14l.36-1.52.51-2.13h0c.39.2.8.39,1.21.54,0,0,.02,0,.02,0,.39.15.79.28,1.2.38.11.03.22.04.33.07.31.07.63.14.95.18.45.06.9.09,1.35.09,1.25,0,2.51-.21,3.72-.65.37-.13.74-.29,1.09-.46.15-.07.3-.16.45-.24.19-.1.38-.2.56-.31.2-.13.39-.27.59-.4.11-.08.23-.16.34-.24.23-.18.44-.37.66-.56.06-.06.13-.11.19-.17.24-.22.46-.46.67-.7.03-.03.06-.06.09-.1.23-.27.45-.55.65-.84,0-.01.02-.03.03-.04.21-.3.41-.62.59-.95,0,0,0,0,0,0,.18-.33.35-.67.5-1.02h0s3.29,1.59,3.29,1.59h0s0,0,0,0c-.02.05-.05.1-.07.15-.17.38-.36.75-.56,1.11-.03.06-.07.11-.1.16-.21.36-.43.71-.66,1.05-.05.07-.1.13-.15.2-.23.32-.47.63-.72.93,0,0-.01.02-.02.02-.01.02-.03.03-.04.05ZM19.95,140.29c-.94-.99-1.69-2.16-2.17-3.47,0,0,0-.01-.01-.02-.03-.06-.06-.12-.11-.16,0,0,0,0,0,0-.54-.88-.96-1.83-1.24-2.82,0,0,0,0,0-.01-.14-.49-.24-.99-.31-1.49,0,0,0,0,0-.01-.07-.51-.11-1.02-.11-1.54V19.27s0-.01,0-.02c0,0,0-.01,0-.02,0-1.06.15-2.1.44-3.1,0,0,0,0,0,0,.29-1,.72-1.97,1.28-2.86.02-.03.06-.05.07-.09.35-.96.85-1.83,1.45-2.62.28-.37.58-.73.91-1.06,1.03-1.02,2.29-1.82,3.7-2.33.07-.02.14-.04.21-.06.28-.09.56-.18.85-.25.19-.04.37-.07.56-.1.17-.03.34-.07.51-.09.27-.03.54-.05.8-.06.09,0,.18-.02.27-.02.32,0,.65,0,.97.04.03,0,.07,0,.1,0,1.43.13,2.83.57,4.1,1.3,0,0,0,0,0,0,0,0,.02.01.03.02.02.02.05.04.08.05.03.02.06.03.09.04.01,0,.02.01.04.02.02,0,.03,0,.05,0,.02,0,.05,0,.07,0,0,0,0,0,0,0h65.22s.07-.02.11-.02c0,0,0,0,0,0,.01,0,.02,0,.03,0,.03,0,.06-.02.09-.03,0,0,0,0,0,0,.02,0,.05-.01.07-.02.7-.41,1.44-.73,2.2-.96,2.04-.62,4.24-.59,6.29.15.35.12.69.27,1.02.43.19.09.36.2.54.3.14.08.28.15.41.23.25.16.49.33.72.51.05.04.11.07.16.11.28.22.54.45.79.69,0,0,0,0,.01.01,1.02,1,1.83,2.22,2.35,3.58,0,0,0,0,0,0,0,.06.02.12.04.18,0,0,0,.01,0,.02.01.03.04.05.06.07.04.05.07.1.12.13t0,0c1.02,1.7,1.58,3.63,1.61,5.61,0,0,0,0,0,0-.03.06-.05.13-.05.21,0,0,0,0,0,0v111.52s0,0,0,.01c0,.07.02.14.05.2,0,0,0,0,0,0-.04,1.99-.61,3.93-1.66,5.63,0,0,0,0,0,0-.03.03-.05.06-.07.09,0,0,0,0,0,0-.02.03-.05.06-.07.09-.01.03-.01.06-.02.09-.52,1.38-1.33,2.61-2.35,3.62,0,0-.02.01-.02.02-.25.24-.51.47-.78.69-.06.05-.14.09-.2.14-.22.17-.44.33-.68.48-.17.1-.34.19-.52.29-.15.08-.29.17-.44.24-.33.16-.67.3-1.02.43-.03,0-.05.01-.08.02-1.39.48-2.83.65-4.26.52-1.45-.14-2.87-.59-4.15-1.35-.07-.04-.14-.06-.21-.06,0,0-.01,0-.02,0-.07,0-.14,0-.2.04H32.76s0,0,0,0c-.06-.02-.13-.04-.2-.03,0,0-.01,0-.02,0-.07,0-.14.02-.21.06-1,.59-2.08.99-3.19,1.21-1.75.34-3.58.22-5.3-.4-.24-.09-.47-.19-.7-.3-1.21-.54-2.29-1.3-3.18-2.24ZM96.29,3.44l.88,3.66h-63.98l.88-3.66h62.22ZM96.29,146.62h-62.22s0,0,0,0l-.81-3.37-.07-.28h0s63.98,0,63.98,0l-.87,3.64h0v.02ZM12.07,9.93l-.07.08h0s.05-.06.07-.08Z"/>
  <polygon class="cls-1" points="123.69 53.19 123.69 19.72 122.33 18.35 122.33 26.07 122.33 46.84 122.33 54.56 122.74 54.15 123.69 53.19"/>
  <path class="cls-1" d="M117.18,11.78c-.03-.06-.05-.12-.09-.17h0s-3.29,1.6-3.29,1.6c0,0,0,0,0,0,.25.45.48.91.67,1.39,0,.02.02.04.02.06.19.46.35.94.48,1.42,0,.03.02.07.03.1.12.48.22.96.29,1.44,0,.04,0,.07.01.11.06.5.1,1,.1,1.5,0,0,0,0,0,0h0s0,0,0,0c0,.08-.03.16-.06.22v111.07c.04.07.06.14.06.23,0,.51-.04,1.02-.1,1.52,0,.03,0,.07-.01.1-.07.5-.17.99-.29,1.47,0,.03-.01.06-.02.08-.13.49-.3.98-.49,1.45,0,.01-.01.02-.02.04-.2.48-.43.95-.69,1.41,0,0,0,0,0,0l3.29,1.6h0s0,0,0,0c.02-.04.04-.08.06-.12.2-.37.38-.74.55-1.11.05-.1.08-.21.13-.31.14-.33.27-.65.38-.99.08-.22.14-.44.2-.67.07-.22.13-.44.19-.66,0-.02.01-.04.02-.07.01-.06.03-.12.04-.18.06-.26.1-.53.15-.79.03-.15.06-.29.08-.44,0-.03.01-.06.02-.09,0-.04-.02-.07-.02-.11,0-.08.03-.16.06-.23.08-.63.12-1.26.12-1.9v-3.99s0-.01,0-.02c-.28-.89-.42-1.81-.43-2.74,0,0,0-.01,0-.02,0,0,0,0,0,0v-20.77s0,0,0-.02c0,0,0,0,0-.02,0,0,0,0,0-.01,0-.47.04-.93.11-1.39,0,0,0-.01,0-.02.07-.46.18-.92.32-1.37,0,0,0-.01,0-.02v-50.76s0,0,0,0c0,0,0-.01,0-.02-.28-.89-.42-1.81-.43-2.74,0,0,0-.01,0-.02,0,0,0,0,0,0v-20.77s0,0,0-.02c0,0,0,0,0-.02,0,0,0,0,0-.01,0-.47.04-.93.11-1.39,0,0,0-.01,0-.02.07-.46.18-.92.32-1.37,0,0,0-.01,0-.02v-3.96s0,0,0-.02c0,0,0,0,0-.02,0-.24-.01-.48-.02-.72,0-.07,0-.13,0-.2-.02-.3-.05-.61-.08-.91-.04-.07-.07-.15-.07-.24,0-.05.01-.09.03-.14,0-.04-.01-.07-.02-.11-.02-.12-.05-.23-.06-.35-.05-.29-.1-.58-.16-.86-.02-.07-.03-.13-.05-.2,0-.02-.01-.03-.01-.05-.05-.22-.12-.43-.18-.65-.07-.23-.13-.46-.21-.69-.11-.32-.23-.63-.36-.95-.05-.12-.09-.24-.14-.35-.16-.35-.33-.7-.51-1.05Z"/>
  <path class="cls-1" d="M27.22,11.29c2.8,0,5.09,2.1,5.33,4.89.06.7-.01,1.38-.2,2.01.19-.63.26-1.31.2-2.01-.24-2.79-2.53-4.89-5.33-4.89-1.75,0-3.3.82-4.28,2.12.98-1.3,2.53-2.12,4.28-2.12Z"/>
  <path class="cls-1" d="M22.94,136.56c.87,1.17,2.21,1.97,3.73,2.13-1.53-.16-2.86-.96-3.73-2.13Z"/>
  <path class="cls-1" d="M32.46,132.28c.02.09.03.19.04.28-.01-.09-.02-.19-.04-.28Z"/>
  <path class="cls-1" d="M104.65,22.91h.03s0,0,.01,0c0,0,0,0-.01,0H25.73c-.48,0-.95.09-1.4.26.44-.17.91-.26,1.4-.26h78.91Z"/>
  <path class="cls-1" d="M31,137.14s-.04.03-.05.05c.02-.02.04-.03.05-.05Z"/>
  <path class="cls-1" d="M105.37,22.97c.2.04.39.09.58.16-.19-.07-.38-.12-.58-.16Z"/>
  <path class="cls-1" d="M31.35,136.76c-.08.09-.16.18-.24.27.08-.09.17-.17.24-.27Z"/>
  <path class="cls-1" d="M31.35,136.76c.76-.93,1.22-2.11,1.22-3.4,0-.18,0-.37-.03-.55.02.18.03.36.03.55,0,1.29-.46,2.47-1.22,3.4Z"/>
  <path class="cls-1" d="M28.01,128.07c.09.01.19.02.28.04-.09-.02-.19-.03-.28-.04Z"/>
  <polygon class="cls-1" points="25.96 109.59 25.96 109.59 25.96 109.59 25.96 109.59"/>
  <polygon class="cls-1" points="104.45 109.59 104.45 109.59 104.45 109.59 104.45 109.59"/>
  <path class="cls-1" d="M106.11,128.87c-.84-.55-1.84-.87-2.91-.87-.55,0-1.09.08-1.59.24.5-.16,1.04-.24,1.59-.24,1.07,0,2.07.32,2.91.87Z"/>
  <path class="cls-1" d="M97.84,133.36c0-1.29.46-2.48,1.22-3.4-.76.93-1.22,2.11-1.22,3.4,0,2.31,1.47,4.27,3.52,5.02-2.05-.75-3.52-2.72-3.52-5.02Z"/>
  <path class="cls-1" d="M99.31,129.69s.07-.08.1-.11c-.04.04-.07.08-.1.11Z"/>
  <path class="cls-1" d="M106.6,129.23c1.19.98,1.95,2.47,1.95,4.13,0,2.37-1.55,4.39-3.7,5.09,2.14-.7,3.7-2.71,3.7-5.09,0-1.66-.76-3.15-1.95-4.13Z"/>
  <path class="cls-1" d="M106.19,128.92c.14.09.27.19.4.3-.13-.11-.26-.21-.4-.3Z"/>
  <path class="cls-1" d="M108.53,105.89s0,0,0,0c-.06,1.01-.5,1.92-1.19,2.58.69-.66,1.13-1.56,1.19-2.58Z"/>
  <path class="cls-1" d="M104.68,109.53s0,0,0,0c.04,0,.08-.01.12-.01-.04,0-.08.01-.12.01,0,0,0,0,0,0Z"/>
  <path class="cls-1" d="M22.03,25.65h0s0,0,0,0c-.06.19-.1.38-.13.57.03-.19.07-.38.13-.57,0,0,0,0,0,0Z"/>
  <path class="cls-1" d="M29.14,143.22c1.11-.22,2.19-.62,3.19-1.21.07-.04.14-.06.21-.06,0,0,.01,0,.02,0,.07,0,.13,0,.2.03,0,0,0,0,0,0h64.9c.06-.03.13-.04.2-.04,0,0,.01,0,.02,0,.07,0,.14.02.21.06,1.29.76,2.71,1.21,4.15,1.35,1.42.14,2.87-.04,4.26-.52.03,0,.05-.01.08-.02.35-.13.69-.27,1.02-.43.15-.07.29-.16.44-.24.17-.1.35-.18.52-.29.24-.15.46-.31.68-.48.07-.05.14-.09.2-.14.27-.22.53-.45.78-.69,0,0,.02-.01.02-.02,1.02-1.01,1.83-2.24,2.35-3.62,0-.03,0-.06.02-.08.02-.04.05-.06.07-.09,0,0,0,0,0,0,.02-.03.04-.06.07-.09,0,0,0,0,0,0,1.04-1.7,1.61-3.64,1.66-5.63,0,0,0,0,0,0-.03-.06-.05-.13-.05-.2,0,0,0,0,0-.01V19.27s0,0,0,0c0-.07.02-.14.05-.21,0,0,0,0,0,0-.03-1.98-.59-3.91-1.61-5.61,0,0,0,0,0,0-.05-.03-.09-.08-.12-.13-.02-.03-.05-.04-.06-.07,0,0,0-.01,0-.02-.03-.06-.04-.12-.04-.18,0,0,0,0,0,0-.53-1.37-1.33-2.59-2.35-3.58,0,0,0,0-.01-.01-.25-.24-.51-.48-.79-.69-.05-.04-.11-.07-.16-.11-.23-.18-.47-.35-.72-.51-.13-.08-.27-.15-.41-.23-.18-.1-.35-.21-.54-.3-.33-.16-.67-.3-1.02-.43-2.05-.73-4.25-.77-6.29-.15-.76.23-1.5.55-2.2.96-.02.01-.04.01-.07.02,0,0,0,0,0,0-.03.02-.06.02-.09.03-.01,0-.02,0-.03,0-.04,0-.07.02-.11.02H32.57s-.05,0-.07,0c-.02,0-.03,0-.05,0-.01,0-.02-.01-.04-.02-.03-.01-.06-.02-.09-.04-.03-.02-.05-.03-.08-.05,0,0-.02-.01-.03-.02-1.28-.73-2.68-1.17-4.1-1.3-.03,0-.07,0-.1,0-.32-.03-.65-.04-.97-.04-.09,0-.18.01-.27.02-.27.01-.54.02-.8.06-.17.02-.34.06-.51.09-.19.03-.37.06-.56.1-.28.07-.57.16-.85.25-.07.02-.14.04-.21.06-1.41.5-2.67,1.3-3.7,2.33-.33.33-.63.68-.91,1.06-.6.79-1.1,1.67-1.45,2.62-.01.04-.05.06-.07.09-.56.89-.99,1.86-1.28,2.86,0,0,0,0,0,0-.29,1-.44,2.05-.44,3.1,0,0,0,0,0,.02,0,0,0,0,0,.02v111.49c0,.52.04,1.03.11,1.54,0,0,0,0,0,.01.07.51.18,1.01.31,1.49,0,0,0,0,0,.01.28.99.7,1.93,1.24,2.82,0,0,0,0,0,0,.05.05.09.1.11.16,0,0,0,0,.01.02.48,1.32,1.23,2.49,2.17,3.47.9.94,1.97,1.7,3.18,2.24.23.1.46.21.7.3,1.72.62,3.55.74,5.3.4ZM72.75,137.32c-4.78,3.37-11.25,3.17-15.8-.48-1.18.65-2.55-.22-2.39-1.59.02-.2.22-.5.17-.65-1.05-1.39-1.87-2.9-2.31-4.6-1.29-4.87.08-9.69,3.68-13.14,4.7-4.51,12.1-4.82,17.23-.82.11.03.37-.15.53-.18,1.11-.15,2.03.67,1.88,1.8-.02.18-.21.51-.18.63.03.09.41.51.49.64,4.14,6.06,2.66,14.19-3.31,18.39ZM103.2,139.69c-3.49,0-6.33-2.84-6.33-6.33s2.84-6.33,6.33-6.33,6.33,2.84,6.33,6.33-2.84,6.33-6.33,6.33ZM20.89,26.78c0-.48.07-.95.21-1.41,0,0,0,0,0,0,0,0,0-.01,0-.02l.27-.68.39-.71.69-.77c.05-.05.11-.09.17-.11.47-.39.99-.69,1.56-.88-2.16-1.17-3.5-3.52-3.28-6.11.29-3.3,3-5.78,6.31-5.78s6.02,2.49,6.31,5.78c.21,2.4-.93,4.6-2.82,5.84h69.01c-1.89-1.24-3.03-3.44-2.82-5.84.29-3.3,3-5.78,6.31-5.78s6.02,2.49,6.31,5.78c.23,2.59-1.11,4.94-3.28,6.11.63.21,1.21.54,1.71.99.05.05.09.11.12.17l.5.55.27.41s.03.06.05.09l.32.65c.04.06.05.14.06.21.02.03.04.07.06.11.14.46.21.93.21,1.4,0,.08-.03.16-.06.23v78.43c.04.07.06.14.06.23,0,2.6-2.05,4.7-4.62,4.83-.08.05-.16.08-.26.08H25.7c-.1,0-.19-.04-.27-.09-2.51-.16-4.51-2.21-4.54-4.76,0-.01,0-.02,0-.03v-62.74s-.03-.08-.03-.12c0-.06.01-.11.03-.16v-15.87s0-.01,0-.02c0,0,0-.01,0-.02ZM20.89,133.36c0-3.49,2.84-6.33,6.33-6.33s6.33,2.84,6.33,6.33-2.84,6.33-6.33,6.33-6.33-2.84-6.33-6.33Z"/>
  <path class="cls-1" d="M23.57,108.87c.62.42,1.36.66,2.16.66,0,0,0,0,0,0,0,0,0,0,0,0-.8,0-1.54-.24-2.16-.66Z"/>
  <path class="cls-1" d="M104.54,138.53c-.13.03-.27.07-.41.09.14-.02.27-.06.41-.09Z"/>
  <path class="cls-1" d="M106.02,23.15c.42.16.81.39,1.16.68-.35-.3-.74-.53-1.16-.68Z"/>
  <path class="cls-1" d="M105.8,109.35c-.12.04-.23.08-.36.11.12-.02.24-.07.36-.11Z"/>
  <polygon class="cls-1" points="22.9 24.15 22.56 24.53 22.09 25.54 22.56 24.53 22.9 24.15"/>
  <path class="cls-1" d="M97.86,16.18c.24-2.79,2.53-4.89,5.33-4.89s5.09,2.1,5.33,4.89c.03.35.03.69,0,1.03.03-.34.04-.68,0-1.03-.24-2.79-2.53-4.89-5.33-4.89s-5.09,2.1-5.33,4.89c-.03.35-.03.69,0,1.03-.03-.34-.04-.68,0-1.03Z"/>
  <path class="cls-1" d="M27.77,128.03c-.18-.02-.36-.03-.55-.03-1.02,0-1.96.29-2.77.78.81-.49,1.76-.78,2.78-.78.18,0,.37,0,.55.03Z"/>
  <path class="cls-1" d="M107.54,24.21l-.08-.08.08.08.22.27.5.93.04.1c0,.06.01.12.03.17-.02-.05-.03-.11-.03-.17l-.04-.1-.49-.93-.22-.27Z"/>
  <path class="cls-1" d="M73.2,118.67c-.58-.46-.73-1.18-.51-1.87-1.45-1.13-3.13-1.95-4.93-2.33-6.22-1.3-12.36,2.27-14.27,8.31-1.21,3.83-.45,8.03,1.98,11.2.1.09.36-.06.47-.08.89-.12,1.79.68,1.78,1.58,0,.17-.15.54-.1.64,2.65,2.12,6.19,2.99,9.55,2.45,7.25-1.17,11.86-8.53,9.77-15.6-.44-1.49-1.21-2.79-2.1-4.05-.61.1-1.14.16-1.65-.24ZM70.62,131.55c-.09.29-.53.32-.67.06-.09-.16-.11-.72-.17-.96-.42-1.73-1.94-3.16-3.69-3.49-2.88-.54-5.45,1.57-5.63,4.45-.15.15-.2.22-.44.17-.44-.08-.27-.71-.3-1.02.06-2.75.06-5.52.04-8.28,0-.27-.12-.99.09-1.19.24-.21.58-.07.64.22.1.51.1.91.29,1.43,1.21,3.23,5.41,4.14,7.82,1.65.54-.55,1-1.37,1.17-2.13.08-.37.08-.72.17-1.08.19-.32.59-.26.69.08l-.02,10.08Z"/>
  <path class="cls-1" d="M106.59,109c-.15.08-.29.17-.45.23.16-.06.3-.15.45-.23Z"/>
  <path class="cls-1" d="M107.27,108.51c-.15.14-.31.27-.49.39.17-.11.33-.25.49-.39Z"/>
  <path class="cls-1" d="M108.53,26.6s0,0,0,0c-.01-.26-.05-.53-.12-.78,0,0,0,0,0,0,0,0,0,0,0,0,.07.26.1.52.12.78Z"/>
  <polygon class="cls-1" points="33.19 142.97 33.26 143.25 34.07 146.62 34.07 146.62 96.29 146.62 96.29 146.6 97.17 142.97 33.19 142.97"/>
  <path class="cls-1" d="M12.88,137.52s0,0,0,0c.14.3.29.6.46.89h0s3.29-1.6,3.29-1.6c0,0,0,0,0,0-.26-.45-.48-.91-.68-1.39,0-.02-.01-.03-.02-.05-.19-.47-.36-.95-.49-1.44,0-.02-.01-.05-.02-.07-.13-.49-.23-.98-.3-1.49,0-.01,0-.02,0-.04-.07-.51-.1-1.03-.11-1.55,0,0,0,0,0,0V19.27s0-.01,0-.02c0,0,0-.01,0-.02,0-.5.04-1,.1-1.5,0-.04,0-.07.01-.11.06-.48.16-.96.28-1.43,0-.04.02-.08.03-.12.13-.48.28-.94.47-1.4,0-.02.02-.05.03-.07.19-.47.41-.93.66-1.37,0,0,0,0,0,0l-3.28-1.59h0c-.16.29-.31.58-.45.88-.06.12-.11.25-.16.38-.08.17-.15.34-.22.52,0,.02-.01.03-.02.05-.04.1-.07.19-.1.29-.05.13-.09.25-.14.38-.02.07-.05.13-.07.2-.01.04-.03.08-.04.13-.09.27-.16.54-.24.81-.02.08-.04.16-.06.24-.06.24-.11.48-.16.72-.03.13-.04.26-.07.39,0,.06-.02.11-.03.17-.02.14-.05.27-.07.41,0,0,0,0,0,0-.03.21-.04.41-.06.62-.01.13-.03.25-.04.38-.02.34-.03.69-.03,1.03,0,.08-.03.16-.06.23v3.6s.02.03.03.05c.06.2.12.4.17.6,0,.04.02.07.03.11,0,0,0,0,0,0,.17.72.26,1.46.26,2.2,0,.08-.03.16-.06.22v20.32c.04.07.06.14.06.22,0,.87-.13,1.72-.36,2.55-.03.12-.06.25-.1.37,0,.02-.02.03-.03.04v50.45s.02.03.03.05c.06.2.12.4.17.6,0,.04.02.07.03.11,0,0,0,0,0,0,.17.72.26,1.46.26,2.2,0,.08-.03.16-.06.22v20.32c.04.07.06.14.06.22,0,.87-.13,1.72-.36,2.55-.03.12-.06.25-.1.37,0,.02-.02.03-.03.04v3.61c.04.07.06.14.06.23,0,.35.01.69.03,1.04,0,.12.02.25.04.37.02.21.04.43.06.64.02.15.05.31.07.46,0,.04.01.09.02.13.02.13.04.26.07.39.05.25.11.49.17.73.02.08.04.16.06.23.07.28.15.55.24.82.01.04.02.08.04.12.02.07.05.13.07.2.04.11.08.22.12.32.04.12.08.24.13.35,0,.02.01.03.02.05.07.17.14.33.21.49.05.11.1.23.15.34,0,.02.02.04.03.06Z"/>
  <polygon class="cls-1" points="34.07 3.44 33.19 7.09 97.17 7.09 96.29 3.44 34.07 3.44"/>
  <path class="cls-1" d="M102.94,1.97s-.06,0-.09,0c0,0,0,0,0,0-.45.01-.9.05-1.34.1-.03,0-.06,0-.09,0-.47.06-.94.14-1.4.24,0,0,0,0-.01,0-.47.1-.93.23-1.39.38,0,0,0,0,0,0-.44.15-.88.32-1.31.51-.01,0-.03.01-.04.02l.39,1.64.48,1.99c.68-.35,1.38-.63,2.11-.84,0,0,0,0,0,0,.35-.1.71-.18,1.07-.25.02,0,.05,0,.07-.01.34-.06.68-.1,1.03-.13.06,0,.12,0,.18,0,.31-.02.62-.03.94-.02.11,0,.21.02.32.02.27.02.54.03.81.07.17.02.34.06.52.09.21.04.41.07.62.12.37.09.74.2,1.1.33,0,0,.02,0,.03,0,0,0,.02,0,.03.01.36.13.72.28,1.06.45.17.08.33.18.49.27.18.1.35.19.52.29.22.13.42.29.63.43.1.07.2.14.3.21.24.19.47.39.69.59.05.05.11.09.16.14.25.23.48.48.7.74.02.02.04.05.06.07.24.28.46.57.67.87,0,0,0,.01.01.02.43.62.8,1.29,1.1,1.99,0,0,0,0,0,0l3.29-1.6h0s-.04-.08-.06-.13c-.18-.39-.37-.78-.57-1.15-.02-.04-.05-.09-.08-.13-.21-.37-.44-.74-.68-1.09-.04-.06-.09-.12-.13-.17-.24-.33-.48-.65-.74-.96-.08-.09-.16-.17-.24-.26-.24-.27-.48-.53-.73-.78,0,0-.01-.01-.02-.02-.03-.03-.06-.05-.08-.08-.1-.09-.2-.18-.3-.27-.22-.2-.44-.4-.67-.59,0,0,0,0-.01,0-.08-.06-.17-.12-.25-.18-.11-.09-.23-.16-.35-.25-.19-.13-.37-.28-.56-.4,0,0,0,0,0,0-.17-.11-.34-.2-.51-.3-.11-.07-.22-.13-.34-.19-.14-.08-.27-.16-.41-.23-.33-.17-.68-.32-1.02-.46-.11-.04-.21-.1-.31-.14-.14-.05-.28-.09-.42-.14-.32-.12-.65-.23-.98-.32,0,0,0,0,0,0-.25-.07-.51-.12-.76-.17-.05-.01-.09-.02-.14-.03-.17-.04-.34-.08-.52-.11,0,0,0,0,0,0-.34-.06-.68-.09-1.03-.13-.04,0-.09-.01-.13-.02-.09,0-.18-.03-.27-.03,0,0,0,0,0,0-.4-.03-.81-.03-1.21-.03-.04,0-.09,0-.13,0Z"/>
  <path class="cls-1" d="M15.32,8.07c-.05.07-.1.13-.15.2-.24.35-.47.71-.68,1.08-.03.05-.06.09-.08.14-.21.37-.4.76-.57,1.15-.02.04-.04.08-.06.13h0s3.29,1.6,3.29,1.6c0,0,0,0,0,0,.3-.71.66-1.38,1.09-2,0,0,.01-.01.02-.02.21-.3.43-.59.67-.87.02-.03.05-.05.07-.07.22-.26.45-.51.7-.74.05-.05.1-.09.16-.14.23-.21.45-.41.7-.6.09-.07.19-.14.29-.21.21-.15.42-.31.65-.45.16-.1.32-.18.48-.27.18-.1.35-.2.53-.29.3-.15.62-.28.94-.4.05-.02.1-.04.15-.06.03-.01.07-.02.1-.03.34-.12.68-.22,1.02-.3.19-.05.38-.07.57-.11.19-.03.37-.08.56-.1.25-.03.5-.05.75-.06.13,0,.25-.02.38-.03.29,0,.58,0,.87.02.08,0,.16,0,.23,0,.33.02.65.06.97.12.04,0,.08.01.12.02.35.06.69.14,1.03.23.01,0,.03,0,.04.01.72.2,1.41.47,2.09.82l.87-3.63s-.04-.01-.05-.02c-.42-.18-.85-.35-1.29-.49-.02,0-.04,0-.05-.02-.44-.14-.88-.26-1.33-.36-.03,0-.06-.01-.09-.02-.44-.09-.87-.17-1.32-.22,0,0-.01,0-.02,0-.02,0-.03,0-.05,0-.04,0-.08,0-.13,0-.41-.04-.82-.08-1.23-.09,0,0,0,0,0,0-.08,0-.16,0-.24,0-.04,0-.07,0-.11,0-.36,0-.71,0-1.07.03-.18.01-.35.04-.52.06-.01,0-.03,0-.04,0-.29.03-.57.06-.86.11-.3.05-.6.13-.9.2-.17.04-.35.07-.52.12-.47.13-.94.29-1.41.47-.46.18-.91.38-1.34.61-.11.06-.22.13-.33.19-.11.06-.22.13-.33.19-.2.12-.4.22-.59.35,0,0,0,0,0,0-.17.11-.33.24-.5.36-.13.09-.25.18-.38.27-.09.07-.19.13-.28.21,0,0,0,0,0,0-.22.17-.42.37-.63.55-.11.1-.22.19-.33.29-.03.03-.07.06-.1.09,0,0-.01.01-.02.02-.25.24-.48.5-.71.75-.08.09-.17.17-.25.26,0,0,0,0,0,0,0,0-.01.02-.02.03-.26.3-.49.62-.72.94Z"/>
  <polygon class="cls-1" points="8.03 46.84 8.03 26.07 8.03 18.35 6.66 19.72 6.66 26.07 6.66 53.19 7.89 54.42 8.03 54.56 8.03 46.84"/>
  <path class="cls-4" d="M2.44,46.53s.08.06.13.09c.06.03.12.04.18.06.08.02.16.05.24.05,0,0,0,0,0,0,.08,0,.15.03.22.06,0,0,0,0,0,0h2.47v-20.66h0s-2.69,0-2.69,0c-.18,0-.33.06-.47.14-.29.17-.49.46-.49.82,0,.08-.03.16-.06.22v18.22c.04.07.06.14.06.22,0,.13.03.26.08.37,0,.02.02.03.03.05.02.04.05.08.08.12.06.09.14.17.23.23Z"/>
  <path class="cls-1" d="M9.01,17.66v37.6h1.31v-5.63s0-.01,0-.02c0-.05.01-.09.03-.14.02-.05.04-.09.07-.12.23-.75.36-1.52.38-2.3,0,0,0,0,0,0-.03-.06-.04-.13-.04-.2v-20.77c0-.07.02-.14.05-.21-.02-.74-.13-1.46-.34-2.17-.09-.09-.14-.21-.14-.35v-4.08c0-.09.03-.16.07-.24,0,0,0-.01,0-.02,0-.45.03-.9.07-1.34,0,0,0,0,0-.01h-1.45Z"/>
  <polygon class="cls-1" points="8.03 103.22 8.03 95.5 7.62 95.91 6.66 96.87 6.66 103.22 6.66 130.34 8.03 131.71 8.03 103.22"/>
  <path class="cls-4" d="M2.44,123.68s.08.06.13.09c.06.03.12.04.18.06.08.02.16.05.24.05,0,0,0,0,0,0,.08,0,.15.03.22.06,0,0,0,0,0,0h2.47v-20.66h0s-2.69,0-2.69,0c-.18,0-.33.06-.47.14-.29.17-.49.46-.49.82,0,.08-.03.16-.06.22v18.22c.04.07.06.14.06.22,0,.13.03.26.08.37,0,.02.02.03.03.05.02.04.05.08.08.12.06.09.14.17.23.23Z"/>
  <path class="cls-1" d="M10.39,131.05s0-.01,0-.02c-.04-.07-.07-.15-.07-.24v-4.08s.01-.07.02-.1c0-.02,0-.05.01-.07.02-.05.05-.1.09-.14.22-.72.33-1.46.35-2.2,0,0,0,0,0,0-.03-.06-.04-.13-.04-.2v-20.77c0-.07.02-.14.05-.21-.02-.77-.14-1.53-.36-2.26,0,0,0,0,0,0-.04-.04-.07-.09-.09-.14-.01-.04-.02-.08-.02-.12,0-.02-.01-.04-.01-.06v-5.63h-1.31v37.6h1.46s0,0,0-.01c-.04-.45-.07-.89-.08-1.34Z"/>
  <path class="cls-1" d="M29.12,147.9c.45-.06.89-.13,1.33-.23.24-.06.48-.13.73-.2.21-.06.42-.11.63-.18.33-.11.66-.24.98-.37.1-.04.21-.07.31-.12l-.87-3.64h0c-.39.2-.78.37-1.19.52-.02,0-.03.01-.05.02-.38.14-.76.26-1.16.36-.12.03-.24.05-.36.07-.3.06-.6.13-.9.17-.45.06-.89.09-1.34.09-1.18,0-2.37-.2-3.52-.59-.06-.02-.13-.04-.19-.06-.01,0-.02-.01-.03-.01-.36-.13-.71-.28-1.05-.44-.16-.08-.32-.17-.48-.26-.18-.1-.36-.19-.54-.3-.21-.13-.41-.27-.6-.42-.11-.08-.22-.15-.33-.23-.23-.18-.45-.37-.66-.57-.06-.06-.13-.11-.19-.16-.24-.23-.46-.46-.68-.71-.03-.03-.06-.06-.09-.1-.23-.27-.45-.55-.65-.84,0-.01-.02-.02-.03-.04-.21-.31-.41-.62-.59-.95,0,0,0,0,0,0-.18-.33-.35-.68-.5-1.03l-3.29,1.6h0c.03.08.08.15.11.22.16.35.33.7.52,1.04.05.1.12.18.17.28.19.32.38.63.59.93.09.13.19.25.28.37.19.26.38.51.59.76,0,.01.02.02.03.04,0,0,.01.01.02.02.13.15.28.29.42.44.17.18.33.37.51.54,0,0,.02.02.02.02.04.04.09.07.13.11.17.16.36.32.54.47.13.11.25.23.39.34,0,0,0,0,.01.01.1.08.2.14.3.22.2.15.4.29.61.43.09.06.16.12.25.18,0,0,0,0,0,0,.19.12.38.22.58.34.18.11.36.22.55.32.04.02.08.05.12.07.41.21.84.4,1.27.57.02,0,.05.02.07.03.02,0,.03,0,.05.02.44.17.89.32,1.35.45.24.07.48.11.73.16.23.05.46.11.69.15.34.06.68.09,1.03.13.13.01.26.04.4.05.41.03.83.04,1.24.03.06,0,.12,0,.18,0,.46-.01.93-.04,1.39-.1,0,0,.02,0,.03,0,.04,0,.08-.01.12-.02.02,0,.04,0,.06,0Z"/>
  <path class="cls-1" d="M115.06,141.97c.05-.07.1-.13.15-.2.24-.34.46-.69.66-1.05.03-.06.07-.11.1-.16.2-.36.39-.73.56-1.11.02-.05.05-.1.07-.15h0s-3.29-1.6-3.29-1.6c0,0,0,0,0,0-.15.35-.32.69-.5,1.02,0,0,0,0,0,0-.18.33-.38.64-.59.95,0,.01-.02.03-.03.04-.2.29-.42.57-.65.84-.03.03-.06.07-.09.1-.22.24-.44.48-.67.7-.06.06-.13.11-.19.17-.21.19-.43.38-.66.56-.11.09-.23.16-.34.24-.19.14-.38.28-.59.4-.18.11-.37.21-.56.31-.15.08-.29.17-.45.24-.35.17-.72.32-1.09.46-1.21.43-2.47.65-3.72.65-.45,0-.9-.03-1.35-.09-.32-.04-.63-.11-.95-.18-.11-.02-.22-.04-.33-.07-.41-.1-.8-.23-1.2-.38,0,0-.02,0-.02,0-.41-.15-.81-.34-1.21-.54l-.51,2.13-.36,1.52c.12.05.24.09.36.14.31.13.63.26.95.36.25.08.51.15.76.22.2.05.4.12.6.16.5.11.99.2,1.5.27.01,0,.02,0,.03,0,.46.06.92.09,1.39.1.07,0,.13,0,.2,0,.41,0,.82,0,1.23-.03.14-.01.29-.04.43-.05.34-.03.67-.07,1-.12.25-.04.49-.11.74-.16.23-.05.46-.09.68-.15.47-.13.94-.29,1.4-.47.46-.18.9-.38,1.34-.6.16-.08.32-.18.48-.27.05-.03.1-.06.14-.08.21-.12.43-.23.63-.37.21-.14.41-.29.61-.43.07-.05.14-.1.21-.15.11-.08.23-.16.34-.25,0,0,0,0,0,0,.24-.19.46-.4.69-.6.07-.06.14-.12.21-.19.05-.05.11-.09.16-.14,0,0,0,0,.01-.01.25-.25.49-.51.73-.77.06-.07.12-.13.18-.19.01-.02.03-.03.04-.05,0,0,.01-.02.02-.02.25-.3.49-.61.72-.93Z"/>
  <polygon class="cls-1" points="123.69 130.34 123.69 123.99 123.69 103.22 123.69 96.87 123.01 96.19 122.33 95.5 122.33 103.22 122.33 123.99 122.33 131.71 123.69 130.34"/>
  <path class="cls-4" d="M124.67,123.93h2.53s0,0,0,0c.07-.03.14-.06.22-.06,0,0,0,0,0,0,.01,0,.02,0,.04,0,.05,0,.09-.02.14-.03.09-.02.18-.04.25-.08.02-.01.04-.03.07-.05.06-.04.13-.07.18-.12.17-.17.28-.41.28-.68v-18.58s0-.03,0-.05c0-.02,0-.03,0-.05,0-.37-.21-.68-.52-.84-.02-.01-.04-.03-.06-.04-.03-.01-.06-.01-.09-.02-.09-.03-.18-.05-.27-.05,0,0-.01,0-.02,0,0,0,0,0-.02,0,0,0,0,0-.02,0h-2.72v20.66Z"/>
  <path class="cls-1" d="M121.34,103.22v-8.41h-1.31v5.56s0,.04,0,.06h0s0,.03,0,.04c0,.04,0,.08-.01.12-.28.84-.42,1.72-.42,2.61,0,0,0,0,0,.02,0,0,0,0,0,.02v20.74c0,.89.14,1.77.42,2.61.01.04.01.08.01.11,0,0,0,.01,0,.02v.02s0,.04,0,.06v4.01s0,0,0,0c0,.54-.04,1.07-.09,1.61h1.4v-29.18Z"/>
  <path class="cls-1" d="M121.34,26.07v-8.41h-1.39c.05.52.08,1.05.08,1.58,0,0,0,.01,0,.02,0,0,0,.01,0,.02v3.94s0,.04,0,.06v.08c0,.08-.02.14-.05.21,0,0,0,0,0,.01-.12.4-.22.8-.28,1.21-.06.42-.1.84-.1,1.26,0,0,0,0,0,.02,0,0,0,0,0,.02v20.74c0,.89.14,1.77.42,2.61.02.07.03.14.02.21v5.62h1.31v-29.18Z"/>
  <path class="cls-4" d="M127.72,26.18c-.09-.03-.18-.05-.27-.05,0,0-.01,0-.02,0,0,0,0,0-.02,0,0,0,0,0-.02,0h-2.72v20.66h2.53s0,0,0,0c.07-.03.14-.06.22-.06,0,0,0,0,0,0,.01,0,.02,0,.04,0,.05,0,.09-.02.14-.03.09-.02.18-.04.25-.08.02-.01.04-.03.07-.05.06-.04.13-.07.18-.12.17-.17.28-.41.28-.68v-18.58s0-.03,0-.05c0-.02,0-.03,0-.05,0-.37-.21-.68-.52-.84-.02-.01-.04-.03-.06-.04-.03-.01-.06-.01-.09-.02Z"/>
  <path class="cls-4" d="M108.26,25.41l-.5-.93-.22-.27-.08-.08-.25-.25s-.02-.03-.03-.04c0,0,0,0,0,0-.35-.29-.74-.53-1.16-.68-.02,0-.05-.01-.07-.02-.19-.07-.38-.12-.58-.16-.22-.04-.45-.06-.68-.06,0,0,0,0-.01,0H25.73c-.48,0-.95.09-1.4.26-.44.17-.85.42-1.2.74-.01.01-.03.02-.05.03l-.19.21-.34.37-.47,1.01-.05.12s0,0,0,0c-.06.19-.1.38-.13.57-.03.18-.04.37-.04.55,0,0,0,.01,0,.02,0,0,0,.01,0,.02v78.85c0,1.33.68,2.51,1.71,3.21.62.42,1.36.66,2.16.66,0,0,0,0,0,0,.08,0,.15.03.22.06,0,0,0,0,0,0h78.49s0,0,0,0c.07-.04.14-.06.22-.06,0,0,0,0,0,0,.04,0,.08-.01.12-.01.22,0,.44-.02.65-.07.12-.02.24-.07.36-.11.12-.04.24-.06.35-.11.16-.06.3-.15.45-.23.06-.04.13-.06.19-.1.17-.11.34-.25.49-.39.02-.02.04-.03.06-.05.69-.66,1.13-1.57,1.19-2.58-.03-.06-.04-.12-.04-.19V26.81c0-.07.02-.14.05-.21-.01-.27-.05-.53-.12-.78,0,0,0,0,0,0-.03-.04-.06-.09-.08-.14-.02-.05-.03-.11-.03-.17l-.04-.1ZM88.7,53.35h2.19v7.01c0,.37.05.72.26,1.03.27.38.67.53,1.1.59.28.05.56.05.84.05h3.89c.05,0,.1,0,.15,0v2.18h-.09c-1.55,0-3.1,0-4.65-.02-.87-.02-1.69-.24-2.41-.77-.61-.45-1-1.07-1.14-1.82-.08-.39-.13-.8-.13-1.2-.02-2.29,0-4.59,0-6.88v-.19ZM54.96,55.51v-2.18h4.16c.97,0,1.66,0,1.96,0,.18,0,.58,0,1.07.16.22.07.44.16.65.28.81.44,1.31,1.11,1.5,2.01.18.86.12,1.7-.25,2.51-.33.72-.87,1.24-1.6,1.55-.06.03-.12.05-.2.07.83,1.42,1.65,2.83,2.48,4.26h-2.44c-.17-.28-.34-.57-.51-.86-.6-1.02-1.2-2.04-1.8-3.06-.03-.05-.06-.08-.1-.11-.06-.03-.12-.03-.13-.03h-2.6v4.06h-2.19v-.15c0-1.38,0-2.76,0-4.14,0-.25.03-.52.09-.77.14-.62.57-.94,1.18-1.04.22-.03.45-.05.68-.05h4c.36,0,.69-.09.95-.36.44-.46.44-1.36,0-1.83-.2-.21-.46-.3-.74-.31-.24,0-.48,0-.71,0h-5.45ZM33.42,56.86c0-.77.2-1.5.67-2.14.48-.67,1.16-1.06,1.94-1.23.44-.1.9-.15,1.36-.16,1.33-.02,2.66,0,3.99,0h.58v2.19h-.18c-1.48,0-2.96,0-4.44,0-.34,0-.67.07-.98.21-.38.18-.65.48-.71.9-.06.42-.06.86-.08,1.32h6.34v2.09h-6.31v4.16h-2.17v-.13c0-2.41-.02-4.81,0-7.22ZM40.56,78.93v.2h-2.18v-8.47c-.02-.21-.12-.36-.33-.41-.44-.11-.74.02-.84.46-.38,1.65-.77,3.3-1.17,4.95-.14.6-.27,1.2-.44,1.79-.1.33-.27.64-.45.94-.32.51-.82.79-1.41.9-.56.1-1.12.09-1.67-.07-.69-.2-1.14-.65-1.45-1.28-.25-.52-.35-1.08-.48-1.63-.24-.98-.47-1.97-.7-2.96-.19-.81-.38-1.62-.56-2.42-.03-.13-.07-.27-.12-.39-.09-.25-.36-.36-.68-.3-.28.05-.41.21-.41.51v8.41h-2.16c-.04-4.53-.02-7.82,0-8.57,0-.22,0-.79.33-1.33.12-.21.28-.4.48-.58.23-.21.5-.34.79-.42.71-.19,1.41-.21,2.12-.02.89.25,1.44.85,1.7,1.72.18.59.3,1.2.44,1.79.15.64.3,1.29.44,1.93.23.99.45,1.98.68,2.97.02.07.03.14.05.2.08.24.23.35.47.37.26.02.45-.08.53-.32.11-.34.18-.69.26-1.04.22-.93.44-1.86.65-2.79.21-.94.43-1.89.65-2.84.15-.63.44-1.19.96-1.6.28-.22.61-.35.97-.42.64-.12,1.29-.12,1.92.07.87.26,1.36.87,1.54,1.73.06.27.07.55.07.83v8.13ZM50.66,79.13c-.07-.2-.14-.41-.21-.61-.41-1.28-.84-2.55-1.25-3.83-.42-1.28-.84-2.57-1.25-3.85-.07-.23-.18-.41-.44-.46-.29-.06-.56.08-.66.39-.23.67-.44,1.36-.67,2.03-.42,1.3-.85,2.6-1.27,3.9,0,.04-.02.08-.04.15h3.74c.25.77.5,1.51.74,2.28h-7.63c.43-1.3.77-2.35,1-3.08.47-1.46.94-2.92,1.42-4.38.22-.66.41-1.33.68-1.96.16-.35.37-.64.62-.88.58-.54,1.24-.66,1.46-.7.28-.05,1-.12,1.75.25.14.07.56.3.95.76.31.38.47.81.61,1.27.31.97.62,1.93.94,2.88.2.61.06.18,1.17,3.61.31.96.55,1.73.71,2.24h-2.39ZM54.06,59.5c-.05.66-.15,1.31-.38,1.93-.5,1.35-1.45,2.19-2.83,2.58-.79.22-1.6.22-2.31.21-.77,0-1.46.02-2.14-.12-1.13-.22-2.08-.74-2.75-1.71-.41-.6-.64-1.27-.76-1.97-.17-.98-.18-1.96-.05-2.95.12-.91.39-1.78.97-2.52.51-.66,1.19-1.1,1.98-1.35.65-.21,1.33-.28,2.01-.28.66,0,1.32,0,1.98.03.77.05,1.5.25,2.17.65.94.57,1.51,1.4,1.83,2.45.29.99.35,2,.28,3.03ZM65.98,68.29v.15c0,2.86,0,5.72,0,8.58,0,.82-.33,1.53-1.07,1.97-.52.31-1.1.38-1.69.35-.31-.02-.64-.08-.95-.18-.65-.21-1.09-.68-1.37-1.29-.43-.91-.83-1.84-1.25-2.76-.48-1.04-.95-2.08-1.43-3.11-.22-.48-.44-.97-.67-1.46-.12-.25-.36-.36-.63-.31-.18.04-.3.17-.31.35,0,.11,0,.18,0,.19.02.16.02,3.34,0,8.38h-2.18v-8.62c0-.43.08-.84.28-1.23.29-.57.75-.92,1.37-1.07.64-.16,1.28-.15,1.92.02.5.13.88.43,1.17.84.18.26.35.54.48.82.38.82.74,1.65,1.12,2.48.61,1.33,1.22,2.68,1.83,4.01.08.17.15.34.24.5.14.26.35.37.64.32.19-.03.31-.15.33-.34,0-.06,0-.12,0-.18v-8.4h2.2,0ZM74.74,79.13c-.1-.19-.21-.41-.32-.61-.52-1-1.04-1.99-1.57-2.99-.1-.19-.23-.35-.39-.46-.26-.19-.54-.22-.71-.25-.89-.1-2.06-.08-2.27-.07v4.38h-2.19v-10.84h2.17v4.44c.28,0,1.2.03,2.03-.05.18-.02.44-.04.71-.22.16-.11.29-.25.39-.44.34-.62.66-1.25.98-1.87.31-.61.63-1.23.95-1.86h2.37c-.1.18-.18.35-.26.51-.54,1.06-1.07,2.12-1.61,3.17-.23.46-.51.88-.89,1.23-.13.12-.28.23-.42.34-.03.02-.06.05-.1.08.13.06.32.16.53.32.42.32.65.67.76.86.63,1.09,1.24,2.29,1.24,2.29.24.51.58,1.21,1.04,2.05h-2.44ZM77.02,63.58c-.41-1.28-.84-2.55-1.25-3.83-.42-1.28-.84-2.57-1.25-3.85-.07-.23-.18-.41-.44-.46-.29-.06-.56.08-.66.39-.23.67-.44,1.36-.67,2.03-.42,1.3-.85,2.6-1.27,3.9,0,.04-.02.08-.04.15h3.74c.25.77.5,1.51.74,2.28h-7.63c.42-1.3.77-2.35,1-3.08.47-1.46.94-2.92,1.42-4.38.22-.66.41-1.33.68-1.96.16-.35.37-.64.62-.88.58-.54,1.24-.66,1.46-.7.28-.05,1-.12,1.75.25.14.07.56.3.95.76.31.38.47.81.61,1.27.31.97.62,1.93.94,2.88.2.62.07.18,1.17,3.61.31.95.56,1.73.72,2.24h-2.39c-.07-.2-.14-.41-.21-.61ZM80.37,79.14h-2.16v-10.84h2.16v10.84ZM79.84,61.03c-.04-.35-.04-.7-.04-1.05v-6.63h2.19v7.04c0,.18.02.35.05.52.13.65.62.97,1.31,1.07.25.04.48.05.73.05h3.96c.06,0,.13,0,.21,0v2.18h-4.4c-.63,0-1.24-.08-1.83-.29-1.35-.5-2.03-1.5-2.17-2.9ZM93.27,68.46c0,2.84,0,5.68,0,8.52,0,.77-.27,1.43-.89,1.91-.37.28-.81.4-1.27.44-.67.07-1.33,0-1.93-.35-.48-.28-.8-.71-1.02-1.2-.51-1.1-1-2.22-1.5-3.32-.59-1.31-1.2-2.62-1.79-3.92-.15-.31-.47-.42-.75-.27-.12.06-.19.16-.2.3,0,.07,0,.15,0,.21v8.35h-2.19v-8.57c0-.61.15-1.17.54-1.66.33-.41.77-.63,1.27-.73.62-.12,1.25-.12,1.86.08.48.16.82.48,1.11.87.31.43.48.94.71,1.42.58,1.23,1.14,2.48,1.7,3.72.38.84.77,1.69,1.15,2.53.14.3.3.41.58.41.26,0,.41-.16.41-.42v-8.5h2.21v.16ZM104.89,74.39c-.05.62-.14,1.23-.33,1.82-.44,1.37-1.36,2.29-2.75,2.7-.59.18-1.2.25-1.81.25-1.49,0-2.97,0-4.45,0-.53,0-.93-.43-.93-.92.02-2.12,0-4.23,0-6.34v-.15h2.2v5.22c.28,0,1.82.05,3.39,0,.26,0,.76-.03,1.29-.31.56-.29.87-.78,1.01-1.37.26-1.05.26-2.11,0-3.16-.24-.96-.87-1.49-1.93-1.62-.24-.03-.48-.04-.71-.04h-5.26v-2.19h.15c1.82,0,3.64,0,5.45,0,.91,0,1.79.2,2.59.67.87.51,1.43,1.28,1.73,2.24.33,1.04.42,2.11.35,3.19Z"/>
  <path class="cls-4" d="M50.74,55.86c-.4-.22-.83-.32-1.27-.33-.6-.02-1.2-.02-1.79,0-.24,0-.48.02-.71.05-.96.14-1.58.67-1.83,1.62-.23.89-.24,1.79-.11,2.69.06.43.18.84.41,1.2.38.58.94.81,1.6.89.45.05.91.05,1.37.07.57-.02,1.14.02,1.7-.12.65-.16,1.15-.51,1.43-1.14.19-.44.28-.91.31-1.37.06-.76.04-1.52-.16-2.27-.15-.54-.44-1-.94-1.28Z"/>
  <path class="cls-3" d="M103.2,11.29c-2.8,0-5.09,2.1-5.33,4.89-.03.35-.03.69,0,1.03.24,2.35,1.99,4.29,4.4,4.71.02,0,.03.01.05.02h1.75s.03-.02.05-.02c2.41-.42,4.16-2.36,4.4-4.71.03-.34.04-.68,0-1.03-.24-2.79-2.53-4.89-5.33-4.89ZM103.2,20.07c-1.89,0-3.43-1.54-3.43-3.43s1.54-3.43,3.43-3.43,3.43,1.54,3.43,3.43-1.54,3.43-3.43,3.43Z"/>
  <path class="cls-3" d="M105.64,16.64c0-1.35-1.1-2.45-2.45-2.45s-2.45,1.1-2.45,2.45,1.1,2.45,2.45,2.45,2.45-1.1,2.45-2.45Z"/>
  <path class="cls-3" d="M27.22,11.29c-1.75,0-3.3.82-4.28,2.12-.59.78-.97,1.73-1.06,2.77-.24,2.79,1.65,5.25,4.41,5.73.02,0,.03.01.05.02h1.75s.03-.02.05-.02c2.07-.36,3.65-1.84,4.21-3.73.19-.63.26-1.31.2-2.01-.24-2.79-2.53-4.89-5.33-4.89ZM23.79,16.64c0-1.89,1.54-3.43,3.43-3.43s3.43,1.54,3.43,3.43-1.54,3.43-3.43,3.43-3.43-1.54-3.43-3.43Z"/>
  <path class="cls-3" d="M24.77,16.64c0,1.35,1.1,2.45,2.45,2.45s2.45-1.1,2.45-2.45-1.1-2.45-2.45-2.45-2.45,1.1-2.45,2.45Z"/>
  <path class="cls-3" d="M26.67,138.68c.18.02.36.03.55.03,1.45,0,2.76-.58,3.73-1.52.02-.02.04-.03.05-.05.04-.04.07-.08.1-.11.08-.09.17-.17.24-.27,0,0,0,0,0,0,.76-.93,1.22-2.11,1.22-3.4,0-.18,0-.37-.03-.55,0-.08-.03-.16-.04-.25-.01-.09-.02-.19-.04-.28-.43-2.09-2.08-3.74-4.17-4.17-.09-.02-.19-.03-.28-.04-.08-.01-.16-.03-.25-.04-.18-.02-.36-.03-.55-.03-1.02,0-1.96.29-2.78.78-1.54.94-2.58,2.63-2.58,4.57,0,1.2.4,2.3,1.07,3.2.87,1.17,2.21,1.97,3.73,2.13ZM27.22,129.93c1.89,0,3.43,1.54,3.43,3.43s-1.54,3.43-3.43,3.43-3.43-1.54-3.43-3.43,1.54-3.43,3.43-3.43Z"/>
  <path class="cls-3" d="M24.77,133.36c0,1.35,1.1,2.45,2.45,2.45s2.45-1.1,2.45-2.45-1.1-2.45-2.45-2.45-2.45,1.1-2.45,2.45Z"/>
  <path class="cls-3" d="M108.55,133.36c0-1.66-.76-3.15-1.95-4.13,0,0,0,0-.01,0-.13-.11-.26-.21-.4-.3-.02-.02-.05-.03-.08-.05-.84-.55-1.84-.87-2.91-.87-.55,0-1.09.08-1.59.24-.17.05-.33.11-.49.18-.64.27-1.22.66-1.7,1.15-.04.04-.07.08-.1.11-.08.09-.17.17-.24.27-.76.93-1.22,2.11-1.22,3.4,0,2.31,1.47,4.27,3.52,5.02.57.21,1.19.33,1.84.33.32,0,.63-.03.94-.09.14-.02.27-.05.41-.09.11-.03.21-.05.31-.09,2.14-.7,3.7-2.71,3.7-5.09ZM103.2,136.79c-1.89,0-3.43-1.54-3.43-3.43s1.54-3.43,3.43-3.43,3.43,1.54,3.43,3.43-1.54,3.43-3.43,3.43Z"/>
  <path class="cls-3" d="M103.2,135.8c1.35,0,2.45-1.1,2.45-2.45s-1.1-2.45-2.45-2.45-2.45,1.1-2.45,2.45,1.1,2.45,2.45,2.45Z"/>
  <path d="M27.22,20.07c1.89,0,3.43-1.54,3.43-3.43s-1.54-3.43-3.43-3.43-3.43,1.54-3.43,3.43,1.54,3.43,3.43,3.43ZM27.22,14.19c1.35,0,2.45,1.1,2.45,2.45s-1.1,2.45-2.45,2.45-2.45-1.1-2.45-2.45,1.1-2.45,2.45-2.45Z"/>
  <path d="M23.79,133.36c0,1.89,1.54,3.43,3.43,3.43s3.43-1.54,3.43-3.43-1.54-3.43-3.43-3.43-3.43,1.54-3.43,3.43ZM27.22,130.91c1.35,0,2.45,1.1,2.45,2.45s-1.1,2.45-2.45,2.45-2.45-1.1-2.45-2.45,1.1-2.45,2.45-2.45Z"/>
  <path d="M106.62,16.64c0-1.89-1.54-3.43-3.43-3.43s-3.43,1.54-3.43,3.43,1.54,3.43,3.43,3.43,3.43-1.54,3.43-3.43ZM100.75,16.64c0-1.35,1.1-2.45,2.45-2.45s2.45,1.1,2.45,2.45-1.1,2.45-2.45,2.45-2.45-1.1-2.45-2.45Z"/>
  <path d="M106.62,133.36c0-1.89-1.54-3.43-3.43-3.43s-3.43,1.54-3.43,3.43,1.54,3.43,3.43,3.43,3.43-1.54,3.43-3.43ZM100.75,133.36c0-1.35,1.1-2.45,2.45-2.45s2.45,1.1,2.45,2.45-1.1,2.45-2.45,2.45-2.45-1.1-2.45-2.45Z"/>
  <path d="M20.89,42.68c-.02.05-.03.1-.03.16,0,.04.02.08.03.12v62.74s0,.02,0,.03c.03,2.54,2.03,4.6,4.54,4.76.08.05.17.09.27.09h78.94c.1,0,.18-.04.26-.08,2.57-.12,4.62-2.23,4.62-4.83,0-.08-.03-.16-.06-.23V27.01c.04-.07.06-.14.06-.23,0-.48-.07-.95-.21-1.4-.01-.04-.04-.07-.06-.11,0-.07-.02-.15-.06-.21l-.32-.65s-.03-.06-.05-.09l-.27-.41-.5-.55c-.03-.06-.06-.12-.12-.17-.5-.45-1.08-.78-1.71-.99,2.16-1.17,3.5-3.52,3.28-6.11-.29-3.3-3-5.78-6.31-5.78s-6.02,2.49-6.31,5.78c-.21,2.4.93,4.6,2.82,5.84H30.7c1.89-1.24,3.03-3.44,2.82-5.84-.29-3.3-3-5.78-6.31-5.78s-6.02,2.49-6.31,5.78c-.23,2.59,1.11,4.94,3.28,6.11-.57.19-1.09.49-1.56.88-.06.02-.12.06-.17.11l-.69.77-.39.71-.27.68s0,.01,0,.02c0,0,0,0,0,0-.14.46-.21.93-.21,1.41,0,0,0,.01,0,.02,0,0,0,.01,0,.02v15.87ZM21.41,42.82v.49-.49ZM108.3,25.51c0,.06.01.12.03.17.02.05.05.1.08.14,0,0,0,0,0,0,.07.26.1.52.12.78,0,0,0,0,0,0-.03.06-.05.13-.05.21v78.88c0,.07.01.13.04.19,0,0,0,0,0,0-.06,1.01-.5,1.92-1.19,2.58-.02.02-.04.03-.06.05-.15.14-.31.27-.49.39-.06.04-.13.07-.19.1-.15.08-.29.17-.45.23-.11.05-.23.07-.35.11-.12.04-.23.08-.36.11-.21.04-.43.06-.65.07-.04,0-.08.01-.12.01,0,0,0,0,0,0-.08,0-.15.03-.22.06,0,0,0,0,0,0H25.96s0,0,0,0c-.07-.04-.14-.06-.22-.06,0,0,0,0,0,0-.8,0-1.54-.24-2.16-.66-1.03-.7-1.71-1.87-1.71-3.21V26.81s0-.01,0-.02c0,0,0-.01,0-.02,0-.18.01-.37.04-.55.03-.19.07-.38.13-.57,0,0,0,0,0,0h0s.05-.12.05-.12l.47-1.01.34-.37.19-.21s.03-.02.05-.03c.36-.32.76-.57,1.2-.74.44-.17.91-.26,1.4-.26h78.95s0,0,.01,0c.23,0,.46.02.68.06.2.04.39.09.58.16.02,0,.05.01.07.02.42.16.81.39,1.16.68,0,0,0,0,0,0,.01.01.01.03.03.04l.25.25.08.08.22.27.49.93.04.1ZM103.2,11.29c2.8,0,5.09,2.1,5.33,4.89.03.35.03.69,0,1.03-.24,2.34-1.99,4.28-4.4,4.71-.02,0-.03.01-.05.02h-1.75s-.03-.02-.05-.02c-2.41-.42-4.16-2.36-4.4-4.71-.03-.34-.04-.68,0-1.03.24-2.79,2.53-4.89,5.33-4.89ZM27.22,11.29c2.8,0,5.09,2.1,5.33,4.89.06.7-.01,1.38-.2,2.01-.56,1.89-2.14,3.37-4.21,3.73-.02,0-.03.01-.05.02h-1.75s-.03-.02-.05-.02c-2.76-.48-4.65-2.95-4.41-5.73.09-1.04.47-1.99,1.06-2.77.98-1.3,2.53-2.12,4.28-2.12Z"/>
  <path d="M33.55,133.36c0-3.49-2.84-6.33-6.33-6.33s-6.33,2.84-6.33,6.33,2.84,6.33,6.33,6.33,6.33-2.84,6.33-6.33ZM22.94,136.56c-.67-.89-1.07-2-1.07-3.2,0-1.93,1.03-3.63,2.58-4.57.81-.49,1.76-.78,2.77-.78.18,0,.37,0,.55.03.08,0,.16.03.25.04.09.01.19.02.28.04,2.09.43,3.74,2.08,4.17,4.17.02.09.03.19.04.28.01.08.03.16.04.25.02.18.03.36.03.55,0,1.29-.46,2.47-1.22,3.4,0,0,0,0,0,0-.08.09-.16.18-.24.27-.04.04-.07.08-.1.11-.02.02-.04.03-.05.05-.96.94-2.28,1.52-3.73,1.52-.18,0-.37,0-.55-.03-1.53-.16-2.86-.96-3.73-2.13Z"/>
  <path d="M103.2,127.03c-3.49,0-6.33,2.84-6.33,6.33s2.84,6.33,6.33,6.33,6.33-2.84,6.33-6.33-2.84-6.33-6.33-6.33ZM104.85,138.45c-.1.03-.21.06-.31.09-.13.03-.27.07-.41.09-.3.05-.62.09-.94.09-.65,0-1.26-.12-1.84-.33-2.05-.75-3.52-2.72-3.52-5.02,0-1.29.46-2.48,1.22-3.4.08-.09.16-.18.24-.27.04-.04.07-.08.1-.11.48-.48,1.06-.88,1.7-1.15.16-.07.32-.13.49-.18.5-.16,1.04-.24,1.59-.24,1.07,0,2.07.32,2.91.87.03.02.05.03.08.05.14.09.27.19.4.3,0,0,0,0,.01,0,1.19.98,1.95,2.47,1.95,4.13,0,2.37-1.55,4.39-3.7,5.09Z"/>
  <path d="M75.57,118.29c-.03-.11.15-.45.18-.63.15-1.13-.77-1.95-1.88-1.8-.16.02-.42.2-.53.18-5.13-4-12.53-3.69-17.23.82-3.6,3.46-4.97,8.27-3.68,13.14.45,1.7,1.26,3.21,2.31,4.6.04.15-.15.44-.17.65-.16,1.36,1.21,2.23,2.39,1.59,4.56,3.66,11.02,3.85,15.8.48,5.96-4.2,7.44-12.33,3.31-18.39-.09-.13-.47-.55-.49-.64ZM67.18,138.57c-3.36.54-6.9-.33-9.55-2.45-.05-.1.1-.48.1-.64,0-.9-.88-1.7-1.78-1.58-.11.01-.37.16-.47.08-2.43-3.17-3.19-7.36-1.98-11.2,1.91-6.04,8.05-9.61,14.27-8.31,1.8.38,3.49,1.2,4.93,2.33-.23.69-.08,1.41.51,1.87.51.4,1.04.34,1.65.24.89,1.26,1.66,2.56,2.1,4.05,2.09,7.07-2.52,14.44-9.77,15.6Z"/>
  <path d="M69.94,121.39c-.09.36-.09.71-.17,1.08-.17.75-.64,1.57-1.17,2.13-2.42,2.48-6.61,1.57-7.82-1.65-.19-.52-.19-.92-.29-1.43-.06-.3-.4-.44-.64-.22-.22.2-.1.92-.09,1.19.01,2.76.01,5.53-.04,8.28.04.32-.13.95.3,1.02.24.04.29-.02.44-.17.18-2.88,2.75-5,5.63-4.45,1.75.33,3.27,1.76,3.69,3.49.06.24.09.8.17.96.14.26.58.23.67-.06l.02-10.08c-.1-.34-.5-.4-.69-.08Z"/>
  <g>
    <path class="cls-5" d="M91.06,68.47v8.33c0,.26-.15.41-.41.42-.28,0-.44-.11-.58-.41-.38-.84-.77-1.69-1.15-2.53-.57-1.24-1.13-2.48-1.7-3.72-.22-.48-.39-.99-.71-1.42-.29-.4-.64-.71-1.11-.87-.61-.21-1.24-.21-1.86-.08-.51.1-.94.31-1.27.73-.38.48-.54,1.05-.54,1.66v8.57h2.19v-8.35c0-.07,0-.15,0-.21,0-.14.08-.24.2-.3.28-.15.61-.05.75.27.6,1.3,1.2,2.61,1.79,3.92.5,1.1.99,2.22,1.5,3.32.22.5.54.92,1.02,1.2.6.35,1.25.41,1.93.35.46-.05.91-.16,1.27-.44.62-.48.89-1.14.89-1.91,0-2.85,0-5.68,0-8.52v-.16h-2.21v.17Z"/>
    <path class="cls-5" d="M74.9,74.79c-.11-.18-.34-.54-.76-.86-.21-.16-.4-.26-.53-.32.04-.03.07-.05.1-.08.14-.11.29-.21.42-.34.38-.35.66-.77.89-1.23.54-1.05,1.07-2.11,1.61-3.17.08-.16.16-.32.26-.51h-2.37c-.32.62-.64,1.24-.95,1.86-.32.62-.64,1.25-.98,1.87-.1.19-.23.34-.39.44-.26.18-.53.21-.71.22-.83.08-1.75.05-2.03.05v-4.44h-2.17v10.84h2.19v-4.38c.21,0,1.38-.03,2.27.07.18.02.45.05.71.25.16.12.29.27.39.46.53,1,1.05,1.99,1.57,2.99.11.21.22.42.32.61h2.44c-.46-.84-.81-1.54-1.04-2.05,0,0-.61-1.2-1.24-2.29Z"/>
    <path class="cls-5" d="M63.79,68.45v8.24c0,.06,0,.12,0,.18-.02.18-.14.31-.33.34-.28.05-.5-.06-.64-.32-.08-.16-.16-.33-.24-.5-.61-1.33-1.23-2.68-1.83-4.01-.38-.83-.74-1.66-1.12-2.48-.13-.28-.29-.56-.48-.82-.29-.41-.67-.71-1.17-.84-.64-.17-1.28-.18-1.92-.02-.61.15-1.07.51-1.37,1.07-.2.39-.28.81-.28,1.23v8.62h2.18c.02-5.04.03-8.21,0-8.38,0,0,0-.08,0-.19.02-.18.14-.31.31-.35.27-.05.51.05.63.31.23.49.45.98.67,1.46.48,1.04.95,2.07,1.43,3.11.42.92.82,1.85,1.25,2.76.28.61.72,1.08,1.37,1.29.31.1.64.15.95.18.59.04,1.17-.03,1.69-.35.74-.44,1.06-1.15,1.07-1.97.02-2.86,0-5.72,0-8.58v-.15h-2.19v.16Z"/>
    <rect class="cls-5" x="78.22" y="68.3" width="2.16" height="10.84"/>
    <path class="cls-5" d="M102.81,68.96c-.8-.48-1.68-.67-2.59-.67-1.82-.02-3.64,0-5.45,0h-.15v2.19h5.26c.24,0,.48,0,.71.04,1.07.13,1.69.66,1.93,1.62.26,1.05.26,2.11,0,3.16-.15.59-.45,1.08-1.01,1.37-.53.28-1.03.3-1.29.31-1.57.05-3.11,0-3.39,0v-5.22h-2.2v.15c0,2.12,0,4.23,0,6.34,0,.49.4.93.93.92,1.48-.02,2.96,0,4.45,0,.61,0,1.22-.06,1.81-.25,1.39-.41,2.3-1.33,2.75-2.7.19-.59.28-1.2.33-1.82.08-1.08-.02-2.15-.35-3.19-.31-.96-.86-1.73-1.73-2.24Z"/>
    <path class="cls-5" d="M51.17,73.28c-.31-.96-.63-1.92-.94-2.88-.15-.45-.31-.89-.61-1.27-.39-.46-.81-.69-.95-.76-.75-.37-1.46-.3-1.75-.25-.21.04-.88.16-1.46.7-.25.24-.46.53-.62.88-.28.63-.46,1.3-.68,1.96-.48,1.46-.95,2.91-1.42,4.38-.24.73-.58,1.79-1,3.08h7.63c-.25-.77-.49-1.51-.74-2.28h-3.74c.02-.08.03-.12.04-.15.42-1.3.85-2.6,1.27-3.9.22-.67.44-1.36.67-2.03.1-.31.37-.45.66-.39.25.05.37.23.44.46.41,1.28.83,2.57,1.25,3.85.41,1.28.84,2.55,1.25,3.83.07.21.14.41.21.61h2.39c-.16-.51-.41-1.28-.71-2.24-1.11-3.44-.97-3-1.17-3.61Z"/>
    <path class="cls-5" d="M38.95,68.24c-.63-.19-1.27-.19-1.92-.07-.35.07-.68.2-.97.42-.52.41-.81.97-.96,1.6-.22.94-.44,1.89-.65,2.84-.21.93-.43,1.86-.65,2.79-.08.35-.15.71-.26,1.04-.08.24-.27.34-.53.32-.24-.02-.39-.13-.47-.37-.02-.06-.04-.13-.05-.2-.23-.99-.45-1.98-.68-2.97-.15-.64-.29-1.29-.44-1.93-.14-.6-.26-1.2-.44-1.79-.26-.87-.81-1.47-1.7-1.72-.71-.19-1.41-.18-2.12.02-.29.08-.56.21-.79.42-.2.18-.35.37-.48.58-.32.54-.33,1.11-.33,1.33,0,.76-.03,4.05,0,8.57h2.16v-8.41c0-.29.13-.45.41-.51.32-.06.59.05.68.3.05.12.08.26.12.39.18.81.37,1.62.56,2.42.23.99.46,1.98.7,2.96.13.55.22,1.11.48,1.63.31.63.76,1.08,1.45,1.28.55.16,1.11.17,1.67.07.59-.11,1.09-.38,1.41-.9.18-.29.35-.61.45-.94.18-.59.31-1.2.44-1.79.39-1.65.78-3.3,1.17-4.95.1-.44.4-.57.84-.46.21.05.31.2.33.41v8.47h2.18v-8.33c0-.28,0-.56-.07-.83-.18-.87-.67-1.47-1.54-1.73Z"/>
    <path class="cls-5" d="M88.84,61.62c.15.74.54,1.37,1.14,1.82.71.53,1.53.75,2.41.77,1.55.02,3.1,0,4.65.02h.09v-2.18s-.09,0-.15,0h-3.89c-.28,0-.57,0-.84-.05-.43-.06-.83-.21-1.1-.59-.21-.31-.26-.66-.26-1.03v-7.01h-2.19v.19c0,2.29,0,4.59,0,6.88,0,.4.05.81.13,1.2Z"/>
    <path class="cls-5" d="M83.85,64.22h4.4v-2.18c-.08,0-.15,0-.21,0h-3.96c-.25,0-.48,0-.73-.05-.69-.11-1.18-.42-1.31-1.07-.04-.17-.05-.35-.05-.52v-7.04h-2.19v6.63c0,.35,0,.7.04,1.05.14,1.4.82,2.4,2.17,2.9.59.21,1.2.29,1.83.29Z"/>
    <path class="cls-5" d="M60.41,55.52c.24,0,.48,0,.71,0,.28.02.54.11.74.31.44.47.44,1.37,0,1.83-.26.27-.59.36-.95.36h-4c-.23,0-.46.02-.68.05-.61.1-1.04.42-1.18,1.04-.06.25-.09.52-.09.77,0,1.38,0,2.76,0,4.14v.15h2.19v-4.06h2.6s.07,0,.13.03c.04.02.07.06.1.11.6,1.02,1.2,2.04,1.8,3.06.18.29.35.58.51.86h2.44c-.84-1.43-1.66-2.85-2.48-4.26.08-.02.14-.04.2-.07.74-.31,1.27-.83,1.6-1.55.37-.81.44-1.65.25-2.51-.19-.9-.69-1.57-1.5-2.01-.21-.12-.43-.21-.65-.28-.49-.15-.9-.16-1.07-.16-.3,0-.99,0-1.96,0h-4.16v2.18h0s1.56,0,1.56,0h3.89Z"/>
    <path class="cls-5" d="M78.9,61.95c-1.1-3.44-.97-2.99-1.17-3.61-.31-.96-.63-1.92-.94-2.88-.15-.45-.31-.89-.61-1.27-.39-.46-.81-.69-.95-.76-.75-.37-1.46-.3-1.75-.25-.21.04-.88.16-1.46.7-.25.24-.46.53-.62.88-.28.63-.46,1.3-.68,1.96-.48,1.46-.95,2.91-1.42,4.38-.23.73-.58,1.79-1,3.08h7.63c-.25-.77-.49-1.51-.74-2.28h-3.74c.02-.08.03-.12.04-.15.42-1.3.85-2.6,1.27-3.9.22-.67.44-1.36.67-2.03.1-.31.37-.45.66-.39.25.05.37.23.44.46.41,1.28.83,2.57,1.25,3.85.41,1.28.84,2.55,1.25,3.83.07.21.14.41.21.61h2.39c-.16-.51-.41-1.29-.72-2.24Z"/>
    <path class="cls-5" d="M33.41,64.21h2.17v-4.16h6.31v-2.09h-6.34c.02-.46.02-.9.08-1.32.05-.42.33-.71.71-.9.31-.15.64-.21.98-.21,1.48,0,2.96,0,4.44,0h.18v-2.19h-.58c-1.33,0-2.66,0-3.99,0-.45,0-.91.06-1.36.16-.78.17-1.46.56-1.94,1.23-.47.64-.66,1.37-.67,2.14-.02,2.41,0,4.81,0,7.22v.13Z"/>
    <path class="cls-5" d="M51.95,54.02c-.67-.4-1.4-.61-2.17-.65-.66-.04-1.32-.02-1.98-.03-.68,0-1.36.06-2.01.28-.79.25-1.46.69-1.98,1.35-.58.74-.84,1.6-.97,2.52-.14.98-.12,1.96.05,2.95.12.71.35,1.37.76,1.97.67.97,1.62,1.49,2.75,1.71.67.14,1.37.12,2.14.12.71.02,1.52.02,2.31-.21,1.38-.38,2.33-1.23,2.83-2.58.23-.62.34-1.27.38-1.93.07-1.03,0-2.04-.28-3.03-.31-1.05-.88-1.89-1.83-2.45ZM51.84,59.41c-.04.47-.12.94-.31,1.37-.28.63-.78.98-1.43,1.14-.56.14-1.13.1-1.7.12-.45-.02-.91-.02-1.37-.07-.65-.08-1.22-.31-1.6-.89-.24-.37-.35-.77-.41-1.2-.13-.91-.12-1.8.11-2.69.25-.94.87-1.48,1.83-1.62.24-.03.48-.05.71-.05.6,0,1.2,0,1.79,0,.44,0,.87.11,1.27.33.51.28.79.74.94,1.28.2.75.22,1.51.16,2.27Z"/>
  </g>
</svg>