<?xml version="1.0" encoding="UTF-8"?>
<svg id="Layer_1" data-name="Layer 1" xmlns="http://www.w3.org/2000/svg" viewBox="0 0 300 184.68">
  <defs>
    <style>
      .cls-1 {
        fill: #d39e4e;
      }

      .cls-2 {
        fill: #535551;
      }

      .cls-3 {
        fill: #b3b3b3;
      }

      .cls-4 {
        fill: #333531;
      }
    </style>
  </defs>
  <rect class="cls-3" x="295.72" y="102.7" width="2.35" height="2.4"/>
  <rect class="cls-3" x="295.72" y="125.42" width="2.35" height="2.39"/>
  <rect class="cls-3" x="295.72" y="107.03" width="2.35" height="16.46"/>
  <path class="cls-4" d="M176.27,157.34c-.07-.04-.52-.22-.55-.22h-1.55l-.13.13v2.84c.43.24,1.41.16,1.88-.01,1.09-.4,1.44-2.14.35-2.73Z"/>
  <path class="cls-4" d="M293.79,175.01V9.67c0-4.27-3.47-7.74-7.74-7.74H13.67c-4.27,0-7.74,3.47-7.74,7.74v40.69h6.51V7.14h268.99v125.3H12.44v-43.23h-6.51v85.8c0,4.27,3.47,7.74,7.74,7.74h272.38c4.27,0,7.74-3.47,7.74-7.74ZM289.65,10.7c.93,0,1.68.75,1.68,1.68s-.75,1.68-1.68,1.68-1.68-.75-1.68-1.68.75-1.68,1.68-1.68ZM289.65,21.48c.93,0,1.68.75,1.68,1.68s-.75,1.68-1.68,1.68-1.68-.75-1.68-1.68.75-1.68,1.68-1.68ZM289.65,107.31c.93,0,1.68.75,1.68,1.68s-.75,1.68-1.68,1.68-1.68-.75-1.68-1.68.75-1.68,1.68-1.68ZM289.65,118.09c.93,0,1.68.75,1.68,1.68s-.75,1.68-1.68,1.68-1.68-.75-1.68-1.68.75-1.68,1.68-1.68ZM34.84,154.29v10.07c0,5.47-2.02,8.93-8.47,8.93s-7.45-3.47-7.61-5.4h4.81c.33,1.17,1.19,1.97,3.01,1.97,3.06,0,3.64-1.87,3.64-5.21v-.81c-.89,1.47-2.3,2.39-4.8,2.39-4.49,0-7.05-3.68-7.05-8.26,0-5.33,3.19-8.97,7.45-8.97,2.92,0,4.14,1.38,4.4,2.17.03-.46.15-1.5.19-1.78h4.47c-.03,1.52-.04,3.25-.04,4.89ZM43.74,166.44h-4.72v-17.04h4.72v17.04ZM43.81,146.92c-.69.75-2.07,2.06-2.42,2.38h-.02c-.35-.32-1.72-1.63-2.41-2.38-.72-.78-1.42-1.64-1.42-2.79,0-.97.83-1.75,1.86-1.75.87,0,1.64.44,1.96,1.35h.02c.32-.91,1.1-1.35,1.98-1.35,1.05,0,1.85.79,1.85,1.75,0,1.15-.7,2.01-1.42,2.79ZM56.9,166.44h-4.96l-5.77-17.04h5.08c1.62,5.77,2.97,10.82,3.31,12.87h.03c.48-2.81,2.15-7.95,3.63-12.87h4.7l-6.02,17.04ZM79.96,158.93h-11.24c0,2.13,1.07,4.21,3.42,4.21,1.96,0,2.52-.79,2.97-1.82h4.72c-.6,2.09-2.46,5.51-7.82,5.51s-8.05-4.2-8.05-8.67c0-5.34,2.74-9.16,8.21-9.16,5.85,0,7.84,4.23,7.84,8.49,0,.58,0,.95-.06,1.44ZM115.8,166.25h-17.5v-11.5l3.88-1.36c1.45-.51,2.89-1.02,4.34-1.52.27-.09.55-.28.84-.18,2.67.98,5.36,1.92,8.02,2.9.12.04.16.04.29.1.07.04.15,0,.15.14l-.02,11.42ZM118.4,155.47h-1.11l-.06-.08v-1.62c-.04-.1-.3-.14-.4-.17-3.25-1.15-6.52-2.2-9.78-3.32l-9.24,3.2c-.22.08-.44.15-.66.23-.14.05-.26,0-.28.22v1.5l-.06.08s-.05,0-.06,0h-1.09v-2.59l1.35-.47c3.13-1.09,9.96-3.51,9.96-3.51h.21s7.48,2.59,10.9,3.8c.12.04.26.04.35.16.04.08,0,.15,0,.23-.01.68-.01,1.38,0,2.06,0,.05.06.28-.03.28ZM129.67,157.29h-3.1c.03.08-.09.19-.09.22v8.74h-2.41v-8.83l-.13-.13h-2.97v-1.98h8.7v1.98ZM140.26,166.12l-.13.13h-2.37v-4.48h-4.44l-.13.13v4.35h-2.41v-10.94h2.41v4.31h4.57v-4.31h2.5v10.81ZM148.88,166.25h-6.55v-10.94h6.29v1.98h-3.79v2.41h3.53v2.07h-3.53v2.5h4.05v1.98ZM159.22,165.56c-3.25,1.58-8.54,1.2-9.45-3-.66-3.07.61-6.21,3.75-7.14,1.6-.48,3.75-.42,5.27.28v2.11c-1.72-.62-3.93-1.18-5.47.18-1.79,1.58-1.57,5.48.92,6.23.52.16,2,.27,2.43-.03.29-.2.07-1.62.14-2.02l-.13-.22h-2.02v-1.9h4.57v5.51ZM167.92,166.25l-.79-2.48h-3.85s-.79,2.48-.79,2.48h-2.58l3.93-10.95h2.96s3.79,10.95,3.79,10.95h-2.67ZM188.47,166.25l-.9-2.46-3.87-.03-.84,2.49-4.79-.02c-.3-.09-1.9-3.22-2.44-3.77-.48-.48-.93-.48-1.58-.44v4.22h-2.41v-10.94c1.54.11,3.27-.15,4.78,0,2.29.22,3.83,1.98,2.82,4.28-.46,1.03-1.11,1.17-1.97,1.64-.1.05-.15,0-.11.19.12.02.25.06.34.13,1.27,1.05,1.95,2.81,2.98,4.09l3.76-10.33,2.92.03,3.88,10.9h-2.54ZM200.78,165.55c-3.93,1.89-9.36.89-9.6-4.25-.25-5.19,4.75-7.2,9.13-5.73v2.24c-1.43-.57-3.12-.99-4.6-.33-2.88,1.29-2.59,6.57.85,6.88.37.03,1.77.06,1.85-.39v-2.02h-2.15v-1.9h4.57v5.3s.09.07.05.13l-.1.07ZM209.19,166.25h-6.55v-10.94h6.29v1.98h-3.88v2.37l.13.13h3.49v1.85l-.13.13h-3.49v2.5h4.14v1.98ZM285.15,152.42l-1.65,1.65s.03.08.03.12l.22,6.9c0,.13-.05.26-.14.36l-2.33,2.33,1.59,1.53,1.91,1.91c.19.19.19.49,0,.68l-5.87,5.87c-.09.09-.21.14-.34.14s-.25-.05-.34-.14l-3.47-3.47-2.45,2.45s-.02.01-.03.02c0,0-.01.02-.02.03,0,0-.02,0-.03.01-.08.05-.16.09-.26.09,0,0,0,0,0,0,0,0,0,0,0,0s0,0,0,0c0,0-.01,0-.02,0l-6.82-.29s-.08-.02-.13-.03l-1.72,1.66c-.09.09-.21.13-.33.13s-.25-.05-.34-.14l-10.49-10.49c-.19-.19-.19-.49,0-.68l1.97-1.97-.2-6.33c0-.13.04-.26.13-.35l1.91-1.98h0s0,0,0,0,0,0,0,0l.39-.39-3.77-3.77s-.03-.05-.05-.07c-.02-.03-.04-.05-.05-.08-.01-.03-.01-.06-.02-.09,0-.03-.02-.06-.02-.09,0-.03,0-.06.01-.08,0-.03,0-.07.02-.1.01-.03.03-.05.05-.07.02-.03.03-.06.05-.08l1.91-1.98,3.89-3.89s.05-.03.07-.04c.03-.02.06-.05.09-.06.02,0,.04,0,.06-.01.04-.01.08-.02.12-.02.02,0,.03,0,.05,0,.04,0,.09,0,.13.03.02,0,.04.03.06.04.03.02.07.04.1.06l3.7,3.63c.07.02.13.06.19.11l.02.02.4-.39,1.9-1.97c.09-.1.22-.16.36-.15l6.33.2,1.67-1.67c.18-.19.48-.19.67,0l10.86,10.27c.09.09.15.21.15.34,0,.13-.05.26-.14.35Z"/>
  <path class="cls-4" d="M99.6,165.06h14.92v-9.39h-14.92v9.39ZM113.86,162.6h-13.57v-.99h13.57v.99ZM113.86,159.93v1h-13.57v-1h13.57ZM100.35,159.11v-.99h13.51v.99h-13.51ZM100.28,156.35h13.62s0,1.02,0,1.02h-13.62s0-1.02,0-1.02ZM100.26,163.38h13.53v.99h-13.53v-.99Z"/>
  <path class="cls-4" d="M72.17,152.38c-2.26,0-3.17,1.56-3.36,3.65h6.48c-.03-1.98-.83-3.65-3.12-3.65Z"/>
  <polygon class="cls-4" points="184.29 161.94 186.92 161.94 187.01 161.77 185.63 157.29 184.29 161.94"/>
  <polygon class="cls-4" points="163.82 161.77 163.91 161.94 166.54 161.94 165.21 157.29 163.82 161.77"/>
  <path class="cls-4" d="M26.87,152.78c-2.05,0-3.65,1.58-3.65,4.98,0,2.93,1.47,4.66,3.55,4.66,2.84,0,3.6-1.95,3.6-4.81s-.51-4.84-3.5-4.84Z"/>
  <path d="M295.72,175.01v-45.26h2.35c1.07,0,1.93-.87,1.93-1.93v-25.12c0-1.07-.87-1.93-1.93-1.93h-2.35V14.55h1.9v-4.33h-1.9v-.55c0-5.33-4.34-9.67-9.67-9.67H13.67C8.33,0,3.99,4.34,3.99,9.67v40.69h-.11c-2.14,0-3.88,1.74-3.88,3.88v31.09c0,2.14,1.74,3.88,3.88,3.88h.11v85.8c0,5.33,4.34,9.67,9.67,9.67h272.38c5.33,0,9.67-4.34,9.67-9.67ZM5.92,175.01v-85.8h6.51v43.23h268.99V7.14H12.44v43.22h-6.51V9.67c0-4.27,3.47-7.74,7.74-7.74h272.38c4.27,0,7.74,3.47,7.74,7.74v165.33c0,4.27-3.47,7.74-7.74,7.74H13.67c-4.27,0-7.74-3.47-7.74-7.74ZM.97,54.24c0-1.61,1.31-2.91,2.91-2.91h8.56v36.92H3.88c-1.61,0-2.91-1.31-2.91-2.91v-31.09ZM13.4,50.36V8.1h11.48v25.74h10.86v97.63H13.4V50.36ZM36,32.87h-10.16V8.1h254.61v123.37H36.7V33.58c0-.39-.32-.7-.7-.7ZM295.72,107.03h2.35v16.46h-2.35v-16.46ZM295.72,125.42h2.35v2.39h-2.35v-2.39ZM298.07,105.1h-2.35v-2.4h2.35v2.4Z"/>
  <path class="cls-3" d="M268.85,151.38c-3.56,0-6.45,2.89-6.45,6.45s2.89,6.45,6.45,6.45,6.45-2.89,6.45-6.45-2.89-6.45-6.45-6.45ZM268.85,163.49c-3.12,0-5.65-2.54-5.65-5.65s2.54-5.65,5.65-5.65,5.65,2.54,5.65,5.65-2.54,5.65-5.65,5.65Z"/>
  <path class="cls-3" d="M257.01,151.32l5.22-5.17s-.05-.02-.06-.04l-3.47-3.41-3.55,3.55-1.57,1.63,3.44,3.44Z"/>
  <polygon class="cls-3" points="273.96 142.48 272.98 143.46 282.86 153.34 284.11 152.08 273.96 142.48"/>
  <path class="cls-2" d="M282.37,154.21l-10.09-10.09c-.16.09-.36.09-.51-.02l-5.98-.19-1.45,1.51.15.18c.13.15.15.35.07.53l-2.42,4.91c-.05.1-.12.17-.22.22l-4.91,2.42c-.07.03-.14.05-.21.05-.12,0-.25-.05-.34-.14l-.17-.17-1.42,1.48.19,6c.1.14.12.31.05.47l10.26,10.26,5.97.26c.03-.06.08-.12.14-.17.16-.12.37-.12.54-.03l8.1-8.1c.02-.06.06-.13.11-.18.05-.06.12-.09.19-.12l2.38-2.38-.21-6.45s-.06-.03-.09-.06c-.05-.05-.09-.12-.11-.18ZM268.85,165.25c-4.09,0-7.41-3.33-7.41-7.41s3.33-7.42,7.41-7.42,7.41,3.33,7.41,7.42-3.33,7.41-7.41,7.41Z"/>
  <polygon class="cls-3" points="283.75 167.55 282.19 165.99 280.59 164.45 275.44 169.61 278.57 172.74 283.75 167.55"/>
  <path class="cls-3" d="M261.34,150.47l1.99-4.04-.03.03s0,.02-.01.02c0,0-.02,0-.02.01l-6.09,6.03,4.16-2.05Z"/>
  <polygon class="cls-3" points="262.95 173.18 264.27 171.91 254.44 162.07 253.14 163.37 262.95 173.18"/>
  <path class="cls-3" d="M268.85,153.15c-2.59,0-4.69,2.1-4.69,4.69s2.1,4.69,4.69,4.69,4.69-2.1,4.69-4.69-2.1-4.69-4.69-4.69ZM272.67,159.54c-.02,1.21-1,2.18-2.21,2.18h-3.32c-.6,0-1.15-.24-1.56-.67-.41-.42-.63-.98-.63-1.57h0s.07-3.31.07-3.31c0-.58.24-1.14.67-1.55.42-.41.99-.6,1.57-.63h3.22c1.22.02,2.2,1.02,2.18,2.24v3.29Z"/>
  <path class="cls-4" d="M270.48,155.2h-3.22c-.28,0-.55.11-.73.29-.19.19-.3.44-.31.71l-.07,3.31c0,.27.1.52.29.72.19.19.44.3.71.31h3.29c.28,0,.54-.11.73-.29.19-.19.3-.44.31-.71v-3.29c0-.57-.44-1.03-1-1.04Z"/>
  <path d="M274.28,141.45c-.19-.18-.49-.18-.67,0l-1.67,1.67-6.33-.2c-.14-.01-.27.05-.36.15l-1.9,1.97-.4.39-.02-.02c-.05-.05-.12-.09-.19-.11l-3.7-3.63s-.06-.04-.1-.06c-.02-.01-.04-.03-.06-.04-.04-.02-.09-.02-.13-.03-.02,0-.03,0-.05,0-.04,0-.08.01-.12.02-.02,0-.04,0-.06.01-.03.01-.06.04-.09.06-.02.02-.05.02-.07.04l-3.89,3.89-1.91,1.98s-.04.05-.05.08c-.02.03-.04.05-.05.07-.01.03-.01.06-.02.1,0,.03-.02.06-.01.08,0,.03.01.06.02.09,0,.03,0,.06.02.09.01.03.04.05.05.08.02.02.03.05.05.07l3.77,3.77-.39.39s0,0,0,0,0,0,0,0h0s-1.91,1.99-1.91,1.99c-.09.09-.14.22-.13.35l.2,6.33-1.97,1.97c-.19.19-.19.49,0,.68l10.49,10.49c.09.09.22.14.34.14s.24-.04.33-.13l1.72-1.66s.08.03.13.03l6.82.29s.01,0,.02,0c0,0,0,0,0,0s0,0,0,0c0,0,0,0,0,0,.09,0,.18-.04.26-.09,0,0,.02,0,.03-.01,0,0,.01-.02.02-.03,0,0,.02-.01.03-.02l2.45-2.45,3.47,3.47c.09.09.21.14.34.14s.25-.05.34-.14l5.87-5.87c.19-.19.19-.49,0-.68l-1.91-1.91-1.59-1.53,2.33-2.33c.09-.09.15-.22.14-.36l-.22-6.9s-.02-.08-.03-.12l1.65-1.65c.09-.09.14-.22.14-.35,0-.13-.06-.25-.15-.34l-10.86-10.27ZM282.77,160.9l-2.38,2.38c-.07.02-.13.06-.19.12-.05.05-.08.11-.11.18l-8.1,8.1c-.16-.1-.37-.09-.54.03-.06.05-.1.11-.14.17l-5.97-.26-10.26-10.26c.07-.15.05-.33-.05-.47l-.19-6,1.42-1.48.17.17c.09.09.22.14.34.14.07,0,.15-.02.21-.05l4.91-2.42c.1-.05.17-.12.22-.22l2.42-4.91c.09-.17.06-.38-.07-.53l-.15-.18,1.45-1.51,5.98.19c.15.11.35.12.51.02l10.09,10.09c.02.07.06.13.11.18.03.03.06.04.09.06l.21,6.45ZM280.59,164.45l1.6,1.54,1.57,1.57-5.19,5.19-3.13-3.13,5.16-5.16ZM264.27,171.91l-1.32,1.27-9.81-9.81,1.3-1.3,9.84,9.84ZM263.29,146.48s0-.01.01-.02l.03-.03-1.99,4.04-4.16,2.05,6.09-6.03s.02,0,.02-.01ZM258.69,142.71l3.47,3.41s.04.03.06.04l-5.22,5.17-3.44-3.44,1.57-1.63,3.55-3.55ZM284.11,152.08l-1.25,1.25-9.88-9.88.98-.98,10.15,9.61Z"/>
  <path d="M268.85,152.18c-3.12,0-5.65,2.54-5.65,5.65s2.54,5.65,5.65,5.65,5.65-2.54,5.65-5.65-2.54-5.65-5.65-5.65ZM268.85,162.52c-2.59,0-4.69-2.1-4.69-4.69s2.1-4.69,4.69-4.69,4.69,2.1,4.69,4.69-2.1,4.69-4.69,4.69Z"/>
  <path d="M270.49,154.01h-3.22c-.58.02-1.15.21-1.57.63-.42.41-.66.96-.67,1.55l-.07,3.3h0c0,.59.21,1.15.63,1.57.41.42.96.66,1.56.67h3.32c1.2,0,2.19-.97,2.21-2.18v-3.29c.02-1.22-.96-2.22-2.18-2.24ZM271.48,156.24v3.29c0,.27-.11.52-.31.71-.19.18-.45.29-.73.29h-3.29c-.27,0-.52-.11-.71-.31-.19-.19-.29-.45-.29-.72l.07-3.31c0-.27.11-.52.31-.71.18-.18.45-.28.73-.29h3.22c.56,0,1.01.47,1,1.04Z"/>
  <path d="M268.85,150.42c-4.09,0-7.41,3.33-7.41,7.42s3.33,7.41,7.41,7.41,7.41-3.33,7.41-7.41-3.33-7.42-7.41-7.42ZM268.85,164.28c-3.56,0-6.45-2.89-6.45-6.45s2.89-6.45,6.45-6.45,6.45,2.89,6.45,6.45-2.89,6.45-6.45,6.45Z"/>
  <path class="cls-3" d="M35.74,131.47V33.84h-10.86V8.1h-11.48v123.37h22.33ZM20.92,47.48h5.63v44.61h-5.63v-44.61Z"/>
  <path class="cls-2" d="M280.46,131.47V8.1H25.85v24.77h10.16c.39,0,.7.32.7.7v97.89h243.76ZM28.88,30.25c-.39,0-.7-.32-.7-.7v-12.95c0-.39.32-.7.7-.7h246.03c.39,0,.7.32.7.7v106.44c0,.39-.32.7-.7.7H39.74c-.39,0-.7-.32-.7-.7V30.25h-10.16Z"/>
  <path class="cls-3" d="M40,122.78h234.64V16.87H29.14v12.42h10.86v93.49ZM35.32,27.66c-2.27,0-4.12-1.85-4.12-4.12s1.85-4.12,4.12-4.12,4.12,1.85,4.12,4.12-1.85,4.12-4.12,4.12ZM42.92,20.42c0-.39.32-.7.7-.7h227.4c.39,0,.7.32.7.7v98.81c0,.39-.32.7-.7.7H43.62c-.39,0-.7-.32-.7-.7V20.42Z"/>
  <path d="M39.04,123.04c0,.39.32.7.7.7h235.17c.39,0,.7-.32.7-.7V16.6c0-.39-.32-.7-.7-.7H28.88c-.39,0-.7.32-.7.7v12.95c0,.39.32.7.7.7h10.16v92.79ZM29.14,16.87h245.5v105.91H40V29.29h-10.86v-12.42Z"/>
  <path class="cls-3" d="M270.76,20.68H43.89v98.29h226.88V20.68ZM80.35,90.79h-19.63v-19.63c6.54,0,13.08,0,19.63,0,0,6.54,0,13.08,0,19.63ZM80.35,69.16h-19.63v-19.63h19.63c0,6.54,0,13.08,0,19.63ZM101.98,90.79h-19.63c0-6.54,0-13.08,0-19.63,6.54,0,13.08,0,19.63,0v19.63ZM101.98,69.16c-6.54,0-13.08,0-19.62,0,0-6.54,0-13.08,0-19.63h19.63c0,6.54,0,13.08,0,19.63ZM141.09,82.54c-1.43,0-2.86.01-4.28,0,.02-6.09,0-12.18,0-18.27,0-.27,0-.55-.03-.82-.08.13-.16.26-.22.4-2.45,6.23-4.95,12.45-7.39,18.68-1.02.04-2.03,0-3.05.02-2.53-6.23-5.03-12.48-7.55-18.72-.07-.13-.14-.26-.21-.38-.05,2.67,0,5.34-.02,8,0,3.69,0,7.39,0,11.08-1.35,0-2.69,0-4.04,0,0-8.25,0-16.5,0-24.75h6.17c1.92,4.88,3.86,9.75,5.78,14.63.49,1.22.95,2.45,1.47,3.66,2.47-6.1,4.98-12.18,7.43-18.28,1.98-.03,3.96,0,5.94-.01,0,8.25,0,16.5,0,24.75ZM149.28,82.54h-4.21c0-5.91,0-11.82,0-17.74,1.41,0,2.82-.02,4.22,0-.02,5.91,0,11.82,0,17.73ZM149.47,60.85c-.54.97-1.76,1.42-2.83,1.18-1.1-.2-2.02-1.22-1.97-2.36-.03-1.2.97-2.27,2.15-2.41.86-.13,1.78.16,2.35.83.66.73.79,1.9.29,2.76ZM156.52,74.75c.14,1.32.68,2.65,1.72,3.53,1.07.95,2.57,1.29,3.97,1.18,1.38-.16,2.69-.74,3.81-1.56.01,1.28,0,2.56,0,3.84-1.74,1.03-3.82,1.3-5.8,1.2-2.03-.11-4.06-.88-5.53-2.31-1.6-1.54-2.47-3.74-2.57-5.94-.1-2.29.36-4.67,1.68-6.59,1.1-1.63,2.83-2.78,4.71-3.33,2.05-.58,4.26-.56,6.31.02.42.12.83.28,1.21.5-.02,1.35,0,2.71-.01,4.06-1.37-1.05-3.1-1.71-4.84-1.49-1.38.12-2.7.84-3.53,1.96-1.06,1.38-1.31,3.22-1.12,4.91ZM179.45,68.99c-.84-.54-1.88-.77-2.87-.67-1.2.14-2.16,1.06-2.65,2.12-.54,1.12-.64,2.39-.6,3.62,0,2.83,0,5.66,0,8.48h-4.18c0-5.91,0-11.82,0-17.73,1.4-.02,2.79-.01,4.19,0,0,1.01,0,2.03,0,3.05.45-1.1,1.13-2.18,2.19-2.78,1.17-.7,2.66-.76,3.94-.33,0,1.42,0,2.83,0,4.25ZM197.9,74.54c-.13,1.85-.71,3.7-1.87,5.17-1.18,1.56-2.96,2.61-4.87,3.01-1.63.34-3.34.34-4.97,0-1.95-.42-3.76-1.55-4.9-3.2-1.34-1.91-1.73-4.34-1.55-6.63.12-1.94.72-3.9,1.96-5.42,1.36-1.71,3.44-2.71,5.58-2.98,2.04-.26,4.19-.14,6.08.72,1.64.74,2.97,2.11,3.71,3.75.79,1.74.98,3.7.84,5.6ZM210.1,81.16c-1.57,1.47-3.83,1.87-5.91,1.79-1.48-.1-2.96-.39-4.32-.99,0-1.37,0-2.74,0-4.1,1.14.83,2.46,1.42,3.85,1.66.97.16,2.03.17,2.93-.27.87-.43,1.02-1.66.51-2.41-.48-.58-1.19-.9-1.85-1.21-1.25-.56-2.56-1.03-3.66-1.88-.77-.6-1.36-1.45-1.59-2.41-.34-1.41-.23-3,.59-4.23.94-1.44,2.56-2.3,4.22-2.59,1.96-.35,4.02-.09,5.87.61,0,1.3,0,2.6,0,3.9-1.3-.89-2.88-1.37-4.46-1.32-.79.03-1.67.37-2.03,1.12-.29.75-.09,1.72.62,2.17,1.2.81,2.64,1.15,3.89,1.87.98.55,1.93,1.27,2.43,2.31.93,1.95.54,4.52-1.1,5.97ZM229.79,79.73c-1.26,1.65-3.18,2.71-5.22,3.05-1.99.32-4.09.24-5.98-.51-1.91-.75-3.51-2.29-4.31-4.18-.84-1.93-.93-4.1-.67-6.16.27-2.06,1.21-4.08,2.8-5.45,1.3-1.14,2.98-1.79,4.69-2.01,2.12-.26,4.37-.12,6.3.86,1.69.84,2.99,2.37,3.65,4.13.51,1.35.69,2.8.66,4.24,0,2.14-.58,4.34-1.92,6.04ZM253.92,68.25c-1.41-.06-2.81-.02-4.22-.02,0,1.98,0,3.96,0,5.95.02,1.1-.06,2.2.07,3.29.08.64.31,1.36.92,1.69,1.01.57,2.3.32,3.23-.3v3.48c-1.21.53-2.57.69-3.88.59-1.24-.09-2.53-.54-3.35-1.53-.94-1.12-1.18-2.63-1.2-4.05-.01-3.04,0-6.08,0-9.12-2.07,0-4.14,0-6.21,0,0,4.77,0,9.55,0,14.32h-4.24c0-4.77,0-9.54,0-14.31-.98-.02-1.97,0-2.95-.02,0-1.13,0-2.27,0-3.4.98-.02,1.96-.01,2.94,0,.07-1.51-.16-3.06.29-4.52.38-1.32,1.23-2.52,2.39-3.27,1.81-1.18,4.15-1.29,6.19-.73.02,1.21,0,2.42,0,3.64-.97-.43-2.11-.7-3.13-.29-.81.32-1.29,1.15-1.42,1.98-.15,1.05-.05,2.12-.08,3.18,2.07,0,4.14,0,6.21,0,.02-1.34-.02-2.69.02-4.03,1.41-.4,2.8-.85,4.2-1.27.01,1.77-.02,3.54.02,5.31,1.4-.02,2.8,0,4.2,0v3.45Z"/>
  <path class="cls-3" d="M225.65,68.85c-.92-.81-2.2-1.09-3.4-1-1.17.07-2.34.57-3.1,1.49-.83.98-1.19,2.27-1.29,3.53-.1,1.3,0,2.65.5,3.87.42,1.02,1.21,1.91,2.24,2.34.95.41,2.02.48,3.04.33.95-.14,1.86-.59,2.48-1.33.61-.74.93-1.67,1.1-2.6.21-1.25.21-2.54-.04-3.79-.22-1.06-.69-2.12-1.54-2.82Z"/>
  <path class="cls-3" d="M192.09,69.05c-.92-.93-2.28-1.29-3.55-1.2-1.01.06-2.04.4-2.79,1.1-1.04.94-1.51,2.34-1.64,3.7-.14,1.5-.04,3.08.64,4.44.53,1.06,1.51,1.89,2.66,2.19,1.13.29,2.36.27,3.46-.15.94-.37,1.68-1.14,2.09-2.05.61-1.35.67-2.88.6-4.34-.1-1.33-.48-2.73-1.47-3.7Z"/>
  <path d="M43.62,119.93h227.4c.39,0,.7-.32.7-.7V20.42c0-.39-.32-.7-.7-.7H43.62c-.39,0-.7.32-.7.7v98.81c0,.39.32.7.7.7ZM43.89,20.68h226.88v98.29H43.89V20.68Z"/>
  <circle class="cls-3" cx="35.32" cy="23.54" r="3.15"/>
  <path d="M35.32,19.42c-2.27,0-4.12,1.85-4.12,4.12s1.85,4.12,4.12,4.12,4.12-1.85,4.12-4.12-1.85-4.12-4.12-4.12ZM35.32,26.7c-1.74,0-3.15-1.42-3.15-3.15s1.42-3.15,3.15-3.15,3.15,1.42,3.15,3.15-1.42,3.15-3.15,3.15Z"/>
  <rect class="cls-2" x="21.89" y="48.45" width="3.7" height="42.68"/>
  <path d="M26.55,47.48h-5.63v44.61h5.63v-44.61ZM25.59,91.12h-3.7v-42.68h3.7v42.68Z"/>
  <path class="cls-1" d="M184.21,155.32l-3.76,10.33c-1.02-1.28-1.7-3.03-2.98-4.09-.09-.08-.22-.12-.34-.13-.04-.2.01-.14.11-.19.86-.47,1.52-.62,1.97-1.64,1.02-2.3-.53-4.06-2.82-4.28-1.51-.15-3.25.11-4.78,0v10.94h2.41v-4.22c.65-.03,1.1-.04,1.58.44.54.54,2.14,3.67,2.44,3.77l4.79.02.84-2.49,3.87.03.9,2.46h2.54l-3.88-10.9-2.92-.03ZM175.92,160.08c-.47.17-1.45.25-1.88.01v-2.84l.13-.13h1.55s.48.19.55.22c1.09.6.74,2.33-.35,2.73ZM186.92,161.94h-2.63l1.34-4.65,1.39,4.48-.1.18Z"/>
  <polygon class="cls-1" points="137.77 159.62 133.2 159.62 133.2 155.31 130.79 155.31 130.79 166.25 133.2 166.25 133.2 161.9 133.33 161.77 137.77 161.77 137.77 166.25 140.13 166.25 140.26 166.12 140.26 155.31 137.77 155.31 137.77 159.62"/>
  <path class="cls-1" d="M154.65,161.94h2.02l.13.22c-.07.39.15,1.82-.14,2.02-.43.3-1.92.19-2.43.03-2.49-.75-2.71-4.64-.92-6.23,1.53-1.36,3.75-.8,5.47-.18v-2.11c-1.52-.69-3.67-.76-5.27-.28-3.14.94-4.41,4.07-3.75,7.14.91,4.2,6.2,4.58,9.45,3v-5.51h-4.57v1.9Z"/>
  <path class="cls-1" d="M200.83,160.05h-4.57v1.9h2.15v2.02c-.08.44-1.48.42-1.85.39-3.44-.31-3.73-5.59-.85-6.88,1.48-.66,3.16-.23,4.6.33v-2.24c-4.38-1.47-9.38.54-9.13,5.73.24,5.14,5.67,6.14,9.6,4.25l.1-.07c.04-.06-.05-.11-.05-.13v-5.3Z"/>
  <path class="cls-1" d="M163.84,155.3l-3.93,10.95h2.58l.79-2.49h3.85s.79,2.49.79,2.49h2.67l-3.79-10.94h-2.96ZM163.91,161.94l-.1-.18,1.39-4.48,1.34,4.65h-2.63Z"/>
  <polygon class="cls-1" points="144.83 161.77 148.36 161.77 148.36 159.7 144.83 159.7 144.83 157.29 148.62 157.29 148.62 155.31 142.33 155.31 142.33 166.25 148.88 166.25 148.88 164.27 144.83 164.27 144.83 161.77"/>
  <polygon class="cls-1" points="205.05 161.77 208.54 161.77 208.67 161.64 208.67 159.79 205.18 159.79 205.05 159.66 205.05 157.29 208.93 157.29 208.93 155.31 202.64 155.31 202.64 166.25 209.19 166.25 209.19 164.27 205.05 164.27 205.05 161.77"/>
  <path class="cls-1" d="M120.96,157.29h2.97l.13.13v8.83h2.41v-8.74s.11-.13.09-.22h3.1v-1.98h-8.7v1.98Z"/>
  <path class="cls-1" d="M115.67,154.7c-.13-.07-.18-.06-.29-.1-2.67-.98-5.35-1.92-8.02-2.9-.29-.11-.57.08-.84.18-1.45.5-2.9,1.01-4.34,1.52l-3.88,1.36v11.5h17.5l.02-11.42c0-.14-.08-.1-.15-.14ZM114.52,165.06h-14.92v-9.39h14.92v9.39Z"/>
  <path class="cls-1" d="M118.44,152.91c-.08-.12-.23-.12-.35-.16-3.42-1.21-10.9-3.8-10.9-3.8h-.21s-6.83,2.42-9.96,3.51l-1.35.47v2.59h1.09s.04.03.06,0l.06-.08v-1.5c.03-.22.14-.17.28-.22.22-.08.44-.15.66-.23l9.24-3.2c3.26,1.12,6.53,2.18,9.78,3.32.09.03.36.07.4.17v1.62s.05.08.05.08h1.11c.09,0,.03-.22.03-.28-.01-.68-.01-1.38,0-2.06,0-.08.05-.15,0-.23Z"/>
  <rect class="cls-1" x="100.28" y="156.35" width="13.62" height="1.02"/>
  <rect class="cls-1" x="100.28" y="159.93" width="13.57" height="1"/>
  <rect class="cls-1" x="100.26" y="163.38" width="13.53" height=".99"/>
  <rect class="cls-1" x="100.28" y="161.61" width="13.57" height=".99"/>
  <rect class="cls-1" x="100.35" y="158.12" width="13.51" height=".99"/>
  <path class="cls-1" d="M30.22,151.18c-.26-.8-1.47-2.17-4.4-2.17-4.26,0-7.45,3.64-7.45,8.97,0,4.58,2.56,8.26,7.05,8.26,2.5,0,3.91-.92,4.8-2.39v.81c0,3.34-.58,5.21-3.64,5.21-1.82,0-2.68-.8-3.01-1.97h-4.81c.16,1.92,1.39,5.4,7.61,5.4s8.47-3.46,8.47-8.93v-10.07c0-1.64,0-3.37.04-4.89h-4.47c-.03.28-.15,1.32-.19,1.78ZM26.77,162.43c-2.09,0-3.55-1.73-3.55-4.66,0-3.4,1.6-4.98,3.65-4.98,2.99,0,3.5,1.97,3.5,4.84s-.76,4.81-3.6,4.81Z"/>
  <rect class="cls-1" x="39.02" y="149.4" width="4.72" height="17.04"/>
  <path class="cls-1" d="M54.58,162.27h-.03c-.34-2.05-1.69-7.1-3.31-12.87h-5.08l5.77,17.04h4.96l6.02-17.04h-4.7c-1.48,4.92-3.15,10.05-3.63,12.87Z"/>
  <path class="cls-1" d="M72.18,149.01c-5.47,0-8.21,3.82-8.21,9.16,0,4.47,2.43,8.67,8.05,8.67s7.21-3.43,7.82-5.51h-4.72c-.45,1.03-1.01,1.82-2.97,1.82-2.35,0-3.42-2.08-3.42-4.21h11.24c.06-.49.06-.86.06-1.44,0-4.25-1.99-8.49-7.84-8.49ZM68.81,156.03c.19-2.09,1.1-3.65,3.36-3.65s3.09,1.67,3.12,3.65h-6.48Z"/>
  <path class="cls-1" d="M43.37,142.38c-.88,0-1.66.44-1.98,1.35h-.02c-.32-.91-1.09-1.35-1.96-1.35-1.03,0-1.86.78-1.86,1.75,0,1.15.7,2.01,1.42,2.79.69.75,2.06,2.06,2.41,2.38h.02c.35-.32,1.73-1.63,2.42-2.38.72-.78,1.42-1.64,1.42-2.79,0-.96-.8-1.75-1.85-1.75Z"/>
  <circle class="cls-2" cx="289.65" cy="12.38" r=".71"/>
  <path d="M289.65,14.06c.93,0,1.68-.75,1.68-1.68s-.75-1.68-1.68-1.68-1.68.75-1.68,1.68.75,1.68,1.68,1.68ZM289.65,11.67c.39,0,.71.32.71.71s-.32.71-.71.71-.71-.32-.71-.71.32-.71.71-.71Z"/>
  <circle class="cls-2" cx="289.65" cy="23.16" r=".71"/>
  <path d="M289.65,24.84c.93,0,1.68-.75,1.68-1.68s-.75-1.68-1.68-1.68-1.68.75-1.68,1.68.75,1.68,1.68,1.68ZM289.65,22.45c.39,0,.71.32.71.71s-.32.71-.71.71-.71-.32-.71-.71.32-.71.71-.71Z"/>
  <path class="cls-2" d="M289.65,109.71c.39,0,.71-.32.71-.71s-.32-.71-.71-.71-.71.32-.71.71.32.71.71.71Z"/>
  <path d="M289.65,110.67c.93,0,1.68-.75,1.68-1.68s-.75-1.68-1.68-1.68-1.68.75-1.68,1.68.75,1.68,1.68,1.68ZM289.65,108.28c.39,0,.71.32.71.71s-.32.71-.71.71-.71-.32-.71-.71.32-.71.71-.71Z"/>
  <path class="cls-2" d="M289.65,120.48c.39,0,.71-.32.71-.71s-.32-.71-.71-.71-.71.32-.71.71.32.71.71.71Z"/>
  <path d="M289.65,121.45c.93,0,1.68-.75,1.68-1.68s-.75-1.68-1.68-1.68-1.68.75-1.68,1.68.75,1.68,1.68,1.68ZM289.65,119.06c.39,0,.71.32.71.71s-.32.71-.71.71-.71-.32-.71-.71.32-.71.71-.71Z"/>
  <path class="cls-1" d="M3.88,88.24h8.56v-36.92H3.88c-1.61,0-2.91,1.31-2.91,2.91v31.09c0,1.61,1.31,2.91,2.91,2.91Z"/>
  <path class="cls-4" d="M60.72,69.16h19.63c0-6.54,0-13.08,0-19.63h-19.63v19.63Z"/>
  <path class="cls-4" d="M82.36,69.16c6.54,0,13.08,0,19.62,0,0-6.54,0-13.08,0-19.63h-19.63c0,6.54,0,13.08,0,19.63Z"/>
  <path class="cls-4" d="M146.83,57.26c-1.18.13-2.18,1.21-2.15,2.41-.05,1.14.87,2.17,1.97,2.36,1.06.23,2.28-.22,2.83-1.18.49-.86.37-2.02-.29-2.76-.57-.67-1.49-.96-2.35-.83Z"/>
  <path class="cls-4" d="M135.15,57.8c-2.45,6.1-4.96,12.19-7.43,18.28-.52-1.21-.97-2.44-1.47-3.66-1.92-4.88-3.86-9.75-5.78-14.63h-6.17c0,8.25,0,16.5,0,24.75,1.35,0,2.69,0,4.04,0,0-3.69,0-7.39,0-11.08.01-2.67-.03-5.34.02-8,.08.12.15.25.21.38,2.52,6.24,5.02,12.48,7.55,18.72,1.02-.02,2.03.02,3.05-.02,2.44-6.24,4.94-12.45,7.39-18.68.06-.14.14-.27.22-.4.02.27.03.55.03.82,0,6.09,0,12.18,0,18.27,1.43.02,2.85,0,4.28,0,0-8.25,0-16.5,0-24.75-1.98,0-3.96-.02-5.94.01Z"/>
  <path class="cls-4" d="M161.17,67.88c1.74-.22,3.48.44,4.84,1.49.01-1.35-.01-2.71.01-4.06-.38-.22-.79-.39-1.21-.5-2.05-.58-4.26-.6-6.31-.02-1.88.54-3.61,1.7-4.71,3.33-1.32,1.91-1.78,4.3-1.68,6.59.1,2.2.97,4.4,2.57,5.94,1.47,1.43,3.5,2.2,5.53,2.31,1.99.1,4.07-.17,5.8-1.2-.02-1.28,0-2.56,0-3.84-1.12.82-2.42,1.4-3.81,1.56-1.4.11-2.9-.23-3.97-1.18-1.03-.88-1.58-2.2-1.72-3.53-.18-1.69.06-3.53,1.12-4.91.83-1.12,2.14-1.83,3.53-1.96Z"/>
  <path class="cls-4" d="M208.77,72.87c-1.25-.72-2.68-1.06-3.89-1.87-.7-.45-.9-1.43-.62-2.17.36-.75,1.23-1.09,2.03-1.12,1.57-.06,3.16.42,4.46,1.32,0-1.3,0-2.6,0-3.9-1.86-.7-3.91-.96-5.87-.61-1.66.3-3.29,1.16-4.22,2.59-.82,1.23-.93,2.82-.59,4.23.23.96.81,1.81,1.59,2.41,1.1.84,2.41,1.31,3.66,1.88.67.31,1.37.63,1.85,1.21.51.75.36,1.98-.51,2.41-.9.43-1.96.43-2.93.27-1.39-.24-2.71-.83-3.85-1.66-.02,1.37,0,2.73,0,4.1,1.36.6,2.84.89,4.32.99,2.08.08,4.34-.33,5.91-1.79,1.64-1.45,2.04-4.03,1.1-5.97-.5-1.04-1.45-1.76-2.43-2.31Z"/>
  <path class="cls-4" d="M175.52,65.07c-1.06.6-1.74,1.68-2.19,2.78,0-1.02,0-2.03,0-3.05-1.4,0-2.79-.01-4.19,0,0,5.91,0,11.82,0,17.73h4.18c0-2.83,0-5.66,0-8.48-.03-1.23.07-2.5.6-3.62.5-1.06,1.45-1.99,2.65-2.12.99-.1,2.03.13,2.87.67,0-1.42,0-2.83,0-4.25-1.28-.43-2.77-.37-3.94.33Z"/>
  <path class="cls-4" d="M145.06,64.81c0,5.91,0,11.82,0,17.74h4.21c0-5.91,0-11.82,0-17.73-1.41-.03-2.82-.01-4.22,0Z"/>
  <path class="cls-4" d="M193.35,65.19c-1.89-.86-4.04-.98-6.08-.72-2.14.27-4.22,1.28-5.58,2.98-1.24,1.52-1.84,3.48-1.96,5.42-.17,2.29.21,4.72,1.55,6.63,1.14,1.65,2.95,2.78,4.9,3.2,1.63.34,3.34.34,4.97,0,1.91-.39,3.69-1.45,4.87-3.01,1.16-1.47,1.74-3.32,1.87-5.17.13-1.89-.06-3.85-.84-5.6-.74-1.64-2.07-3.01-3.71-3.75ZM192.95,77.09c-.41.91-1.15,1.68-2.09,2.05-1.1.42-2.33.45-3.46.15-1.15-.3-2.13-1.14-2.66-2.19-.68-1.37-.79-2.94-.64-4.44.13-1.36.6-2.76,1.64-3.7.75-.7,1.78-1.05,2.79-1.1,1.28-.08,2.63.28,3.55,1.2.98.96,1.36,2.36,1.47,3.7.08,1.46.02,2.98-.6,4.34Z"/>
  <path class="cls-4" d="M227.4,65.33c-1.93-.98-4.18-1.12-6.3-.86-1.71.22-3.39.87-4.69,2.01-1.59,1.37-2.52,3.39-2.8,5.45-.26,2.06-.17,4.23.67,6.16.81,1.89,2.4,3.43,4.31,4.18,1.89.74,3.99.83,5.98.51,2.03-.34,3.96-1.41,5.22-3.05,1.34-1.7,1.92-3.9,1.92-6.04.03-1.43-.15-2.89-.66-4.24-.65-1.76-1.96-3.28-3.65-4.13ZM227.22,75.47c-.16.93-.49,1.86-1.1,2.6-.62.74-1.53,1.2-2.48,1.33-1.02.15-2.09.08-3.04-.33-1.03-.43-1.82-1.32-2.24-2.34-.5-1.22-.6-2.56-.5-3.87.1-1.26.45-2.55,1.29-3.53.76-.91,1.92-1.42,3.1-1.49,1.2-.08,2.48.19,3.4,1,.85.7,1.32,1.76,1.54,2.82.24,1.25.24,2.54.04,3.79Z"/>
  <path class="cls-4" d="M249.71,59.5c-1.4.42-2.79.87-4.2,1.27-.03,1.34,0,2.69-.02,4.03-2.07,0-4.14,0-6.21,0,.03-1.06-.07-2.13.08-3.18.13-.83.61-1.66,1.42-1.98,1.02-.42,2.16-.14,3.13.29,0-1.21,0-2.43,0-3.64-2.04-.56-4.38-.45-6.19.73-1.17.75-2.01,1.94-2.39,3.27-.45,1.47-.22,3.02-.29,4.52-.98,0-1.96-.02-2.94,0,.01,1.13,0,2.27,0,3.4.98.02,1.97,0,2.95.02,0,4.77,0,9.54,0,14.31h4.24c0-4.77,0-9.55,0-14.32,2.07,0,4.14,0,6.21,0,0,3.04,0,6.08,0,9.12.02,1.42.26,2.93,1.2,4.05.81.99,2.1,1.44,3.35,1.53,1.31.09,2.67-.07,3.88-.59v-3.48c-.93.62-2.21.87-3.23.3-.6-.33-.84-1.05-.92-1.69-.13-1.09-.05-2.2-.07-3.29,0-1.98,0-3.96,0-5.95,1.41,0,2.81-.04,4.22.02v-3.45c-1.4,0-2.8-.01-4.2,0-.03-1.77,0-3.54-.02-5.31Z"/>
  <path class="cls-4" d="M60.72,90.79h19.63c0-6.54,0-13.08,0-19.63-6.54,0-13.08,0-19.63,0v19.63Z"/>
  <path class="cls-4" d="M82.35,90.79h19.63v-19.63c-6.54,0-13.08,0-19.63,0,0,6.54,0,13.08,0,19.63Z"/>
</svg>