<?xml version="1.0" encoding="UTF-8"?>
<svg id="Layer_1" data-name="Layer 1" xmlns="http://www.w3.org/2000/svg" viewBox="0 0 192.08 300">
  <defs>
    <style>
      .cls-1 {
        fill: #d39e4e;
      }

      .cls-2 {
        fill: #7a1508;
      }

      .cls-3 {
        fill: #fff;
      }

      .cls-4 {
        fill: none;
      }

      .cls-5 {
        fill: #ef3e28;
      }

      .cls-6 {
        fill: #535551;
      }

      .cls-7 {
        fill: #b3b3b3;
      }

      .cls-8 {
        fill: #333531;
      }
    </style>
  </defs>
  <path class="cls-4" d="M182.04,10.66c0-1.88-1.53-3.4-3.4-3.4h-27.25c-1.88,0-3.4,1.53-3.4,3.4s1.53,3.4,3.4,3.4h27.25c1.88,0,3.4-1.53,3.4-3.4Z"/>
  <path class="cls-4" d="M46.29,10.66c0-1.88-1.53-3.4-3.4-3.4H15.63c-1.88,0-3.4,1.53-3.4,3.4s1.53,3.4,3.4,3.4h27.25c1.88,0,3.4-1.53,3.4-3.4Z"/>
  <path class="cls-4" d="M83.51,14.07h27.25c1.88,0,3.4-1.53,3.4-3.4s-1.53-3.4-3.4-3.4h-27.25c-1.88,0-3.4,1.53-3.4,3.4s1.53,3.4,3.4,3.4Z"/>
  <path class="cls-7" d="M4.23,240.9v-2.48H1.99v1.49c0,.55.44.99.99.99h1.25Z"/>
  <path class="cls-7" d="M4.23,224.02h-1.25c-.55,0-.99.44-.99.99v1.49h2.24v-2.48Z"/>
  <path d="M2.98,222.03c-1.64,0-2.98,1.34-2.98,2.98v14.9c0,1.64,1.34,2.98,2.98,2.98h1.25v50.16c0,3.83,3.12,6.95,6.95,6.95h171.85c3.83,0,6.95-3.12,6.95-6.95v-67.33h.99v-2.68h-.99V6.95c0-3.83-3.12-6.95-6.95-6.95H11.18c-3.83,0-6.95,3.12-6.95,6.95v108.38c-1.34.03-2.43,1.13-2.43,2.48v34.77c0,1.35,1.09,2.45,2.43,2.48v66.98h-1.25ZM2.79,117.81c0-.82.67-1.49,1.49-1.49h8.13v37.75H4.28c-.82,0-1.49-.67-1.49-1.49v-34.77ZM13.4,115.32v-55.37h7.08v22.49h5.41v84.94h-12.49v-52.06ZM21.48,81.45v-21.5h159.34v107.43H26.88v-85.93h-5.41ZM6.53,155.06h5.88v13.31h169.4V58.96H12.41v56.37h-6.19V6.95c0-2.74,2.23-4.97,4.97-4.97h171.85c2.74,0,4.97,2.23,4.97,4.97v286.09c0,2.74-2.23,4.97-4.97,4.97H11.18c-2.74,0-4.97-2.23-4.97-4.97v-137.99h.32ZM1.99,239.91v-1.49h2.24v2.48h-1.25c-.55,0-.99-.44-.99-.99ZM1.99,225.01c0-.55.44-.99.99-.99h1.25v2.48H1.99v-1.49ZM4.23,227.49v9.93H1.99v-9.93h2.24Z"/>
  <rect class="cls-7" x="1.99" y="227.49" width="2.24" height="9.93"/>
  <path class="cls-5" d="M63.32,198.8c.8,0,1.22-.65,1.22-1.74,0-.94-.42-1.56-1.16-1.56-.9,0-1.25.57-1.25,1.64s.29,1.66,1.19,1.66Z"/>
  <path class="cls-5" d="M142.08,232.35c2.05,0,2.29-1.71,2.29-3.27,0-1.85-.26-3.24-2.21-3.24-1.57,0-2.36,1.23-2.36,3.26s.82,3.24,2.28,3.24Z"/>
  <path class="cls-5" d="M107.22,197.15c0,.97.47,1.66,1.25,1.66s1.23-.66,1.23-1.66-.44-1.67-1.25-1.67-1.23.64-1.23,1.66Z"/>
  <path class="cls-5" d="M129.35,187.61c.77,0,.98-.53.98-1.31s-.14-1.31-.95-1.31c-.56,0-.99.43-.99,1.35,0,.8.4,1.27.97,1.27Z"/>
  <path class="cls-5" d="M124,187.61c.77,0,.98-.53.98-1.31s-.14-1.31-.95-1.31c-.56,0-.99.43-.99,1.35,0,.8.4,1.27.97,1.27Z"/>
  <path class="cls-5" d="M97.36,184.88c-.61,0-.86.42-.91.99h1.76c0-.54-.23-.99-.85-.99Z"/>
  <path class="cls-5" d="M97.1,195.44c-.76,0-1.09.53-1.17,1.28h2.27c0-.71-.35-1.28-1.1-1.28Z"/>
  <path class="cls-5" d="M138.63,196.72h2.27c0-.71-.35-1.28-1.1-1.28s-1.09.53-1.17,1.28Z"/>
  <path class="cls-5" d="M134.72,195.5c-.78,0-1.24.61-1.24,1.67s.49,1.63,1.18,1.63c1.03,0,1.23-.77,1.23-1.71s-.19-1.6-1.18-1.6Z"/>
  <path class="cls-5" d="M134.67,184.88c-.61,0-.86.42-.91.99h1.76c0-.54-.23-.99-.85-.99Z"/>
  <path class="cls-5" d="M120,231.17c0,.78.48,1.44,1.55,1.44,1.9,0,2.13-1.32,2.13-2.75v-.28h-1.22c-1.8,0-2.47.55-2.47,1.59Z"/>
  <path class="cls-5" d="M89.03,227.9h4.11c-.02-1.26-.52-2.31-1.98-2.31s-2.01.99-2.13,2.31Z"/>
  <path class="cls-5" d="M148.01,198.08c0,.45.3.78.84.78,1.04,0,1.18-.7,1.18-1.49v-.14h-.69c-.88,0-1.33.25-1.33.85Z"/>
  <path class="cls-5" d="M129.68,195.49c-.8,0-1.23.64-1.23,1.66s.47,1.66,1.25,1.66,1.23-.66,1.23-1.66-.44-1.67-1.25-1.67Z"/>
  <path class="cls-5" d="M36.86,198.8c1.03,0,1.23-.77,1.23-1.71s-.19-1.6-1.18-1.6c-.78,0-1.24.61-1.24,1.67s.49,1.63,1.18,1.63Z"/>
  <path class="cls-5" d="M42.01,195.44c-.76,0-1.09.53-1.17,1.28h2.27c0-.71-.35-1.28-1.1-1.28Z"/>
  <path class="cls-5" d="M149.77,30.53c-.56,0-1,.44-1,1.02s.44,1.02,1,1.02.99-.43.99-1.02-.44-1.02-.99-1.02ZM150.13,32.25l-.37-.61h-.25v.61h-.21v-1.41h.54c.33,0,.5.12.5.4,0,.25-.16.36-.37.39l.4.62h-.24Z"/>
  <path class="cls-5" d="M57.7,32.73h-9.7c-2.55,0-4.04,2.07-4.04,4.61s1.49,4.61,4.04,4.61h9.7c2.55,0,4.04-2.07,4.04-4.61s-1.49-4.61-4.04-4.61Z"/>
  <path class="cls-5" d="M51.17,195.44c-.76,0-1.09.53-1.17,1.28h2.27c0-.71-.35-1.28-1.1-1.28Z"/>
  <path class="cls-5" d="M92.05,187.78c.88,0,.98-.73.98-1.4,0-.79-.11-1.39-.95-1.39-.67,0-1.01.52-1.01,1.4s.35,1.39.98,1.39Z"/>
  <path class="cls-5" d="M58.17,198.81c.79,0,1.23-.66,1.23-1.66s-.44-1.67-1.25-1.67-1.23.64-1.23,1.66.47,1.66,1.25,1.66Z"/>
  <path class="cls-5" d="M84.41,198.08c0,.45.3.78.84.78,1.04,0,1.18-.7,1.18-1.49v-.14h-.69c-.88,0-1.33.25-1.33.85Z"/>
  <path class="cls-5" d="M86.81,187.8c.63,0,.98-.53.98-1.41,0-.97-.36-1.43-.99-1.43-.59,0-.98.44-.98,1.42,0,.89.38,1.42,1,1.42Z"/>
  <path class="cls-5" d="M77.63,198.81c.79,0,1.23-.66,1.23-1.66s-.44-1.67-1.25-1.67-1.23.64-1.23,1.66.47,1.66,1.25,1.66Z"/>
  <path class="cls-5" d="M68.25,195.44c-.76,0-1.09.53-1.17,1.28h2.27c0-.71-.35-1.28-1.1-1.28Z"/>
  <polygon class="cls-5" points="118.78 272.33 57.22 272.33 57.22 273.82 118.16 273.82 128.1 283.75 137.05 283.75 137.05 282.26 128.72 282.26 118.78 272.33"/>
  <path class="cls-5" d="M57.22,259.64v1.12h79.83v-1.12c0-.13.02-.25.04-.37H57.19c.02.12.04.24.04.37Z"/>
  <polygon class="cls-5" points="178.74 272.18 168.66 282.26 166.35 282.26 166.35 283.75 169.28 283.75 180.23 272.8 180.23 198.51 150.09 168.37 147.98 168.37 178.74 199.13 178.74 272.18"/>
  <polygon class="cls-5" points="161.4 185.3 159.9 183.8 159.9 206.06 176.26 222.42 176.26 220.31 161.39 205.44 161.39 185.3 161.4 185.3"/>
  <path class="cls-5" d="M158.36,197.09c0-.65-.09-1.14-.45-1.4v2.85c.35-.3.45-.84.45-1.45Z"/>
  <path class="cls-5" d="M176.26,224.65v-1.52l-16.86-16.86v-22.96l-1.49-1.49v13.12c.22.11.35.25.42.38v-2.45h.88v5.28c0,.42,0,.84,0,1.28h-.84c-.02-.12-.04-.45-.04-.61-.09.19-.24.34-.42.46v7.61l4.77,4.77h.03v.03l1.96,1.96h0s7.99,8,7.99,8h.06v.06l3.48,3.48v-.53h.05Z"/>
  <polygon class="cls-5" points="57.22 263.86 61.2 263.86 61.2 267.83 57.22 267.83 57.22 269.84 119.81 269.84 129.75 279.78 137.05 279.78 137.05 279.75 133.08 279.75 133.08 275.78 137.05 275.78 137.05 267.83 133.08 267.83 133.08 263.86 137.05 263.86 137.05 263.24 57.22 263.24 57.22 263.86"/>
  <polygon class="cls-5" points="176.75 271.36 170.33 277.78 170.33 279.75 168.36 279.75 167.84 280.27 166.35 280.27 166.35 281.76 168.45 281.76 178.24 271.98 178.24 199.34 147.28 168.37 145.17 168.37 176.75 199.95 176.75 271.36"/>
  <rect class="cls-5" x="57.22" y="261.25" width="79.83" height="1.49"/>
  <polygon class="cls-5" points="176.2 241.86 176.2 225.84 176.19 225.86 174.71 224.39 174.71 241.24 158.8 257.16 160.9 257.16 176.2 241.86"/>
  <polygon class="cls-5" points="167.66 279.75 166.35 279.75 166.35 279.78 167.63 279.78 167.66 279.75"/>
  <polygon class="cls-5" points="174.22 241.03 174.22 223.89 172.73 222.4 172.73 240.42 155.99 257.16 158.1 257.16 174.22 241.03"/>
  <polygon class="cls-5" points="119.6 270.34 57.22 270.34 57.22 271.83 118.99 271.83 128.93 281.76 137.05 281.76 137.05 280.27 129.54 280.27 119.6 270.34"/>
  <path class="cls-5" d="M150.11,31.23c0-.17-.16-.21-.31-.21h-.29v.44h.26c.18,0,.34-.01.34-.23Z"/>
  <path class="cls-5" d="M166.35,259.64v4.22h3.97v3.97h-3.97v7.95h3.97v1.3l5.93-5.93v-28.65l-14.65,14.65h2.26c1.37,0,2.48,1.11,2.48,2.48Z"/>
  <path class="cls-5" d="M155.94,197.17c0,1.06.49,1.63,1.18,1.63.11,0,.2-.01.29-.03v-3.25c-.07,0-.15-.02-.23-.02-.78,0-1.24.61-1.24,1.67Z"/>
  <path class="cls-5" d="M78.85,225.84c-1.57,0-2.36,1.23-2.36,3.26s.82,3.24,2.28,3.24c2.05,0,2.29-1.71,2.29-3.27,0-1.85-.26-3.24-2.21-3.24Z"/>
  <path class="cls-5" d="M153.11,249.18c0-.55-.42-.84-1.05-.84h-1.55v1.71h1.51c.77,0,1.09-.35,1.09-.88Z"/>
  <path class="cls-5" d="M66.5,225.79c-1.39,0-2.29,1.03-2.29,3.31,0,2.08.89,3.31,2.33,3.31s2.28-1.23,2.28-3.29c0-2.26-.83-3.33-2.32-3.33Z"/>
  <path class="cls-5" d="M153.26,252.31c0-.61-.39-.99-1.29-.99h-1.46v2.05h1.47c.88,0,1.28-.37,1.28-1.05Z"/>
  <path class="cls-5" d="M42.46,248.26c-.19.74-.56,1.92-.99,3.28h2.06c-.53-1.59-.88-2.61-1.06-3.28h-.01Z"/>
  <polygon class="cls-5" points="161.88 205.24 176.26 219.61 176.26 200.16 161.88 185.79 161.88 205.24"/>
  <path class="cls-5" d="M9.02,250.97l9.79,9.79h9.11v-1.12c0-.13.02-.25.04-.37h-8.53l-8.92-8.92v-95.29h-1.49v95.91Z"/>
  <polygon class="cls-5" points="7.03 251.79 17.98 262.74 27.92 262.74 27.92 261.25 18.6 261.25 8.52 251.17 8.52 155.06 7.03 155.06 7.03 251.79"/>
  <path class="cls-5" d="M11,250.15l8.63,8.63h8.46c.35-.94,1.26-1.62,2.32-1.62h24.34c1.06,0,1.97.67,2.32,1.62h80.15c.35-.94,1.26-1.62,2.32-1.62h15.75l16.94-16.94v-18.31l-5.78-5.78h-47.08c-.1.29-.37.5-.7.5-.41,0-.75-.33-.75-.75s.33-.75.75-.75c.32,0,.59.21.7.5h46.58l-1.49-1.49h-45.09c-.1.29-.37.5-.7.5-.41,0-.75-.33-.75-.75s.33-.75.75-.75c.32,0,.59.21.7.5h44.59l-1.49-1.49h-43.1c-.1.29-.37.5-.7.5-.41,0-.75-.33-.75-.75s.33-.75.75-.75c.32,0,.59.21.7.5h42.61l-4.57-4.57v-7.6c-.15.03-.31.05-.49.05-1.17,0-1.89-.94-1.89-2.34s.78-2.43,2.04-2.43c.13,0,.23.02.34.03v-13.48l-12.94-12.94H12.41v-13.31h-1.41v95.09ZM44.49,254.62l-.62-1.74h-2.75l-.59,1.74h-1.6l2.56-7.53h2.05l2.67,7.53h-1.71ZM66.48,234.75c-3.35,0-5.3-2.39-5.3-5.61s2.01-5.69,5.44-5.69c3.18,0,5.23,2.24,5.23,5.63s-1.95,5.67-5.38,5.67ZM81.08,234.5c-.06-.32-.12-.88-.14-1.13-.52.85-1.45,1.38-3.06,1.38-2.73,0-4.47-2.19-4.47-5.56s1.85-5.74,4.9-5.74c1.55,0,2.39.55,2.63,1.03v-5.21h2.99v12.26c0,.98,0,1.98.02,2.97h-2.87ZM80.74,194.87h.86c.01.12.03.5.03.9.23-.6.76-.99,1.52-1.01v.87c-.93.02-1.52.46-1.52,1.63v2.17h-.88v-3.32c0-.6,0-.97,0-1.24ZM109.4,234.7c-4.56,0-6.71-3.23-6.71-7.32s2.22-7.47,6.86-7.47c3.83,0,5.68,2.25,6.04,4.65h-3.11c-.3-1.11-1.07-2.21-3.03-2.21-2.56,0-3.55,2.31-3.55,4.92,0,2.43.86,4.99,3.64,4.99,2.03,0,2.67-1.36,2.94-2.2h3.13c-.58,2.68-2.6,4.64-6.2,4.64ZM148.91,247.08h3.29c1.82,0,2.51.95,2.51,1.93,0,.85-.45,1.4-.96,1.63.51.19,1.18.73,1.18,1.72,0,1.29-1.01,2.26-2.62,2.26h-3.4v-7.53ZM141.63,223.45c1.55,0,2.39.55,2.63,1.03v-5.21h2.99v12.26c0,.98,0,1.98.02,2.97h-2.87c-.06-.32-.12-.88-.14-1.13-.52.85-1.45,1.38-3.06,1.38-2.73,0-4.47-2.19-4.47-5.56s1.85-5.74,4.9-5.74ZM132.22,223.7c.04.24.08,1.31.08,1.9.48-1.23,1.63-2.14,3.46-2.15v2.85c-2.17-.06-3.46.53-3.46,3.49v4.71h-2.99v-7.87c0-1.07,0-2.03-.02-2.93h2.93ZM122.14,223.45c2.89.02,4.47,1.15,4.47,3.72v4.54c0,1.03.08,2.53.15,2.79h-2.85c-.08-.21-.15-.78-.15-1.06-.39.61-1.13,1.31-3.04,1.31-2.6,0-3.7-1.71-3.7-3.39,0-2.46,1.98-3.59,5.14-3.59h1.54v-.66c0-.77-.28-1.52-1.66-1.52-1.26,0-1.54.54-1.68,1.32h-2.84c.16-1.92,1.35-3.47,4.63-3.45ZM135.9,199.42c-.02-.12-.04-.45-.04-.61-.22.45-.67.72-1.4.72-1.17,0-1.89-.94-1.89-2.34s.78-2.43,2.04-2.43c.78,0,1.13.31,1.25.55v-2.45h.88v5.28c0,.42,0,.84,0,1.28h-.84ZM153.05,194.87c.01.12.03.5.03.9.23-.6.76-.99,1.52-1.01v.87c-.93.02-1.52.46-1.52,1.63v2.17h-.88v-3.32c0-.6,0-.97,0-1.24h.86ZM150.89,196.27v2.13c0,.42.04.9.06,1.03h-.84c-.04-.1-.06-.32-.07-.57-.16.29-.51.67-1.38.67-1.08,0-1.54-.7-1.54-1.4,0-1.02.81-1.49,2.15-1.49h.75v-.37c0-.39-.13-.84-.93-.84-.72,0-.84.35-.92.7h-.84c.06-.66.47-1.37,1.79-1.37,1.13,0,1.76.46,1.76,1.51ZM149.01,187.13h1.38v1.57h-1.38v-1.57ZM145.38,184.07h.71v-1.25h1.28v1.25h.91v.96h-.91v2.28c0,.35.11.49.49.49.07,0,.2,0,.29-.01v.88c-.26.09-.6.09-.86.09-.9,0-1.2-.48-1.2-1.29v-2.43h-.71v-.96ZM143.39,182.17h1.28v1.14h-1.28v-1.14ZM143.39,184.07h1.28v4.63h-1.28v-4.63ZM144.63,194.76c1.36,0,1.8.97,1.86,1.54h-.87c-.11-.45-.38-.82-1.01-.82-.76,0-1.19.65-1.19,1.66s.42,1.67,1.17,1.67c.54,0,.86-.29,1.03-.8h.87c-.19.78-.72,1.52-1.91,1.52-1.28,0-2.05-.92-2.05-2.36,0-1.3.75-2.41,2.11-2.41ZM141.79,196.94c0,.14,0,.26-.01.38h-3.17c0,.86.44,1.49,1.18,1.49.68,0,.9-.34,1.04-.66h.88c-.18.58-.67,1.38-1.95,1.38-1.44,0-2.04-1.16-2.04-2.33,0-1.37.69-2.44,2.09-2.44,1.49,0,1.98,1.17,1.98,2.17ZM138.95,184.07c.02.1.03.56.03.81.2-.53.7-.92,1.49-.92v1.22c-.93-.02-1.49.23-1.49,1.5v2.02h-1.28v-3.37c0-.46,0-.87,0-1.26h1.26ZM134.68,183.96c1.59,0,2.13,1.15,2.13,2.3,0,.16,0,.26-.02.39h-3.05c0,.58.29,1.14.93,1.14.53,0,.69-.21.81-.49h1.28c-.16.57-.67,1.5-2.12,1.5s-2.19-1.14-2.19-2.35c0-1.45.75-2.49,2.23-2.49ZM129.67,199.53c-1.33,0-2.12-1.01-2.12-2.38s.79-2.39,2.17-2.39c1.28,0,2.11.95,2.11,2.37,0,1.32-.77,2.39-2.17,2.39ZM129.09,183.96c.79,0,1.12.37,1.19.59,0-.13.04-.41.05-.48h1.22c0,.41,0,.88,0,1.33v2.74c0,1.49-.55,2.43-2.3,2.43s-2.02-.94-2.07-1.47h1.31c.09.32.32.53.82.53.83,0,.99-.51.99-1.41v-.22c-.24.4-.62.65-1.3.65-1.22,0-1.91-1-1.91-2.24,0-1.45.87-2.44,2.02-2.44ZM126.9,196.31h-.87c-.11-.45-.38-.82-1.01-.82-.76,0-1.19.65-1.19,1.66s.42,1.67,1.17,1.67c.54,0,.86-.29,1.03-.8h.87c-.19.78-.72,1.52-1.91,1.52-1.28,0-2.05-.92-2.05-2.36,0-1.3.75-2.41,2.11-2.41s1.8.97,1.86,1.54ZM123.75,183.96c.79,0,1.12.37,1.19.59,0-.13.04-.41.05-.48h1.22c0,.41,0,.88,0,1.33v2.74c0,1.49-.55,2.43-2.3,2.43s-2.02-.94-2.07-1.47h1.31c.09.32.32.53.82.53.83,0,.99-.51.99-1.41v-.22c-.24.4-.62.65-1.3.65-1.22,0-1.91-1-1.91-2.24,0-1.45.87-2.44,2.02-2.44ZM119.55,182.17h1.28v1.14h-1.28v-1.14ZM119.55,184.07h1.28v4.63h-1.28v-4.63ZM121.43,193.12h.77l-2.49,6.76h-.77l2.5-6.76ZM117.32,184.07c.02.1.03.56.03.81.2-.53.7-.92,1.49-.92v1.22c-.93-.02-1.49.23-1.49,1.5v2.02h-1.28v-3.37c0-.46,0-.87,0-1.26h1.26ZM112.42,184.07h.71v-1.25h1.28v1.25h.91v.96h-.91v2.28c0,.35.11.49.49.49.07,0,.2,0,.29-.01v.88c-.26.09-.6.09-.86.09-.9,0-1.2-.48-1.2-1.29v-2.43h-.71v-.96ZM112.43,194.87c.01.13.03.45.03.67.21-.39.6-.78,1.31-.78.65,0,1.07.33,1.24.79.25-.42.67-.79,1.44-.79s1.44.45,1.44,1.67v2.99h-.86v-2.88c0-.51-.18-1.03-.86-1.03s-1,.52-1,1.3v2.61h-.86v-2.85c0-.56-.16-1.06-.84-1.06s-1.02.54-1.02,1.39v2.52h-.87v-3.38c0-.39,0-.8,0-1.17h.84ZM110.61,197.14c0,1.32-.77,2.39-2.17,2.39-1.33,0-2.12-1.01-2.12-2.38s.79-2.39,2.17-2.39c1.28,0,2.11.95,2.11,2.37ZM108.42,187.13h1.31c-.09.88-.39,1.87-.98,2.6h-.99c.52-1.19.6-1.95.66-2.6ZM104.43,184.07h.71v-1.25h1.28v1.25h.91v.96h-.91v2.28c0,.35.11.49.49.49.07,0,.2,0,.29-.01v.88c-.26.09-.6.09-.86.09-.9,0-1.2-.48-1.2-1.29v-2.43h-.71v-.96ZM102.44,182.17h1.28v1.14h-1.28v-1.14ZM102.44,184.07h1.28v4.63h-1.28v-4.63ZM103.82,194.76c1.36,0,1.8.97,1.86,1.54h-.87c-.11-.45-.38-.82-1.01-.82-.76,0-1.19.65-1.19,1.66s.42,1.67,1.17,1.67c.54,0,.86-.29,1.03-.8h.87c-.19.78-.72,1.52-1.91,1.52-1.28,0-2.05-.92-2.05-2.36,0-1.3.75-2.41,2.11-2.41ZM99.97,198.06h.93v1.37h-.93v-1.37ZM97.36,183.96c1.59,0,2.13,1.15,2.13,2.3,0,.16,0,.26-.02.39h-3.05c0,.58.29,1.14.93,1.14.53,0,.69-.21.81-.49h1.28c-.16.57-.67,1.5-2.12,1.5s-2.19-1.14-2.19-2.35c0-1.45.75-2.49,2.23-2.49ZM97.11,194.76c1.49,0,1.98,1.17,1.98,2.17,0,.14,0,.26-.01.38h-3.17c0,.86.44,1.49,1.18,1.49.68,0,.9-.34,1.04-.66h.88c-.18.58-.67,1.38-1.95,1.38-1.44,0-2.04-1.16-2.04-2.33,0-1.37.69-2.44,2.09-2.44ZM96.13,228.83c0,.37,0,.6-.04.91h-7.13c0,1.35.68,2.67,2.17,2.67,1.24,0,1.6-.5,1.88-1.15h2.99c-.38,1.32-1.56,3.49-4.95,3.49s-5.1-2.66-5.1-5.49c0-3.39,1.74-5.81,5.2-5.81,3.71,0,4.97,2.68,4.97,5.38ZM90.35,198.81c.54,0,.86-.29,1.03-.8h.87c-.19.78-.72,1.52-1.91,1.52-1.28,0-2.05-.92-2.05-2.36,0-1.3.75-2.41,2.11-2.41s1.8.97,1.86,1.54h-.87c-.11-.45-.38-.82-1.01-.82-.76,0-1.19.65-1.19,1.66s.42,1.67,1.17,1.67ZM93.15,199.42v-6.56h.88v6.56h-.88ZM91.85,183.96c.67,0,1.02.23,1.13.44v-2.23h1.28v5.26c0,.42,0,.85,0,1.27h-1.23c-.03-.14-.05-.38-.06-.48-.22.36-.62.59-1.31.59-1.17,0-1.92-.94-1.92-2.38s.79-2.46,2.1-2.46ZM86.84,183.96c1.36,0,2.24.96,2.24,2.41s-.84,2.43-2.3,2.43-2.27-1.02-2.27-2.41.86-2.44,2.33-2.44ZM85.53,194.76c1.13,0,1.76.46,1.76,1.51v2.13c0,.42.04.9.06,1.03h-.84c-.04-.1-.06-.32-.07-.57-.16.29-.51.67-1.38.67-1.08,0-1.54-.7-1.54-1.4,0-1.02.81-1.49,2.15-1.49h.75v-.37c0-.39-.13-.84-.93-.84-.72,0-.84.35-.92.7h-.84c.06-.66.47-1.37,1.79-1.37ZM81.9,183.96c1.56,0,1.99,1.12,2.02,1.64h-1.25c-.08-.38-.29-.64-.79-.64-.59,0-.92.51-.92,1.41,0,.99.35,1.43.91,1.43.44,0,.68-.26.79-.61h1.26c-.16.77-.7,1.6-2.08,1.6s-2.18-1-2.18-2.39.83-2.46,2.24-2.46ZM79.77,197.14c0,1.32-.77,2.39-2.17,2.39-1.33,0-2.12-1.01-2.12-2.38s.79-2.39,2.17-2.39c1.28,0,2.11.95,2.11,2.37ZM75.46,187.13h1.31c-.09.88-.39,1.87-.98,2.6h-.99c.52-1.19.6-1.95.66-2.6ZM74.67,199.42h-.93v-1.37h.93v1.37ZM71.48,184.07h.71v-1.25h1.28v1.25h.91v.96h-.91v2.28c0,.35.11.49.49.49.07,0,.2,0,.29-.01v.88c-.26.09-.6.09-.86.09-.9,0-1.2-.48-1.2-1.29v-2.43h-.71v-.96ZM72.08,194.87c.01.12.03.5.03.9.23-.6.76-.99,1.52-1.01v.87c-.93.02-1.52.46-1.52,1.63v2.17h-.88v-3.32c0-.6,0-.97,0-1.24h.86ZM69.49,182.17h1.28v1.14h-1.28v-1.14ZM69.49,184.07h1.28v4.63h-1.28v-4.63ZM68.26,194.76c1.49,0,1.98,1.17,1.98,2.17,0,.14,0,.26-.01.38h-3.17c0,.86.44,1.49,1.18,1.49.68,0,.9-.34,1.04-.66h.88c-.18.58-.67,1.38-1.95,1.38-1.44,0-2.04-1.16-2.04-2.33,0-1.37.69-2.44,2.09-2.44ZM62.35,182.17h1.28v3.85c.34-.46.95-1.18,1.59-1.95h1.47l-1.61,1.75,1.77,2.88h-1.45l-1.17-2.06-.59.57v1.49h-1.28v-6.53ZM62.13,194.87c.02.15.03.42.03.69.24-.43.69-.79,1.46-.79,1.05,0,1.82.88,1.82,2.27,0,1.62-.88,2.5-1.98,2.5-.72,0-1.09-.3-1.29-.64v2.31h-.87v-5.22c0-.37,0-.75,0-1.11h.85ZM58.28,184.07c.03.12.04.44.05.59.16-.29.53-.7,1.34-.7.93,0,1.53.63,1.53,1.79v2.95h-1.28v-2.8c0-.52-.17-.9-.74-.9s-.86.3-.86,1.12v2.58h-1.28v-3.46c0-.39,0-.82,0-1.17h1.24ZM58.19,194.76c1.28,0,2.11.95,2.11,2.37,0,1.32-.77,2.39-2.17,2.39-1.33,0-2.12-1.01-2.12-2.38s.79-2.39,2.17-2.39ZM54.61,182.17h1.28v1.14h-1.28v-1.14ZM54.61,184.07h1.28v4.63h-1.28v-4.63ZM54.15,192.87h.88v6.56h-.88v-6.56ZM49.3,182.17h1.28v2.45c.2-.3.58-.65,1.33-.65.86,0,1.55.51,1.55,1.77v2.97h-1.27v-2.78c0-.6-.21-.92-.75-.92-.71,0-.85.53-.85,1.24v2.46h-1.28v-6.53ZM51.18,194.76c1.49,0,1.98,1.17,1.98,2.17,0,.14,0,.26-.01.38h-3.17c0,.86.44,1.49,1.18,1.49.68,0,.9-.34,1.04-.66h.88c-.18.58-.67,1.38-1.95,1.38-1.44,0-2.04-1.16-2.04-2.33,0-1.37.69-2.44,2.09-2.44ZM53.58,219.91c3.83,0,5.68,2.25,6.04,4.65h-3.11c-.3-1.11-1.07-2.21-3.03-2.21-2.56,0-3.55,2.31-3.55,4.92,0,2.43.86,4.99,3.64,4.99,2.03,0,2.67-1.36,2.94-2.2h3.13c-.58,2.68-2.6,4.64-6.2,4.64-4.56,0-6.71-3.23-6.71-7.32s2.22-7.47,6.86-7.47ZM47.04,199.42h-.95l-1.58-4.55h.94c.58,1.8,1.01,3.18,1.14,3.75h0c.11-.55.59-1.92,1.22-3.75h.89l-1.66,4.55ZM43.54,182.53h5.07v1.09h-1.87v5.07h-1.33v-5.07h-1.87v-1.09ZM42.01,194.76c1.49,0,1.98,1.17,1.98,2.17,0,.14,0,.26-.01.38h-3.17c0,.86.44,1.49,1.18,1.49.68,0,.9-.34,1.04-.66h.88c-.18.58-.67,1.38-1.95,1.38-1.44,0-2.04-1.16-2.04-2.33,0-1.37.69-2.44,2.09-2.44ZM36.81,194.76c.78,0,1.13.31,1.25.55v-2.45h.88v5.28c0,.42,0,.84,0,1.28h-.84c-.02-.12-.04-.45-.04-.61-.22.45-.67.72-1.4.72-1.17,0-1.89-.94-1.89-2.34s.78-2.43,2.04-2.43ZM13.15,226.5c.82,0,1.49.67,1.49,1.49s-.67,1.49-1.49,1.49-1.49-.67-1.49-1.49.67-1.49,1.49-1.49ZM13.15,235.44c.82,0,1.49.67,1.49,1.49s-.67,1.49-1.49,1.49-1.49-.67-1.49-1.49.67-1.49,1.49-1.49Z"/>
  <path class="cls-5" d="M6.22,293.05c0,2.74,2.23,4.97,4.97,4.97h171.85c2.74,0,4.97-2.23,4.97-4.97V6.95c0-2.74-2.23-4.97-4.97-4.97H11.18c-2.74,0-4.97,2.23-4.97,4.97v108.37h6.19v-56.37h169.4v109.41h-31.02l29.94,29.94v74.7l-11.24,11.24h-3.16c-.14,1.24-1.18,2.21-2.46,2.21h-24.34c-1.28,0-2.32-.97-2.46-2.21h-9.18l-9.94-9.93h-60.73v1.47h3.97v3.97h-3.97v4.22c0,1.37-1.11,2.48-2.48,2.48h-24.34c-1.37,0-2.48-1.11-2.48-2.48v-4.22h-3.97v-3.97h3.97v-7.95h-3.97v-3.97h3.97v-.62h-10.14l-11.24-11.24v-96.94h-.32v137.99ZM184.03,231.47c-.82,0-1.49-.67-1.49-1.49s.67-1.49,1.49-1.49,1.49.67,1.49,1.49-.67,1.49-1.49,1.49ZM185.52,223.02c0,.82-.67,1.49-1.49,1.49s-1.49-.67-1.49-1.49.67-1.49,1.49-1.49,1.49.67,1.49,1.49ZM83.51,5.28h27.25c2.97,0,5.39,2.42,5.39,5.39s-2.42,5.39-5.39,5.39h-27.25c-2.97,0-5.39-2.42-5.39-5.39s2.42-5.39,5.39-5.39ZM15.63,16.05c-2.97,0-5.39-2.42-5.39-5.39s2.42-5.39,5.39-5.39h27.25c2.97,0,5.39,2.42,5.39,5.39s-2.42,5.39-5.39,5.39H15.63ZM57.7,44.18h-9.7c-3.78,0-6.27-3.06-6.27-6.84s2.49-6.84,6.27-6.84h9.7c3.78,0,6.27,3.06,6.27,6.84s-2.49,6.84-6.27,6.84ZM77.63,44.17l-8.05-7.78h7.14c1.01,0,1.83-.82,1.83-1.83s-.82-1.83-1.83-1.83h-8.9v11.46h-2.51v-13.7h11.41c2.24,0,4.06,1.82,4.06,4.07s-1.82,4.06-4.06,4.06h-1.61s5.76,5.55,5.76,5.55h-3.24ZM97.81,44.19l-6.75-10.68-2.88,4.51h5.29l-1.39,2.24h-5.29l-2.47,3.93h-2.71l8.2-13.02c.58-.88,1.93-.88,2.44-.03l8.27,13.05h-2.71ZM105.71,41.95h10.56l-1.44,2.22h-9.19c-3.78.01-6.27-3.05-6.27-6.83s2.49-6.84,6.27-6.84h10.86s-1.39,2.23-1.39,2.23h-9.41c-2.55,0-4.04,2.07-4.04,4.61s1.49,4.61,4.04,4.61ZM128.76,44.19h-10.51v-13.7h2.24v11.46h9.7l-1.42,2.24ZM145.91,36.19l-1.42,2.24h-11.85c.36,2.03,1.76,3.53,3.93,3.53h10.56l-1.44,2.22h-9.19c-3.78.01-6.27-3.05-6.27-6.83s2.49-6.84,6.27-6.84h10.86s-1.39,2.23-1.39,2.23h-9.41c-2.14,0-3.54,1.48-3.93,3.46h13.27ZM149.77,32.77c-.67,0-1.24-.52-1.24-1.23s.57-1.22,1.24-1.22,1.24.52,1.24,1.22-.57,1.23-1.24,1.23ZM178.64,16.05h-27.25c-2.97,0-5.39-2.42-5.39-5.39s2.42-5.39,5.39-5.39h27.25c2.97,0,5.39,2.42,5.39,5.39s-2.42,5.39-5.39,5.39Z"/>
  <path d="M184.03,10.66c0-2.97-2.42-5.39-5.39-5.39h-27.25c-2.97,0-5.39,2.42-5.39,5.39s2.42,5.39,5.39,5.39h27.25c2.97,0,5.39-2.42,5.39-5.39ZM147.99,10.66c0-1.88,1.53-3.4,3.4-3.4h27.25c1.88,0,3.4,1.53,3.4,3.4s-1.53,3.4-3.4,3.4h-27.25c-1.88,0-3.4-1.53-3.4-3.4Z"/>
  <path d="M83.51,16.05h27.25c2.97,0,5.39-2.42,5.39-5.39s-2.42-5.39-5.39-5.39h-27.25c-2.97,0-5.39,2.42-5.39,5.39s2.42,5.39,5.39,5.39ZM83.51,7.26h27.25c1.88,0,3.4,1.53,3.4,3.4s-1.53,3.4-3.4,3.4h-27.25c-1.88,0-3.4-1.53-3.4-3.4s1.53-3.4,3.4-3.4Z"/>
  <path d="M48.27,10.66c0-2.97-2.42-5.39-5.39-5.39H15.63c-2.97,0-5.39,2.42-5.39,5.39s2.42,5.39,5.39,5.39h27.25c2.97,0,5.39-2.42,5.39-5.39ZM12.23,10.66c0-1.88,1.53-3.4,3.4-3.4h27.25c1.88,0,3.4,1.53,3.4,3.4s-1.53,3.4-3.4,3.4H15.63c-1.88,0-3.4-1.53-3.4-3.4Z"/>
  <circle class="cls-6" cx="13.15" cy="227.99" r=".5"/>
  <path d="M13.15,229.48c.82,0,1.49-.67,1.49-1.49s-.67-1.49-1.49-1.49-1.49.67-1.49,1.49.67,1.49,1.49,1.49ZM13.15,227.49c.27,0,.5.22.5.5s-.22.5-.5.5-.5-.22-.5-.5.22-.5.5-.5Z"/>
  <circle class="cls-6" cx="13.15" cy="236.93" r=".5"/>
  <path d="M13.15,238.42c.82,0,1.49-.67,1.49-1.49s-.67-1.49-1.49-1.49-1.49.67-1.49,1.49.67,1.49,1.49,1.49ZM13.15,236.43c.27,0,.5.22.5.5s-.22.5-.5.5-.5-.22-.5-.5.22-.5.5-.5Z"/>
  <circle class="cls-6" cx="184.03" cy="223.02" r=".5"/>
  <path d="M182.54,223.02c0,.82.67,1.49,1.49,1.49s1.49-.67,1.49-1.49-.67-1.49-1.49-1.49-1.49.67-1.49,1.49ZM184.03,222.52c.27,0,.5.22.5.5s-.22.5-.5.5-.5-.22-.5-.5.22-.5.5-.5Z"/>
  <circle class="cls-6" cx="184.03" cy="229.98" r=".5"/>
  <path d="M184.03,228.49c-.82,0-1.49.67-1.49,1.49s.67,1.49,1.49,1.49,1.49-.67,1.49-1.49-.67-1.49-1.49-1.49ZM184.03,230.47c-.27,0-.5-.22-.5-.5s.22-.5.5-.5.5.22.5.5-.22.5-.5.5Z"/>
  <rect class="cls-6" x="190.98" y="223.04" width="1.1" height="2.68"/>
  <path class="cls-3" d="M154.93,252.36c0-.99-.67-1.53-1.18-1.72.51-.23.96-.78.96-1.63,0-.98-.69-1.93-2.51-1.93h-3.29v7.53h3.4c1.6,0,2.62-.97,2.62-2.26ZM150.51,248.34h1.55c.63,0,1.05.29,1.05.84s-.32.88-1.09.88h-1.51v-1.71ZM150.51,253.36v-2.05h1.46c.9,0,1.29.39,1.29.99,0,.68-.4,1.05-1.28,1.05h-1.47Z"/>
  <path class="cls-3" d="M41.49,247.08l-2.56,7.53h1.6l.59-1.74h2.75l.62,1.74h1.71l-2.67-7.53h-2.05ZM41.47,251.54c.43-1.36.81-2.54.99-3.28h.01c.18.68.52,1.69,1.06,3.28h-2.06Z"/>
  <polygon class="cls-3" points="45.42 188.7 46.75 188.7 46.75 183.62 48.62 183.62 48.62 182.53 43.54 182.53 43.54 183.62 45.42 183.62 45.42 188.7"/>
  <path class="cls-3" d="M50.58,186.24c0-.71.14-1.24.85-1.24.54,0,.75.32.75.92v2.78h1.27v-2.97c0-1.26-.69-1.77-1.55-1.77-.75,0-1.12.35-1.33.65v-2.45h-1.28v6.53h1.28v-2.46Z"/>
  <rect class="cls-3" x="54.61" y="182.17" width="1.28" height="1.14"/>
  <rect class="cls-3" x="54.61" y="184.07" width="1.28" height="4.63"/>
  <path class="cls-3" d="M57.05,188.7h1.28v-2.58c0-.82.31-1.12.86-1.12s.74.38.74.9v2.8h1.28v-2.95c0-1.16-.6-1.79-1.53-1.79-.81,0-1.19.41-1.34.7,0-.15-.02-.47-.05-.59h-1.24c0,.34,0,.77,0,1.17v3.46Z"/>
  <path class="cls-3" d="M63.63,187.21l.59-.57,1.17,2.06h1.45l-1.77-2.88,1.61-1.75h-1.47c-.64.77-1.25,1.49-1.59,1.95v-3.85h-1.28v6.53h1.28v-1.49Z"/>
  <rect class="cls-3" x="69.49" y="184.07" width="1.28" height="4.63"/>
  <rect class="cls-3" x="69.49" y="182.17" width="1.28" height="1.14"/>
  <path class="cls-3" d="M72.19,187.47c0,.81.3,1.29,1.2,1.29.26,0,.61,0,.86-.09v-.88c-.1.01-.22.01-.29.01-.38,0-.49-.14-.49-.49v-2.28h.91v-.96h-.91v-1.25h-1.28v1.25h-.71v.96h.71v2.43Z"/>
  <path class="cls-3" d="M76.78,187.13h-1.31c-.06.65-.14,1.41-.66,2.6h.99c.59-.73.88-1.72.98-2.6Z"/>
  <path class="cls-3" d="M81.84,188.8c1.38,0,1.92-.83,2.08-1.6h-1.26c-.11.35-.35.61-.79.61-.56,0-.91-.45-.91-1.43,0-.9.33-1.41.92-1.41.5,0,.71.26.79.64h1.25c-.03-.52-.46-1.64-2.02-1.64-1.41,0-2.24,1.09-2.24,2.46s.74,2.39,2.18,2.39Z"/>
  <path class="cls-3" d="M86.78,188.8c1.47,0,2.3-1.03,2.3-2.43s-.88-2.41-2.24-2.41c-1.47,0-2.33,1.01-2.33,2.44s.84,2.41,2.27,2.41ZM86.79,184.96c.64,0,.99.46.99,1.43,0,.88-.35,1.41-.98,1.41s-1-.53-1-1.42c0-.98.39-1.42.98-1.42Z"/>
  <path class="cls-3" d="M91.67,188.8c.69,0,1.09-.23,1.31-.59,0,.1.03.34.06.48h1.23c0-.42,0-.85,0-1.27v-5.26h-1.28v2.23c-.1-.21-.46-.44-1.13-.44-1.31,0-2.1,1.04-2.1,2.46s.75,2.38,1.92,2.38ZM92.08,184.99c.84,0,.95.6.95,1.39,0,.67-.1,1.4-.98,1.4-.63,0-.98-.49-.98-1.39s.34-1.4,1.01-1.4Z"/>
  <path class="cls-3" d="M97.31,188.8c1.45,0,1.96-.93,2.12-1.5h-1.28c-.12.28-.27.49-.81.49-.64,0-.93-.57-.93-1.14h3.05c.02-.13.02-.23.02-.39,0-1.16-.54-2.3-2.13-2.3-1.49,0-2.23,1.04-2.23,2.49,0,1.21.66,2.35,2.19,2.35ZM97.36,184.88c.62,0,.84.45.85.99h-1.76c.05-.57.3-.99.91-.99Z"/>
  <rect class="cls-3" x="102.44" y="184.07" width="1.28" height="4.63"/>
  <rect class="cls-3" x="102.44" y="182.17" width="1.28" height="1.14"/>
  <path class="cls-3" d="M105.15,187.47c0,.81.3,1.29,1.2,1.29.26,0,.61,0,.86-.09v-.88c-.1.01-.22.01-.29.01-.38,0-.49-.14-.49-.49v-2.28h.91v-.96h-.91v-1.25h-1.28v1.25h-.71v.96h.71v2.43Z"/>
  <path class="cls-3" d="M109.73,187.13h-1.31c-.06.65-.14,1.41-.66,2.6h.99c.59-.73.88-1.72.98-2.6Z"/>
  <path class="cls-3" d="M113.13,187.47c0,.81.3,1.29,1.2,1.29.26,0,.61,0,.86-.09v-.88c-.1.01-.22.01-.29.01-.38,0-.49-.14-.49-.49v-2.28h.91v-.96h-.91v-1.25h-1.28v1.25h-.71v.96h.71v2.43Z"/>
  <path class="cls-3" d="M116.07,188.7h1.28v-2.02c0-1.27.55-1.52,1.49-1.5v-1.22c-.79,0-1.28.39-1.49.92,0-.25-.02-.71-.03-.81h-1.26c0,.39,0,.8,0,1.26v3.37Z"/>
  <rect class="cls-3" x="119.55" y="182.17" width="1.28" height="1.14"/>
  <rect class="cls-3" x="119.55" y="184.07" width="1.28" height="4.63"/>
  <path class="cls-3" d="M123.64,188.64c.68,0,1.06-.25,1.3-.65v.22c0,.91-.16,1.41-.99,1.41-.49,0-.73-.22-.82-.53h-1.31c.04.52.38,1.47,2.07,1.47s2.3-.94,2.3-2.43v-2.74c0-.45,0-.92,0-1.33h-1.22c0,.08-.04.36-.05.48-.07-.22-.4-.59-1.19-.59-1.16,0-2.02.99-2.02,2.44,0,1.24.69,2.24,1.91,2.24ZM124.03,184.99c.81,0,.95.53.95,1.31s-.21,1.31-.98,1.31c-.57,0-.97-.47-.97-1.27,0-.92.44-1.35.99-1.35Z"/>
  <path class="cls-3" d="M128.98,188.64c.68,0,1.06-.25,1.3-.65v.22c0,.91-.16,1.41-.99,1.41-.49,0-.73-.22-.82-.53h-1.31c.04.52.38,1.47,2.07,1.47s2.3-.94,2.3-2.43v-2.74c0-.45,0-.92,0-1.33h-1.22c0,.08-.04.36-.05.48-.07-.22-.4-.59-1.19-.59-1.16,0-2.02.99-2.02,2.44,0,1.24.69,2.24,1.91,2.24ZM129.38,184.99c.81,0,.95.53.95,1.31s-.21,1.31-.98,1.31c-.57,0-.97-.47-.97-1.27,0-.92.44-1.35.99-1.35Z"/>
  <path class="cls-3" d="M134.63,188.8c1.45,0,1.96-.93,2.12-1.5h-1.28c-.12.28-.27.49-.81.49-.64,0-.93-.57-.93-1.14h3.05c.02-.13.02-.23.02-.39,0-1.16-.54-2.3-2.13-2.3-1.49,0-2.23,1.04-2.23,2.49,0,1.21.66,2.35,2.19,2.35ZM134.67,184.88c.62,0,.84.45.85.99h-1.76c.05-.57.3-.99.91-.99Z"/>
  <path class="cls-3" d="M137.7,188.7h1.28v-2.02c0-1.27.55-1.52,1.49-1.5v-1.22c-.79,0-1.28.39-1.49.92,0-.25-.02-.71-.03-.81h-1.26c0,.39,0,.8,0,1.26v3.37Z"/>
  <rect class="cls-3" x="143.39" y="182.17" width="1.28" height="1.14"/>
  <rect class="cls-3" x="143.39" y="184.07" width="1.28" height="4.63"/>
  <path class="cls-3" d="M146.09,187.47c0,.81.3,1.29,1.2,1.29.26,0,.61,0,.86-.09v-.88c-.1.01-.22.01-.29.01-.38,0-.49-.14-.49-.49v-2.28h.91v-.96h-.91v-1.25h-1.28v1.25h-.71v.96h.71v2.43Z"/>
  <rect class="cls-3" x="149.01" y="187.13" width="1.38" height="1.57"/>
  <path class="cls-3" d="M36.66,199.53c.73,0,1.18-.27,1.4-.72,0,.16.02.49.04.61h.84c0-.43,0-.85,0-1.28v-5.28h-.88v2.45c-.12-.25-.48-.55-1.25-.55-1.27,0-2.04,1.03-2.04,2.43s.72,2.34,1.89,2.34ZM36.92,195.5c.99,0,1.18.63,1.18,1.6s-.21,1.71-1.23,1.71c-.7,0-1.18-.57-1.18-1.63s.46-1.67,1.24-1.67Z"/>
  <path class="cls-3" d="M41.97,199.53c1.28,0,1.77-.81,1.95-1.38h-.88c-.14.32-.36.66-1.04.66-.75,0-1.18-.64-1.18-1.49h3.17c.01-.12.01-.24.01-.38,0-1-.49-2.17-1.98-2.17-1.4,0-2.09,1.07-2.09,2.44,0,1.18.6,2.33,2.04,2.33ZM42.01,195.44c.75,0,1.09.57,1.1,1.28h-2.27c.07-.75.41-1.28,1.17-1.28Z"/>
  <path class="cls-3" d="M46.59,198.62h0c-.13-.56-.56-1.95-1.14-3.75h-.94l1.58,4.55h.95l1.66-4.55h-.89c-.63,1.83-1.1,3.19-1.22,3.75Z"/>
  <path class="cls-3" d="M51.13,199.53c1.28,0,1.77-.81,1.95-1.38h-.88c-.14.32-.36.66-1.04.66-.75,0-1.18-.64-1.18-1.49h3.17c.01-.12.01-.24.01-.38,0-1-.49-2.17-1.98-2.17-1.4,0-2.09,1.07-2.09,2.44,0,1.18.6,2.33,2.04,2.33ZM51.17,195.44c.75,0,1.09.57,1.1,1.28h-2.27c.07-.75.41-1.28,1.17-1.28Z"/>
  <rect class="cls-3" x="54.15" y="192.87" width=".88" height="6.56"/>
  <path class="cls-3" d="M58.14,199.53c1.4,0,2.17-1.07,2.17-2.39,0-1.43-.84-2.37-2.11-2.37-1.39,0-2.17,1.04-2.17,2.39s.8,2.38,2.12,2.38ZM58.15,195.49c.81,0,1.25.66,1.25,1.67s-.44,1.66-1.23,1.66-1.25-.69-1.25-1.66c0-1.02.43-1.66,1.23-1.66Z"/>
  <path class="cls-3" d="M61.29,201.21h.87v-2.31c.2.34.57.64,1.29.64,1.1,0,1.98-.88,1.98-2.5,0-1.39-.77-2.27-1.82-2.27-.77,0-1.22.36-1.46.79,0-.26-.01-.54-.03-.69h-.85c0,.36,0,.74,0,1.11v5.22ZM63.37,195.5c.74,0,1.16.62,1.16,1.56,0,1.08-.42,1.74-1.22,1.74-.9,0-1.19-.62-1.19-1.66s.35-1.64,1.25-1.64Z"/>
  <path class="cls-3" d="M68.21,199.53c1.28,0,1.77-.81,1.95-1.38h-.88c-.14.32-.36.66-1.04.66-.75,0-1.18-.64-1.18-1.49h3.17c.01-.12.01-.24.01-.38,0-1-.49-2.17-1.98-2.17-1.4,0-2.09,1.07-2.09,2.44,0,1.18.6,2.33,2.04,2.33ZM68.25,195.44c.75,0,1.09.57,1.1,1.28h-2.27c.07-.75.41-1.28,1.17-1.28Z"/>
  <path class="cls-3" d="M71.22,199.42h.88v-2.17c0-1.17.59-1.61,1.52-1.63v-.87c-.76.02-1.29.41-1.52,1.01,0-.41-.01-.78-.03-.9h-.86c0,.27,0,.64,0,1.24v3.32Z"/>
  <rect class="cls-3" x="73.75" y="198.06" width=".93" height="1.37"/>
  <path class="cls-3" d="M75.48,197.16c0,1.37.8,2.38,2.12,2.38,1.4,0,2.17-1.07,2.17-2.39,0-1.43-.84-2.37-2.11-2.37-1.39,0-2.17,1.04-2.17,2.39ZM77.61,195.49c.81,0,1.25.66,1.25,1.67s-.44,1.66-1.23,1.66-1.25-.69-1.25-1.66c0-1.02.43-1.66,1.23-1.66Z"/>
  <path class="cls-3" d="M81.63,199.42v-2.17c0-1.17.59-1.61,1.52-1.63v-.87c-.76.02-1.29.41-1.52,1.01,0-.41-.01-.78-.03-.9h-.86c0,.27,0,.64,0,1.24v3.32h.88Z"/>
  <path class="cls-3" d="M84.58,196.13c.08-.35.2-.7.92-.7.8,0,.93.46.93.84v.37h-.75c-1.35,0-2.15.47-2.15,1.49,0,.7.46,1.4,1.54,1.4.87,0,1.22-.38,1.38-.67,0,.25.04.47.07.57h.84c-.03-.13-.06-.61-.06-1.03v-2.13c0-1.04-.63-1.5-1.76-1.51-1.32,0-1.73.71-1.79,1.37h.84ZM86.43,197.37c0,.78-.14,1.49-1.18,1.49-.54,0-.84-.33-.84-.78,0-.6.45-.85,1.33-.85h.69v.14Z"/>
  <path class="cls-3" d="M90.37,195.49c.63,0,.9.37,1.01.82h.87c-.05-.57-.5-1.54-1.86-1.54s-2.11,1.11-2.11,2.41c0,1.44.77,2.36,2.05,2.36,1.2,0,1.73-.74,1.91-1.52h-.87c-.17.5-.48.8-1.03.8-.74,0-1.17-.65-1.17-1.67s.43-1.66,1.19-1.66Z"/>
  <rect class="cls-3" x="93.15" y="192.87" width=".88" height="6.56"/>
  <path class="cls-3" d="M97.06,199.53c1.28,0,1.77-.81,1.95-1.38h-.88c-.14.32-.36.66-1.04.66-.75,0-1.18-.64-1.18-1.49h3.17c.01-.12.01-.24.01-.38,0-1-.49-2.17-1.98-2.17-1.4,0-2.09,1.07-2.09,2.44,0,1.18.6,2.33,2.04,2.33ZM97.1,195.44c.75,0,1.09.57,1.1,1.28h-2.27c.07-.75.41-1.28,1.17-1.28Z"/>
  <rect class="cls-3" x="99.97" y="198.06" width=".93" height="1.37"/>
  <path class="cls-3" d="M103.76,199.53c1.2,0,1.73-.74,1.91-1.52h-.87c-.17.5-.48.8-1.03.8-.74,0-1.17-.65-1.17-1.67s.43-1.66,1.19-1.66c.63,0,.9.37,1.01.82h.87c-.05-.57-.5-1.54-1.86-1.54s-2.11,1.11-2.11,2.41c0,1.44.77,2.36,2.05,2.36Z"/>
  <path class="cls-3" d="M106.32,197.16c0,1.37.8,2.38,2.12,2.38,1.4,0,2.17-1.07,2.17-2.39,0-1.43-.84-2.37-2.11-2.37-1.39,0-2.17,1.04-2.17,2.39ZM109.71,197.15c0,1-.44,1.66-1.23,1.66s-1.25-.69-1.25-1.66c0-1.02.43-1.66,1.23-1.66s1.25.66,1.25,1.67Z"/>
  <path class="cls-3" d="M111.6,199.42h.87v-2.52c0-.85.33-1.39,1.02-1.39s.84.49.84,1.06v2.85h.86v-2.61c0-.79.3-1.3,1-1.3s.86.53.86,1.03v2.88h.86v-2.99c0-1.22-.69-1.67-1.44-1.67s-1.19.37-1.44.79c-.17-.46-.6-.79-1.24-.79-.71,0-1.1.38-1.31.78,0-.22-.02-.54-.03-.67h-.84c0,.37,0,.78,0,1.17v3.38Z"/>
  <polygon class="cls-3" points="122.2 193.12 121.43 193.12 118.94 199.88 119.71 199.88 122.2 193.12"/>
  <path class="cls-3" d="M122.93,197.17c0,1.44.77,2.36,2.05,2.36,1.2,0,1.73-.74,1.91-1.52h-.87c-.17.5-.48.8-1.03.8-.74,0-1.17-.65-1.17-1.67s.43-1.66,1.19-1.66c.63,0,.9.37,1.01.82h.87c-.05-.57-.5-1.54-1.86-1.54s-2.11,1.11-2.11,2.41Z"/>
  <path class="cls-3" d="M129.72,194.76c-1.39,0-2.17,1.04-2.17,2.39s.8,2.38,2.12,2.38c1.4,0,2.17-1.07,2.17-2.39,0-1.43-.84-2.37-2.11-2.37ZM129.7,198.81c-.78,0-1.25-.69-1.25-1.66,0-1.02.43-1.66,1.23-1.66s1.25.66,1.25,1.67-.44,1.66-1.23,1.66Z"/>
  <path class="cls-3" d="M136.74,192.87h-.88v2.45c-.12-.25-.48-.55-1.25-.55-1.27,0-2.04,1.03-2.04,2.43s.72,2.34,1.89,2.34c.73,0,1.18-.27,1.4-.72,0,.16.02.49.04.61h.84c0-.43,0-.85,0-1.28v-5.28ZM134.66,198.8c-.7,0-1.18-.57-1.18-1.63s.46-1.67,1.24-1.67c.99,0,1.18.63,1.18,1.6s-.21,1.71-1.23,1.71Z"/>
  <path class="cls-3" d="M137.72,197.2c0,1.18.6,2.33,2.04,2.33,1.28,0,1.77-.81,1.95-1.38h-.88c-.14.32-.36.66-1.04.66-.75,0-1.18-.64-1.18-1.49h3.17c.01-.12.01-.24.01-.38,0-1-.49-2.17-1.98-2.17-1.4,0-2.09,1.07-2.09,2.44ZM140.9,196.72h-2.27c.07-.75.41-1.28,1.17-1.28s1.09.57,1.1,1.28Z"/>
  <path class="cls-3" d="M144.57,199.53c1.2,0,1.73-.74,1.91-1.52h-.87c-.17.5-.48.8-1.03.8-.74,0-1.17-.65-1.17-1.67s.43-1.66,1.19-1.66c.63,0,.9.37,1.01.82h.87c-.05-.57-.5-1.54-1.86-1.54s-2.11,1.11-2.11,2.41c0,1.44.77,2.36,2.05,2.36Z"/>
  <path class="cls-3" d="M147.33,196.13h.84c.08-.35.2-.7.92-.7.8,0,.93.46.93.84v.37h-.75c-1.35,0-2.15.47-2.15,1.49,0,.7.46,1.4,1.54,1.4.87,0,1.22-.38,1.38-.67,0,.25.04.47.07.57h.84c-.03-.13-.06-.61-.06-1.03v-2.13c0-1.04-.63-1.5-1.76-1.51-1.32,0-1.73.71-1.79,1.37ZM150.03,197.37c0,.78-.14,1.49-1.18,1.49-.54,0-.84-.33-.84-.78,0-.6.45-.85,1.33-.85h.69v.14Z"/>
  <path class="cls-3" d="M152.2,199.42h.88v-2.17c0-1.17.59-1.61,1.52-1.63v-.87c-.76.02-1.29.41-1.52,1.01,0-.41-.01-.78-.03-.9h-.86c0,.27,0,.64,0,1.24v3.32Z"/>
  <path class="cls-3" d="M157.13,198.8c-.7,0-1.18-.57-1.18-1.63s.46-1.67,1.24-1.67c.09,0,.16.01.23.02v-.72c-.11-.02-.21-.03-.34-.03-1.27,0-2.04,1.03-2.04,2.43s.72,2.34,1.89,2.34c.18,0,.35-.02.49-.05v-.71c-.09.02-.18.03-.29.03Z"/>
  <path class="cls-3" d="M158.33,198.81c0,.16.02.49.04.61h.84c0-.43,0-.85,0-1.28v-5.28h-.88v2.45c-.06-.13-.2-.27-.42-.38v.76c.36.26.45.75.45,1.4,0,.61-.1,1.15-.45,1.45v.72c.18-.12.32-.27.42-.46Z"/>
  <path class="cls-3" d="M53.43,234.7c3.6,0,5.62-1.95,6.2-4.64h-3.13c-.27.84-.91,2.2-2.94,2.2-2.78,0-3.64-2.56-3.64-4.99,0-2.62.99-4.92,3.55-4.92,1.95,0,2.73,1.1,3.03,2.21h3.11c-.35-2.4-2.21-4.65-6.04-4.65-4.64,0-6.86,3.53-6.86,7.47s2.16,7.32,6.71,7.32Z"/>
  <path class="cls-3" d="M66.62,223.45c-3.43,0-5.44,2.35-5.44,5.69s1.95,5.61,5.3,5.61,5.38-2.4,5.38-5.67-2.06-5.63-5.23-5.63ZM66.54,232.41c-1.44,0-2.33-1.23-2.33-3.31,0-2.28.91-3.31,2.29-3.31,1.49,0,2.32,1.07,2.32,3.33,0,2.06-.81,3.29-2.28,3.29Z"/>
  <path class="cls-3" d="M83.94,219.27h-2.99v5.21c-.24-.48-1.07-1.03-2.63-1.03-3.06,0-4.9,2.41-4.9,5.74s1.74,5.56,4.47,5.56c1.61,0,2.54-.53,3.06-1.38.02.25.08.8.14,1.13h2.87c-.02-.99-.02-1.98-.02-2.97v-12.26ZM78.77,232.35c-1.46,0-2.28-1.14-2.28-3.24s.79-3.26,2.36-3.26c1.95,0,2.21,1.4,2.21,3.24,0,1.55-.24,3.27-2.29,3.27Z"/>
  <path class="cls-3" d="M85.96,229.25c0,2.83,1.54,5.49,5.1,5.49s4.57-2.17,4.95-3.49h-2.99c-.28.65-.64,1.15-1.88,1.15-1.49,0-2.16-1.32-2.17-2.67h7.13c.04-.31.04-.55.04-.91,0-2.69-1.26-5.38-4.97-5.38-3.47,0-5.2,2.42-5.2,5.81ZM93.14,227.9h-4.11c.12-1.33.7-2.31,2.13-2.31s1.96,1.06,1.98,2.31Z"/>
  <path class="cls-3" d="M109.54,232.26c-2.78,0-3.64-2.56-3.64-4.99,0-2.62.99-4.92,3.55-4.92,1.95,0,2.73,1.1,3.03,2.21h3.11c-.35-2.4-2.21-4.65-6.04-4.65-4.64,0-6.86,3.53-6.86,7.47s2.16,7.32,6.71,7.32c3.6,0,5.62-1.95,6.2-4.64h-3.13c-.27.84-.91,2.2-2.94,2.2Z"/>
  <path class="cls-3" d="M120.35,226.9c.14-.78.41-1.32,1.68-1.32,1.39,0,1.66.75,1.66,1.52v.66h-1.54c-3.17,0-5.14,1.14-5.14,3.59,0,1.67,1.1,3.39,3.7,3.39,1.91,0,2.64-.7,3.04-1.31,0,.27.07.84.15,1.06h2.85c-.06-.26-.15-1.76-.15-2.79v-4.54c0-2.57-1.57-3.7-4.47-3.72-3.28-.02-4.47,1.53-4.63,3.45h2.84ZM123.69,229.86c0,1.43-.23,2.75-2.13,2.75-1.07,0-1.55-.66-1.55-1.44,0-1.04.67-1.59,2.47-1.59h1.22v.28Z"/>
  <path class="cls-3" d="M129.31,234.5h2.99v-4.71c0-2.96,1.29-3.54,3.46-3.49v-2.85c-1.84.01-2.99.91-3.46,2.15,0-.58-.04-1.65-.08-1.9h-2.93c.02.9.02,1.86.02,2.93v7.87Z"/>
  <path class="cls-3" d="M141.2,234.75c1.61,0,2.54-.53,3.06-1.38.02.25.08.8.14,1.13h2.87c-.02-.99-.02-1.98-.02-2.97v-12.26h-2.99v5.21c-.24-.48-1.07-1.03-2.63-1.03-3.06,0-4.9,2.41-4.9,5.74s1.74,5.56,4.47,5.56ZM142.16,225.84c1.95,0,2.21,1.4,2.21,3.24,0,1.55-.24,3.27-2.29,3.27-1.46,0-2.28-1.14-2.28-3.24s.79-3.26,2.36-3.26Z"/>
  <path class="cls-2" d="M137.05,283.75h-8.95l-9.94-9.93h-60.94v.5h60.73l9.94,9.93h9.18c-.01-.09-.03-.18-.03-.27v-.23Z"/>
  <path class="cls-2" d="M180.23,272.8l-10.95,10.95h-2.92v.23c0,.09-.02.18-.03.27h3.16l11.24-11.24v-74.7l-29.94-29.94h-.7l30.14,30.14v74.29Z"/>
  <polygon class="cls-2" points="119.81 269.84 57.22 269.84 57.22 270.34 119.6 270.34 129.54 280.27 137.05 280.27 137.05 279.78 129.75 279.78 119.81 269.84"/>
  <polygon class="cls-2" points="167.63 279.78 166.35 279.78 166.35 280.27 167.84 280.27 168.36 279.75 167.66 279.75 167.63 279.78"/>
  <polygon class="cls-2" points="118.99 271.83 57.22 271.83 57.22 272.33 118.78 272.33 128.72 282.26 137.05 282.26 137.05 281.76 128.93 281.76 118.99 271.83"/>
  <polygon class="cls-2" points="178.24 271.98 168.45 281.76 166.35 281.76 166.35 282.26 168.66 282.26 178.74 272.18 178.74 199.13 147.98 168.37 147.28 168.37 178.24 199.34 178.24 271.98"/>
  <rect class="cls-2" x="57.22" y="262.74" width="79.83" height=".5"/>
  <polygon class="cls-2" points="6.53 252 17.78 263.24 27.92 263.24 27.92 262.74 17.98 262.74 7.03 251.79 7.03 155.06 6.53 155.06 6.53 252"/>
  <path class="cls-2" d="M137.09,259.27c.03-.17.07-.34.13-.5H57.06c.06.16.1.32.13.5h79.9Z"/>
  <path class="cls-2" d="M10.51,250.35l8.92,8.92h8.53c.03-.17.07-.34.13-.5h-8.46l-8.63-8.63v-95.09h-.5v95.29Z"/>
  <rect class="cls-2" x="57.22" y="260.76" width="79.83" height=".5"/>
  <polygon class="cls-2" points="8.52 251.17 18.6 261.25 27.92 261.25 27.92 260.76 18.81 260.76 9.02 250.97 9.02 155.06 8.52 155.06 8.52 251.17"/>
  <path class="cls-2" d="M157.41,194.8v12.29l4.57,4.57h-42.61c-.1-.29-.37-.5-.7-.5-.41,0-.75.33-.75.75s.33.75.75.75c.32,0,.59-.21.7-.5h43.1l1.49,1.49h-44.59c-.1-.29-.37-.5-.7-.5-.41,0-.75.33-.75.75s.33.75.75.75c.32,0,.59-.21.7-.5h45.09l1.49,1.49h-46.58c-.1-.29-.37-.5-.7-.5-.41,0-.75.33-.75.75s.33.75.75.75c.32,0,.59-.21.7-.5h47.08l5.78,5.78v18.31l-16.94,16.94h.7l16.74-16.74v-18.02l1.49,1.49v17.14l-16.12,16.12h.7l15.92-15.92v-16.85l1.47,1.47.02-.02v16.01l-15.3,15.3h.7l14.65-14.65v28.65l-5.93,5.93v.7l6.43-6.43v-71.41l-31.58-31.58h-.7l12.94,12.94v13.48ZM172.73,221.7v-.06h-.06l-7.99-7.99h0s0,0,0,0l-1.96-1.96v-.03h-.03l-4.77-4.77v-25.07l1.49,1.49v22.96l16.86,16.86v1.52h-.05v.53l-3.48-3.48ZM176.26,220.31v2.11l-16.36-16.36v-22.26l1.5,1.5h-.01v20.14l14.87,14.87ZM176.26,219.61l-14.37-14.37v-19.45l14.37,14.37v19.45Z"/>
  <path class="cls-6" d="M165.36,279.75v-20.12c0-.82-.67-1.49-1.49-1.49h-24.34c-.82,0-1.49.67-1.49,1.49v24.34c0,.82.67,1.49,1.49,1.49h24.34c.82,0,1.49-.67,1.49-1.49v-4.22ZM140.28,281.74v-19.87c0-.82.67-1.49,1.49-1.49h19.87c.82,0,1.49.67,1.49,1.49v19.87c0,.82-.67,1.49-1.49,1.49h-19.87c-.82,0-1.49-.67-1.49-1.49Z"/>
  <path d="M166.35,283.75v-4h3.97v-3.97h-3.97v-7.95h3.97v-3.97h-3.97v-4.22c0-1.37-1.11-2.48-2.48-2.48h-24.34c-1.06,0-1.97.67-2.32,1.62-.06.16-.1.32-.13.5-.02.12-.04.24-.04.37v4.22h-3.97v3.97h3.97v7.95h-3.97v3.97h3.97v4.22c0,.09.02.18.03.27.14,1.24,1.18,2.21,2.46,2.21h24.34c1.28,0,2.32-.97,2.46-2.21.01-.09.03-.18.03-.27v-.23ZM163.87,285.47h-24.34c-.82,0-1.49-.67-1.49-1.49v-24.34c0-.82.67-1.49,1.49-1.49h24.34c.82,0,1.49.67,1.49,1.49v24.34c0,.82-.67,1.49-1.49,1.49ZM134.07,276.77h2.98v1.99h-2.98v-1.99ZM134.07,264.85h2.98v1.99h-2.98v-1.99ZM169.33,266.84h-2.98v-1.99h2.98v1.99ZM169.33,278.76h-2.98v-1.99h2.98v1.99Z"/>
  <path class="cls-7" d="M141.77,282.24h19.87c.27,0,.5-.22.5-.5v-19.87c0-.27-.22-.5-.5-.5h-19.87c-.27,0-.5.22-.5.5v19.87c0,.27.22.5.5.5ZM159.65,281.24c-.82,0-1.49-.67-1.49-1.49s.67-1.49,1.49-1.49,1.49.67,1.49,1.49-.67,1.49-1.49,1.49ZM151.7,264.36c4.11,0,7.45,3.34,7.45,7.45s-3.34,7.45-7.45,7.45-7.45-3.34-7.45-7.45,3.34-7.45,7.45-7.45ZM159.65,262.37c.82,0,1.49.67,1.49,1.49s-.67,1.49-1.49,1.49-1.49-.67-1.49-1.49.67-1.49,1.49-1.49ZM143.76,262.37c.82,0,1.49.67,1.49,1.49s-.67,1.49-1.49,1.49-1.49-.67-1.49-1.49.67-1.49,1.49-1.49ZM142.27,279.75c0-.82.67-1.49,1.49-1.49s1.49.67,1.49,1.49-.67,1.49-1.49,1.49-1.49-.67-1.49-1.49Z"/>
  <path d="M141.77,283.23h19.87c.82,0,1.49-.67,1.49-1.49v-19.87c0-.82-.67-1.49-1.49-1.49h-19.87c-.82,0-1.49.67-1.49,1.49v19.87c0,.82.67,1.49,1.49,1.49ZM141.27,281.74v-19.87c0-.27.22-.5.5-.5h19.87c.27,0,.5.22.5.5v19.87c0,.27-.22.5-.5.5h-19.87c-.27,0-.5-.22-.5-.5Z"/>
  <circle class="cls-6" cx="151.7" cy="271.81" r="6.46"/>
  <path d="M151.7,279.26c4.11,0,7.45-3.34,7.45-7.45s-3.34-7.45-7.45-7.45-7.45,3.34-7.45,7.45,3.34,7.45,7.45,7.45ZM151.7,265.35c3.56,0,6.46,2.9,6.46,6.46s-2.9,6.46-6.46,6.46-6.46-2.9-6.46-6.46,2.9-6.46,6.46-6.46Z"/>
  <circle class="cls-6" cx="143.76" cy="263.86" r=".5"/>
  <path d="M143.76,265.35c.82,0,1.49-.67,1.49-1.49s-.67-1.49-1.49-1.49-1.49.67-1.49,1.49.67,1.49,1.49,1.49ZM143.76,264.36c-.27,0-.5-.22-.5-.5s.22-.5.5-.5.5.22.5.5-.22.5-.5.5Z"/>
  <circle class="cls-6" cx="159.65" cy="263.86" r=".5"/>
  <path d="M159.65,265.35c.82,0,1.49-.67,1.49-1.49s-.67-1.49-1.49-1.49-1.49.67-1.49,1.49.67,1.49,1.49,1.49ZM159.65,263.36c.27,0,.5.22.5.5s-.22.5-.5.5-.5-.22-.5-.5.22-.5.5-.5Z"/>
  <rect class="cls-7" x="166.35" y="264.85" width="2.98" height="1.99"/>
  <rect class="cls-7" x="166.35" y="276.77" width="2.98" height="1.99"/>
  <rect class="cls-7" x="134.07" y="264.85" width="2.98" height="1.99"/>
  <rect class="cls-7" x="134.07" y="276.77" width="2.98" height="1.99"/>
  <circle class="cls-6" cx="159.65" cy="279.75" r=".5"/>
  <path d="M159.65,278.26c-.82,0-1.49.67-1.49,1.49s.67,1.49,1.49,1.49,1.49-.67,1.49-1.49-.67-1.49-1.49-1.49ZM159.65,280.25c-.27,0-.5-.22-.5-.5s.22-.5.5-.5.5.22.5.5-.22.5-.5.5Z"/>
  <circle class="cls-6" cx="143.76" cy="279.75" r=".5"/>
  <path d="M143.76,281.24c.82,0,1.49-.67,1.49-1.49s-.67-1.49-1.49-1.49-1.49.67-1.49,1.49.67,1.49,1.49,1.49ZM143.26,279.75c0-.27.22-.5.5-.5s.5.22.5.5-.22.5-.5.5-.5-.22-.5-.5Z"/>
  <polygon class="cls-3" points="120.48 30.49 118.25 30.49 118.25 44.19 128.76 44.19 130.18 41.95 120.48 41.95 120.48 30.49"/>
  <path class="cls-3" d="M89.81,31.17l-8.2,13.02h2.71l2.47-3.93h5.29l1.39-2.24h-5.29l2.88-4.51,6.75,10.68h2.71l-8.27-13.05c-.51-.85-1.86-.85-2.44.03Z"/>
  <path class="cls-3" d="M105.71,32.73h9.41l1.39-2.24h-10.86c-3.78,0-6.27,3.07-6.27,6.85s2.49,6.84,6.27,6.84h9.19s1.44-2.23,1.44-2.23h-10.56c-2.55,0-4.04-2.07-4.04-4.61s1.49-4.61,4.04-4.61Z"/>
  <path class="cls-3" d="M57.7,30.5h-9.7c-3.78,0-6.27,3.06-6.27,6.84s2.49,6.84,6.27,6.84h9.7c3.78,0,6.27-3.06,6.27-6.84s-2.49-6.84-6.27-6.84ZM57.7,41.95h-9.7c-2.55,0-4.04-2.07-4.04-4.61s1.49-4.61,4.04-4.61h9.7c2.55,0,4.04,2.07,4.04,4.61s-1.49,4.61-4.04,4.61Z"/>
  <path class="cls-3" d="M136.57,32.73h9.41l1.39-2.24h-10.86c-3.78,0-6.27,3.07-6.27,6.85s2.49,6.84,6.27,6.84h9.19s1.44-2.23,1.44-2.23h-10.56c-2.18,0-3.57-1.5-3.93-3.53h11.85l1.42-2.24h-13.27c.39-1.98,1.79-3.46,3.93-3.46Z"/>
  <path class="cls-3" d="M76.72,38.62c2.24,0,4.06-1.82,4.06-4.06s-1.82-4.06-4.06-4.06h-11.41s0,13.69,0,13.69h2.51v-11.46h8.9c1.01,0,1.83.82,1.83,1.83s-.82,1.83-1.83,1.83h-7.14l8.05,7.78h3.24l-5.76-5.54h1.61Z"/>
  <path class="cls-3" d="M149.77,30.33c-.67,0-1.24.52-1.24,1.22s.57,1.23,1.24,1.23,1.24-.52,1.24-1.23-.57-1.22-1.24-1.22ZM149.77,32.57c-.56,0-1-.43-1-1.02s.44-1.02,1-1.02.99.44.99,1.02-.44,1.02-.99,1.02Z"/>
  <path class="cls-3" d="M150.33,31.24c0-.28-.16-.4-.5-.4h-.54v1.41h.21v-.61h.25l.37.61h.24l-.4-.62c.21-.03.37-.14.37-.39ZM149.51,31.46v-.44h.29c.15,0,.31.03.31.21,0,.22-.16.23-.34.23h-.26Z"/>
  <path class="cls-6" d="M56.23,267.83v-8.2c0-.82-.67-1.49-1.49-1.49h-24.34c-.82,0-1.49.67-1.49,1.49v24.34c0,.82.67,1.49,1.49,1.49h24.34c.82,0,1.49-.67,1.49-1.49v-16.14ZM52.51,283.23h-19.87c-.82,0-1.49-.67-1.49-1.49v-19.87c0-.82.67-1.49,1.49-1.49h19.87c.82,0,1.49.67,1.49,1.49v19.87c0,.82-.67,1.49-1.49,1.49Z"/>
  <path d="M57.22,272.33v-4.49h3.97v-3.97h-3.97v-4.22c0-.13-.02-.25-.04-.37-.03-.17-.07-.34-.13-.5-.35-.94-1.26-1.62-2.32-1.62h-24.34c-1.06,0-1.97.67-2.32,1.62-.06.16-.1.32-.13.5-.02.12-.04.24-.04.37v4.22h-3.97v3.97h3.97v7.95h-3.97v3.97h3.97v4.22c0,1.37,1.11,2.48,2.48,2.48h24.34c1.37,0,2.48-1.11,2.48-2.48v-4.22h3.97v-3.97h-3.97v-3.45ZM60.2,278.76h-2.98v-1.99h2.98v1.99ZM56.23,279.75v4.22c0,.82-.67,1.49-1.49,1.49h-24.34c-.82,0-1.49-.67-1.49-1.49v-24.34c0-.82.67-1.49,1.49-1.49h24.34c.82,0,1.49.67,1.49,1.49v20.12ZM24.94,276.77h2.98v1.99h-2.98v-1.99ZM24.94,264.85h2.98v1.99h-2.98v-1.99ZM60.2,266.84h-2.98v-1.99h2.98v1.99Z"/>
  <path class="cls-7" d="M53,261.87c0-.27-.22-.5-.5-.5h-19.87c-.27,0-.5.22-.5.5v19.87c0,.27.22.5.5.5h19.87c.27,0,.5-.22.5-.5v-19.87ZM52.01,263.86c0,.82-.67,1.49-1.49,1.49s-1.49-.67-1.49-1.49.67-1.49,1.49-1.49,1.49.67,1.49,1.49ZM34.63,262.37c.82,0,1.49.67,1.49,1.49s-.67,1.49-1.49,1.49-1.49-.67-1.49-1.49.67-1.49,1.49-1.49ZM34.63,281.24c-.82,0-1.49-.67-1.49-1.49s.67-1.49,1.49-1.49,1.49.67,1.49,1.49-.67,1.49-1.49,1.49ZM42.57,279.26c-4.11,0-7.45-3.34-7.45-7.45s3.34-7.45,7.45-7.45,7.45,3.34,7.45,7.45-3.34,7.45-7.45,7.45ZM50.52,281.24c-.82,0-1.49-.67-1.49-1.49s.67-1.49,1.49-1.49,1.49.67,1.49,1.49-.67,1.49-1.49,1.49Z"/>
  <path d="M54,261.87c0-.82-.67-1.49-1.49-1.49h-19.87c-.82,0-1.49.67-1.49,1.49v19.87c0,.82.67,1.49,1.49,1.49h19.87c.82,0,1.49-.67,1.49-1.49v-19.87ZM52.51,282.24h-19.87c-.27,0-.5-.22-.5-.5v-19.87c0-.27.22-.5.5-.5h19.87c.27,0,.5.22.5.5v19.87c0,.27-.22.5-.5.5Z"/>
  <circle class="cls-6" cx="42.57" cy="271.81" r="6.46"/>
  <path d="M50.02,271.81c0-4.11-3.34-7.45-7.45-7.45s-7.45,3.34-7.45,7.45,3.34,7.45,7.45,7.45,7.45-3.34,7.45-7.45ZM42.57,278.26c-3.56,0-6.46-2.9-6.46-6.46s2.9-6.46,6.46-6.46,6.46,2.9,6.46,6.46-2.9,6.46-6.46,6.46Z"/>
  <circle class="cls-6" cx="34.63" cy="263.86" r=".5"/>
  <path d="M34.63,265.35c.82,0,1.49-.67,1.49-1.49s-.67-1.49-1.49-1.49-1.49.67-1.49,1.49.67,1.49,1.49,1.49ZM34.63,264.36c-.27,0-.5-.22-.5-.5s.22-.5.5-.5.5.22.5.5-.22.5-.5.5Z"/>
  <circle class="cls-6" cx="50.52" cy="263.86" r=".5"/>
  <path d="M49.03,263.86c0,.82.67,1.49,1.49,1.49s1.49-.67,1.49-1.49-.67-1.49-1.49-1.49-1.49.67-1.49,1.49ZM50.52,264.36c-.27,0-.5-.22-.5-.5s.22-.5.5-.5.5.22.5.5-.22.5-.5.5Z"/>
  <rect class="cls-7" x="57.22" y="264.85" width="2.98" height="1.99"/>
  <rect class="cls-7" x="57.22" y="276.77" width="2.98" height="1.99"/>
  <rect class="cls-7" x="24.94" y="264.85" width="2.98" height="1.99"/>
  <rect class="cls-7" x="24.94" y="276.77" width="2.98" height="1.99"/>
  <circle class="cls-6" cx="50.52" cy="279.75" r=".5"/>
  <path d="M50.52,278.26c-.82,0-1.49.67-1.49,1.49s.67,1.49,1.49,1.49,1.49-.67,1.49-1.49-.67-1.49-1.49-1.49ZM50.52,280.25c-.27,0-.5-.22-.5-.5s.22-.5.5-.5.5.22.5.5-.22.5-.5.5Z"/>
  <circle class="cls-6" cx="34.63" cy="279.75" r=".5"/>
  <path d="M34.63,278.26c-.82,0-1.49.67-1.49,1.49s.67,1.49,1.49,1.49,1.49-.67,1.49-1.49-.67-1.49-1.49-1.49ZM34.63,280.25c-.27,0-.5-.22-.5-.5s.22-.5.5-.5.5.22.5.5-.22.5-.5.5Z"/>
  <path class="cls-7" d="M25.89,167.38v-84.94h-5.41v-22.49h-7.08v107.43h12.49ZM16.67,114.33h5.96v41.72h-5.96v-41.72Z"/>
  <path class="cls-6" d="M180.82,167.38V59.95H21.48v21.5h5.41v85.93h153.94ZM23.87,76.96v-12.53h152.82v98.46H31.66v-85.93h-7.79Z"/>
  <path class="cls-7" d="M28.37,69.54c-.66,0-1.2.54-1.2,1.2s.54,1.2,1.2,1.2,1.2-.54,1.2-1.2-.54-1.2-1.2-1.2Z"/>
  <path class="cls-7" d="M32.65,161.9h143.05v-96.47H24.86v10.54h7.79v85.93ZM28.37,72.93c-1.21,0-2.19-.98-2.19-2.19s.98-2.19,2.19-2.19,2.19.98,2.19,2.19-.98,2.19-2.19,2.19ZM34.07,66.83h140.21v93.59H34.07v-93.59Z"/>
  <path d="M31.66,162.89h145.04v-98.46H23.87v12.53h7.79v85.93ZM24.86,65.43h150.84v96.47H32.65v-85.93h-7.79v-10.54Z"/>
  <path d="M28.37,68.55c-1.21,0-2.19.98-2.19,2.19s.98,2.19,2.19,2.19,2.19-.98,2.19-2.19-.98-2.19-2.19-2.19ZM28.37,71.93c-.66,0-1.2-.54-1.2-1.2s.54-1.2,1.2-1.2,1.2.54,1.2,1.2-.54,1.2-1.2,1.2Z"/>
  <path class="cls-8" d="M152.72,109.36c.5,0,.9-.39.9-.93s-.4-.92-.9-.92-.91.4-.91.92.4.93.91.93ZM152.29,107.8h.49c.3,0,.45.11.45.36,0,.23-.14.33-.33.35l.36.56h-.22l-.34-.56h-.22v.56h-.19v-1.28Z"/>
  <path class="cls-8" d="M153.03,108.15c0-.16-.14-.19-.28-.19h-.26v.4h.23c.16,0,.31-.01.31-.21Z"/>
  <path class="cls-8" d="M35.06,159.43h138.22v-91.6H35.06v91.6ZM152.72,107.33c.61,0,1.12.47,1.12,1.11s-.52,1.11-1.12,1.11-1.13-.47-1.13-1.11.52-1.11,1.13-1.11ZM140.66,107.48h9.88s-1.26,2.03-1.26,2.03h-8.55c-1.95,0-3.22,1.34-3.58,3.15h12.07l-1.29,2.03h-10.77c.33,1.84,1.6,3.21,3.58,3.21h9.6l-1.31,2.02h-8.35c-3.44,0-5.7-2.78-5.7-6.21s2.26-6.22,5.7-6.22ZM124.06,107.48h2.03v10.42h8.81l-1.29,2.03h-9.55v-12.45ZM112.6,107.48h9.88s-1.26,2.03-1.26,2.03h-8.55c-2.32,0-3.67,1.88-3.67,4.19s1.35,4.2,3.67,4.2h9.6l-1.31,2.02h-8.35c-3.44,0-5.7-2.78-5.7-6.21s2.26-6.22,5.7-6.22ZM98.21,108.1c.52-.8,1.76-.8,2.22-.03l7.52,11.87h-2.47l-6.13-9.71-2.62,4.1h4.81l-1.26,2.03h-4.81l-2.25,3.58h-2.47l7.46-11.83ZM75.94,107.48h10.37c2.04,0,3.69,1.66,3.69,3.7s-1.65,3.69-3.69,3.69h-1.46s5.24,5.04,5.24,5.04h-2.94l-7.32-7.07h6.49c.92,0,1.67-.75,1.67-1.67s-.75-1.67-1.67-1.67h-8.09v10.42h-2.28v-12.45ZM60.2,107.48h8.81c3.44,0,5.7,2.79,5.7,6.22s-2.26,6.22-5.7,6.22h-8.81c-3.44,0-5.7-2.79-5.7-6.22s2.26-6.22,5.7-6.22Z"/>
  <path class="cls-8" d="M60.2,117.9h8.81c2.32,0,3.67-1.88,3.67-4.2s-1.35-4.2-3.67-4.2h-8.81c-2.32,0-3.67,1.88-3.67,4.2s1.35,4.2,3.67,4.2Z"/>
  <path d="M174.28,66.83H34.07v93.59h140.21v-93.59ZM173.29,159.43H35.06v-91.6h138.22v91.6Z"/>
  <rect class="cls-6" x="17.66" y="115.32" width="3.97" height="39.74"/>
  <path d="M22.63,114.33h-5.96v41.72h5.96v-41.72ZM21.63,155.06h-3.97v-39.74h3.97v39.74Z"/>
  <polygon class="cls-3" points="134.91 117.9 126.1 117.9 126.1 107.48 124.06 107.48 124.06 119.93 133.62 119.93 134.91 117.9"/>
  <path class="cls-3" d="M95.47,116.36h4.81l1.26-2.03h-4.81l2.62-4.1,6.13,9.71h2.47l-7.52-11.87c-.46-.77-1.7-.77-2.22.03l-7.46,11.83h2.47l2.25-3.58Z"/>
  <path class="cls-3" d="M112.6,119.93h8.35s1.31-2.03,1.31-2.03h-9.6c-2.32,0-3.67-1.88-3.67-4.2s1.35-4.19,3.67-4.19h8.55l1.26-2.03h-9.88c-3.44,0-5.7,2.79-5.7,6.23s2.26,6.22,5.7,6.22Z"/>
  <path class="cls-3" d="M60.2,119.93h8.81c3.44,0,5.7-2.79,5.7-6.22s-2.26-6.22-5.7-6.22h-8.81c-3.44,0-5.7,2.79-5.7,6.22s2.26,6.22,5.7,6.22ZM60.2,109.51h8.81c2.32,0,3.67,1.88,3.67,4.2s-1.35,4.2-3.67,4.2h-8.81c-2.32,0-3.67-1.88-3.67-4.2s1.35-4.2,3.67-4.2Z"/>
  <path class="cls-3" d="M140.66,119.93h8.35s1.31-2.03,1.31-2.03h-9.6c-1.98,0-3.24-1.37-3.58-3.21h10.77l1.29-2.03h-12.07c.35-1.8,1.63-3.15,3.58-3.15h8.55l1.26-2.03h-9.88c-3.44,0-5.7,2.79-5.7,6.23s2.26,6.22,5.7,6.22Z"/>
  <path class="cls-3" d="M78.22,109.51h8.09c.92,0,1.67.75,1.67,1.67s-.75,1.67-1.67,1.67h-6.49l7.32,7.07h2.94l-5.24-5.04h1.46c2.04,0,3.69-1.66,3.69-3.7s-1.65-3.69-3.69-3.69h-10.37s0,12.45,0,12.45h2.28v-10.42Z"/>
  <path class="cls-3" d="M152.72,109.55c.61,0,1.12-.47,1.12-1.11s-.52-1.11-1.12-1.11-1.13.47-1.13,1.11.52,1.11,1.13,1.11ZM152.72,107.51c.5,0,.9.4.9.92s-.4.93-.9.93-.91-.39-.91-.93.4-.92.91-.92Z"/>
  <path class="cls-3" d="M152.49,108.52h.22l.34.56h.22l-.36-.56c.19-.02.33-.12.33-.35,0-.25-.15-.36-.45-.36h-.49v1.28h.19v-.56ZM152.49,107.96h.26c.14,0,.28.03.28.19,0,.2-.15.21-.31.21h-.23v-.4Z"/>
  <path class="cls-1" d="M4.28,154.07h8.13v-37.75H4.28c-.82,0-1.49.67-1.49,1.49v34.77c0,.82.67,1.49,1.49,1.49Z"/>
</svg>