<?xml version="1.0" encoding="UTF-8"?>
<svg id="Layer_1" data-name="Layer 1" xmlns="http://www.w3.org/2000/svg" viewBox="0 0 116.02 150">
  <defs>
    <style>
      .cls-1 {
        fill: #d39e4e;
      }

      .cls-2 {
        fill: none;
      }

      .cls-3 {
        fill: #535551;
      }

      .cls-4 {
        fill: #b3b3b3;
      }

      .cls-5 {
        fill: #333531;
      }
    </style>
  </defs>
  <path class="cls-2" d="M16.22,12.94h83.72c1.24,0,2.25-1.01,2.25-2.25s-1.01-2.25-2.25-2.25H16.22c-1.24,0-2.25,1.01-2.25,2.25s1.01,2.25,2.25,2.25Z"/>
  <path class="cls-2" d="M76.78,137.47h-36.72c-1.13,0-2.04-.9-2.09-2.01h-6.35c-.39.94-1.31,1.6-2.39,1.6h-13.01c-1.24,0-2.25,1.01-2.25,2.25s1.01,2.25,2.25,2.25h83.72c1.24,0,2.25-1.01,2.25-2.25s-1.01-2.25-2.25-2.25h-15.94c-1.08,0-2-.66-2.39-1.6h-2.74c-.05,1.12-.96,2.01-2.09,2.01Z"/>
  <rect class="cls-3" x="113.43" y="115.94" width=".61" height="3.2"/>
  <rect class="cls-3" x="113.43" y="30.93" width=".61" height="3.2"/>
  <rect class="cls-3" x="2.05" y="115.94" width=".55" height="3.2"/>
  <rect class="cls-3" x="2.05" y="30.93" width=".55" height="3.2"/>
  <rect class="cls-4" x="1.97" y="65.8" width=".62" height="2.27"/>
  <rect class="cls-4" x="1.97" y="85.47" width=".62" height="2.27"/>
  <rect class="cls-4" x="1.97" y="69.06" width=".62" height="15.43"/>
  <path class="cls-5" d="M4.57,136.1c0,6.57,5.35,11.92,11.92,11.92h83.07c6.49,0,11.76-5.16,11.95-11.57-.04-.1-.06-.21-.06-.32V13.93c0-.12.02-.24.06-.35-.17-6.43-5.45-11.61-11.92-11.61H16.49c-6.57,0-11.92,5.35-11.92,11.92v122.21ZM16.22,6.47h83.72c2.33,0,4.22,1.89,4.22,4.22s-1.89,4.22-4.22,4.22H16.22c-2.33,0-4.22-1.89-4.22-4.22s1.89-4.22,4.22-4.22ZM6.32,33.94c-.69-.14-1.19-.75-1.19-1.45s.5-1.31,1.19-1.45c.01,0,.03,0,.04,0v-14.98c0-.27.22-.49.49-.49h102.45c.27,0,.49.22.49.49v14.99c.67.15,1.16.75,1.16,1.44s-.49,1.29-1.16,1.44v82.13c.67.15,1.16.75,1.16,1.44s-.49,1.29-1.16,1.44v14.01c0,.27-.22.49-.49.49h-30.43v.03h3.53c.54,0,.99.44.99.99,0,.34.28.61.61.61h15.94c2.33,0,4.22,1.89,4.22,4.22s-1.89,4.22-4.22,4.22H16.22c-2.33,0-4.22-1.89-4.22-4.22s1.89-4.22,4.22-4.22h13.01c.34,0,.61-.28.61-.61,0-.54.44-.99.99-.99h7.14v-.03H6.85c-.27,0-.49-.22-.49-.49v-13.99s-.03,0-.04,0c-.69-.14-1.19-.75-1.19-1.45s.5-1.31,1.19-1.45c.01,0,.03,0,.04,0V33.95s-.03,0-.04,0Z"/>
  <path class="cls-3" d="M6.12,117.51c0,.18.09.34.24.42v-.85c-.14.09-.24.25-.24.42Z"/>
  <path class="cls-3" d="M17.52,119.45c.61,0,1.11-.5,1.11-1.11s-.5-1.11-1.11-1.11-1.11.5-1.11,1.11.5,1.11,1.11,1.11Z"/>
  <path class="cls-4" d="M108.81,125.39v-8.29H31.72c-.07,0-.14-.02-.2-.04-1.63.12-2.92,1.47-2.92,3.13,0,0,0,.01,0,.02,0,0,0,.01,0,.02v5.11c0,.27-.22.49-.49.49H7.35v6.64h101.47v-7.07ZM79.69,128.59c0,.27-.22.49-.49.49h-42.71c-.27,0-.49-.22-.49-.49v-7.63c0-.27.22-.49.49-.49h42.71c.27,0,.49.22.49.49v7.63Z"/>
  <polygon class="cls-3" points="78.7 125.39 78.7 121.46 36.98 121.46 36.98 125.39 36.98 128.1 78.7 128.1 78.7 125.39"/>
  <path class="cls-4" d="M15.08,23.92v87.83h86.02V23.92H15.08ZM33.51,76.02h-16.38v-16.38h16.38v16.38ZM53.17,76.02h-16.38v-3.3h13.08v-3.25h-13.08v-9.83h16.38v16.38ZM59.75,76.02h-3.3v-3.3h3.3v3.3ZM59.75,66.21h-3.3v-3.3h3.3v3.3ZM79.38,76.02h-16.38v-3.3h13.08v-3.25h-13.08v-3.3h13.08v-3.23h-13.08v-3.3h16.38v16.38ZM99.04,76.02h-16.38v-16.38h16.38v16.38Z"/>
  <rect class="cls-4" x="40.09" y="62.94" width="9.78" height="3.23"/>
  <rect class="cls-4" x="85.96" y="62.94" width="9.78" height="9.79"/>
  <rect class="cls-4" x="20.43" y="62.94" width="9.78" height="9.79"/>
  <path class="cls-3" d="M7.35,124.83h20.27v-4.62s0-.01,0-.02c0,0,0-.01,0-.02,0-2.28,1.86-4.14,4.14-4.14.09,0,.16.03.24.07h76.83V16.55H7.35v108.28ZM12.03,20.4h92.1c.27,0,.49.22.49.49v93.87c0,.27-.22.49-.49.49H23.42v6.86c0,.27-.22.49-.49.49h-10.9c-.27,0-.49-.22-.49-.49V20.9c0-.27.22-.49.49-.49Z"/>
  <path class="cls-3" d="M109.97,117.51c0-.14-.07-.27-.17-.36v.73c.1-.09.17-.22.17-.36Z"/>
  <path class="cls-3" d="M6.12,32.49c0,.18.09.34.24.42v-.85c-.14.09-.24.25-.24.42Z"/>
  <path class="cls-4" d="M22.44,114.77c0-.27.22-.49.49-.49h80.71V21.39H12.52v100.24h9.91v-6.86ZM13.8,112.49V23.18c0-.27.22-.49.49-.49h87.5c.27,0,.49.22.49.49v89.31c0,.27-.22.49-.49.49H14.3c-.27,0-.49-.22-.49-.49ZM17.52,120.44c-1.16,0-2.09-.94-2.09-2.09s.94-2.09,2.09-2.09,2.09.94,2.09,2.09-.94,2.09-2.09,2.09Z"/>
  <path class="cls-3" d="M109.97,32.49c0-.14-.07-.27-.17-.36v.73c.1-.09.17-.22.17-.36Z"/>
  <path d="M16.22,14.92h83.72c2.33,0,4.22-1.89,4.22-4.22s-1.89-4.22-4.22-4.22H16.22c-2.33,0-4.22,1.89-4.22,4.22s1.89,4.22,4.22,4.22ZM16.22,8.45h83.72c1.24,0,2.25,1.01,2.25,2.25s-1.01,2.25-2.25,2.25H16.22c-1.24,0-2.25-1.01-2.25-2.25s1.01-2.25,2.25-2.25Z"/>
  <path d="M1.78,89.71h.82v24.25h-1.53c-.54,0-.99.44-.99.99v5.18c0,.54.44.99.99.99h1.53v15.02h0c.03,7.64,6.22,13.84,13.85,13.86h83.15c7.66,0,13.9-6.23,13.9-13.9,0-.12-.02-.23-.07-.33v-14.66h1.6c.54,0,.99-.44.99-.99v-5.18c0-.54-.44-.99-.99-.99h-1.6V36.1h1.6c.54,0,.99-.44.99-.99v-5.18c0-.54-.44-.99-.99-.99h-1.6v-14.7c.04-.11.07-.23.07-.36,0-7.66-6.23-13.9-13.9-13.9H16.49C8.83,0,2.6,6.23,2.6,13.93v15.02h-1.53c-.54,0-.99.44-.99.99v5.18c0,.54.44.99.99.99h1.53v27.73h-.82c-.98,0-1.78.8-1.78,1.77v22.33c0,.98.8,1.77,1.78,1.77ZM16.49,1.97h83.11c6.47,0,11.75,5.18,11.92,11.61-.04.11-.06.23-.06.35v122.21c0,.11.02.22.06.32-.19,6.41-5.46,11.57-11.95,11.57H16.49c-6.57,0-11.92-5.35-11.92-11.92V13.9C4.57,7.32,9.92,1.97,16.49,1.97ZM113.43,115.94h.61v3.2h-.61v-3.2ZM113.43,30.93h.61v3.2h-.61v-3.2ZM2.6,84.49h-.62v-15.43h.62v15.43ZM1.97,85.47h.62v2.27h-.62v-2.27ZM2.6,119.14h-.55v-3.2h.55v3.2ZM2.6,34.13h-.55v-3.2h.55v3.2ZM2.6,68.07h-.62v-2.27h.62v2.27Z"/>
  <path d="M6.32,116.06c-.69.14-1.19.75-1.19,1.45s.5,1.31,1.19,1.45c.01,0,.03,0,.04,0v13.99c0,.27.22.49.49.49h31.11v.03h-7.14c-.54,0-.99.44-.99.99,0,.34-.28.61-.61.61h-13.01c-2.33,0-4.22,1.89-4.22,4.22s1.89,4.22,4.22,4.22h83.72c2.33,0,4.22-1.89,4.22-4.22s-1.89-4.22-4.22-4.22h-15.94c-.34,0-.61-.28-.61-.61,0-.54-.44-.99-.99-.99h-3.53v-.03h30.43c.27,0,.49-.22.49-.49v-14.01c.67-.15,1.16-.75,1.16-1.44s-.49-1.29-1.16-1.44V33.93c.67-.15,1.16-.75,1.16-1.44s-.49-1.29-1.16-1.44v-14.99c0-.27-.22-.49-.49-.49H6.85c-.27,0-.49.22-.49.49v14.98s-.03,0-.04,0c-.69.14-1.19.75-1.19,1.45s.5,1.31,1.19,1.45c.01,0,.03,0,.04,0v82.11s-.03,0-.04,0ZM84,137.06h15.94c1.24,0,2.25,1.01,2.25,2.25s-1.01,2.25-2.25,2.25H16.22c-1.24,0-2.25-1.01-2.25-2.25s1.01-2.25,2.25-2.25h13.01c1.08,0,2-.66,2.39-1.6h6.35c.05,1.12.96,2.01,2.09,2.01h36.72c1.13,0,2.04-.9,2.09-2.01h2.74c.39.94,1.31,1.6,2.39,1.6ZM6.36,32.92c-.14-.09-.24-.25-.24-.42s.09-.34.24-.42v.85ZM108.81,116.11H31.99c-.07-.04-.15-.07-.24-.07-2.28,0-4.14,1.86-4.14,4.14,0,0,0,.01,0,.02,0,0,0,.01,0,.02v4.62H7.35V16.55h101.47v99.56ZM7.35,125.82h20.76c.27,0,.49-.22.49-.49v-5.11s0-.01,0-.02c0,0,0-.01,0-.02,0-1.66,1.29-3.01,2.92-3.13.06.03.13.04.2.04h77.1v15.36H7.35v-6.64ZM109.8,117.14c.1.09.17.22.17.36s-.07.27-.17.36v-.73ZM109.8,32.13c.1.09.17.22.17.36s-.07.27-.17.36v-.73ZM6.36,117.93c-.14-.09-.24-.25-.24-.42s.09-.34.24-.42v.85ZM77.89,135.37c0,.61-.5,1.11-1.11,1.11h-36.72c-.61,0-1.11-.5-1.11-1.11v-2.23h38.93v2.23Z"/>
  <path d="M102.29,112.49V23.18c0-.27-.22-.49-.49-.49H14.3c-.27,0-.49.22-.49.49v89.31c0,.27.22.49.49.49h87.5c.27,0,.49-.22.49-.49ZM15.08,111.75V23.92h86.02v87.83H15.08Z"/>
  <path d="M17.52,116.25c-1.16,0-2.09.94-2.09,2.09s.94,2.09,2.09,2.09,2.09-.94,2.09-2.09-.94-2.09-2.09-2.09ZM17.52,117.23c.61,0,1.11.5,1.11,1.11s-.5,1.11-1.11,1.11-1.11-.5-1.11-1.11.5-1.11,1.11-1.11Z"/>
  <path d="M79.2,120.47h-42.71c-.27,0-.49.22-.49.49v7.63c0,.27.22.49.49.49h42.71c.27,0,.49-.22.49-.49v-7.63c0-.27-.22-.49-.49-.49ZM36.98,125.39v-3.93h41.72v6.64h-41.72v-2.71Z"/>
  <path d="M12.03,122.62h10.9c.27,0,.49-.22.49-.49v-6.86h80.71c.27,0,.49-.22.49-.49V20.9c0-.27-.22-.49-.49-.49H12.03c-.27,0-.49.22-.49.49v101.23c0,.27.22.49.49.49ZM12.52,21.39h91.11v92.88H22.93c-.27,0-.49.22-.49.49v6.86h-9.91V21.39Z"/>
  <path class="cls-1" d="M77.89,133.14h-38.93v2.23c0,.61.5,1.11,1.11,1.11h36.72c.61,0,1.11-.5,1.11-1.11v-2.23Z"/>
  <path class="cls-5" d="M17.13,76.02h16.38v-16.38h-16.38v16.38ZM20.43,62.94h9.78v9.79h-9.78v-9.79Z"/>
  <path class="cls-5" d="M36.79,69.47h13.08v3.25h-13.08v3.3h16.38v-16.38h-16.38v9.83ZM40.09,62.94h9.78v3.23h-9.78v-3.23Z"/>
  <rect class="cls-5" x="56.45" y="72.72" width="3.3" height="3.3"/>
  <rect class="cls-5" x="56.45" y="62.92" width="3.3" height="3.3"/>
  <polygon class="cls-5" points="63 62.94 76.08 62.94 76.08 66.17 63 66.17 63 69.47 76.08 69.47 76.08 72.72 63 72.72 63 76.02 79.38 76.02 79.38 59.64 63 59.64 63 62.94"/>
  <path class="cls-5" d="M82.66,76.02h16.38v-16.38h-16.38v16.38ZM85.96,62.94h9.78v9.79h-9.78v-9.79Z"/>
</svg>