<?xml version="1.0" encoding="UTF-8" standalone="no"?>
<svg
   id="Layer_1"
   version="1.1"
   viewBox="0 0 30 30"
   sodipodi:docname="bluesky.svg"
   inkscape:version="1.4 (86a8ad7, 2024-10-11)"
   xmlns:inkscape="http://www.inkscape.org/namespaces/inkscape"
   xmlns:sodipodi="http://sodipodi.sourceforge.net/DTD/sodipodi-0.dtd"
   xmlns="http://www.w3.org/2000/svg"
   xmlns:svg="http://www.w3.org/2000/svg">
  <sodipodi:namedview
     id="namedview1"
     pagecolor="#ffffff"
     bordercolor="#000000"
     borderopacity="0.25"
     inkscape:showpageshadow="2"
     inkscape:pageopacity="0.0"
     inkscape:pagecheckerboard="0"
     inkscape:deskcolor="#d1d1d1"
     inkscape:zoom="29.566667"
     inkscape:cx="21.561443"
     inkscape:cy="8.7936866"
     inkscape:window-width="3840"
     inkscape:window-height="2036"
     inkscape:window-x="3348"
     inkscape:window-y="-12"
     inkscape:window-maximized="1"
     inkscape:current-layer="Layer_1" />
  <!-- Generator: Adobe Illustrator 29.3.1, SVG Export Plug-In . SVG Version: 2.1.0 Build 151)  -->
  <defs
     id="defs1">
    <inkscape:path-effect
       effect="powermask"
       id="path-effect3"
       is_visible="true"
       lpeversion="1"
       uri="#mask-powermask-path-effect3"
       invert="false"
       hide_mask="false"
       background="true"
       background_color="#ffffffff" />
    <style
       id="style1">
      .st0 {
        fill: #b3b3b3;
      }
    </style>
    <filter
       id="mask-powermask-path-effect3_inverse"
       inkscape:label="filtermask-powermask-path-effect3"
       style="color-interpolation-filters:sRGB"
       height="100"
       width="100"
       x="-50"
       y="-50">
      <feColorMatrix
         id="mask-powermask-path-effect3_primitive1"
         values="1"
         type="saturate"
         result="fbSourceGraphic" />
      <feColorMatrix
         id="mask-powermask-path-effect3_primitive2"
         values="-1 0 0 0 1 0 -1 0 0 1 0 0 -1 0 1 0 0 0 1 0 "
         in="fbSourceGraphic" />
    </filter>
    <mask
       maskUnits="userSpaceOnUse"
       id="mask-powermask-path-effect3">
      <path
         id="mask-powermask-path-effect3_box"
         style="fill:#ffffff;fill-opacity:1"
         d="m -0.95,-0.94999965 h 31.9 V 30.95 h -31.9 z" />
      <path
         d="m 8.7201823,7.8491342 c 2.5419227,1.783646 5.2760467,5.4001358 6.2798807,7.3409558 1.003913,-1.940676 3.737886,-5.5573458 6.279884,-7.3409558 1.834119,-1.287008 4.805864,-2.2828249 4.805864,0.88591 0,0.632836 -0.388192,5.3161738 -0.615871,6.0764928 -0.791407,2.6434 -3.675268,3.317613 -6.240512,2.90955 4.483995,0.713299 5.62468,3.076013 3.161236,5.438723 -4.678567,4.487253 -6.724461,-1.125867 -7.248933,-2.564154 -0.09609,-0.26367 -0.14107,-0.387019 -0.141731,-0.282131 -6.35e-4,-0.104889 -0.04561,0.01845 -0.141735,0.282131 -0.524239,1.438287 -2.570096,7.051551 -7.2489288,2.564154 C 5.1458542,20.7971 6.2865013,18.434245 10.77057,17.721087 8.2052523,18.12915 5.3213523,17.454935 4.5300592,14.811537 c -0.227685,-0.76039 -0.61587,-5.4437278 -0.61587,-6.0764928 0,-3.1687349 2.971822,-2.172918 4.8058631,-0.88591 z"
         fill="#000000"
         id="path3"
         style="fill:#000000;fill-opacity:1;stroke-width:0.0367007;stroke-dasharray:none" />
    </mask>
  </defs>
  <path
     class="st0"
     d="M 27.15,5.95 V 3.0500004 h -2.9 V 0.05000035 H 5.95 V 2.9500004 H 3.05 V 5.85 h -3 v 18.3 h 2.9 v 2.9 h 2.9 v 2.9 h 18.3 v -2.9 h 2.9 v -2.9 h 2.9 V 5.95 h -2.9 z m -4,13.2 c -0.2,0.7 -0.8,1.3 -1.5,1.5 -1.3,0.4 -6.6,0.4 -6.6,0.4 0,0 -5.3,0 -6.6,-0.4 -0.7,-0.2 -1.3,-0.8 -1.5,-1.5 -0.4,-1.3 -0.4,-4.1 -0.4,-4.1 0,0 0,-2.8 0.4,-4.1 0.2,-0.7 -3.089515,8.406877 -2.389515,8.206877 1.3,-0.4 7.885231,5.552649 7.885231,5.552649 0,0 10.779143,-2.266065 12.079143,-1.866065 0.7,0.2 -2.386584,-12.018489 -2.186584,-11.318489 -3.590981,3.363134 -1.426381,5.621984 -1.426381,5.621984 0,0 2.638106,0.703044 2.238106,2.003044 z"
     id="path1"
     sodipodi:nodetypes="ccccccccccccccccccccccccccccccccccc"
     mask="url(#mask-powermask-path-effect3)"
     inkscape:path-effect="#path-effect3"
     inkscape:original-d="M 27.15,5.95 V 3.0500004 h -2.9 V 0.05000035 H 5.95 V 2.9500004 H 3.05 V 5.85 h -3 v 18.3 h 2.9 v 2.9 h 2.9 v 2.9 h 18.3 v -2.9 h 2.9 v -2.9 h 2.9 V 5.95 h -2.9 z m -4,13.2 c -0.2,0.7 -0.8,1.3 -1.5,1.5 -1.3,0.4 -6.6,0.4 -6.6,0.4 0,0 -5.3,0 -6.6,-0.4 -0.7,-0.2 -1.3,-0.8 -1.5,-1.5 -0.4,-1.3 -0.4,-4.1 -0.4,-4.1 0,0 0,-2.8 0.4,-4.1 0.2,-0.7 -3.089515,8.406877 -2.389515,8.206877 1.3,-0.4 7.885231,5.552649 7.885231,5.552649 0,0 10.779143,-2.266065 12.079143,-1.866065 0.7,0.2 -2.386584,-12.018489 -2.186584,-11.318489 -3.590981,3.363134 -1.426381,5.621984 -1.426381,5.621984 0,0 2.638106,0.703044 2.238106,2.003044 z" />
  <path
     style="fill:none;fill-opacity:1;stroke-width:0.00118377;stroke-dasharray:none"
     d="M 10.28567,24.806833 C 9.3633862,24.606746 8.3737096,23.977833 7.4069898,22.97751 6.8980993,22.45093 6.600888,22.001668 6.4269373,21.496071 5.8505512,19.820776 7.3229699,18.416283 10.25943,17.840379 c 0.220196,-0.04318 0.410444,-0.08912 0.422774,-0.102069 0.01233,-0.01295 -0.02324,-0.01428 -0.07905,-0.003 -0.44302,0.08993 -1.4877453,0.116676 -2.0729228,0.05308 C 7.2698307,17.651441 6.1852265,17.17902 5.4626982,16.452303 5.02126,16.008306 4.6559696,15.385675 4.5015129,14.81398 4.2828859,14.004769 3.854417,9.5262405 3.8996541,8.5231116 3.9554803,7.2851712 4.5075953,6.6629087 5.5501566,6.6629087 c 0.5788931,0 1.2001674,0.1771273 2.0090317,0.5727814 1.4779123,0.7229176 3.1961447,2.2607642 4.9528197,4.4328559 0.849926,1.050915 1.738461,2.324424 2.200506,3.153915 0.120913,0.217071 0.227452,0.394914 0.236753,0.395206 0.0093,2.93e-4 0.11584,-0.177339 0.236753,-0.394738 0.852955,-1.533591 2.512969,-3.672134 4.024392,-5.1844958 1.207673,-1.2084231 2.123137,-1.9088067 3.162756,-2.4196921 1.429755,-0.7026048 2.556954,-0.7417818 3.148447,-0.1094276 0.303496,0.3244618 0.450279,0.7699229 0.477002,1.44762 0.03658,0.9277199 -0.358727,5.2164175 -0.566829,6.1495155 -0.05463,0.244946 -0.260565,0.735068 -0.427811,1.018175 -0.679024,1.149423 -1.971129,1.882892 -3.635677,2.063806 -0.585177,0.0636 -1.629902,0.03685 -2.072922,-0.05308 -0.05581,-0.01133 -0.09138,-0.01 -0.07905,0.003 0.01233,0.01295 0.202578,0.05894 0.422773,0.102187 0.884239,0.173678 1.504411,0.372957 2.159092,0.693776 0.739155,0.362216 1.200908,0.746584 1.51504,1.261137 0.303663,0.497405 0.361219,1.089795 0.162986,1.67753 -0.191724,0.568439 -0.506145,1.039595 -1.070137,1.603587 -0.842095,0.842096 -1.740678,1.432573 -2.535736,1.666283 -0.44138,0.129746 -1.011613,0.151416 -1.404654,0.05338 -0.829946,-0.207011 -1.539822,-0.779635 -2.199845,-1.774514 -0.409983,-0.617985 -0.675354,-1.160179 -1.062321,-2.170494 -0.130854,-0.34164 -0.22468,-0.54115 -0.254493,-0.54115 -0.0295,0 -0.106304,0.158653 -0.204659,0.422773 -0.899332,2.415066 -1.957183,3.718905 -3.292628,4.058281 -0.316844,0.08052 -0.83524,0.08752 -1.166079,0.01575 z"
     id="path2" />
</svg>
