<?xml version="1.0" encoding="UTF-8"?>
<svg id="Layer_1" xmlns="http://www.w3.org/2000/svg" version="1.1" viewBox="0 0 178 36">
  <!-- Generator: Adobe Illustrator 29.3.1, SVG Export Plug-In . SVG Version: 2.1.0 Build 151)  -->
  <defs>
    <style>
      .st0 {
        fill: #b3b3b3;
      }
    </style>
  </defs>
  <path class="st0" d="M146.8,5h-1.3c-1,0-1.8.8-1.8,1.8v1.5c0,.9-.7,1.7-1.7,1.7h-.3c-.9,0-1.7-.7-1.7-1.7v-1.5c0-1-.8-1.8-1.8-1.8h-1.3c-1,0-1.8-.8-1.8-1.8v-1.3C135.1.8,134.3,0,133.3,0h-2.6c-1,0-1.8.8-1.8,1.8v32.4c0,1,.8,1.8,1.8,1.8h2.6c1,0,1.8-.8,1.8-1.8V12.9c0-.9.7-1.7,1.7-1.7h.3c.9,0,1.7.7,1.7,1.7v1.5c0,1,.8,1.8,1.8,1.8h2.6c1,0,1.8-.8,1.8-1.8v-1.5c0-.9.7-1.7,1.7-1.7h.3c.9,0,1.7.7,1.7,1.7h0v21.3c0,1,.8,1.8,1.8,1.8h2.6c1,0,1.8-.8,1.8-1.8h0v-13h0V1.8c0-1-.8-1.8-1.8-1.8h-2.6c-1,0-1.8.8-1.8,1.8v1.3c0,1-.8,1.8-1.8,1.8h0Z"/>
  <path class="st0" d="M105.7,0h-13c-1,0-1.8.8-1.8,1.8v1.3c0,1-.8,1.8-1.8,1.8h-1.3c-1,0-1.8.8-1.8,1.8h0v27.4c0,1,.8,1.8,1.8,1.8h2.6c1,0,1.8-.8,1.8-1.8v-11.2c0-1,.8-1.8,1.8-1.8h16.2c1,0,1.8-.8,1.8-1.8v-2.6c0-1-.8-1.8-1.8-1.8h-16.2c-1,0-1.8-.8-1.8-1.8v-5c0-1,.8-1.8,1.8-1.8h16.2c1,0,1.8-.8,1.8-1.8V1.8C112,.8,111.1,0,110.1,0,110.1,0,105.7,0,105.7,0Z"/>
  <path class="st0" d="M64.1,1.8c0-1-.8-1.8-1.8-1.8h-12.6c-1,0-1.8.8-1.8,1.8h0v1.3c0,1-.8,1.8-1.8,1.8h-1.3c-1,0-1.8.8-1.8,1.8h0v22.5c0,1,.8,1.8,1.8,1.8h1.3c1,0,1.8.8,1.8,1.8v1.3c0,1,.8,1.8,1.8,1.8h7.6c1,0,1.8-.8,1.8-1.8v-1.5c0-.9.7-1.7,1.7-1.7h.3c.9,0,1.7.7,1.7,1.7v1.5c0,1,.8,1.8,1.8,1.8h2.6c1,0,1.8-.8,1.8-1.8v-2.6c0-1-.8-1.8-1.8-1.8h-1.5c-.9,0-1.7-.7-1.7-1.7h0v-.3c0-.9.7-1.7,1.7-1.7h1.5c1,0,1.8-.8,1.8-1.8h0V6.8c0-1-.8-1.8-1.8-1.8h-1.3c-1,0-1.8-.8-1.8-1.8h0v-1.3ZM62.7,11.2v11.9c0,.9-.7,1.7-1.7,1.7h-.3c-.9,0-1.7-.7-1.7-1.7h0v-1.5c0-1-.8-1.8-1.8-1.8h-2.6c-1,0-1.8.8-1.8,1.8v2.6c0,1,.8,1.8,1.8,1.8h1.5c.9,0,1.7.7,1.7,1.7v.3c0,.9-.7,1.7-1.7,1.7h-5.1c-1,0-1.8-.8-1.8-1.8V8.1c0-1,.8-1.8,1.8-1.8h9.9c1,0,1.8.8,1.8,1.8h0v3.1h0Z"/>
  <path class="st0" d="M171.7,5v29.2c0,1,.8,1.8,1.8,1.8h2.6c1,0,1.8-.8,1.8-1.8V1.8c0-1-.8-1.8-1.8-1.8h-2.6c-1,0-1.8.8-1.8,1.8v3.1Z"/>
  <path class="st0" d="M21.1,1.8c0-1-.8-1.8-1.8-1.8H6.8c-1,0-1.8.8-1.8,1.8v1.3c0,1-.8,1.8-1.8,1.8h-1.3C.8,5,0,5.8,0,6.8h0v7.6c0,1,.8,1.8,1.8,1.8h1.3c1,0,1.8.8,1.8,1.8v1.3c0,1,.8,1.8,1.8,1.8h11.2c1,0,1.8.8,1.8,1.8v5c0,1-.8,1.8-1.8,1.8h-9.9c-1,0-1.8-.8-1.8-1.8h0v-1.3c0-1-.8-1.8-1.8-1.8H1.8C.8,24.8,0,25.6,0,26.6h0v2.6c0,1,.8,1.8,1.8,1.8h1.3c1,0,1.8.8,1.8,1.8v1.3c0,1,.8,1.8,1.8,1.8h12.6c1,0,1.8-.8,1.8-1.8h0v-1.3c0-1,.8-1.8,1.8-1.8h1.3c1,0,1.8-.8,1.8-1.8v-7.6c0-1-.8-1.8-1.8-1.8h-1.3c-1,0-1.8-.8-1.8-1.8h0v-1.3c0-1-.8-1.8-1.8-1.8h-11.2c-1,0-1.8-.8-1.8-1.8h0v-5c0-1,.8-1.8,1.8-1.8h9.9c1,0,1.8.8,1.8,1.8h0v1.3c0,1,.8,1.8,1.8,1.8h2.6c1,0,1.8-.8,1.8-1.8h0v-2.6c0-1-.8-1.8-1.8-1.8h-1.3c-1,0-1.8-.8-1.8-1.8h0v-1.3Z"/>
</svg>