<?xml version="1.0" encoding="UTF-8"?>
<svg id="Layer_1" xmlns="http://www.w3.org/2000/svg" version="1.1" viewBox="0 0 36 36">
  <!-- Generator: Adobe Illustrator 29.3.1, SVG Export Plug-In . SVG Version: 2.1.0 Build 151)  -->
  <defs>
    <style>
      .st0 {
        fill: #b2c39c;
      }

      .st1 {
        fill: #fff;
      }

      .st2 {
        isolation: isolate;
        opacity: .3;
      }

      .st2, .st3 {
        fill: #333531;
      }
    </style>
  </defs>
  <path class="st1" d="M29,17v-2h-1v-1h-1v-5h-1v-3h-1v-1h-1v-1h-1v-1h-10v1h-1v1h-1v1h-1v3h-1v5h-1v1h-1v2h-1v6h1v1h1v1h1v1h2v-1h1v-4h1v-3h1v-1h1v-1h6v1h1v1h1v3h1v4h1v1h2v-1h1v-1h1v-1h1v-6h-1ZM15,13v1h-2v-1h-1v-2h2v1h1v1ZM24,12v1h-1v1h-2v-2h1v-1h2v1Z"/>
  <path class="st0" d="M24,29v-4h-1v-4h-1v-3h-1v-1h-6v1h-1v3h-1v4h-1v6h1v1h1v1h8v-1h1v-1h1v-2ZM17,21h-2v-2h1v1h1v1ZM21,20v1h-2v-1h1v-1h1v1Z"/>
  <path class="st2" d="M15,20v-1h6v1h1s0-1,0-1v-1h-1v-1h-6v1h-1v2h1Z"/>
  <polygon class="st3" points="14 11 13 11 12 11 12 12 12 13 13 13 13 14 14 14 15 14 15 13 15 12 14 12 14 11"/>
  <polygon class="st3" points="16 19 15 19 15 20 15 21 16 21 17 21 17 20 16 20 16 19"/>
  <rect class="st3" x="14" y="17" width="1" height="1"/>
  <polygon class="st3" points="14 20 14 19 14 18 13 18 13 19 13 20 13 21 14 21 14 20"/>
  <polygon class="st3" points="13 24 13 23 13 22 13 21 12 21 12 22 12 23 12 24 12 25 13 25 13 24"/>
  <rect class="st3" x="8" y="25" width="1" height="1"/>
  <rect class="st3" x="7" y="24" width="1" height="1"/>
  <rect class="st3" x="6" y="23" width="1" height="1"/>
  <polygon class="st3" points="7 16 7 15 6 15 6 16 6 17 7 17 7 16"/>
  <rect class="st3" x="7" y="14" width="1" height="1"/>
  <polygon class="st3" points="9 13 9 12 9 11 9 10 9 9 8 9 8 10 8 11 8 12 8 13 8 14 9 14 9 13"/>
  <polygon class="st3" points="10 8 10 7 10 6 9 6 9 7 9 8 9 9 10 9 10 8"/>
  <rect class="st3" x="10" y="5" width="1" height="1"/>
  <rect class="st3" x="11" y="4" width="1" height="1"/>
  <rect class="st3" x="12" y="3" width="1" height="1"/>
  <rect class="st3" x="13" y="2" width="10" height="1"/>
  <rect class="st3" x="5" y="17" width="1" height="6"/>
  <polygon class="st3" points="12 29 12 28 12 27 12 26 12 25 11 25 11 26 10 26 9 26 9 27 10 27 11 27 11 28 11 29 11 30 11 31 12 31 12 30 12 29"/>
  <rect class="st3" x="13" y="32" width="1" height="1"/>
  <rect class="st3" x="12" y="31" width="1" height="1"/>
  <rect class="st3" x="14" y="33" width="8" height="1"/>
  <polygon class="st3" points="17 17 18 17 19 17 20 17 21 17 21 16 20 16 19 16 18 16 17 16 16 16 15 16 15 17 16 17 17 17"/>
  <polygon class="st3" points="17 17 18 17 19 17 20 17 21 17 21 16 20 16 19 16 18 16 17 16 16 16 15 16 15 17 16 17 17 17"/>
  <polygon class="st3" points="22 11 22 12 21 12 21 13 21 14 22 14 23 14 23 13 24 13 24 12 24 11 23 11 22 11"/>
  <polygon class="st3" points="20 20 19 20 19 21 20 21 21 21 21 20 21 19 20 19 20 20"/>
  <rect class="st3" x="21" y="17" width="1" height="1"/>
  <polygon class="st3" points="22 20 22 21 23 21 23 20 23 19 23 18 22 18 22 19 22 20"/>
  <polygon class="st3" points="23 23 23 24 23 25 24 25 24 24 24 23 24 22 24 21 23 21 23 22 23 23"/>
  <polygon class="st3" points="25 26 25 25 24 25 24 26 24 27 24 28 24 29 24 30 24 31 25 31 25 30 25 29 25 28 25 27 26 27 27 27 27 26 26 26 25 26"/>
  <rect class="st3" x="27" y="25" width="1" height="1"/>
  <rect class="st3" x="28" y="24" width="1" height="1"/>
  <rect class="st3" x="29" y="23" width="1" height="1"/>
  <polygon class="st3" points="29 17 30 17 30 16 30 15 29 15 29 16 29 17"/>
  <rect class="st3" x="28" y="14" width="1" height="1"/>
  <polygon class="st3" points="27 11 27 12 27 13 27 14 28 14 28 13 28 12 28 11 28 10 28 9 27 9 27 10 27 11"/>
  <polygon class="st3" points="26 8 26 9 27 9 27 8 27 7 27 6 26 6 26 7 26 8"/>
  <rect class="st3" x="25" y="5" width="1" height="1"/>
  <rect class="st3" x="24" y="4" width="1" height="1"/>
  <rect class="st3" x="23" y="3" width="1" height="1"/>
  <rect class="st3" x="30" y="17" width="1" height="6"/>
  <rect class="st3" x="22" y="32" width="1" height="1"/>
  <rect class="st3" x="23" y="31" width="1" height="1"/>
</svg>