<?xml version="1.0" encoding="UTF-8"?>
<svg id="Layer_1" xmlns="http://www.w3.org/2000/svg" version="1.1" viewBox="0 0 41 41">
  <!-- Generator: Adobe Illustrator 29.2.1, SVG Export Plug-In . SVG Version: 2.1.0 Build 116)  -->
  <defs>
    <style>
      .st0 {
        fill: #fff;
      }
    </style>
  </defs>
  <polygon class="st0" points="37 4 33 4 33 0 8 0 8 4 4 4 4 8 0 8 0 33 4 33 4 37 8 37 8 41 33 41 33 37 37 37 37 33 41 33 41 8 37 8 37 4"/>
  <circle class="st0" cx="20.5" cy="20.5" r="20.5"/>
  <path d="M11.3,24.7c-.7.4-1,1.3-.5,2,.4.7,1.3,1,2,.5l-1.5-2.6ZM30.8,16.4c.2-.8-.3-1.6-1.1-1.8l-13-3.5c-.8-.2-1.6.3-1.8,1.1-.2.8.3,1.6,1.1,1.8l11.6,3.1-3.1,11.6c-.2.8.3,1.6,1.1,1.8.8.2,1.6-.3,1.8-1.1l3.5-13ZM12.8,27.3l17.3-10-1.5-2.6-17.3,10,1.5,2.6Z"/>
</svg>