<?xml version="1.0" encoding="UTF-8"?>
<svg id="Layer_1" xmlns="http://www.w3.org/2000/svg" version="1.1" viewBox="0 0 30 30">
  <!-- Generator: Adobe Illustrator 29.3.1, SVG Export Plug-In . SVG Version: 2.1.0 Build 151)  -->
  <defs>
    <style>
      .st0 {
        fill: #b3b3b3;
      }
    </style>
  </defs>
  <path class="st0" d="M27.1,5.9v-2.9h-2.9V0H5.9v2.9h-2.9v2.9H0v18.3h2.9v2.9h2.9v2.9h18.3v-2.9h2.9v-2.9h2.9V5.9h-2.9ZM18.4,23.7l-4.6-6.7-5.8,6.7h-1.5l6.6-7.7L6.5,6.3h5.1l4.4,6.4,5.5-6.4h1.5l-6.3,7.4h0l6.9,10h-5.1Z"/>
  <polygon class="st0" points="15.2 13.6 10.8 7.4 8.5 7.4 13.9 15.1 14.6 16.1 14.6 16.1 19.1 22.6 21.4 22.6 15.8 14.6 15.2 13.6"/>
</svg>