<?xml version="1.0" encoding="UTF-8"?>
<svg id="Layer_1" xmlns="http://www.w3.org/2000/svg" version="1.1" viewBox="0 0 30 30">
  <!-- Generator: Adobe Illustrator 29.3.1, SVG Export Plug-In . SVG Version: 2.1.0 Build 151)  -->
  <defs>
    <style>
      .st0 {
        fill: #b3b3b3;
      }
    </style>
  </defs>
  <polygon class="st0" points="13.3 17.5 17.7 15 13.3 12.5 13.3 17.5"/>
  <path class="st0" d="M27.1,5.9v-2.9h-2.9V0H5.9v2.9h-2.9v2.9H0v18.3h2.9v2.9h2.9v2.9h18.3v-2.9h2.9v-2.9h2.9V5.9h-2.9ZM23.1,19.1c-.2.7-.8,1.3-1.5,1.5-1.3.4-6.6.4-6.6.4,0,0-5.3,0-6.6-.4-.7-.2-1.3-.8-1.5-1.5-.4-1.3-.4-4.1-.4-4.1,0,0,0-2.8.4-4.1.2-.7.8-1.3,1.5-1.5,1.3-.4,6.6-.4,6.6-.4,0,0,5.3,0,6.6.4.7.2,1.3.8,1.5,1.5.4,1.3.4,4.1.4,4.1,0,0,0,2.8-.4,4.1Z"/>
</svg>